<?xml version="1.0" encoding="UTF-8"?>
<svg id="Camada_1" data-name="Camada 1" xmlns="http://www.w3.org/2000/svg" viewBox="0 0 158.92 90.1">
  <defs>
    <style>
      .cls-1 {
        stroke-width: 0px;
      }
    </style>
  </defs>
  <path class="cls-1" d="m96.5,12.56v-3.62h2.13c1.7,0,2.77.43,2.55,1.7,0,1.49-1.28,1.92-2.55,1.92h-2.13Zm0-9.59h1.91c1.7,0,2.34.64,2.34,1.49,0,1.06-.64,1.7-2.13,1.7h-2.13v-3.19Zm8.74,8.1c0-2.13-1.49-3.41-3.19-3.62,1.49-.64,2.55-1.7,2.55-3.41,0-3.19-2.98-4.05-5.32-4.05h-6.17v15.55h6.17c2.98,0,5.96-1.07,5.96-4.47h0Z"/>
  <path class="cls-1" d="m110.56,13.41c-.64,0-1.49-.21-1.49-1.07,0-1.28,1.92-1.49,3.41-1.49h.43v.21c0,1.49-.85,2.34-2.34,2.34m2.55,1.06v1.06h3.19v-5.53c0-4.05-1.49-5.75-5.11-5.75-1.7,0-3.62.64-4.9,1.92l1.92,2.13c.64-.64,1.7-1.06,2.77-1.06s1.92.43,1.92,1.49v.21c-3.19,0-7.03.43-7.03,3.62,0,2.55,2.34,3.41,4.05,3.41,1.49,0,2.55-.64,3.19-1.49"/>
  <path class="cls-1" d="m121.64,9.58c0-1.28.64-2.34,1.92-2.34s1.7,1.06,1.7,2.34v5.96h3.41v-6.81c0-2.13-1.06-4.47-4.05-4.47-1.49,0-2.77.85-3.19,1.91v-1.49h-3.41v10.87h3.62v-5.96h0Z"/>
  <path class="cls-1" d="m136.13,15.98c1.7,0,3.19-.64,4.05-1.49l-1.92-2.34c-.43.64-1.28.85-1.92.85-1.49,0-2.55-1.28-2.55-2.77s1.06-2.77,2.55-2.77c.64,0,1.49.43,1.92.85l1.92-2.34c-.85-.85-2.55-1.49-4.05-1.49-3.41,0-6.17,2.13-6.17,5.75s2.77,5.75,6.17,5.75"/>
  <path class="cls-1" d="m146.56,7.24c1.7,0,2.55,1.49,2.55,2.77s-.85,2.77-2.55,2.77-2.55-1.49-2.55-2.77.85-2.77,2.55-2.77m0,8.74c3.19,0,5.96-2.34,6.17-5.96,0-3.62-2.77-5.75-6.17-5.75s-6.17,2.13-6.17,5.75,2.98,5.96,6.17,5.96"/>
  <path class="cls-1" d="m29.82,75.83c-9.38,0-16.4-7.46-16.4-17.25s7.03-17.25,16.19-17.25,16.19,7.46,16.19,17.25c.21,9.8-6.6,17.25-15.98,17.25m1.06-48.36c-5.53,0-10.65,1.49-14.7,4.68l-2.55,1.92V4.67L0,8.72v80.1h13.85v-5.11l2.55,1.91c4.26,2.98,9.16,4.47,14.91,4.47,15.76,0,28.76-14.06,28.55-31.31-.21-17.47-13.21-31.53-28.97-31.31"/>
  <path class="cls-1" d="m88.41,52.19l-1.49-.64c-6.39-2.34-9.38-4.05-9.38-7.25,0-3.62,3.62-4.9,7.03-4.9s7.67,1.06,7.67,6.39v2.77h13.63v-2.77c0-11.51-8.74-19.6-21.3-19.6-13.42,0-20.66,9.16-20.66,18.1,0,12.78,10.65,16.62,19.17,19.81l.85.21c6.6,2.34,9.8,4.05,9.8,7.03,0,3.83-4.26,5.32-8.1,5.32-4.26,0-9.59-1.28-9.59-7.25v-2.98h-13.63v2.98c0,12.36,9.38,20.45,23.22,20.45,12.57,0,21.73-7.89,21.73-18.53,0-12.14-10.44-15.98-18.96-19.17v.02Z"/>
  <path class="cls-1" d="m157,80.1c-1.06,0-1.92.85-1.92,1.92s.85,1.92,1.92,1.92,1.92-.85,1.92-1.92-.85-1.7-1.92-1.92"/>
  <path class="cls-1" d="m137.41,81.8c-.64-.43,0-1.06.85-1.06h14.7v-5.32h-21.08l9.16-8.95c7.46-7.25,10.87-13.64,10.87-20.45,0-10.02-7.03-20.02-20.45-20.02-10.02,0-20.87,6.39-20.87,20.02v2.34h13.63v-2.34c0-4.68,2.55-7.03,7.46-7.03,3.41,0,6.81,1.7,6.81,6.81,0,4.05-4.05,8.53-7.03,11.51l-13.42,13.42c-4.68,4.68-7.25,11.08-7.25,17.68h42.61v-5.32h-14.7c-.64,0-1.28-.64-1.28-1.28h-.02Z"/>
</svg>