<?xml version="1.0" encoding="UTF-8"?>
<svg id="Camada_1" data-name="Camada 1" xmlns="http://www.w3.org/2000/svg" viewBox="0 0 168.36 45.64">
  <defs>
    <style>
      .cls-1 {
        stroke-width: 0px;
      }
    </style>
  </defs>
  <path class="cls-1" d="m10.28,29.1h5.14v8.6c-.74.35-2.08.67-4.27.67-5.57,0-9.4-3.56-9.4-10.75s4.04-10.68,9.7-10.68c2.04,0,3.46.39,4.52.88l.54-1.37c-.87-.43-2.7-.92-4.95-.92C4.56,15.52,0,20.32,0,27.86c0,4.02,1.31,7.19,3.2,9.06,2.22,2.15,4.89,2.86,7.69,2.86s5.03-.67,6.19-1.13v-10.9h-6.81v1.34h0Z"/>
  <path class="cls-1" d="m23.04,25h-.06l-.06-3.47h-1.31c.06,1.61.12,3.43.12,5.12v13.23h1.39v-10.33c0-.57.03-1.15.09-1.68.3-2.76,1.64-4.96,3.61-4.96.21,0,.4,0,.54.04v-1.76c-.15,0-.3-.04-.48-.04-1.85,0-3.28,1.76-3.85,3.86h.01Z"/>
  <path class="cls-1" d="m45.93,21.13h-1.95v11.7c0,.73-.13,1.37-.3,1.96-.64,1.57-2.46,3.55-5.3,3.55-3.64,0-4.74-2.76-4.74-6.5v-10.7h-1.95v11.05c0,6.16,3.44,7.68,6.23,7.68,3.22,0,5.3-1.84,6.14-3.21h.09l.13,2.83h1.82c-.09-1.35-.17-2.76-.17-4.51v-13.84Z"/>
  <path class="cls-1" d="m56.05,37.6c-2.2,0-4.34-1.35-5.05-4.21-.11-.43-.14-.89-.14-1.35v-3.64c0-.46.12-.97.18-1.43.6-2.57,2.79-4.43,5.13-4.43,3.64,0,5.5,3.57,5.5,7.39,0,4.36-1.9,7.67-5.61,7.67m.52-16.46c-2.56,0-4.54,1.11-5.76,3.32h-.08l-.12-2.96h-1.64c.08,1.42.15,3.04.15,5.43v18.72h1.71v-9.5h.08c1.01,1.75,2.86,2.85,5.2,2.85,3.83,0,7.28-2.89,7.28-9.14,0-5.39-2.86-8.71-6.83-8.71"/>
  <path class="cls-1" d="m73.45,38.41h-.04c-3.35,0-5.44-3.85-5.44-7.87,0-3.6,1.55-7.94,5.51-7.94s5.51,4.68,5.51,7.83c0,4.12-2.16,7.98-5.54,7.98m.15-17.27c-3.82,0-7.32,3.18-7.32,9.47,0,5.92,3.17,9.25,7.06,9.25h.04c3.45,0,7.31-2.81,7.31-9.48,0-5.84-3.03-9.25-7.1-9.25h0Z"/>
  <path class="cls-1" d="m125.79,7.08c.69-.12,1.47-.23,3.23-.23s3.26.43,4.24,1.21c.3.24.55.51.76.82.06.08.12.17.16.25.38.65.58,1.41.58,2.29,0,2.26-1.11,3.83-3.08,4.5-.7.24-1.49.37-2.39.37h-3.51V7.08h0Zm8.71,12.15c1.29-.37,2.51-.75,3.66-1.17.18-.07.37-.13.54-.19,2.87-1.79,4.22-4.6,4.22-7.58,0-.45-.03-.89-.09-1.32-.08-.57-.2-1.11-.37-1.63-.12-.36-.25-.7-.41-1.03-.21-.45-.46-.88-.75-1.29-.06-.09-.13-.18-.19-.26-.7-.91-1.56-1.66-2.53-2.23-1.06-.7-2.18-1.19-3.44-1.54-.89-.24-1.87-.42-2.97-.52-1.16-.12-2.46-.16-3.95-.16-4.05,0-8.36.35-10.49.82v20.8c1.61-.12,3.26-.26,4.94-.45,4.46-.48,8.37-1.3,11.8-2.27l.02.02Z"/>
  <path class="cls-1" d="m101.23,18.24s-1.82.06-2.28-.09V7.25c.22-.04.79-.1.79-.1.59-.06,1.28-.11,1.97-.11h.17c2.29.04,4.01.79,4.95,2.25.45.71.74,1.57.82,2.6,0,.13,0,.29.02.43v.21c0,.19-.01.35-.02.52-.23,3.15-2.58,5.16-6.42,5.16h-.01Zm8.21,4.09v-.02c1.98-.66,3.98-2.48,5.17-5.16.26-.59.48-1.23.66-1.91.08-.31.15-.63.21-.97.14-.77.22-1.59.23-2.45v-.05c0-.1,0-.18,0-.28-.02-.84-.09-1.64-.23-2.4-.44-2.34-1.49-4.2-3.06-5.58-1.07-.94-2.28-1.64-3.71-2.13-1.97-.68-4.37-.98-7.45-.98-4.32,0-7.74.27-10.34.74v20.09c.37.06.77.11,1.16.17,2.58.35,5.79.65,9.5.81,2.42.11,5.04.15,7.86.11h.01Z"/>
  <path class="cls-1" d="m150.89,11.38c.52-.4.98-.77,1.36-1.1.53-.45.94-.84,1.24-1.13.12-.11.22-.21.32-.3.83-.92,2.27-1.53,4.34-1.53,3.51,0,5.32,1.11,6.76,1.88l.62-2.48,1.01-4.01.18-.72c-2.13-1.06-4.37-1.99-8.41-1.99-5.2,0-9.13,1.96-11.39,5.01-.38.51-.71,1.05-.99,1.63-.08.14-.16.29-.21.44-.35.79-.61,1.63-.77,2.51-.14.75-.21,1.52-.21,2.31,0,1.12.15,2.17.42,3.13,2.43-1.29,4.33-2.56,5.73-3.64v-.02Z"/>
  <path class="cls-1" d="m159.77,17.67c-4.43-1.69-6.47-2.71-6.66-4.8-2.14,1.77-4.56,3.37-7.2,4.76,1.49,2.86,4.51,4.89,8.63,6.33,4.32,1.56,5.49,2.85,5.49,5.11s-1.97,3.93-5.71,3.93c-3.04,0-6-.85-8.15-1.84-.67-.31-1.27-.61-1.82-.9.09-.54.15-1.08.15-1.67,0-3.78-2.15-6.54-5.14-8.05-3.28,1.2-6.77,2.16-10.42,2.82h-.04s0,.03,0,.05c3.88.08,7.05,1.32,7.05,4.86,0,3.76-3.26,5.22-6.94,5.22-1.38,0-2.35,0-3.15-.11v-9.52c-2.74.42-5.44.71-8.06.93v13.32s-.42-1.17-.84-2.73c-.54-1.99-1.23-4.3-1.84-6.42-.5-1.75-1.24-2.96-2.14-3.87-3.99.18-7.69.17-10.94.08v.05c2.22.53,4.16,2.02,5.18,5.52,1.36,4.68,2.16,7.42,2.56,8.77,0,0,16.36.02,17.13.02,7.88,0,11.23-1.14,13.85-3.24.05-.04.1-.09.14-.14,1.02.69,2.82,1.64,5.5,2.51,2.09.65,4.74,1.13,7.42,1.13,9.87,0,14.51-5.22,14.51-11.29,0-5.11-2.24-8.44-8.59-10.81h0Z"/>
  <path class="cls-1" d="m90.91,39.51h8.06v-14.47c-3.58-.18-6.38-.45-8.06-.64v15.11Z"/>
</svg>