<?xml version="1.0" encoding="UTF-8"?>
<svg id="Camada_1" data-name="Camada 1" xmlns="http://www.w3.org/2000/svg" viewBox="0 0 213.25 42.54">
  <defs>
    <style>
      .cls-1 {
        stroke-width: 0px;
      }
    </style>
  </defs>
  <path class="cls-1" d="m122.45,29.17c0,.82,0,1.45-.82,1.86-.42.2-2.48,1.24-3.93,2.07-.62.42-1.45.42-2.27,0-.82-.42-1.03-.42-2.07-1.04-.62-.42-1.03-1.03-1.03-1.65,0-.82-.2-3.11-.2-3.93s.2-1.45,1.24-2.07c.42-.2,2.28-1.24,2.89-1.45.82-.42,1.86-.42,2.48-.42.42,0,2.27.62,2.89.82.62.2.82.83.82,1.45v4.35h0Zm21.51,4.13c-1.45,0-2.07.2-2.48.2-.82,0-1.24.2-1.45,1.65-.2,1.65-.2,2.69-1.65,3.31-1.45.62-2.07.82-2.69.82-1.24.2-1.66.2-2.89,0-1.65-.42-2.27-.82-3.31-2.27-.2-.42-.82-1.24-1.24-2.69,0-.2-.2-.82-.2-1.24.2-3.11.62-16.55.62-16.96,0-1.24.2-2.28-.82-3.31-1.03-1.03-2.27-2.48-2.48-2.48-1.04-.82-1.86-1.24-3.51-1.24-2.07,0-6-.2-6.42-.2-1.45,0-1.24,0-2.48.62-1.24.62-2.89,1.86-3.51,2.27-.83.42-1.03,1.04-1.24,1.86-.2,1.03-.42,2.27-.62,3.51-.2.82.2,1.24,1.03,1.24.2,0,2.48-.2,3.73-.2.82,0,1.24-.2,1.45-1.24,0-.2.62-1.86,1.03-2.89.2-.62.62-1.24,1.24-1.24,1.04-.2,1.24-.2,1.86-.2,1.24-.2,1.45,0,1.86.2.2.2,1.03.62,1.86,1.24.42.42.82.62.82,1.66v3.11c0,.42.2,1.65-.62,1.45-1.04-.2-2.07-.82-4.34-1.04-.42,0-1.24-.2-1.86,0-1.03.42-2.69,1.04-2.89,1.04-1.65.62-2.07.82-4.13,1.86-1.45.62-2.07,1.45-2.27,3.11-.2,1.65-.42,6-.42,6.42,0,1.45.62,2.69,1.66,3.51,1.65,1.24,3.31,2.48,3.73,2.89,1.03.83,2.69,1.03,4.13.42,1.86-1.03,5.79-2.89,6-3.11,0,0,.42-.42.62-.2,0,.2.2.62.2.62,0,.2.42.42.62.62,1.03,1.04,1.86,1.86,2.69,2.69,1.86,1.86,2.07,2.07,4.34,2.69,2.48.62,2.69.62,3.11.62s.82.42,4.34-.2c3.51-.62,3.73-.62,4.13-.62s1.86-.2,2.27-2.48c.62-2.28.82-3.73,1.03-4.13.2-.83.62-1.86-.82-1.66l-.03-.02Z"/>
  <path class="cls-1" d="m40.55,30.81c-.42.2-2.89,1.45-4.34,2.27-.62.2-1.24.2-1.86,0-.42-.2-1.45-.82-2.27-1.03-.62-.2-.82-.82-1.03-1.65,0-.42-.2-2.69-.2-3.93,0-.42,0-1.24.62-1.86.2-.2,1.45-.82,1.86-1.03.82-.42,1.65-.82,2.27-1.03.82-.2,1.45-.2,3.11.2.42,0,1.66.42,1.86.62.42.42.42.82.42,1.24v5.17c.2.2.2.62-.42,1.03h0Zm8.48,4.96c-.82-.62-1.86-1.45-2.27-1.86-.2-.2-.42-.42-.42-.82.2-3.11,1.66-16.75,1.66-17.17.2-1.24-.2-2.27-1.24-3.31-1.04-1.03-2.27-2.27-2.27-2.48-1.04-1.03-2.48-1.45-3.93-1.45-2.07,0-5.58-.2-5.79-.2-1.45,0-2.27.2-3.51,1.03-1.03.62-2.48,1.45-2.69,1.65-.82.62-1.24,1.04-1.24,1.86-.2,1.24-.62,3.31-.62,3.51-.2.82.2,1.24,1.03,1.24.2,0,2.48-.2,3.73-.2.82,0,1.03-.2,1.45-1.24,0-.2.82-2.07,1.03-3.11.2-.62.62-.82,1.24-1.03.82-.2,2.07-.2,2.27-.42.62,0,1.04,0,1.66.42.2.2,1.65,1.03,1.86,1.24.2.2.62.62.62,1.45v4.35s0,.62-.82.42c-1.24-.42-4.13-1.45-5.38-1.03-.82.2-2.28.82-2.69.82-.82.42-2.27,1.04-3.73,1.65-1.45.82-2.07,1.24-2.27,1.45-.82.82-1.04,2.07-1.04,3.11-.2,1.66-.42,5.38-.42,5.58,0,1.24.42,2.27,1.65,3.31,1.45,1.24,3.51,2.69,3.93,2.89,1.04.82,3.11.82,3.93.42,2.07-1.03,6.2-3.11,6.42-3.31.13,0,.27.07.42.2,0,.14.07.28.2.42,0,.2.2.42.42.62,1.04.82,2.89,2.48,3.11,2.48.62.62,1.24.62,1.86.2,1.45-.82,2.27-1.24,2.48-1.45.2-.42,0-.82-.62-1.24h-.01Z"/>
  <path class="cls-1" d="m87.08,30.61c-.42.2-2.89,1.45-4.34,2.27-.62.2-1.24.2-1.86,0-.42-.2-1.45-.82-2.28-1.03-.62-.2-.82-.82-1.03-1.66,0-.42-.2-2.69-.2-3.93,0-.42,0-1.24.62-1.86.2-.2,1.45-.82,1.86-1.03.82-.42,1.66-.82,2.27-1.04.82-.2,1.45-.2,3.11.2.42.2,1.65.42,1.86.62.42.42.42.82.42,1.24v5.17c.2.42,0,.82-.42,1.03h0Zm6.2,3.11c-.2-.2-.42-.42-.42-.82.2-3.11,1.66-16.75,1.66-17.17.2-1.24-.2-2.27-1.24-3.31-1.03-1.03-2.27-2.27-2.27-2.48-1.04-1.04-2.48-1.45-3.93-1.45-2.07,0-5.58-.2-5.8-.2-1.45,0-2.27.2-3.51,1.04-1.03.62-2.48,1.45-2.69,1.65-.82.62-1.24,1.03-1.24,1.86-.2,1.24-.62,3.31-.62,3.51-.2.82.2,1.24,1.03,1.24.2,0,2.48-.2,3.73-.2.82,0,1.03-.2,1.45-1.24,0-.2.82-2.07,1.04-3.11.2-.62.62-.82,1.24-1.03.82-.2,2.07-.2,2.27-.42.62,0,1.03,0,1.65.42.2.2,1.65,1.03,1.86,1.24.2.2.62.62.62,1.45v4.34s0,.62-.82.42c-1.24-.42-4.13-1.45-5.38-1.04-.82.2-2.27.82-2.69.82-.82.42-2.27,1.03-3.73,1.65-1.45.82-2.07,1.24-2.27,1.45-.82.82-1.03,2.07-1.03,3.11-.2,1.65-.42,5.38-.42,5.58,0,1.24.42,2.27,1.65,3.31,1.45,1.24,3.51,2.69,3.93,2.89,1.03.82,3.11.82,3.93.42,2.07-1.03,6.2-3.31,6.42-3.31s.2,0,.42.2v.42c0,.2.2.42.42.62,1.04.83,2.89,2.48,3.11,2.48.62.62,1.24.62,1.86.2,1.45-.82,2.27-1.24,2.48-1.45.42-.2.2-.62-.42-1.24-.82-.62-1.86-1.45-2.27-1.86"/>
  <path class="cls-1" d="m173.13,30.61c-.42.2-2.89,1.45-4.34,2.28-.62.2-1.24.2-1.86,0-.42-.2-1.45-.82-2.28-1.04-.62-.2-.82-.82-1.03-1.65,0-.42-.2-2.69-.2-3.93,0-.42,0-1.24.62-1.86.2-.2,1.45-.82,1.86-1.04.82-.42,1.66-.82,2.28-1.03.82-.2,1.45-.2,3.11.2.42,0,1.65.42,1.86.62.42.42.42.82.42,1.24v5.17c.2.42,0,.82-.42,1.04h0Zm6.2,3.31c-.2-.2-.42-.42-.42-.82.2-3.11,1.65-16.75,1.65-17.17.2-1.24-.2-2.27-1.24-3.31-1.03-1.03-2.27-2.27-2.27-2.48-1.04-1.04-2.48-1.45-3.93-1.45-2.07,0-5.58-.2-5.79-.2-1.45,0-2.27.2-3.51,1.04-1.03.62-2.48,1.45-2.69,1.65-.82.62-1.24,1.03-1.24,1.86-.2,1.24-.62,3.31-.62,3.51-.2.82.2,1.24,1.03,1.24.2,0,2.48-.2,3.73-.2.82,0,1.04-.2,1.45-1.24,0-.2.82-2.07,1.04-3.11.2-.62.62-.82,1.24-1.03.82-.2,2.07-.2,2.28-.42.62,0,1.03,0,1.65.42.2.2,1.65,1.03,1.86,1.24.2.2.62.62.62,1.45v4.34s0,.62-.82.42c-1.24-.42-4.13-1.45-5.38-1.03-.82.2-2.27.82-2.69.82-.82.42-2.27,1.03-3.73,1.65-1.45.82-2.07,1.24-2.27,1.45-.82.82-1.04,2.07-1.04,3.11-.2,1.65-.42,5.38-.42,5.58,0,1.24.42,2.27,1.65,3.31,1.45,1.24,3.51,2.69,3.93,2.89,1.03.82,3.11.82,3.93.42,2.07-1.03,6.2-3.11,6.42-3.31.14,0,.27.07.42.2,0,.14.07.27.2.42,0,.2.2.42.42.62,1.04.82,2.89,2.48,3.11,2.48.62.62,1.24.62,1.86.2,1.45-.82,2.27-1.24,2.48-1.45,0-.42-.2-.82-.62-1.24-.82-.62-1.86-1.45-2.27-1.86h-.01Z"/>
  <path class="cls-1" d="m70.74,8.48h-2.48c-.82,0-1.45.62-1.65,1.24-1.24,4.13-5.58,19.24-5.79,19.86-.2.62-.62.62-.82,0-.2-.62-3.51-19.44-3.51-19.86-.2-.62-.42-1.04-1.45-1.24h-4.13c-1.04,0-1.65.2-1.45,1.24.2.82,5.17,20.89,6.62,26.06.2.82,1.04,1.24,1.86,1.03.62,0,1.45-.2,1.86-.2.82-.2,1.45,0,2.27.2.2,0,.62.2,1.03.2.62.2,1.24-.42,1.45-1.24.2-.62,5.79-20.06,7.24-25.44.2-1.04-.2-1.86-1.03-1.86h-.01Z"/>
  <path class="cls-1" d="m103.21,16.95h-3.93c-1.03,0-1.45.2-1.45,1.45v17.79c0,.82.42,1.45,1.24,1.45h2.07c1.04,0,1.45-.42,1.45-1.45.42-4.35,1.45-17.58,1.65-18.2,0-.42-.42-1.03-1.03-1.03"/>
  <path class="cls-1" d="m20.06,11.58c-1.03-1.24-1.45-1.24-3.11-1.24h-4.96c-1.24,0-2.27.42-2.89,1.04-.42.42-1.65,1.86-1.65,1.86,0,0-.2.42-.42.42s-.2-.2-.2-.62c.2-1.86.62-9.31.82-11.58,0-.82-.2-1.45-1.24-1.45-.42,0-3.73.2-5.17.2C.42.2,0,.82,0,1.44c0,.42.42,29.79.42,34.55,0,.42.2.62.62.62h3.73c.42,0,.62-.2.62-.42s.82-11.79.82-15.72c0-1.45.62-3.11,1.24-3.51.62-.41,1.86-1.45,2.48-1.86.42-.62.82-.62,1.24-.62h2.27c.41,0,.83.14,1.24.42.2.2.62.42,1.03.82.62.42.82.82.82,1.65,0,.2.42,14.06.42,17.58,0,1.04.2,1.66,1.04,1.66h2.69c.82,0,1.04-.82,1.04-1.66,0-.2.82-14.06,1.03-17.78.2-1.45-.2-2.28-.82-3.31,0,.2-1.04-1.04-1.86-2.27h0Z"/>
  <path class="cls-1" d="m151.2,10.75c-.62-.62-1.45-.82-2.27-.82-1.65,0-4.13.2-4.96.2-1.24,0-1.86.42-2.48,1.03-.62.82-1.65,1.86-1.65,1.86-.82.82-1.03.42-1.03-.42,0-.62.2-2.07.2-2.69,0-1.24-.62-1.45-1.65-1.45h-3.11c-1.86,0-2.28,0-2.28,2.27v24.41c0,1.04.62,1.65,1.24,1.65h2.89c.42,0,1.04-.62,1.24-1.65.2-4.13,1.03-15.72,1.03-16.34,0-.82.42-1.45,1.04-1.86.82-.62,2.07-1.65,2.48-2.07.42-.42.82-.42,1.45-.42h2.28c.42,0,.82,0,1.45.42.42.2,1.24,1.04,1.45,1.45.42.42.62.62.62,1.24,0,3.73.2,16.55.2,17.58s.42,1.65,1.03,1.65h2.27c.62,0,1.04-.42,1.24-1.24.42-3.93,1.45-15.93,1.65-17.17.2-2.27-.2-2.69-1.24-3.93-1.24-1.65-2.27-2.89-3.11-3.73h.01Z"/>
  <path class="cls-1" d="m101.35,14.48c2.06,0,3.73-1.67,3.73-3.73s-1.67-3.73-3.73-3.73-3.73,1.67-3.73,3.73,1.67,3.73,3.73,3.73"/>
  <path class="cls-1" d="m202.7,22.55c-.62-.82-.83-.82-3.51-1.65-1.65-.42-6.82-1.86-8.07-2.27-1.86-.42-2.07-.82-2.07-2.28,0-.42,0-1.03-.2-2.07,0-.82,0-1.04.82-1.45.42-.2,2.07-1.24,2.69-1.45.82-.42,1.45-.2,2.48.2.42.2,2.07.82,2.69,1.04.62.21.62.42,1.24,1.65.42.62.82.42,1.24.42l2.89-1.45c.82-.42,1.03-.82.62-1.24-.28-.41-.55-.76-.82-1.04-.42-.42-.62-.82-1.24-1.45-.41-.55-1.1-.89-2.07-1.03-1.04-.2-5.17-1.03-6.42-1.24-.62-.2-1.03,0-1.86.2-.62.2-3.51,1.65-4.34,1.86-1.86.82-2.07.82-2.27,1.24-.42.62-.2.42-1.03,1.86-1.04,1.86-1.24,2.27-1.04,2.89.42,1.03,1.04,2.89,1.66,4.55.62,1.66.62,1.86,3.93,2.69,1.86.42,7.86,2.07,8.48,2.27,1.24.42,1.24.62,1.86,1.65.2.42.42,1.24.62,1.66.2.62.62,1.45.42,2.27-.2,1.03-1.24,1.45-1.86,1.65-.62.42-2.27,1.24-3.11,1.66-1.03.42-1.24.62-2.69,0l-2.48-1.24c-.62-.2-.42-.2-1.03-.62-.42-.42-1.04-1.04-1.45-1.66-.62-.82-1.24-.62-1.86-.2-.62.2-2.89,1.45-3.31,1.65-.62.2-.62.82-.2,1.04.62.62,2.07,1.86,2.48,2.27,1.03.82,1.65,1.45,2.48,1.86,1.65.42,4.55,1.24,6.62,1.65,2.28.62,1.86.42,3.93-.42.62-.2,4.55-1.86,5.58-2.28,1.03-.62,1.24-.62,1.86-2.48.2-.82,1.04-3.51,1.24-4.34.2-1.04.42-1.86-.2-2.89-.62,0-2.07-2.69-2.69-3.51l.03.02Z"/>
  <path class="cls-1" d="m209.52,14.82c-1.92,0-3.44-1.34-3.44-3.45s1.53-3.44,3.44-3.44,3.44,1.34,3.44,3.44-1.53,3.45-3.44,3.45m0-7.16c-2.07,0-3.73,1.45-3.73,3.73s1.65,3.73,3.73,3.73,3.73-1.45,3.73-3.73-1.65-3.73-3.73-3.73"/>
  <path class="cls-1" d="m209.32,11.17h-.62v-1.24h.82c.42,0,.82,0,.82.62s-.42.62-1.03.62h0Zm1.86-.62c0-.82-.62-1.24-1.45-1.24h-1.65v4.13h.62v-1.86h.62l1.03,1.86h.82l-1.24-1.86c.82.2,1.24-.2,1.24-1.03h.01Z"/>
</svg>