<?xml version="1.0" encoding="UTF-8"?>
<svg id="Camada_1" data-name="Camada 1" xmlns="http://www.w3.org/2000/svg" viewBox="0 0 193.3 104.03">
  <defs>
    <style>
      .cls-1 {
        stroke-width: 0px;
      }
    </style>
  </defs>
  <polygon class="cls-1" points="8.3 18.52 0 59.82 14.69 59.82 22.99 18.52 8.3 18.52"/>
  <polygon class="cls-1" points="26.61 .21 11.92 .21 9.58 12.14 24.27 12.14 26.61 .21"/>
  <path class="cls-1" d="m56.63,18.52h-10.86l.43-1.92c.64-3.62,1.91-7.66,7.45-7.66,3.19,0,6.39.43,9.58,1.7l1.7-8.73c-3.41-1.28-7.03-1.92-10.65-1.92-11.71,0-20.01,7.24-22.99,18.31h-5.11l-1.7,8.52h5.11l-8.94,44.71h14.69l8.94-44.71h10.64l1.7-8.3Z"/>
  <path class="cls-1" d="m49.81,46.84c0,9.58,8.94,13.84,17.46,13.84,17.25,0,29.38-16.18,29.38-29.38,0-9.58-8.94-13.84-17.24-13.84-19.37.21-29.59,17.46-29.59,29.38"/>
  <path class="cls-1" d="m125.39,17.67c-18.95,0-29.38,17.46-29.38,29.38,0,9.58,8.94,13.84,17.46,13.84,17.24,0,29.38-16.18,29.38-29.38,0-9.58-8.94-13.84-17.46-13.84"/>
  <path class="cls-1" d="m178.4.21l-3.41,17.46c-1.92-.43-3.83-.64-5.96-.64-14.48,0-27.46,18.73-27.46,31.93,0,5.53,3.41,10.86,9.37,10.86,8.52,0,14.26-4.26,16.82-8.09h.85l-1.7,7.24h14.69L193.3.21h-14.9Z"/>
  <path class="cls-1" d="m112.62,78.98c-8.94,8.73-25.12,14.69-38.32,13.2-13.63-1.49-24.27-10.86-28.74-20.86h-.85c2.77,15.75,16.39,31.29,35.98,32.57,15.54,1.06,30.02-3.83,40.66-13.2l4.47,12.56,6.39-31.93h-29.59l10.01,7.66Z"/>
</svg>