<?xml version="1.0" encoding="UTF-8"?>
<svg id="Camada_1" data-name="Camada 1" xmlns="http://www.w3.org/2000/svg" viewBox="0 0 214.78 50.51">
  <defs>
    <style>
      .cls-1 {
        stroke-width: 0px;
      }
    </style>
  </defs>
  <polygon class="cls-1" points="121.27 16.5 121.27 10.56 112.7 10.56 101.94 22.38 91.34 10.56 82.24 10.56 82.24 16.89 94.47 30.41 82.24 43.91 82.24 49.83 91.04 49.83 101.5 38 111.99 49.71 121.44 49.71 121.44 43.55 109.01 30.04 121.27 16.5"/>
  <path class="cls-1" d="m178.78,25.36h-16.5v-.03c.83-4.13,4.5-7.06,8.73-6.97,4.04-.27,7.5,2.76,7.77,6.79v.19h0Zm-7.48-15.49v-.13c-11.71.08-19.26,8.83-19.26,20.51s7.19,20.26,19.33,20.26c9.53,0,16.01-4.87,17.59-13.22h-9.39c-1.41,2.74-4.33,4.37-7.4,4.13-5.59,0-9.29-2.91-10.14-8.36h27.49v-2.32c0-11.41-6.52-20.87-18.23-20.87"/>
  <path class="cls-1" d="m69.07,25.36h-16.5v-.03c.83-4.13,4.5-7.06,8.73-6.97,4.04-.27,7.5,2.76,7.77,6.79v.19h0Zm-7.53-15.49c-11.67-.06-19.3,8.71-19.3,20.38s7.19,20.26,19.33,20.26c9.53,0,16.01-4.87,17.59-13.22h-9.39c-1.41,2.74-4.36,4.37-7.4,4.13-5.59,0-9.29-2.91-10.14-8.36h27.52v-2.32c0-11.4-6.53-20.84-18.21-20.87"/>
  <path class="cls-1" d="m21.98,9.8c-4.04-.08-7.94,1.49-10.83,4.31l-1.39-3.54H0v39.2h11.15v-20.38c0-6.92,2.98-10.27,8.33-10.27,4.82,0,6.28,3.38,6.28,7.9v22.68h11.1v-24.27c0-9.44-5.45-15.62-14.88-15.62h0Z"/>
  <path class="cls-1" d="m209.47,40.42c-2.71,0-3.49-1.01-3.49-3.69V0h-11.12v36.51c0,7.55,3.06,13.22,11.92,13.22h7.99v-9.29l-5.3-.03h0Z"/>
  <path class="cls-1" d="m140.41,36.7v-16.89h9.24v-9.26h-9.24V0h-11.12v10.56h-4.74v9.29h4.74v16.66c0,7.55,3.06,13.22,11.92,13.22h8.57v-9.29h-5.91c-2.71,0-3.49-1.03-3.48-3.74h.01Z"/>
</svg>