<?xml version="1.0" encoding="UTF-8"?>
<svg id="Camada_1" data-name="Camada 1" xmlns="http://www.w3.org/2000/svg" viewBox="0 0 178.62 96.82">
  <defs>
    <style>
      .cls-1 {
        stroke-width: 0px;
      }
    </style>
  </defs>
  <path class="cls-1" d="m100.2,38.81s-.53-.08-1.02-.08c-3.44,0-6.14,2.31-7.15,5.22h-.09s.09-.52.09-1.28v-1.68c0-1.09-.95-1.98-2.12-1.98h-2.8v20.05h5.08v-7.77c0-1.2.17-2.31.48-3.31,1.02-3.03,3.75-4.27,6.14-4.27.79,0,1.36.08,1.36.08v-4.98h.02Z"/>
  <path class="cls-1" d="m76.75,52.01c0,.93-.37,1.76-1.1,2.48-.74.73-1.68,1.08-2.84,1.08-2.73,0-4.1-2.22-4.1-6.65,0-2.44.4-4.39,1.18-5.86.78-1.48,2.06-2.22,3.82-2.22,1.29,0,2.3.17,3.04.53v10.62h0Zm-10.25-11.61c-1.73,2.08-2.6,4.97-2.6,8.7,0,3.09.64,5.52,1.94,7.31,1.29,1.78,3.27,2.67,5.95,2.67,2.28,0,4.08-.99,5.4-2.95l.12.04v.34c0,1.12.84,2.04,1.89,2.04h2.14v-19.82c-2.45-.96-4.79-1.43-7.03-1.43-3.46,0-6.07,1.03-7.8,3.12h0Z"/>
  <path class="cls-1" d="m55,51.45c-.73,1.22-1.8,1.83-3.24,1.83s-2.65-.3-3.66-.91v-8.41c0-.85.39-1.59,1.17-2.21.77-.62,1.72-.93,2.83-.93,2.66,0,3.99,2.03,3.99,6.11,0,1.8-.36,3.31-1.08,4.53h0Zm-1.16-14.18c-1.53,0-2.85.3-3.95.91-1.1.61-1.87,1.28-2.29,2.01v-.56c0-1.01-.85-1.82-1.9-1.82h-2.14v25.6h4.55v-7.72c1.24.71,2.65,1.07,4.23,1.07,2.66,0,4.77-.88,6.32-2.63,1.56-1.75,2.33-4.28,2.33-7.57,0-6.18-2.38-9.28-7.15-9.28"/>
  <path class="cls-1" d="m55,84.86c-.73,1.22-1.8,1.83-3.24,1.83s-2.65-.3-3.66-.91v-8.41c0-.85.39-1.59,1.17-2.21.77-.62,1.72-.93,2.83-.93,2.66,0,3.99,2.03,3.99,6.11,0,1.8-.36,3.31-1.08,4.53h0Zm-1.16-14.18c-1.53,0-2.85.31-3.95.91-1.1.61-1.87,1.28-2.29,2.01v-.56c0-1.01-.85-1.82-1.9-1.82h-2.14v25.6h4.55v-7.72c1.24.71,2.65,1.07,4.23,1.07,2.66,0,4.77-.88,6.32-2.63,1.56-1.75,2.33-4.28,2.33-7.57,0-6.18-2.38-9.28-7.15-9.28"/>
  <path class="cls-1" d="m68.96,73.09c.84-1.22,2.06-1.83,3.64-1.83,1.69,0,2.53.83,2.53,2.51,0,.85-.43,1.58-1.32,2.2-.87.62-1.83,1.01-2.85,1.19-1.03.17-2.17.28-3.41.31.09-1.69.55-3.16,1.39-4.37h.01Zm4.06,12.66c-1.75,0-3.05-.45-3.89-1.34-.84-.89-1.32-2.06-1.39-3.51,2.37,0,4.5-.27,6.39-.82,1.12-.33,2.09-.76,2.87-1.27.78-.52,1.45-1.24,1.98-2.15.53-.92.8-1.97.8-3.18,0-1.8-.62-3.2-1.86-4.2-1.24-1-2.92-1.5-5.03-1.5-3.3,0-5.86,1.09-7.7,3.28-1.83,2.19-2.75,4.9-2.75,8.12s.8,5.77,2.41,7.61c1.61,1.85,4.13,2.77,7.57,2.77,1.72,0,3.25-.26,4.59-.78,1.34-.52,2.29-1.03,2.86-1.52l-1.61-3.32c-1.75,1.2-3.49,1.81-5.25,1.81h.01Z"/>
  <path class="cls-1" d="m155.74,85.95c-.92,0-1.6-.23-2.03-.7-.44-.46-.66-1.28-.66-2.44v-10.42h5.06l.41-3.33h-5.47v-4.2h-2.67c-.55,1.42-1.15,2.54-1.81,3.31-.66.78-1.64,1.22-2.92,1.33l-.41,2.89h2.92v10.58c0,1.7.03,3.66,1.29,4.96,1.26,1.31,3.36,1.61,5.09,1.61,2.11,0,3.85-.46,5.22-1.39l-1.24-3.05c-.93.55-1.86.83-2.78.83h-.01Z"/>
  <path class="cls-1" d="m139.04,61.97c-.86,0-1.56.28-2.09.84-.53.56-.79,1.26-.79,2.1s.26,1.53.79,2.06c.53.53,1.23.8,2.09.8s1.57-.27,2.11-.8c.54-.53.81-1.22.81-2.06s-.27-1.54-.81-2.1c-.54-.56-1.25-.84-2.11-.84"/>
  <path class="cls-1" d="m169.16,85.97c-.93,0-1.7-.22-2.33-.66-1.42-.99-2.13-3.4-2.13-7.24,0-2.07.37-3.71,1.1-4.9.74-1.2,1.89-1.8,3.46-1.8s2.69.63,3.36,1.88c.67,1.25,1.01,3.1,1.01,5.52,0,4.8-1.49,7.19-4.46,7.19v.02Zm8.79-12.53c-.45-1.32-1-2.33-1.64-3.03-.64-.7-1.53-1.31-2.66-1.84-1.13-.53-2.52-.79-4.15-.79-2.35,0-4.49.74-6.43,2.21-1.01.79-1.82,1.93-2.42,3.42-.6,1.49-.9,3.23-.9,5.26,0,3.6.8,6.31,2.42,8.16,1.61,1.84,3.84,2.76,6.7,2.76s5.2-.97,7.03-2.9c1.83-1.94,2.74-4.78,2.74-8.55,0-1.8-.22-3.36-.68-4.68"/>
  <path class="cls-1" d="m121.24,73.09c.84-1.22,2.06-1.83,3.64-1.83,1.69,0,2.54.83,2.54,2.51,0,.85-.44,1.58-1.32,2.2-.87.62-1.83,1.01-2.85,1.19-1.03.17-2.17.28-3.41.31.09-1.69.55-3.16,1.39-4.37h.01Zm4.06,12.66c-1.75,0-3.05-.45-3.89-1.34-.84-.89-1.31-2.06-1.39-3.51,2.37,0,4.5-.27,6.39-.82,1.12-.33,2.09-.76,2.87-1.27.79-.52,1.45-1.24,1.98-2.15.53-.92.8-1.97.8-3.18,0-1.8-.62-3.2-1.86-4.2-1.24-1-2.92-1.5-5.03-1.5-3.3,0-5.86,1.09-7.7,3.28-1.83,2.19-2.75,4.9-2.75,8.12s.8,5.77,2.41,7.61c1.61,1.85,4.13,2.77,7.57,2.77,1.72,0,3.25-.26,4.59-.78,1.33-.52,2.29-1.03,2.85-1.52l-1.61-3.32c-1.75,1.2-3.49,1.81-5.25,1.81h.01Z"/>
  <path class="cls-1" d="m108.44,68.22c0-1.02.21-1.76.64-2.27.43-.49,1.2-.74,2.33-.74s2.33.3,3.61.9l1.16-2.89c-1.68-.84-3.61-1.27-5.78-1.27s-3.81.49-4.94,1.48c-1.2,1.04-1.81,2.74-1.81,5.1v1.37h-3.45v3.04h3.45v15.14h4.78v-15.14h5.94v-3.04h-5.94v-1.7.02Z"/>
  <path class="cls-1" d="m89.14,74.45h-.09s.09-.52.09-1.28v-1.68c0-1.09-.95-1.98-2.11-1.98h-2.8v20.05h5.09v-7.77c0-1.2.17-2.31.48-3.31,1.02-3.03,3.75-4.27,6.14-4.27.79,0,1.36.08,1.36.08v-4.98s-.53-.08-1.02-.08c-3.44,0-6.14,2.31-7.15,5.22"/>
  <rect class="cls-1" x="136.88" y="69.23" width="4.36" height="20.33"/>
  <path class="cls-1" d="m25.02,24.28h-12.51c-5.96,0-10.98-3.93-12.51-9.25v16.21c0,8.95,7.15,16.21,15.98,16.21s15.98-7.26,15.98-16.21c0-1.82-.62-3.48-1.64-4.81-1.35-1.33-3.22-2.15-5.28-2.15"/>
  <path class="cls-1" d="m48.9,15.49c0-8.55-7.17-15.49-15.98-15.49H12.51C5.88,0,.48,5.22.48,11.65s5.39,11.65,12.03,11.65h12.51c4.46,0,8.12,3.4,8.38,7.66,8.59-.24,15.5-7.1,15.5-15.48h-.01Z"/>
</svg>