<?xml version="1.0" encoding="UTF-8"?>
<svg id="Camada_1" data-name="Camada 1" xmlns="http://www.w3.org/2000/svg" viewBox="0 0 185.65 76.45">
  <defs>
    <style>
      .cls-1 {
        stroke-width: 0px;
      }
    </style>
  </defs>
  <polygon class="cls-1" points="76.65 0 63.66 5.77 63.66 12.15 76.65 8.24 76.65 0"/>
  <path class="cls-1" d="m170.61,14.83c-3.92,0-7.21,1.44-10.31,4.33v-3.5h-9.07v36.89h9.27v-19.58c0-5.15,2.26-9.27,8.45-9.27,5.77,0,7.42,4.33,7.42,9.27v19.58h9.27v-22.46c-.2-8.45-5.15-15.25-15.04-15.25"/>
  <path class="cls-1" d="m119.51,29.67c1.24-4.53,4.74-6.8,9.07-6.8s7.62,1.86,8.86,6.8h-17.93Zm9.07-14.84c-10.92,0-18.54,8.65-18.54,19.16s7.62,19.16,18.54,19.16c8.86,0,14.84-4.94,17.1-11.95h-9.47c-1.24,2.27-3.3,3.5-7.01,3.5-5.57,0-8.65-2.68-9.47-7.42h27.2c0-.82.2-1.64.2-2.48-.2-13.19-8.45-19.98-18.54-19.98h-.01Z"/>
  <path class="cls-1" d="m92.93,67.79c-4.95,0-8.25-3.71-8.25-8.45s3.3-8.45,8.25-8.45,8.24,3.71,8.24,8.45-3.5,8.45-8.24,8.45m2.88-32.55l12.98-11.54v-8.03h-31.32v8.65h18.13l-11.54,10.09,7.63,8.86c-9.89.62-16.07,7.83-16.07,16.28,0,9.47,7.83,16.89,17.31,16.89s17.51-7.42,17.51-16.89c0-5.15-1.44-8.86-4.53-12.57l-10.09-11.75h-.01Z"/>
  <path class="cls-1" d="m9.07,19.36v-3.71H0v36.89h9.27v-19.37c0-5.15,2.27-9.07,9.07-9.07h2.68v-8.86h-2.06c-3.71,0-6.8,1.02-9.89,4.12"/>
  <polygon class="cls-1" points="63.88 52.54 73.15 52.54 73.15 14.42 63.88 16.68 63.88 52.54"/>
  <path class="cls-1" d="m40.38,43.88c-5.57,0-9.47-4.12-9.47-10.09s3.92-10.09,9.47-10.09,9.47,4.12,9.47,10.09c.2,6.18-3.92,10.09-9.47,10.09m.2-29.05c-10.71,0-18.96,8.45-18.96,19.16s7.21,19.16,17.93,19.16c3.71,0,7.63-1.44,10.71-4.53v4.12h9.07v-19.37c0-10.51-8.03-18.54-18.75-18.54"/>
</svg>