<?xml version="1.0" encoding="UTF-8"?>
<svg id="Camada_1" data-name="Camada 1" xmlns="http://www.w3.org/2000/svg" viewBox="0 0 227.27 81.96">
  <defs>
    <style>
      .cls-1 {
        stroke-width: 0px;
      }
    </style>
  </defs>
  <path class="cls-1" d="m74.28,38.05c-.02.21-.04.44-.06.65-2.24-1.73-5.01-2.63-8.25-2.68-6.14-8.95-16.58-14.28-27.97-14.28-13.2,0-25.1,7.26-30.21,18.23-.12-1.1-.2-2.25-.2-3.47C7.59,18.08,22.58,3.09,40.99,3.09s33.4,14.99,33.4,33.4c0,.51-.05,1.02-.11,1.55h-.01Zm-31.03,31.68c-.26.02-.52.05-.77.08-.46.05-.9.1-1.28.1-16.27,0-30.45-12.11-32.98-28.15l-.04-.22c4.63-11.28,16.54-18.83,29.82-18.83,10.85,0,20.79,4.98,26.79,13.36-9.86.5-20.04,9.13-23,19.69-1.58,5.33-1.04,10.36,1.45,13.97m26.22-.7c-.35.35-.7.7-1.05,1.02-.05.05-.1.09-.14.14-7.35,6.76-17,10.58-27.08,10.58-4.38,0-8.33-.6-12.43-1.9-4.46-1.42-8.71-3.69-12.61-6.72-6.22-5.55-9.64-12.92-9.64-20.74,0-2.54.37-5.1,1.09-7.62,3.38,15.57,17.49,27.08,33.59,27.08.43,0,.89-.05,1.37-.1.52-.06,1.07-.12,1.61-.12h1.02l-.64-.79c-2.76-3.4-3.42-8.44-1.83-13.85,2.94-10.5,13.25-19.04,22.98-19.04,3.23,0,6.14,1.03,8.64,3.09l.1.09c3.98,3.42,5.4,9.15,3.81,15.34-1.99,5.1-5,9.7-8.79,13.54h-.02ZM40.98.97c22.06,0,40.01,17.95,40.01,40.01,0,3.3-.41,6.51-1.17,9.58-.04-4.45-1.67-8.44-4.67-11.06.01-.45.05-.88.1-1.34.06-.53.11-1.09.11-1.65,0-18.96-15.41-34.37-34.37-34.37S6.61,17.55,6.61,36.51c0,1.96.22,3.7.43,5.39l.05.39c-1.02,3.03-1.55,6.1-1.55,9.14,0,5.01,1.36,9.85,3.93,14.17C4.15,58.81.97,50.26.97,40.99.97,18.93,18.92.98,40.98.98h0Zm40.98,40.01C81.96,18.39,63.58,0,40.98,0S0,18.39,0,40.98s18.39,40.98,40.98,40.98c10.8,0,20.62-4.2,27.96-11.05.05-.04.09-.09.13-.13.37-.35.74-.71,1.1-1.07.64-.64,1.27-1.3,1.88-1.99,2.69-3.13,4.8-6.38,6.48-9.97l.65-1.95h0c1.79-4.61,2.79-9.6,2.79-14.83h-.01Z"/>
  <path class="cls-1" d="m171.64,52.27c-4.48,0-8.31-3.83-8.31-8.31s3.83-8.31,8.31-8.31,8.31,3.83,8.31,8.31-3.62,8.31-8.31,8.31m53.71-.64v.21c-6.4,0-9.16-3.19-9.16-9.59V3.47h-19.39v28.77c-4.48-9.38-13.86-15.99-25.15-15.99s-20.67,6.61-25.15,15.99v-15.35h-19.18v27.07c0,4.91-2.55,8.31-6.82,8.31s-6.82-3.41-6.82-8.31v-27.07h-19.39v27.28c0,16.84,10.23,27.28,26.21,27.28,12.78,0,21.96-7.04,24.94-18.54,3.83,10.87,14.07,18.54,26.21,18.54s22.17-7.46,26-18.11c2.77,12.36,12.14,17.69,24.72,17.69h4.91v-19.39h-1.93Z"/>
</svg>