<?xml version="1.0" encoding="UTF-8"?>
<svg id="Camada_1" data-name="Camada 1" xmlns="http://www.w3.org/2000/svg" viewBox="0 0 159.96 81.98">
  <defs>
    <style>
      .cls-1 {
        fill-rule: evenodd;
      }

      .cls-1, .cls-2 {
        stroke-width: 0px;
      }
    </style>
  </defs>
  <path class="cls-2" d="m159.96,71.26c0,5.88-4.84,10.72-10.72,10.72s-10.72-4.84-10.72-10.72,4.84-10.72,10.72-10.72,10.72,4.84,10.72,10.72"/>
  <rect class="cls-2" x="139.57" y="0" width="19.13" height="54.03"/>
  <path class="cls-1" d="m49.82,71.68c-1.89,5.25-6.94,8.83-12.61,8.83-6.1,0-11.14-4-12.82-9.46L0,0h20.39c3.16,9.88,15.76,50.87,16.39,54.86h.84c.63-4,13.45-44.99,16.39-54.86h20.39l-24.59,71.68Z"/>
  <path class="cls-1" d="m104.89,0v62.22h26.48v18.5h-37.84c-5.04,0-9.25-4.2-9.25-9.25V0h20.6Z"/>
</svg>