<?xml version="1.0" encoding="UTF-8"?>
<svg id="Camada_1" data-name="Camada 1" xmlns="http://www.w3.org/2000/svg" viewBox="0 0 226.62 305">
  <defs>
    <style>
      .cls-1 {
        fill: #fff;
        stroke-width: 0px;
      }
    </style>
  </defs>
  <path class="cls-1" d="m178.22,270.76h35.08v13.19h-35.08v-13.19Zm5.81-50.45h23.11l19.48,84.69h-15.49l-17.06-82.39h2.9l-16.45,82.39h-15.49l18.99-84.69Zm-67.77,0h15.61v71.26h28.31v13.43h-43.92v-84.69Zm-57.48,50.45h35.08v13.19h-35.08v-13.19Zm5.81-50.45h23.11l19.48,84.69h-15.49l-17.06-82.39h2.9l-16.45,82.39h-15.49l18.99-84.69Zm-64.58,0h44.64v13.43H15.61v21.78h26.62v13.43H15.61v36.05H0v-84.69Zm111.66-23.59l34.24-70.29,8.59,10.53h-39.92v-13.43h44.76v10.65l-35.21,71.02-5.81-10.4h41.26v13.43h-47.91v-11.49Zm-52.88-22.74h35.08v13.19h-35.08v-13.19Zm5.81-50.45h23.11l19.48,84.69h-15.49l-17.06-82.39h2.9l-16.45,82.39h-15.49l18.99-84.69Zm-64.58,0h44.64v13.43H15.61v21.78h26.62v13.43H15.61v36.05H0v-84.69ZM23.23,0h16.45l-11.98,18.99h-8.71L23.23,0ZM0,26.74h45.01v13.43H15.61v20.81h26.74v13.55H15.61v23.47h29.76v13.43H0V26.74Z"/>
</svg>
