<?xml version="1.0" encoding="UTF-8"?>
<svg id="Camada_1" data-name="Camada 1" xmlns="http://www.w3.org/2000/svg" viewBox="0 0 169.23 28.68">
  <defs>
    <style>
      .cls-1 {
        fill: #fff;
        stroke-width: 0px;
      }
    </style>
  </defs>
  <path class="cls-1" d="m158.72,8.85c-3.08,0-4.51,2.53-4.51,7.74s1.54,7.7,4.51,7.7c3.12,0,4.55-2.53,4.55-7.7s-1.43-7.74-4.55-7.74m-.12,19.83c-7.4,0-10.36-5.47-10.36-11.98,0-7.22,3.16-12.24,10.75-12.24s10.25,5.69,10.25,11.9c0,7.29-3.08,12.31-10.63,12.31h0Zm-13.91-4.58c.77,0,1.89-.11,2.39-.3v4.43c-.89.26-2.62.45-3.97.45-4.16,0-7.36-1.75-7.36-7.55V1.49l5.78-1.49v4.91h6.17l-.77,4.65h-5.39v11.46c0,2.23,1.16,3.09,3.16,3.09h0Zm-12.83-19.2v23.32h-5.7v-5.1h-.12c-.85,2.86-3.31,5.54-6.47,5.54-4.59,0-6.74-2.64-6.74-7.74V4.91h5.78v14.77c0,2.68.77,4.62,3.62,4.62s3.85-2.57,3.85-5.28V4.91h5.78Zm-32.55,3.94c-3.08,0-4.51,2.53-4.51,7.74s1.54,7.7,4.51,7.7c3.12,0,4.55-2.53,4.55-7.7s-1.43-7.74-4.55-7.74m-.12,19.83c-7.4,0-10.36-5.47-10.36-11.98,0-7.22,3.16-12.24,10.75-12.24s10.25,5.69,10.25,11.9c0,7.29-3.08,12.31-10.63,12.31h0Zm-26.62-12.16c0,4.95,1.7,7.85,4.7,7.85,2.73,0,3.7-2.08,3.7-4.87h5.47c0,6.06-3.51,9.19-9.13,9.19-6.86,0-10.71-4.2-10.71-12.16,0-6.14,2.97-12.05,10.71-12.05,5.7,0,9.13,3.38,9.13,9.08h-5.47c0-2.38-.85-4.72-3.78-4.72-3.77,0-4.62,4.17-4.62,7.7m-21.88,5.02c0,1.71,1.16,2.9,3.12,2.9,2.62,0,4.2-2.05,4.2-5.69v-1.78l-3.7.86c-2.35.56-3.62,1.86-3.62,3.72h0Zm13.02,6.7h-5.59v-5.1h-.12c-.69,3.5-3.08,5.54-6.24,5.54-4.59,0-6.86-3.16-6.86-6.77,0-5.88,5.93-7.44,13.1-8.63v-.93c0-2.42-1.12-3.61-3.39-3.61-2.47,0-3.7,1.3-3.7,3.72h-5.39c0-5.06,3.12-8,9.21-8,6.59,0,8.98,3.42,8.98,8.15v15.63h0Zm-21.65,0h-5.78v-14.88c0-1.97-.35-4.54-3.39-4.54-2.73,0-4.47,2.05-4.47,5.47v13.95h-5.78V4.91h5.7v5.21h.12c.81-3.27,3.54-5.65,7.24-5.65,4.47,0,6.36,3.46,6.36,7.48v16.29h0ZM5.78,21.54c0,1.71,1.16,2.9,3.12,2.9,2.62,0,4.2-2.05,4.2-5.69v-1.78l-3.7.86c-2.35.56-3.62,1.86-3.62,3.72h0Zm13.02,6.7h-5.59v-5.1h-.12c-.69,3.5-3.08,5.54-6.24,5.54-4.59,0-6.86-3.16-6.86-6.77,0-5.88,5.93-7.44,13.1-8.63v-.93c0-2.42-1.12-3.61-3.39-3.61-2.47,0-3.7,1.3-3.7,3.72H.62c0-5.06,3.12-8,9.21-8,6.59,0,8.98,3.42,8.98,8.15v15.62h0Z"/>
</svg>
