<?xml version="1.0" encoding="UTF-8"?>
<svg id="Camada_1" data-name="Camada 1" xmlns="http://www.w3.org/2000/svg" viewBox="0 0 1739 983.42">
  <defs>
    <style>
      .cls-1, .cls-2, .cls-3, .cls-4 {
        stroke-width: 0px;
      }

      .cls-2 {
        fill: #fff;
      }

      .cls-3 {
        fill: #ff4a21;
      }

      .cls-4 {
        fill: #e7e8de;
      }
    </style>
  </defs>
  <g>
    <path class="cls-1" d="m12.58,79.46h133.74v39.91H58.96v61.84h79.46v40.27H58.96v69.75h88.44v39.91H12.58V79.46ZM81.61,0h48.9l-35.59,56.45h-25.89L81.61,0Z"/>
    <path class="cls-1" d="m12.58,364.62h132.67v39.91H58.96v64.71h79.1v39.91H58.96v107.14H12.58v-251.67Z"/>
    <path class="cls-1" d="m204.57,364.62h68.67l57.88,251.67h-46.02l-12.94-62.56h-65.79l-12.22,62.56h-46.02l56.45-251.67Zm59.32,149.92l-25.17-122.24-24.45,122.24h49.61Z"/>
    <path class="cls-1" d="m344.42,582.13l86.29-177.6h-77.66v-39.91h133.02v31.64l-89.16,180.12h89.88v39.91h-142.37v-34.16Z"/>
    <path class="cls-4" d="m38.47,889.41c-12.94-10.43-22.59-25.29-28.94-44.58-6.35-19.29-9.53-42.48-9.53-69.57s3.24-49.19,9.71-68.49c6.47-19.29,16.18-34.15,29.12-44.58,12.94-10.43,29-15.64,48.18-15.64,16.54,0,30.74,3.66,42.6,10.97,11.86,7.31,20.91,17.92,27.14,31.82,6.23,13.9,9.35,30.68,9.35,50.33l-45.66,5.39c0-21.09-2.7-36.13-8.09-45.12s-13.36-13.48-23.91-13.48c-8.15,0-15.1,3.12-20.85,9.35-5.75,6.24-10.19,15.88-13.3,28.94-3.12,13.07-4.67,29.78-4.67,50.15s1.44,36.19,4.31,49.61c2.88,13.43,7.19,23.55,12.94,30.38,5.75,6.83,13.06,10.25,21.93,10.25,10.79,0,18.88-4.31,24.27-12.94s8.09-22.41,8.09-41.35l45.66,4.67c0,18.22-3.3,34.1-9.89,47.64-6.59,13.54-15.82,23.91-27.68,31.1s-25.71,10.79-41.53,10.79c-19.9,0-36.31-5.21-49.25-15.64Z"/>
    <path class="cls-4" d="m214.27,892.1c-10.31-7.67-17.98-18.7-23.01-33.08-5.03-14.38-7.55-31.64-7.55-51.77s2.57-37.75,7.73-52.13c5.15-14.38,12.88-25.4,23.19-33.08,10.3-7.67,23.01-11.5,38.11-11.5s28.52,3.9,38.83,11.68c10.3,7.79,17.98,18.88,23.01,33.26s7.55,31.64,7.55,51.77-2.52,37.69-7.55,51.95c-5.03,14.26-12.71,25.23-23.01,32.9-10.31,7.67-23.25,11.5-38.83,11.5s-28.17-3.83-38.47-11.5Zm52.31-30.2c3.24-4.55,5.45-11.02,6.65-19.41,1.2-8.39,1.8-20.13,1.8-35.23s-.6-26.84-1.8-35.23c-1.2-8.39-3.42-14.86-6.65-19.41-3.24-4.55-7.85-6.83-13.84-6.83s-10.31,2.22-13.66,6.65c-3.36,4.44-5.63,10.91-6.83,19.41-1.2,8.51-1.8,20.31-1.8,35.41s.6,26.55,1.8,35.05c1.2,8.51,3.47,15.04,6.83,19.59,3.35,4.56,7.91,6.83,13.66,6.83s10.61-2.28,13.84-6.83Z"/>
    <path class="cls-4" d="m493.62,745.06c-6.71,0-11.5,3-14.38,8.99-2.88,5.99-4.31,15.7-4.31,29.12v118.28h-45.3v-125.83c0-10.54-1.32-18.27-3.96-23.19-2.64-4.91-7.07-7.37-13.3-7.37-6.95,0-11.86,3-14.74,8.99-2.88,5.52-4.31,14.38-4.31,26.61v120.8h-45.3v-185.87h42.78l1.44,24.09c2.88-7.91,6.59-14.26,11.14-19.05,6.95-6.47,15.82-9.71,26.61-9.71s19.11,2.4,25.71,7.19c6.59,4.8,11.44,12.11,14.56,21.93.48,1.44.96,2.88,1.44,4.31,3.11-10.3,7.55-18.21,13.3-23.73,6.71-6.47,15.7-9.71,26.96-9.71,15.58,0,26.84,5.21,33.79,15.64,6.95,10.43,10.43,27.14,10.43,50.15v124.75h-45.3v-125.83c0-11.02-1.26-18.88-3.77-23.55s-7.01-7.01-13.48-7.01Z"/>
    <path class="cls-4" d="m589.25,839.97v-124.4h45.3v122.6c0,11.03,1.56,19.12,4.67,24.27,3.11,5.16,7.91,7.73,14.38,7.73,4.31,0,8.09-1.31,11.33-3.96,3.24-2.63,5.69-6.95,7.37-12.94,1.67-5.99,2.52-13.66,2.52-23.01v-114.69h45.3v185.87h-42.06l-1.8-28.04c-4.08,9.35-9.11,16.54-15.1,21.57-7.91,6.71-17.14,10.07-27.68,10.07s-19.05-2.34-25.53-7.01-11.21-11.8-14.2-21.39c-3-9.58-4.49-21.81-4.49-36.67Z"/>
    <path class="cls-4" d="m825.1,745.06c-5.03,0-9.29,1.26-12.76,3.78-3.48,2.52-6.06,6.65-7.73,12.4-1.68,5.75-2.52,13.3-2.52,22.65v117.56h-45.3v-185.87h42.78l1.44,27.68c4.07-9.83,9.35-17.38,15.82-22.65,7.67-6.47,17.13-9.71,28.4-9.71s19.53,2.52,26.25,7.55c6.71,5.03,11.62,12.58,14.74,22.65,3.11,10.07,4.67,22.53,4.67,37.39v122.96h-45.3v-124.4c0-7.43-.6-13.48-1.8-18.16-1.2-4.67-3.36-8.15-6.47-10.43-3.12-2.28-7.19-3.42-12.22-3.42Z"/>
    <path class="cls-4" d="m923.61,639.36h48.54v46.38h-48.54v-46.38Zm1.8,76.22h45.3v185.87h-45.3v-185.87Z"/>
    <path class="cls-4" d="m1027.15,893.18c-10.79-7.91-18.58-19.11-23.37-33.62-4.8-14.5-7.19-31.82-7.19-51.95s2.57-37.45,7.73-51.95c5.15-14.5,12.94-25.58,23.37-33.26,10.43-7.67,23.43-11.5,39.01-11.5,14.62,0,26.6,3.42,35.95,10.25s16.12,15.88,20.31,27.14c4.19,11.27,6.17,23.73,5.93,37.39l-41.71,2.88c.48-14.86-.96-25.76-4.31-32.72-3.36-6.95-8.99-10.43-16.9-10.43-6.24,0-11.09,2.34-14.56,7.01-3.48,4.67-5.81,11.45-7.01,20.31-1.2,8.87-1.8,20.49-1.8,34.87s.78,25.83,2.34,35.05c1.56,9.23,4.25,16.18,8.09,20.85,3.83,4.67,8.75,7.01,14.74,7.01,5.03,0,9.11-1.49,12.22-4.49,3.11-2.99,5.39-7.43,6.83-13.3,1.44-5.87,2.16-13.12,2.16-21.75l42.06,3.96c0,14.38-2.28,26.78-6.83,37.21-4.56,10.43-11.45,18.51-20.67,24.27-9.23,5.75-20.91,8.63-35.05,8.63-16.78,0-30.56-3.96-41.35-11.87Z"/>
    <path class="cls-4" d="m1146.15,851.48c0-13.9,4.43-26.07,13.3-36.49,8.86-10.43,21.81-18.03,38.83-22.83l31.64-8.63v-6.83c-.24-7.91-.78-14.08-1.62-18.52-.84-4.43-2.52-7.85-5.03-10.25-2.52-2.39-6.17-3.6-10.96-3.6-7.19,0-12.29,3-15.28,8.99-3,5.99-4.49,14.98-4.49,26.96l-42.06-2.88c-.24-21.57,5.33-38.05,16.72-49.43,11.38-11.38,27.14-17.08,47.28-17.08s36.49,5.52,46.2,16.54c9.71,11.03,14.56,27.92,14.56,50.69v123.32h-45.3v-28.76c-2.64,9.11-6.71,16.54-12.22,22.29-6.24,6.71-14.98,10.07-26.25,10.07-8.39,0-16-2.16-22.83-6.47s-12.29-10.48-16.36-18.52c-4.08-8.03-6.11-17.55-6.11-28.58Zm83.77-41.71l-16.9,5.39c-7.67,2.4-13,6.17-16,11.33-3,5.16-4.62,11.81-4.85,19.95,0,6.95,1.31,12.94,3.96,17.98,2.63,5.03,6.83,7.55,12.58,7.55,5.03,0,9.11-1.67,12.22-5.03,3.11-3.35,5.33-7.97,6.65-13.84,1.31-5.87,2.1-13.48,2.34-22.83v-20.49Z"/>
    <path class="cls-4" d="m1298.59,807.61c0-20.13,2.57-37.45,7.73-51.95,5.15-14.5,12.94-25.58,23.37-33.26,10.43-7.67,23.43-11.5,39.01-11.5,14.62,0,26.6,3.42,35.95,10.25s16.12,15.88,20.31,27.14c4.19,11.27,6.17,23.73,5.93,37.39l-41.71,2.88c.48-14.86-.96-25.76-4.31-32.72-3.36-6.95-8.99-10.43-16.9-10.43-6.24,0-11.09,2.34-14.56,7.01-3.48,4.67-5.81,11.45-7.01,20.31-1.2,8.87-1.8,20.49-1.8,34.87s.78,25.83,2.34,35.05c1.56,9.23,4.25,16.18,8.09,20.85,3.83,4.67,8.75,7.01,14.74,7.01,5.03,0,9.11-1.49,12.22-4.49,3.11-2.99,5.39-7.43,6.83-13.3,1.44-5.87,2.16-13.12,2.16-21.75l42.06,3.96c0,14.38-2.28,26.78-6.83,37.21-4.56,10.43-11.5,18.51-20.85,24.27-6.71,4.31-14.86,6.95-24.45,7.91l-4.31,19.41c6.95.96,12.94,3.6,17.98,7.91,6.47,5.75,9.83,12.94,10.07,21.57,0,9.11-3.42,16.42-10.25,21.93-6.83,5.51-15.52,8.27-26.07,8.27-5.99,0-11.86-.12-17.62-.36v-22.65c4.79.48,9.35.72,13.66.72,4.07,0,7.25-.84,9.53-2.52,2.28-1.68,3.29-4.08,3.06-7.19,0-3.36-1.14-5.81-3.42-7.37-2.28-1.56-5.34-2.34-9.17-2.34h-13.66l11.15-37.03c-12.94-1.2-23.85-5.03-32.72-11.5-10.79-7.91-18.58-19.11-23.37-33.62-4.8-14.5-7.19-31.82-7.19-51.95Z"/>
    <path class="cls-4" d="m1448.51,851.48c0-13.9,4.43-26.07,13.3-36.49,8.86-10.43,21.81-18.03,38.83-22.83l31.64-8.63v-6.83c-.24-7.91-.78-14.08-1.62-18.52-.84-4.43-2.52-7.85-5.03-10.25-2.52-2.39-6.17-3.6-10.96-3.6-7.19,0-12.29,3-15.28,8.99-3,5.99-4.49,14.98-4.49,26.96l-42.06-2.88c-.24-21.57,5.33-38.05,16.72-49.43,11.38-11.38,27.14-17.08,47.28-17.08s36.49,5.52,46.2,16.54c9.71,11.03,14.56,27.92,14.56,50.69v123.32h-45.3v-28.76c-2.64,9.11-6.71,16.54-12.22,22.29-6.24,6.71-14.98,10.07-26.25,10.07-8.39,0-16-2.16-22.83-6.47s-12.29-10.48-16.36-18.52c-4.08-8.03-6.11-17.55-6.11-28.58Zm77.48-168.8c-3.96-1.8-7.97-4.13-12.04-7.01-2.4-1.92-4.67-3.42-6.83-4.49-2.16-1.08-4.08-1.62-5.75-1.62-3.36,0-6.06,1.38-8.09,4.13-2.04,2.76-3.06,6.42-3.06,10.97h-24.81c0-11.98,2.7-21.69,8.09-29.12,5.39-7.43,13.12-11.15,23.19-11.15,4.79,0,8.99.78,12.58,2.34,3.6,1.56,7.67,3.9,12.22,7.01,2.39,1.68,4.67,3.12,6.83,4.31,2.16,1.2,4.31,1.8,6.47,1.8,3.11,0,5.69-1.2,7.73-3.59,2.03-2.39,3.06-6.11,3.06-11.15h25.17c0,11.99-2.7,21.7-8.09,29.12-5.39,7.43-13.25,11.15-23.55,11.15-4.8,0-9.17-.9-13.12-2.7Zm6.29,127.09l-16.9,5.39c-7.67,2.4-13,6.17-16,11.33-3,5.16-4.62,11.81-4.85,19.95,0,6.95,1.31,12.94,3.96,17.98,2.63,5.03,6.83,7.55,12.58,7.55,5.03,0,9.11-1.67,12.22-5.03,3.11-3.35,5.33-7.97,6.65-13.84,1.31-5.87,2.1-13.48,2.34-22.83v-20.49Z"/>
    <path class="cls-4" d="m1631.14,892.1c-10.31-7.67-17.98-18.7-23.01-33.08-5.03-14.38-7.55-31.64-7.55-51.77s2.57-37.75,7.73-52.13c5.15-14.38,12.88-25.4,23.19-33.08,10.3-7.67,23.01-11.5,38.11-11.5s28.52,3.9,38.83,11.68c10.3,7.79,17.98,18.88,23.01,33.26s7.55,31.64,7.55,51.77-2.52,37.69-7.55,51.95c-5.03,14.26-12.71,25.23-23.01,32.9-10.31,7.67-23.25,11.5-38.83,11.5s-28.17-3.83-38.47-11.5Zm52.31-30.2c3.24-4.55,5.45-11.02,6.65-19.41,1.2-8.39,1.8-20.13,1.8-35.23s-.6-26.84-1.8-35.23c-1.2-8.39-3.42-14.86-6.65-19.41-3.24-4.55-7.85-6.83-13.84-6.83s-10.31,2.22-13.66,6.65c-3.36,4.44-5.63,10.91-6.83,19.41-1.2,8.51-1.8,20.31-1.8,35.41s.6,26.55,1.8,35.05c1.2,8.51,3.47,15.04,6.83,19.59,3.35,4.56,7.91,6.83,13.66,6.83s10.61-2.28,13.84-6.83Z"/>
  </g>
  <g>
    <circle class="cls-3" cx="306.19" cy="780.01" r="21.42"/>
    <g>
      <path class="cls-1" d="m319.85,816.38l-13.57-36.5c-.33-.88.35-1.56,1.23-1.24l37.61,13.89c1.07.4,1.41,1.82.52,2.19l-18.81,3.68-4.79,18.5c-.38.87-1.79.53-2.18-.53Z"/>
      <path class="cls-2" d="m321.23,817.93s-.03,0-.05,0c-.79-.02-1.54-.58-1.83-1.37l-13.57-36.5c-.23-.61-.12-1.22.28-1.63.41-.41,1.01-.51,1.63-.29l37.61,13.89c.79.29,1.35,1.05,1.37,1.85.01.6-.3,1.1-.84,1.32l-.1.03-18.49,3.62-4.71,18.18c-.25.59-.73.89-1.3.89Zm-.9-1.73c.16.43.57.67.88.68.27,0,.31-.13.33-.18l4.85-18.74,19.08-3.73c.06-.03.15-.11.15-.31,0-.31-.25-.72-.68-.88l-37.61-13.89c-.22-.08-.41-.06-.52.04-.11.11-.12.3-.04.52l13.57,36.5Z"/>
    </g>
  </g>
</svg>
