<?xml version="1.0" encoding="UTF-8"?>
<svg id="Camada_1" data-name="Camada 1" xmlns="http://www.w3.org/2000/svg" viewBox="0 0 895.62 523.88">
  <defs>
    <style>
      .cls-1 {
        fill: #010101;
      }

      .cls-1, .cls-2 {
        stroke-width: 0px;
      }

      .cls-2 {
        fill: #000100;
      }
    </style>
  </defs>
  <path class="cls-1" d="m0,295.2v-.85h107.84c18.6,0,33.73-12.64,33.73-28.18v-25.87c0-16.01,15.52-29.04,34.59-29.04h90.91s97.2.01,97.2.01c18.6,0,33.73-12.64,33.73-28.18v-25.87c0-16.01,15.52-29.04,34.59-29.04h188.97c18.6,0,33.73-12.64,33.73-28.18v-25.87c0-16.01,15.52-29.04,34.59-29.04h205.76v.85h-205.76c-18.6,0-33.73,12.64-33.73,28.18v25.87c0,16.01-15.52,29.04-34.59,29.04h-188.97c-18.6,0-33.73,12.64-33.73,28.18v25.87c0,16.01-15.52,29.04-34.59,29.04h-98.06s-90.05-.01-90.05-.01c-18.6,0-33.73,12.64-33.73,28.18v25.87c0,16.01-15.52,29.04-34.59,29.04H0Z"/>
  <g>
    <path class="cls-1" d="m190.84,185.6c-1.29-.78-2.3-1.89-3.02-3.33-.73-1.44-1.09-3.12-1.09-5.05s.35-3.58,1.06-5.02c.71-1.44,1.69-2.55,2.96-3.34,1.26-.79,2.72-1.18,4.36-1.18,1.49,0,2.78.25,3.87.76s1.98,1.23,2.64,2.17c.66.95,1.1,2.07,1.31,3.38l-2.07.37c-.28-1.61-.89-2.82-1.82-3.65-.93-.82-2.24-1.23-3.94-1.23-1.2,0-2.27.3-3.19.92-.93.61-1.66,1.5-2.19,2.67-.53,1.17-.8,2.54-.8,4.14s.27,2.94.8,4.11c.53,1.17,1.27,2.07,2.21,2.71.95.64,2.03.95,3.25.95,1.66,0,2.97-.42,3.92-1.27s1.58-2.04,1.88-3.58l2.09.34c-.25,1.25-.71,2.36-1.38,3.3-.67.95-1.56,1.68-2.65,2.21-1.1.53-2.39.8-3.87.8-1.61,0-3.06-.39-4.35-1.17Z"/>
    <path class="cls-1" d="m207.82,185.86c-1.02-.57-1.81-1.38-2.37-2.45-.57-1.07-.85-2.34-.85-3.8s.28-2.73.85-3.79c.57-1.06,1.36-1.87,2.37-2.44,1.02-.57,2.15-.85,3.41-.85s2.41.28,3.42.85c1.01.57,1.8,1.38,2.37,2.44s.86,2.33.86,3.79-.29,2.74-.86,3.8-1.37,1.89-2.37,2.45c-1.01.57-2.15.85-3.42.85s-2.39-.28-3.41-.85Zm5.82-1.48c.67-.42,1.19-1.04,1.56-1.84.37-.8.56-1.78.56-2.93s-.18-2.1-.54-2.92c-.36-.81-.88-1.43-1.56-1.84-.68-.42-1.49-.63-2.43-.65-.92,0-1.72.21-2.4.64-.68.42-1.21,1.04-1.58,1.86-.37.81-.56,1.79-.56,2.92s.19,2.13.56,2.94c.37.81.9,1.43,1.58,1.86.68.42,1.48.64,2.4.64.94-.02,1.74-.24,2.41-.66Z"/>
    <path class="cls-1" d="m226.58,174.2c-.83,0-1.57.19-2.21.57s-1.15.95-1.51,1.71c-.36.76-.54,1.69-.54,2.78v7.24h-2.01v-13.6h1.91l.08,2.7s.04-.07.05-.11c.48-1.01,1.13-1.75,1.96-2.23s1.81-.72,2.94-.72c1.04,0,1.93.2,2.65.6.72.4,1.27.99,1.63,1.76.36.78.54,1.73.54,2.86v8.72h-1.99v-8.41c0-.85-.12-1.56-.37-2.13-.25-.57-.63-1.01-1.14-1.31-.51-.3-1.18-.45-1.99-.45Z"/>
    <path class="cls-1" d="m241.06,174.2c-.81,0-1.54.19-2.17.57-.64.38-1.13.95-1.49,1.71s-.53,1.69-.53,2.78v7.24h-2.01v-18.83h2.01v7.88-.03c.48-1.01,1.13-1.75,1.96-2.24.83-.49,1.8-.73,2.92-.73,1.04,0,1.92.2,2.64.61.72.41,1.25,1.01,1.62,1.8.36.8.54,1.75.54,2.86v8.67h-2.04v-8.41c0-1.27-.27-2.24-.82-2.9s-1.42-.99-2.62-.99Z"/>
    <path class="cls-1" d="m248.85,179.63c0-1.43.27-2.69.81-3.76s1.29-1.9,2.27-2.47c.97-.57,2.09-.85,3.37-.85s2.29.26,3.21.77c.92.51,1.63,1.26,2.13,2.25.5.99.76,2.15.76,3.47v.98h-10.47c.04,1.01.2,1.87.5,2.6.33.81.84,1.43,1.51,1.84s1.49.62,2.47.62c1.13,0,2.04-.27,2.72-.81s1.11-1.32,1.29-2.35l1.91.27c-.2.92-.56,1.72-1.09,2.41s-1.21,1.22-2.04,1.59-1.79.56-2.86.56c-1.34,0-2.5-.28-3.47-.85-.97-.57-1.71-1.38-2.23-2.45-.51-1.07-.77-2.35-.77-3.83Zm2.15-1.22h8.38c-.05-.72-.19-1.36-.4-1.91-.32-.76-.79-1.33-1.41-1.72-.62-.39-1.39-.58-2.31-.58s-1.71.21-2.36.64c-.65.42-1.15,1.04-1.48,1.86-.21.51-.35,1.09-.42,1.72Z"/>
    <path class="cls-1" d="m266.51,185.9c-1.01-.57-1.79-1.39-2.33-2.45-.55-1.06-.82-2.33-.82-3.82s.27-2.74.82-3.82c.55-1.08,1.31-1.9,2.29-2.45.98-.56,2.12-.83,3.43-.81,1.13,0,2.12.21,2.96.64.84.42,1.49,1.02,1.96,1.79.47.77.75,1.65.83,2.64l-1.91.26c-.09-1.15-.46-2.05-1.1-2.7s-1.55-.98-2.72-.98c-.95.02-1.76.23-2.43.64s-1.17,1.01-1.52,1.82c-.35.8-.53,1.8-.53,2.98s.18,2.13.53,2.96c.35.82.88,1.45,1.58,1.87.7.42,1.54.64,2.53.64.74,0,1.39-.13,1.94-.4.55-.27.98-.65,1.3-1.15.32-.5.52-1.1.61-1.79l1.88.32c-.12.94-.43,1.75-.93,2.45-.49.7-1.15,1.25-1.97,1.64-.82.4-1.77.6-2.85.6-1.36,0-2.54-.29-3.55-.86Z"/>
    <path class="cls-1" d="m278.47,167.15h2.15v3.31h-2.15v-3.31Zm.08,5.75h2.02v13.6h-2.02v-13.6Z"/>
    <path class="cls-1" d="m298.19,174.2c-1.18,0-2.09.41-2.73,1.22-.58.78-.88,1.92-.9,3.42v7.66h-2.04v-8.56c0-1.15-.26-2.06-.78-2.73-.52-.67-1.3-1.01-2.35-1.01-1.2,0-2.11.41-2.73,1.22-.6.76-.91,1.9-.93,3.42v7.66h-2.01v-13.6h1.91l.08,2.47c.35-.96.88-1.66,1.59-2.12.74-.46,1.66-.69,2.76-.69.99,0,1.82.21,2.49.64.67.42,1.17,1.03,1.51,1.8.09.21.17.43.24.66.02-.07.04-.13.05-.19.39-.99.96-1.72,1.72-2.2.76-.48,1.7-.72,2.81-.72,1.48,0,2.6.44,3.35,1.31.75.88,1.13,2.18,1.13,3.91v8.72h-2.01v-8.56c0-1.27-.25-2.21-.76-2.82-.5-.61-1.3-.92-2.4-.92Z"/>
    <path class="cls-1" d="m305.67,179.63c0-1.43.27-2.69.81-3.76s1.29-1.9,2.27-2.47c.97-.57,2.09-.85,3.37-.85s2.29.26,3.21.77c.92.51,1.63,1.26,2.13,2.25.5.99.76,2.15.76,3.47v.98h-10.47c.04,1.01.2,1.87.5,2.6.33.81.84,1.43,1.51,1.84s1.49.62,2.47.62c1.13,0,2.04-.27,2.72-.81s1.11-1.32,1.29-2.35l1.91.27c-.2.92-.56,1.72-1.09,2.41s-1.21,1.22-2.04,1.59-1.79.56-2.86.56c-1.34,0-2.5-.28-3.47-.85-.97-.57-1.71-1.38-2.23-2.45-.51-1.07-.77-2.35-.77-3.83Zm2.15-1.22h8.38c-.05-.72-.19-1.36-.4-1.91-.32-.76-.79-1.33-1.41-1.72-.62-.39-1.39-.58-2.31-.58s-1.71.21-2.36.64c-.65.42-1.15,1.04-1.48,1.86-.21.51-.35,1.09-.42,1.72Z"/>
    <path class="cls-1" d="m326.93,174.2c-.83,0-1.57.19-2.21.57s-1.15.95-1.51,1.71c-.36.76-.54,1.69-.54,2.78v7.24h-2.01v-13.6h1.91l.08,2.7s.04-.07.05-.11c.48-1.01,1.13-1.75,1.96-2.23s1.81-.72,2.94-.72c1.04,0,1.93.2,2.65.6.72.4,1.27.99,1.63,1.76.36.78.54,1.73.54,2.86v8.72h-1.99v-8.41c0-.85-.12-1.56-.37-2.13-.25-.57-.63-1.01-1.14-1.31-.51-.3-1.18-.45-1.99-.45Z"/>
    <path class="cls-1" d="m337.14,183.16v-8.67h-2.92v-1.59h2.92v-3.58h2.01v3.58h3.84v1.59h-3.84v8.51c0,.53.08.94.23,1.22.15.28.35.48.61.6.26.12.61.17,1.05.17.57,0,1.18-.06,1.86-.19v1.67c-.67.14-1.42.21-2.25.21-.74,0-1.37-.11-1.88-.32s-.91-.58-1.19-1.1c-.28-.52-.42-1.22-.42-2.11Z"/>
    <path class="cls-1" d="m348,185.86c-1.02-.57-1.81-1.38-2.37-2.45-.57-1.07-.85-2.34-.85-3.8s.28-2.73.85-3.79c.57-1.06,1.36-1.87,2.37-2.44,1.02-.57,2.15-.85,3.41-.85s2.41.28,3.42.85c1.01.57,1.8,1.38,2.37,2.44s.86,2.33.86,3.79-.29,2.74-.86,3.8-1.37,1.89-2.37,2.45c-1.01.57-2.15.85-3.42.85s-2.39-.28-3.41-.85Zm5.82-1.48c.67-.42,1.19-1.04,1.56-1.84.37-.8.56-1.78.56-2.93s-.18-2.1-.54-2.92c-.36-.81-.88-1.43-1.56-1.84-.68-.42-1.49-.63-2.43-.65-.92,0-1.72.21-2.4.64-.68.42-1.21,1.04-1.58,1.86-.37.81-.56,1.79-.56,2.92s.19,2.13.56,2.94c.37.81.9,1.43,1.58,1.86.68.42,1.48.64,2.4.64.94-.02,1.74-.24,2.41-.66Z"/>
  </g>
  <g>
    <path class="cls-1" d="m450.09,85.9h2.07v18.56h-2.07v-18.56Z"/>
    <path class="cls-1" d="m455.18,97.6c0-1.47.26-2.74.79-3.8s1.26-1.88,2.2-2.44c.94-.56,1.99-.83,3.16-.83s2.25.28,3.1.85c.72.48,1.3,1.14,1.72,1.99v-7.72h2.04v18.83h-1.94l-.05-2.81c-.48.94-1.12,1.67-1.94,2.2-.88.58-1.94.88-3.16.88-1.15,0-2.17-.28-3.06-.85s-1.6-1.39-2.11-2.47-.77-2.35-.77-3.82Zm11-.03c0-1.11-.18-2.07-.53-2.88-.35-.8-.87-1.42-1.54-1.86-.67-.43-1.47-.65-2.39-.65-1.38.02-2.47.5-3.26,1.46-.8.95-1.19,2.27-1.19,3.95,0,1.11.18,2.08.54,2.9s.88,1.45,1.54,1.88c.66.43,1.46.65,2.4.65,1.38,0,2.46-.49,3.25-1.46.79-.97,1.18-2.31,1.18-4Z"/>
    <path class="cls-1" d="m470.61,97.6c0-1.43.27-2.69.81-3.76s1.29-1.9,2.27-2.47c.97-.57,2.09-.85,3.37-.85s2.29.26,3.21.77c.92.51,1.63,1.26,2.13,2.25.5.99.76,2.15.76,3.47v.98h-10.47c.04,1.01.2,1.87.5,2.6.33.81.84,1.43,1.51,1.84s1.49.62,2.47.62c1.13,0,2.04-.27,2.72-.81s1.11-1.32,1.29-2.35l1.91.27c-.2.92-.56,1.72-1.09,2.41s-1.21,1.22-2.04,1.59-1.79.56-2.86.56c-1.34,0-2.5-.28-3.47-.85-.97-.57-1.71-1.38-2.23-2.45-.51-1.07-.77-2.35-.77-3.83Zm2.15-1.22h8.38c-.05-.72-.19-1.36-.4-1.91-.32-.76-.79-1.33-1.41-1.72-.62-.39-1.39-.58-2.31-.58s-1.71.21-2.36.64c-.65.42-1.15,1.04-1.48,1.86-.21.51-.35,1.09-.42,1.72Z"/>
    <path class="cls-1" d="m491.88,92.16c-.83,0-1.57.19-2.21.57s-1.15.95-1.51,1.71c-.36.76-.54,1.69-.54,2.78v7.24h-2.01v-13.6h1.91l.08,2.7s.04-.07.05-.11c.48-1.01,1.13-1.75,1.96-2.23s1.81-.72,2.94-.72c1.04,0,1.93.2,2.65.6.72.4,1.27.99,1.63,1.76.36.78.54,1.73.54,2.86v8.72h-1.99v-8.41c0-.85-.12-1.56-.37-2.13-.25-.57-.63-1.01-1.14-1.31-.51-.3-1.18-.45-1.99-.45Z"/>
    <path class="cls-1" d="m502.08,101.12v-8.67h-2.92v-1.59h2.92v-3.58h2.01v3.58h3.84v1.59h-3.84v8.51c0,.53.08.94.23,1.22.15.28.35.48.61.6.26.12.61.17,1.05.17.57,0,1.18-.06,1.86-.19v1.67c-.67.14-1.42.21-2.25.21-.74,0-1.37-.11-1.88-.32s-.91-.58-1.19-1.1c-.28-.52-.42-1.22-.42-2.11Z"/>
    <path class="cls-1" d="m510.44,85.11h2.15v3.31h-2.15v-3.31Zm.08,5.75h2.02v13.6h-2.02v-13.6Z"/>
    <path class="cls-1" d="m521.2,85.56c.71,0,1.4.05,2.07.16v1.7c-.67-.11-1.26-.16-1.75-.16-.69,0-1.19.16-1.51.48s-.48.82-.48,1.51v1.62h3.74v1.62h-3.74v11.98h-2.04v-11.98h-2.78v-1.62h2.78v-1.91c0-1.06.34-1.89,1.02-2.49s1.58-.9,2.69-.9Z"/>
    <path class="cls-1" d="m525.73,85.11h2.15v3.31h-2.15v-3.31Zm.08,5.75h2.02v13.6h-2.02v-13.6Z"/>
    <path class="cls-1" d="m533.66,103.87c-1.01-.57-1.79-1.39-2.33-2.45-.55-1.06-.82-2.33-.82-3.82s.27-2.74.82-3.82c.55-1.08,1.31-1.9,2.29-2.45.98-.56,2.12-.83,3.43-.81,1.13,0,2.12.21,2.96.64.84.42,1.49,1.02,1.96,1.79.47.77.75,1.65.83,2.64l-1.91.26c-.09-1.15-.46-2.05-1.1-2.7s-1.55-.98-2.72-.98c-.95.02-1.76.23-2.43.64s-1.17,1.01-1.52,1.82c-.35.8-.53,1.8-.53,2.98s.18,2.13.53,2.96c.35.82.88,1.45,1.58,1.87.7.42,1.54.64,2.53.64.74,0,1.39-.13,1.94-.4.55-.27.98-.65,1.3-1.15.32-.5.52-1.1.61-1.79l1.88.32c-.12.94-.43,1.75-.93,2.45-.49.7-1.15,1.25-1.97,1.64-.82.4-1.77.6-2.85.6-1.36,0-2.54-.29-3.55-.86Z"/>
    <path class="cls-1" d="m544.85,100.91c0-1.13.42-2.07,1.25-2.82.83-.75,2.03-1.27,3.61-1.55l4.56-.77v-.69c-.02-.64-.16-1.18-.41-1.62-.26-.44-.64-.77-1.14-.98s-1.11-.32-1.82-.32c-1.18,0-2.09.27-2.72.8-.63.53-.99,1.33-1.07,2.39l-1.88-.26c.14-1.45.7-2.57,1.67-3.37.97-.8,2.34-1.19,4.11-1.19s3.04.42,3.94,1.26c.89.84,1.34,2.05,1.34,3.62v9.07h-1.91l-.08-2.68c-.07.14-.15.28-.24.42-.5.81-1.18,1.44-2.04,1.87-.87.43-1.84.65-2.92.65-.83,0-1.56-.16-2.2-.48-.64-.32-1.14-.77-1.5-1.35s-.54-1.25-.54-1.99Zm9.41-3.58l-3.95.74c-1.18.23-2.04.56-2.57.98-.53.42-.79.98-.79,1.67,0,.74.24,1.32.73,1.72.49.41,1.18.61,2.08.61.78,0,1.5-.14,2.16-.42.66-.28,1.21-.7,1.63-1.25.41-.51.65-1.13.72-1.86v-2.2Z"/>
    <path class="cls-1" d="m558.85,97.6c0-1.47.27-2.74.82-3.82.55-1.08,1.31-1.9,2.29-2.45.98-.56,2.12-.83,3.43-.81,1.13,0,2.12.21,2.96.64.84.42,1.49,1.02,1.96,1.79.47.77.75,1.65.83,2.64l-1.91.26c-.09-1.15-.46-2.05-1.1-2.7s-1.55-.98-2.72-.98c-.95.02-1.76.23-2.43.64s-1.17,1.01-1.52,1.82c-.35.8-.53,1.8-.53,2.98s.18,2.13.53,2.96c.35.82.88,1.45,1.58,1.87.7.42,1.54.64,2.53.64.74,0,1.39-.13,1.94-.4.55-.27.98-.65,1.3-1.15.32-.5.52-1.1.61-1.79l1.88.32c-.12.94-.43,1.75-.93,2.45-.49.7-1.15,1.25-1.96,1.66-.71.34-1.52.53-2.44.58l-.64,1.99h.08c.72,0,1.3.17,1.72.5.42.33.65.8.66,1.41.02.58-.2,1.05-.65,1.41-.45.35-1.07.53-1.87.53-.58,0-1.14-.04-1.67-.11v-1.06c.51.07,1.01.11,1.49.11.42,0,.75-.08.97-.24.22-.16.32-.4.3-.72,0-.32-.11-.56-.33-.72s-.52-.24-.89-.24l-1.49.03,1.3-2.92c-1.11-.07-2.1-.34-2.97-.82-1.01-.58-1.79-1.41-2.33-2.47-.55-1.06-.82-2.33-.82-3.82Z"/>
    <path class="cls-1" d="m573.25,100.91c0-1.13.42-2.07,1.25-2.82.83-.75,2.03-1.27,3.61-1.55l4.56-.77v-.69c-.02-.64-.16-1.18-.41-1.62-.26-.44-.64-.77-1.14-.98s-1.11-.32-1.82-.32c-1.18,0-2.09.27-2.72.8-.63.53-.99,1.33-1.07,2.39l-1.88-.26c.14-1.45.7-2.57,1.67-3.37.97-.8,2.34-1.19,4.11-1.19s3.04.42,3.94,1.26c.89.84,1.34,2.05,1.34,3.62v9.07h-1.91l-.08-2.68c-.07.14-.15.28-.24.42-.5.81-1.18,1.44-2.04,1.87-.87.43-1.84.65-2.92.65-.83,0-1.56-.16-2.2-.48-.64-.32-1.14-.77-1.5-1.35s-.54-1.25-.54-1.99Zm7.01-12.59c-.29-.14-.63-.33-1.02-.58-.32-.21-.58-.37-.8-.46-.21-.1-.43-.15-.66-.15-.34,0-.61.12-.82.37-.21.25-.32.58-.32,1.01h-1.33c0-.74.2-1.39.6-1.94.4-.55.97-.82,1.71-.82.34,0,.65.06.93.19.28.12.62.31,1.01.56.37.23.66.4.86.5.2.11.43.16.68.16.34,0,.61-.12.81-.36s.31-.58.33-1.02h1.33c-.02.74-.22,1.39-.61,1.94-.39.55-.96.82-1.7.82-.37,0-.7-.07-.99-.21Zm2.4,9.01l-3.95.74c-1.18.23-2.04.56-2.57.98-.53.42-.79.98-.79,1.67,0,.74.24,1.32.73,1.72.49.41,1.18.61,2.08.61.78,0,1.5-.14,2.16-.42.66-.28,1.21-.7,1.63-1.25.41-.51.65-1.13.72-1.86v-2.2Z"/>
    <path class="cls-1" d="m590.49,103.83c-1.02-.57-1.81-1.38-2.37-2.45-.57-1.07-.85-2.34-.85-3.8s.28-2.73.85-3.79c.57-1.06,1.36-1.87,2.37-2.44,1.02-.57,2.15-.85,3.41-.85s2.41.28,3.42.85c1.01.57,1.8,1.38,2.37,2.44s.86,2.33.86,3.79-.29,2.74-.86,3.8-1.37,1.89-2.37,2.45c-1.01.57-2.15.85-3.42.85s-2.39-.28-3.41-.85Zm5.82-1.48c.67-.42,1.19-1.04,1.56-1.84.37-.8.56-1.78.56-2.93s-.18-2.1-.54-2.92c-.36-.81-.88-1.43-1.56-1.84-.68-.42-1.49-.63-2.43-.65-.92,0-1.72.21-2.4.64-.68.42-1.21,1.04-1.58,1.86-.37.81-.56,1.79-.56,2.92s.19,2.13.56,2.94c.37.81.9,1.43,1.58,1.86.68.42,1.48.64,2.4.64.94-.02,1.74-.24,2.41-.66Z"/>
  </g>
  <g>
    <path class="cls-1" d="m684.91.79h2.2l6.12,16.94,6.04-16.94h2.17l-6.84,18.56h-2.84l-6.87-18.56Z"/>
    <path class="cls-1" d="m703.23,0h2.15v3.31h-2.15V0Zm.08,5.75h2.02v13.6h-2.02V5.75Z"/>
    <path class="cls-1" d="m710.67,19.06c-.86-.37-1.53-.9-2-1.58-.48-.68-.73-1.45-.74-2.32l1.91-.32c.04,1.01.38,1.78,1.05,2.31.66.53,1.59.8,2.77.8,1.03,0,1.84-.18,2.44-.54.6-.36.9-.92.9-1.68,0-.46-.09-.83-.26-1.1-.18-.27-.44-.5-.78-.66s-.83-.32-1.45-.46l-2.52-.58c-1.11-.25-1.97-.67-2.57-1.27-.6-.6-.9-1.41-.9-2.41,0-1.17.44-2.09,1.31-2.78s2.12-1.03,3.72-1.03c1.04,0,1.95.16,2.73.48.78.32,1.4.79,1.86,1.42.46.63.73,1.38.82,2.27l-1.91.32c-.12-1.04-.49-1.78-1.1-2.2-.61-.42-1.41-.64-2.4-.64-.64,0-1.18.08-1.62.23s-.79.37-1.03.65c-.25.28-.37.65-.37,1.09,0,.35.08.66.23.93.15.27.37.49.66.66.29.18.66.32,1.1.42l2.86.69c1.2.28,2.11.74,2.72,1.37.61.63.91,1.48.91,2.56,0,.79-.22,1.49-.68,2.09-.45.6-1.08,1.07-1.9,1.39-.81.33-1.75.49-2.81.49-1.11,0-2.1-.19-2.96-.56Z"/>
    <path class="cls-1" d="m720.79,15.8c0-1.13.42-2.07,1.25-2.82.83-.75,2.03-1.27,3.61-1.55l4.56-.77v-.69c-.02-.64-.16-1.18-.41-1.62-.26-.44-.64-.77-1.14-.98s-1.11-.32-1.82-.32c-1.18,0-2.09.27-2.72.8-.63.53-.99,1.33-1.07,2.39l-1.88-.26c.14-1.45.7-2.57,1.67-3.37.97-.8,2.34-1.19,4.11-1.19s3.04.42,3.94,1.26c.89.84,1.34,2.05,1.34,3.62v9.07h-1.91l-.08-2.68c-.07.14-.15.28-.24.42-.5.81-1.18,1.44-2.04,1.87-.87.43-1.84.65-2.92.65-.83,0-1.56-.16-2.2-.48-.64-.32-1.14-.77-1.5-1.35s-.54-1.25-.54-1.99Zm7.01-12.59c-.29-.14-.63-.33-1.02-.58-.32-.21-.58-.37-.8-.46-.21-.1-.43-.15-.66-.15-.34,0-.61.12-.82.37-.21.25-.32.58-.32,1.01h-1.33c0-.74.2-1.39.6-1.94.4-.55.97-.82,1.71-.82.34,0,.65.06.93.19.28.12.62.31,1.01.56.37.23.66.4.86.5.2.11.43.16.68.16.34,0,.61-.12.81-.36s.31-.58.33-1.02h1.33c-.02.74-.22,1.39-.61,1.94-.39.55-.96.82-1.7.82-.37,0-.7-.07-.99-.21Zm2.4,9.01l-3.95.74c-1.18.23-2.04.56-2.57.98-.53.42-.79.98-.79,1.67,0,.74.24,1.32.73,1.72.49.41,1.18.61,2.08.61.78,0,1.5-.14,2.16-.42.66-.28,1.21-.7,1.63-1.25.41-.51.65-1.13.72-1.86v-2.2Z"/>
    <path class="cls-1" d="m738.03,18.72c-1.02-.57-1.81-1.38-2.37-2.45-.57-1.07-.85-2.34-.85-3.8s.28-2.73.85-3.79c.57-1.06,1.36-1.87,2.37-2.44,1.02-.57,2.15-.85,3.41-.85s2.41.28,3.42.85c1.01.57,1.8,1.38,2.37,2.44s.86,2.33.86,3.79-.29,2.74-.86,3.8-1.37,1.89-2.37,2.45c-1.01.57-2.15.85-3.42.85s-2.39-.28-3.41-.85Zm5.82-1.48c.67-.42,1.19-1.04,1.56-1.84.37-.8.56-1.78.56-2.93s-.18-2.1-.54-2.92c-.36-.81-.88-1.43-1.56-1.84-.68-.42-1.49-.63-2.43-.65-.92,0-1.72.21-2.4.64-.68.42-1.21,1.04-1.58,1.86-.37.81-.56,1.79-.56,2.92s.19,2.13.56,2.94c.37.81.9,1.43,1.58,1.86.68.42,1.48.64,2.4.64.94-.02,1.74-.24,2.41-.66Z"/>
    <path class="cls-1" d="m756.87,12.49c0-1.47.26-2.74.79-3.8s1.26-1.88,2.2-2.44c.94-.56,1.99-.83,3.16-.83s2.25.28,3.1.85c.72.48,1.3,1.14,1.72,1.99V.53h2.04v18.83h-1.94l-.05-2.81c-.48.94-1.12,1.67-1.94,2.2-.88.58-1.94.88-3.16.88-1.15,0-2.17-.28-3.06-.85s-1.6-1.39-2.11-2.47-.77-2.35-.77-3.82Zm11-.03c0-1.11-.18-2.07-.53-2.88-.35-.8-.87-1.42-1.54-1.86-.67-.43-1.47-.65-2.39-.65-1.38.02-2.47.5-3.26,1.46-.8.95-1.19,2.27-1.19,3.95,0,1.11.18,2.08.54,2.9s.88,1.45,1.54,1.88c.66.43,1.46.65,2.4.65,1.38,0,2.46-.49,3.25-1.46.79-.97,1.18-2.31,1.18-4Z"/>
    <path class="cls-1" d="m772.3,12.49c0-1.43.27-2.69.81-3.76s1.29-1.9,2.27-2.47c.97-.57,2.09-.85,3.37-.85s2.29.26,3.21.77c.92.51,1.63,1.26,2.13,2.25.5.99.76,2.15.76,3.47v.98h-10.47c.04,1.01.2,1.87.5,2.6.33.81.84,1.43,1.51,1.84s1.49.62,2.47.62c1.13,0,2.04-.27,2.72-.81s1.11-1.32,1.29-2.35l1.91.27c-.2.92-.56,1.72-1.09,2.41s-1.21,1.22-2.04,1.59-1.79.56-2.86.56c-1.34,0-2.5-.28-3.47-.85-.97-.57-1.71-1.38-2.23-2.45-.51-1.07-.77-2.35-.77-3.83Zm2.15-1.22h8.38c-.05-.72-.19-1.36-.4-1.91-.32-.76-.79-1.33-1.41-1.72-.62-.39-1.39-.58-2.31-.58s-1.71.21-2.36.64c-.65.42-1.15,1.04-1.48,1.86-.21.51-.35,1.09-.42,1.72Z"/>
    <path class="cls-1" d="m808.6,7.05c-1.18,0-2.09.41-2.73,1.22-.58.78-.88,1.92-.9,3.42v7.66h-2.04v-8.56c0-1.15-.26-2.06-.78-2.73-.52-.67-1.3-1.01-2.35-1.01-1.2,0-2.11.41-2.73,1.22-.6.76-.91,1.9-.93,3.42v7.66h-2.01V5.75h1.91l.08,2.47c.35-.96.88-1.66,1.59-2.12.74-.46,1.66-.69,2.76-.69.99,0,1.82.21,2.49.64.67.42,1.17,1.03,1.51,1.8.09.21.17.43.24.66.02-.07.04-.13.05-.19.39-.99.96-1.72,1.72-2.2.76-.48,1.7-.72,2.81-.72,1.48,0,2.6.44,3.35,1.31.75.88,1.13,2.18,1.13,3.91v8.72h-2.01v-8.56c0-1.27-.25-2.21-.76-2.82-.5-.61-1.3-.92-2.4-.92Z"/>
    <path class="cls-1" d="m816.42,14.48l.03-8.72h2.01v8.4c0,1.27.28,2.23.84,2.86.56.64,1.44.95,2.64.95.78,0,1.47-.19,2.08-.56.61-.37,1.09-.93,1.43-1.68s.52-1.68.52-2.8v-7.19h2.04v13.6h-1.94l-.08-2.76s0,.06-.03.08c-.44.99-1.07,1.73-1.88,2.21-.81.49-1.76.73-2.84.73s-1.95-.2-2.66-.58-1.26-.96-1.63-1.72c-.37-.76-.55-1.71-.53-2.84Z"/>
    <path class="cls-1" d="m837.18,7.05c-.83,0-1.57.19-2.21.57s-1.15.95-1.51,1.71c-.36.76-.54,1.69-.54,2.78v7.24h-2.01V5.75h1.91l.08,2.7s.04-.07.05-.11c.48-1.01,1.13-1.75,1.96-2.23s1.81-.72,2.94-.72c1.04,0,1.93.2,2.65.6.72.4,1.27.99,1.63,1.76.36.78.54,1.73.54,2.86v8.72h-1.99v-8.41c0-.85-.12-1.56-.37-2.13-.25-.57-.63-1.01-1.14-1.31-.51-.3-1.18-.45-1.99-.45Z"/>
    <path class="cls-1" d="m844.98,12.49c0-1.47.26-2.74.79-3.8s1.26-1.88,2.2-2.44c.94-.56,1.99-.83,3.16-.83s2.25.28,3.1.85c.72.48,1.3,1.14,1.72,1.99V.53h2.04v18.83h-1.94l-.05-2.81c-.48.94-1.12,1.67-1.94,2.2-.88.58-1.94.88-3.16.88-1.15,0-2.17-.28-3.06-.85s-1.6-1.39-2.11-2.47-.77-2.35-.77-3.82Zm11-.03c0-1.11-.18-2.07-.53-2.88-.35-.8-.87-1.42-1.54-1.86-.67-.43-1.47-.65-2.39-.65-1.38.02-2.47.5-3.26,1.46-.8.95-1.19,2.27-1.19,3.95,0,1.11.18,2.08.54,2.9s.88,1.45,1.54,1.88c.66.43,1.46.65,2.4.65,1.38,0,2.46-.49,3.25-1.46.79-.97,1.18-2.31,1.18-4Z"/>
    <path class="cls-1" d="m863.63,18.72c-1.02-.57-1.81-1.38-2.37-2.45-.57-1.07-.85-2.34-.85-3.8s.28-2.73.85-3.79c.57-1.06,1.36-1.87,2.37-2.44,1.02-.57,2.15-.85,3.41-.85s2.41.28,3.42.85c1.01.57,1.8,1.38,2.37,2.44s.86,2.33.86,3.79-.29,2.74-.86,3.8-1.37,1.89-2.37,2.45c-1.01.57-2.15.85-3.42.85s-2.39-.28-3.41-.85Zm5.82-1.48c.67-.42,1.19-1.04,1.56-1.84.37-.8.56-1.78.56-2.93s-.18-2.1-.54-2.92c-.36-.81-.88-1.43-1.56-1.84-.68-.42-1.49-.63-2.43-.65-.92,0-1.72.21-2.4.64-.68.42-1.21,1.04-1.58,1.86-.37.81-.56,1.79-.56,2.92s.19,2.13.56,2.94c.37.81.9,1.43,1.58,1.86.68.42,1.48.64,2.4.64.94-.02,1.74-.24,2.41-.66Z"/>
  </g>
  <g>
    <path class="cls-1" d="m21.82,252.58h6.18v18.56h-3.5v-16.09l-4.43,16.09h-5.17l-4.43-16.28v16.28h-3.5v-18.56h6.2l4.29,16.2,4.35-16.2Z"/>
    <path class="cls-1" d="m30.49,267.43c0-1.17.4-2.13,1.21-2.89.8-.76,2.02-1.28,3.65-1.56l4.14-.69v-.24c-.02-.48-.12-.88-.3-1.21s-.47-.57-.85-.74-.83-.25-1.37-.25c-.85,0-1.52.19-2,.58s-.76.95-.81,1.67l-3.26-.42c.19-1.45.82-2.58,1.88-3.38,1.06-.8,2.51-1.21,4.35-1.21,1.96,0,3.43.48,4.41,1.43.98.96,1.47,2.29,1.47,4v8.62h-3.31l-.19-2.57v.03c-.37.87-.93,1.55-1.67,2.05s-1.69.76-2.84.76c-.88,0-1.67-.16-2.35-.48s-1.21-.78-1.59-1.38c-.38-.6-.57-1.31-.57-2.12Zm8.99-2.97l-3,.61c-.87.18-1.49.42-1.87.73-.38.31-.57.73-.57,1.26.04.51.23.91.58,1.21.35.29.87.44,1.54.44.62,0,1.17-.11,1.66-.34.49-.23.88-.55,1.17-.97.29-.42.46-.92.49-1.5v-1.43Z"/>
    <path class="cls-1" d="m45.71,257.43h3.31l.13,3.13c.07-.23.14-.45.21-.66.35-.94.88-1.64,1.58-2.11.7-.47,1.59-.69,2.66-.68.09,0,.26,0,.5.03v3.1c-.62-.02-1.23-.03-1.83-.03-.69,0-1.26.12-1.7.36-.44.24-.78.62-1.01,1.15-.23.53-.34,1.22-.34,2.07v7.34h-3.53v-13.71Z"/>
    <path class="cls-1" d="m58.3,270.53c-1.08-.58-1.91-1.42-2.51-2.51s-.89-2.36-.89-3.8.3-2.71.89-3.79,1.42-1.91,2.48-2.49,2.28-.87,3.66-.85c1.22,0,2.28.22,3.18.66.9.44,1.61,1.05,2.12,1.83.51.78.81,1.66.9,2.65l-3.26.42c-.05-.83-.32-1.5-.79-2s-1.18-.76-2.12-.76c-.74,0-1.36.16-1.86.46-.5.31-.88.78-1.14,1.42-.27.64-.4,1.45-.4,2.44,0,.94.14,1.73.41,2.39.27.65.68,1.15,1.22,1.49s1.19.5,1.95.5c.6,0,1.1-.1,1.51-.29.41-.19.72-.48.96-.85.23-.37.39-.84.48-1.41l3.23.53c-.19.97-.57,1.82-1.13,2.55s-1.27,1.29-2.15,1.68c-.88.4-1.89.6-3.04.6-1.4,0-2.63-.29-3.71-.88Z"/>
    <path class="cls-1" d="m69.76,267.43c0-1.17.4-2.13,1.21-2.89.8-.76,2.02-1.28,3.65-1.56l4.14-.69v-.24c-.02-.48-.12-.88-.3-1.21-.19-.33-.47-.57-.85-.74-.38-.17-.84-.25-1.37-.25-.85,0-1.52.19-2,.58-.49.39-.76.95-.81,1.67l-3.26-.42c.19-1.45.82-2.58,1.88-3.38,1.06-.8,2.51-1.21,4.35-1.21,1.96,0,3.43.48,4.42,1.43.98.96,1.47,2.29,1.47,4v8.62h-3.31l-.19-2.57v.03c-.37.87-.93,1.55-1.67,2.05-.74.5-1.69.76-2.84.76-.88,0-1.67-.16-2.35-.48s-1.21-.78-1.59-1.38c-.38-.6-.57-1.31-.57-2.12Zm8.99-2.97l-3,.61c-.87.18-1.49.42-1.87.73-.38.31-.57.73-.57,1.26.04.51.23.91.58,1.21s.87.44,1.54.44c.62,0,1.17-.11,1.66-.34.49-.23.88-.55,1.17-.97.29-.42.46-.92.49-1.5v-1.43Z"/>
  </g>
  <path class="cls-1" d="m0,409.54v-.85h107.84c18.6,0,33.73-12.64,33.73-28.18v-25.87c0-16.01,15.52-29.04,34.59-29.04h90.91s97.2.01,97.2.01c18.6,0,33.73-12.64,33.73-28.18v-25.87c0-16.01,15.52-29.04,34.59-29.04h188.97c18.6,0,33.73-12.64,33.73-28.18v-25.87c0-16.01,15.52-29.04,34.59-29.04h205.76v.85h-205.76c-18.6,0-33.73,12.64-33.73,28.18v25.87c0,16.01-15.52,29.04-34.59,29.04h-188.97c-18.6,0-33.73,12.64-33.73,28.18v25.87c0,16.01-15.52,29.04-34.59,29.04h-98.06s-90.05-.01-90.05-.01c-18.6,0-33.73,12.64-33.73,28.18v25.87c0,16.01-15.52,29.04-34.59,29.04H0Z"/>
  <g>
    <path class="cls-2" d="m190.94,299.92c-1.31-.79-2.34-1.92-3.08-3.39-.74-1.47-1.11-3.18-1.11-5.14s.36-3.65,1.08-5.12,1.72-2.6,3.01-3.4c1.29-.8,2.77-1.2,4.44-1.2,1.51,0,2.83.26,3.94.77s2.01,1.25,2.69,2.21,1.12,2.11,1.34,3.44l-2.11.38c-.29-1.64-.9-2.88-1.85-3.71s-2.28-1.26-4.01-1.26c-1.22,0-2.31.31-3.25.93-.95.62-1.69,1.53-2.23,2.71-.54,1.19-.81,2.59-.81,4.21s.27,3,.81,4.18,1.29,2.11,2.25,2.75c.96.65,2.07.97,3.31.97,1.69,0,3.02-.43,4-1.3.97-.86,1.61-2.08,1.92-3.64l2.13.35c-.25,1.28-.72,2.4-1.4,3.36-.68.96-1.58,1.71-2.7,2.25-1.12.54-2.43.81-3.94.81-1.64,0-3.11-.4-4.43-1.19Z"/>
    <path class="cls-2" d="m205.3,295.87l.03-8.88h2.05v8.56c0,1.3.28,2.27.85,2.92s1.46.97,2.69.97c.79,0,1.5-.19,2.12-.57s1.11-.95,1.46-1.71c.35-.76.53-1.71.53-2.85v-7.32h2.08v13.85h-1.97l-.08-2.81s0,.06-.03.08c-.45,1.01-1.09,1.76-1.92,2.25-.83.5-1.79.74-2.89.74s-1.98-.2-2.71-.59c-.73-.4-1.28-.98-1.66-1.75-.38-.77-.56-1.74-.54-2.89Z"/>
    <path class="cls-2" d="m222.27,300.54c-.87-.38-1.55-.91-2.04-1.61s-.74-1.48-.76-2.36l1.94-.32c.04,1.03.39,1.81,1.07,2.35.67.54,1.62.81,2.82.81,1.04,0,1.87-.18,2.48-.55.61-.37.92-.94.92-1.71,0-.47-.09-.84-.27-1.12s-.45-.5-.8-.67c-.35-.17-.84-.33-1.47-.47l-2.57-.59c-1.13-.25-2.01-.68-2.62-1.3-.61-.61-.92-1.43-.92-2.46,0-1.19.45-2.13,1.34-2.83.89-.7,2.16-1.05,3.79-1.05,1.06,0,1.99.16,2.78.49s1.42.81,1.89,1.44.75,1.41.84,2.31l-1.94.32c-.13-1.06-.5-1.81-1.12-2.24s-1.44-.65-2.44-.65c-.65,0-1.2.08-1.65.23-.45.15-.8.37-1.05.66s-.38.66-.38,1.11c0,.36.08.67.23.95.15.27.38.5.68.67.3.18.67.32,1.12.43l2.92.7c1.22.29,2.15.75,2.77,1.39.62.64.93,1.51.93,2.61,0,.81-.23,1.52-.69,2.13-.46.61-1.1,1.08-1.93,1.42-.83.33-1.78.5-2.86.5-1.13,0-2.14-.19-3.01-.57Z"/>
    <path class="cls-2" d="m235.08,297.44v-8.83h-2.97v-1.62h2.97v-3.65h2.05v3.65h3.92v1.62h-3.92v8.67c0,.54.08.96.23,1.24.15.29.36.49.62.61.26.12.62.18,1.07.18.58,0,1.21-.06,1.89-.19v1.7c-.68.14-1.45.22-2.29.22-.76,0-1.39-.11-1.92-.32s-.93-.59-1.21-1.12c-.29-.53-.43-1.25-.43-2.15Z"/>
    <path class="cls-2" d="m246.14,300.19c-1.04-.58-1.84-1.41-2.42-2.5-.58-1.09-.86-2.38-.86-3.87s.29-2.78.86-3.86c.58-1.08,1.38-1.91,2.42-2.48,1.04-.58,2.19-.86,3.47-.86s2.46.29,3.48.86c1.03.58,1.83,1.4,2.42,2.48s.88,2.37.88,3.86-.29,2.79-.88,3.87-1.39,1.92-2.42,2.5c-1.03.58-2.19.86-3.48.86s-2.43-.29-3.47-.86Zm5.93-1.51c.68-.43,1.21-1.06,1.59-1.88s.57-1.81.57-2.98-.19-2.14-.55-2.97c-.37-.83-.9-1.45-1.59-1.88-.69-.42-1.52-.64-2.47-.66-.94,0-1.75.22-2.44.65-.69.43-1.23,1.06-1.61,1.89-.38.83-.57,1.82-.57,2.97s.19,2.17.57,3c.38.83.91,1.46,1.61,1.89.69.43,1.51.65,2.44.65.95-.02,1.77-.24,2.46-.67Z"/>
    <path class="cls-2" d="m258.84,292.69h7.64v1.75h-7.64v-1.75Z"/>
    <path class="cls-2" d="m269.42,281.67h2.05v7.96c.47-.92,1.1-1.63,1.89-2.13.9-.58,1.98-.86,3.24-.86,1.17,0,2.21.28,3.12.84.91.56,1.63,1.39,2.16,2.48.53,1.1.8,2.39.8,3.87s-.28,2.78-.82,3.88-1.3,1.94-2.27,2.52-2.03.88-3.2.88-2.28-.3-3.16-.89c-.77-.54-1.39-1.29-1.84-2.24l-.13,2.86h-1.84v-19.17Zm11.07,12.18c0-1.13-.18-2.11-.54-2.94s-.88-1.46-1.55-1.9c-.67-.44-1.49-.66-2.44-.66-1.39,0-2.48.49-3.28,1.47s-1.21,2.33-1.23,4.06c0,1.71.41,3.06,1.21,4.04.81.98,1.91,1.47,3.29,1.47.95,0,1.77-.22,2.46-.67.68-.45,1.2-1.09,1.55-1.92s.53-1.81.53-2.94Z"/>
    <path class="cls-2" d="m284.65,293.85c0-1.46.27-2.74.82-3.83.55-1.1,1.32-1.93,2.31-2.51.99-.58,2.13-.86,3.43-.86s2.33.26,3.27.78c.94.52,1.66,1.29,2.17,2.29.51,1.01.77,2.19.77,3.54v1h-10.67c.04,1.03.21,1.91.51,2.65.34.83.85,1.45,1.54,1.88.68.42,1.52.63,2.51.63,1.15,0,2.07-.27,2.77-.82.69-.55,1.13-1.34,1.31-2.39l1.94.27c-.2.94-.57,1.75-1.11,2.46s-1.23,1.24-2.08,1.62c-.85.38-1.82.57-2.92.57-1.37,0-2.55-.29-3.54-.86s-1.75-1.41-2.27-2.5c-.52-1.09-.78-2.39-.78-3.9Zm2.19-1.24h8.53c-.05-.74-.19-1.39-.41-1.94-.32-.77-.8-1.36-1.43-1.75-.63-.4-1.41-.59-2.35-.59s-1.74.22-2.4.65-1.17,1.06-1.51,1.89c-.22.52-.36,1.11-.43,1.75Z"/>
    <path class="cls-2" d="m306.3,288.31c-.85,0-1.6.19-2.25.58s-1.17.97-1.54,1.74c-.37.77-.55,1.72-.55,2.83v7.37h-2.05v-13.85h1.94l.08,2.75s.04-.07.05-.11c.49-1.03,1.15-1.78,2-2.27.85-.49,1.84-.73,3-.73,1.06,0,1.96.2,2.7.61.74.41,1.29,1,1.66,1.8s.55,1.76.55,2.92v8.88h-2.02v-8.56c0-.86-.13-1.59-.38-2.17-.25-.58-.64-1.03-1.16-1.34-.52-.31-1.2-.46-2.03-.46Z"/>
    <path class="cls-2" d="m314.24,293.85c0-1.46.27-2.74.82-3.83.55-1.1,1.32-1.93,2.31-2.51.99-.58,2.13-.86,3.43-.86s2.33.26,3.27.78c.94.52,1.66,1.29,2.17,2.29.51,1.01.77,2.19.77,3.54v1h-10.67c.04,1.03.21,1.91.51,2.65.34.83.85,1.45,1.54,1.88.68.42,1.52.63,2.51.63,1.15,0,2.07-.27,2.77-.82.69-.55,1.13-1.34,1.31-2.39l1.94.27c-.2.94-.57,1.75-1.11,2.46s-1.23,1.24-2.08,1.62c-.85.38-1.82.57-2.92.57-1.37,0-2.55-.29-3.54-.86s-1.75-1.41-2.27-2.5c-.52-1.09-.78-2.39-.78-3.9Zm2.19-1.24h8.53c-.05-.74-.19-1.39-.41-1.94-.32-.77-.8-1.36-1.43-1.75-.63-.4-1.41-.59-2.35-.59s-1.74.22-2.4.65-1.17,1.06-1.51,1.89c-.22.52-.36,1.11-.43,1.75Z"/>
    <path class="cls-2" d="m335.11,281.59c.72,0,1.42.05,2.11.16v1.73c-.68-.11-1.28-.16-1.78-.16-.7,0-1.21.16-1.54.49s-.49.84-.49,1.54v1.65h3.81v1.65h-3.81v12.2h-2.08v-12.2h-2.84v-1.65h2.84v-1.94c0-1.08.35-1.93,1.04-2.54.69-.61,1.61-.92,2.74-.92Z"/>
    <path class="cls-2" d="m339.81,286.96h2.05v13.88h-2.05v-13.88Zm2.03-6.24h2.54l-2.89,4.05h-1.24l1.59-4.05Z"/>
    <path class="cls-2" d="m347.8,300.23c-1.03-.58-1.82-1.42-2.38-2.5-.56-1.08-.84-2.38-.84-3.89s.28-2.79.84-3.89c.56-1.1,1.34-1.93,2.33-2.5,1-.57,2.17-.84,3.5-.82,1.15,0,2.16.22,3.01.65.85.43,1.52,1.04,2,1.82.48.78.76,1.68.85,2.69l-1.94.27c-.09-1.17-.46-2.09-1.12-2.75-.66-.67-1.58-1-2.77-1-.97.02-1.8.23-2.47.65s-1.19,1.03-1.55,1.85c-.36.82-.54,1.83-.54,3.04s.18,2.17.54,3.01c.36.84.9,1.47,1.61,1.9s1.57.65,2.58.65c.76,0,1.41-.14,1.97-.41.56-.27,1-.66,1.32-1.17.32-.51.53-1.12.62-1.82l1.92.32c-.13.95-.44,1.79-.94,2.5-.5.71-1.17,1.27-2.01,1.67-.84.41-1.8.61-2.9.61-1.39,0-2.59-.29-3.62-.88Z"/>
    <path class="cls-2" d="m359.98,281.13h2.19v3.38h-2.19v-3.38Zm.08,5.86h2.05v13.85h-2.05v-13.85Z"/>
    <path class="cls-2" d="m368.12,300.19c-1.04-.58-1.84-1.41-2.42-2.5-.58-1.09-.86-2.38-.86-3.87s.29-2.78.86-3.86c.58-1.08,1.38-1.91,2.42-2.48,1.04-.58,2.19-.86,3.47-.86s2.46.29,3.48.86c1.03.58,1.83,1.4,2.42,2.48s.88,2.37.88,3.86-.29,2.79-.88,3.87-1.39,1.92-2.42,2.5c-1.03.58-2.19.86-3.48.86s-2.43-.29-3.47-.86Zm5.93-1.51c.68-.43,1.21-1.06,1.59-1.88s.57-1.81.57-2.98-.19-2.14-.55-2.97c-.37-.83-.9-1.45-1.59-1.88-.69-.42-1.52-.64-2.47-.66-.94,0-1.75.22-2.44.65-.69.43-1.23,1.06-1.61,1.89-.38.83-.57,1.82-.57,2.97s.19,2.17.57,3c.38.83.91,1.46,1.61,1.89.69.43,1.51.65,2.44.65.95-.02,1.77-.24,2.46-.67Z"/>
  </g>
  <g>
    <path class="cls-2" d="m450.13,199.9h12.66v1.84h-10.56v6.48h9.8v1.84h-9.8v8.75h-2.11v-18.9Z"/>
    <path class="cls-2" d="m465.36,199.09h2.19v3.38h-2.19v-3.38Zm.08,5.86h2.05v13.85h-2.05v-13.85Z"/>
    <path class="cls-2" d="m470.22,211.81c0-1.49.27-2.79.81-3.87s1.29-1.92,2.24-2.48,2.03-.85,3.21-.85,2.29.29,3.16.86c.74.49,1.32,1.16,1.75,2.02v-7.86h2.08v19.17h-1.97l-.05-2.86c-.49.95-1.14,1.7-1.97,2.24-.9.59-1.97.89-3.21.89-1.17,0-2.21-.29-3.12-.86-.91-.58-1.62-1.41-2.15-2.51-.52-1.1-.78-2.39-.78-3.89Zm11.21-.03c0-1.13-.18-2.11-.54-2.93-.36-.82-.88-1.45-1.57-1.89-.68-.44-1.49-.66-2.43-.66-1.4.02-2.51.51-3.32,1.49-.81.97-1.21,2.31-1.21,4.02,0,1.13.18,2.12.55,2.96.37.84.89,1.48,1.57,1.92.68.44,1.49.66,2.44.66,1.4,0,2.51-.5,3.31-1.49.8-.99,1.2-2.35,1.2-4.08Z"/>
    <path class="cls-2" d="m485.93,211.81c0-1.46.27-2.74.82-3.83.55-1.1,1.32-1.93,2.31-2.51.99-.58,2.13-.86,3.43-.86s2.33.26,3.27.78c.94.52,1.66,1.29,2.17,2.29.51,1.01.77,2.19.77,3.54v1h-10.67c.04,1.03.21,1.91.51,2.65.34.83.85,1.45,1.54,1.88.68.42,1.52.63,2.51.63,1.15,0,2.07-.27,2.77-.82.69-.55,1.13-1.34,1.31-2.39l1.94.27c-.2.94-.57,1.75-1.11,2.46s-1.23,1.24-2.08,1.62c-.85.38-1.82.57-2.92.57-1.37,0-2.55-.29-3.54-.86s-1.75-1.41-2.27-2.5c-.52-1.09-.78-2.39-.78-3.9Zm2.19-1.24h8.53c-.05-.74-.19-1.39-.41-1.94-.32-.77-.8-1.36-1.43-1.75-.63-.4-1.41-.59-2.35-.59s-1.74.22-2.4.65-1.17,1.06-1.51,1.89c-.22.52-.36,1.11-.43,1.75Z"/>
    <path class="cls-2" d="m501.19,199.63h2.05v19.17h-2.05v-19.17Z"/>
    <path class="cls-2" d="m506.45,199.09h2.19v3.38h-2.19v-3.38Zm.08,5.86h2.05v13.85h-2.05v-13.85Z"/>
    <path class="cls-2" d="m511.18,217.37l8.15-10.85h-7.99v-1.59h10.48v1.43l-8.13,10.85h8.13v1.59h-10.64v-1.43Z"/>
    <path class="cls-2" d="m523.68,215.19c0-1.15.42-2.11,1.27-2.88.85-.77,2.07-1.29,3.67-1.58l4.64-.78v-.7c-.02-.65-.16-1.2-.42-1.65-.26-.45-.65-.78-1.16-1s-1.13-.32-1.85-.32c-1.21,0-2.13.27-2.77.81s-1,1.35-1.09,2.43l-1.92-.27c.14-1.48.71-2.62,1.7-3.43.99-.81,2.39-1.21,4.19-1.21s3.1.43,4.01,1.28c.91.86,1.36,2.08,1.36,3.69v9.23h-1.94l-.08-2.73c-.07.14-.15.29-.24.43-.5.83-1.2,1.46-2.08,1.9-.88.44-1.87.66-2.97.66-.85,0-1.59-.16-2.24-.49-.65-.32-1.16-.78-1.53-1.38s-.55-1.27-.55-2.03Zm9.58-3.64l-4.02.76c-1.21.23-2.08.57-2.62,1-.54.43-.81,1-.81,1.7,0,.76.25,1.34.74,1.75s1.2.62,2.12.62c.79,0,1.53-.14,2.2-.43.67-.29,1.23-.71,1.66-1.27.41-.52.66-1.15.73-1.89v-2.24Z"/>
    <path class="cls-2" d="m537.93,211.81c0-1.49.28-2.79.84-3.89.56-1.1,1.34-1.93,2.33-2.5,1-.57,2.17-.84,3.5-.82,1.15,0,2.16.22,3.01.65.85.43,1.52,1.04,2,1.82.48.78.76,1.68.85,2.69l-1.94.27c-.09-1.17-.46-2.09-1.12-2.75-.66-.67-1.58-1-2.77-1-.97.02-1.8.23-2.47.65s-1.19,1.03-1.55,1.85c-.36.82-.54,1.83-.54,3.04s.18,2.17.54,3.01c.36.84.9,1.47,1.61,1.9s1.57.65,2.58.65c.76,0,1.41-.14,1.97-.41.56-.27,1-.66,1.32-1.17.32-.51.53-1.12.62-1.82l1.92.32c-.13.95-.44,1.79-.94,2.5-.5.71-1.17,1.27-2,1.69-.72.34-1.55.54-2.48.59l-.65,2.03h.08c.74,0,1.32.17,1.75.51.43.34.66.82.67,1.43.02.59-.2,1.07-.66,1.43s-1.09.54-1.9.54c-.59,0-1.16-.04-1.7-.11v-1.08c.52.07,1.03.11,1.51.11.43,0,.76-.08.99-.24.22-.16.33-.4.31-.73,0-.32-.11-.57-.34-.73s-.53-.24-.9-.24l-1.51.03,1.32-2.97c-1.13-.07-2.14-.35-3.02-.84-1.03-.59-1.82-1.43-2.38-2.51-.56-1.08-.84-2.38-.84-3.89Z"/>
    <path class="cls-2" d="m552.59,215.19c0-1.15.42-2.11,1.27-2.88.85-.77,2.07-1.29,3.67-1.58l4.64-.78v-.7c-.02-.65-.16-1.2-.42-1.65-.26-.45-.65-.78-1.16-1s-1.13-.32-1.85-.32c-1.21,0-2.13.27-2.77.81s-1,1.35-1.09,2.43l-1.92-.27c.14-1.48.71-2.62,1.7-3.43.99-.81,2.39-1.21,4.19-1.21s3.1.43,4.01,1.28c.91.86,1.36,2.08,1.36,3.69v9.23h-1.94l-.08-2.73c-.07.14-.15.29-.24.43-.5.83-1.2,1.46-2.08,1.9-.88.44-1.87.66-2.97.66-.85,0-1.59-.16-2.24-.49-.65-.32-1.16-.78-1.53-1.38s-.55-1.27-.55-2.03Zm7.14-12.83c-.3-.14-.64-.34-1.04-.59-.32-.22-.59-.37-.81-.47-.22-.1-.44-.15-.68-.15-.34,0-.62.13-.84.38-.22.25-.32.59-.32,1.03h-1.35c0-.76.2-1.41.61-1.97.41-.56.99-.84,1.74-.84.34,0,.66.06.95.19s.63.32,1.03.57c.38.23.67.4.88.51s.44.16.69.16c.34,0,.62-.12.82-.36.21-.24.32-.59.34-1.04h1.35c-.02.76-.23,1.41-.62,1.97-.4.56-.97.84-1.73.84-.38,0-.71-.07-1.01-.22Zm2.44,9.18l-4.02.76c-1.21.23-2.08.57-2.62,1-.54.43-.81,1-.81,1.7,0,.76.25,1.34.74,1.75s1.2.62,2.12.62c.79,0,1.53-.14,2.2-.43.67-.29,1.23-.71,1.66-1.27.41-.52.66-1.15.73-1.89v-2.24Z"/>
    <path class="cls-2" d="m570.16,218.15c-1.04-.58-1.84-1.41-2.42-2.5-.58-1.09-.86-2.38-.86-3.87s.29-2.78.86-3.86c.58-1.08,1.38-1.91,2.42-2.48,1.04-.58,2.19-.86,3.47-.86s2.46.29,3.48.86c1.03.58,1.83,1.4,2.42,2.48s.88,2.37.88,3.86-.29,2.79-.88,3.87-1.39,1.92-2.42,2.5c-1.03.58-2.19.86-3.48.86s-2.43-.29-3.47-.86Zm5.93-1.51c.68-.43,1.21-1.06,1.59-1.88s.57-1.81.57-2.98-.19-2.14-.55-2.97c-.37-.83-.9-1.45-1.59-1.88-.69-.42-1.52-.64-2.47-.66-.94,0-1.75.22-2.44.65-.69.43-1.23,1.06-1.61,1.89-.38.83-.57,1.82-.57,2.97s.19,2.17.57,3c.38.83.91,1.46,1.61,1.89.69.43,1.51.65,2.44.65.95-.02,1.77-.24,2.46-.67Z"/>
  </g>
  <g>
    <path class="cls-2" d="m686.92,86.79h12.53v1.84h-10.42v6.4h9.67v1.84h-9.67v6.99h10.53v1.84h-12.64v-18.9Z"/>
    <path class="cls-2" d="m704.9,105.09c-1.03-.58-1.82-1.42-2.38-2.5-.56-1.08-.84-2.38-.84-3.89s.28-2.79.84-3.89c.56-1.1,1.34-1.93,2.33-2.5,1-.57,2.17-.84,3.5-.82,1.15,0,2.16.22,3.01.65.85.43,1.52,1.04,2,1.82.48.78.76,1.68.85,2.69l-1.94.27c-.09-1.17-.46-2.09-1.12-2.75-.66-.67-1.58-1-2.77-1-.97.02-1.8.23-2.47.65s-1.19,1.03-1.55,1.85c-.36.82-.54,1.83-.54,3.04s.18,2.17.54,3.01c.36.84.9,1.47,1.61,1.9s1.57.65,2.58.65c.76,0,1.41-.14,1.97-.41.56-.27,1-.66,1.32-1.17.32-.51.53-1.12.62-1.82l1.92.32c-.13.95-.44,1.79-.94,2.5-.5.71-1.17,1.27-2.01,1.67-.84.41-1.8.61-2.9.61-1.39,0-2.59-.29-3.62-.88Z"/>
    <path class="cls-2" d="m719.63,105.05c-1.04-.58-1.84-1.41-2.42-2.5-.58-1.09-.86-2.38-.86-3.87s.29-2.78.86-3.86c.58-1.08,1.38-1.91,2.42-2.48,1.04-.58,2.19-.86,3.47-.86s2.46.29,3.48.86c1.03.58,1.83,1.4,2.42,2.48s.88,2.37.88,3.86-.29,2.79-.88,3.87-1.39,1.92-2.42,2.5c-1.03.58-2.19.86-3.48.86s-2.43-.29-3.47-.86Zm5.93-1.51c.68-.43,1.21-1.06,1.59-1.88s.57-1.81.57-2.98-.19-2.14-.55-2.97c-.37-.83-.9-1.45-1.59-1.88-.69-.42-1.52-.64-2.47-.66-.94,0-1.75.22-2.44.65-.69.43-1.23,1.06-1.61,1.89-.38.83-.57,1.82-.57,2.97s.19,2.17.57,3c.38.83.91,1.46,1.61,1.89.69.43,1.51.65,2.44.65.95-.02,1.77-.24,2.46-.67Z"/>
    <path class="cls-2" d="m734.56,105.4c-.87-.38-1.55-.91-2.04-1.61s-.74-1.48-.76-2.36l1.94-.32c.04,1.03.39,1.81,1.07,2.35.67.54,1.62.81,2.82.81,1.04,0,1.87-.18,2.48-.55.61-.37.92-.94.92-1.71,0-.47-.09-.84-.27-1.12s-.45-.5-.8-.67c-.35-.17-.84-.33-1.47-.47l-2.57-.59c-1.13-.25-2.01-.68-2.62-1.3-.61-.61-.92-1.43-.92-2.46,0-1.19.45-2.13,1.34-2.83.89-.7,2.16-1.05,3.79-1.05,1.06,0,1.99.16,2.78.49s1.42.81,1.89,1.44.75,1.41.84,2.31l-1.94.32c-.13-1.06-.5-1.81-1.12-2.24s-1.44-.65-2.44-.65c-.65,0-1.2.08-1.65.23-.45.15-.8.37-1.05.66s-.38.66-.38,1.11c0,.36.08.67.23.95.15.27.38.5.68.67.3.18.67.32,1.12.43l2.92.7c1.22.29,2.15.75,2.77,1.39.62.64.93,1.51.93,2.61,0,.81-.23,1.52-.69,2.13-.46.61-1.1,1.08-1.93,1.42-.83.33-1.78.5-2.86.5-1.13,0-2.14-.19-3.01-.57Z"/>
    <path class="cls-2" d="m747.62,105.4c-.87-.38-1.55-.91-2.04-1.61s-.74-1.48-.76-2.36l1.94-.32c.04,1.03.39,1.81,1.07,2.35.67.54,1.62.81,2.82.81,1.04,0,1.87-.18,2.48-.55.61-.37.92-.94.92-1.71,0-.47-.09-.84-.27-1.12s-.45-.5-.8-.67c-.35-.17-.84-.33-1.47-.47l-2.57-.59c-1.13-.25-2.01-.68-2.62-1.3-.61-.61-.92-1.43-.92-2.46,0-1.19.45-2.13,1.34-2.83.89-.7,2.16-1.05,3.79-1.05,1.06,0,1.99.16,2.78.49s1.42.81,1.89,1.44.75,1.41.84,2.31l-1.94.32c-.13-1.06-.5-1.81-1.12-2.24s-1.44-.65-2.44-.65c-.65,0-1.2.08-1.65.23-.45.15-.8.37-1.05.66s-.38.66-.38,1.11c0,.36.08.67.23.95.15.27.38.5.68.67.3.18.67.32,1.12.43l2.92.7c1.22.29,2.15.75,2.77,1.39.62.64.93,1.51.93,2.61,0,.81-.23,1.52-.69,2.13-.46.61-1.1,1.08-1.93,1.42-.83.33-1.78.5-2.86.5-1.13,0-2.14-.19-3.01-.57Z"/>
    <path class="cls-2" d="m758.71,85.99h2.19v3.38h-2.19v-3.38Zm.08,5.86h2.05v13.85h-2.05v-13.85Z"/>
    <path class="cls-2" d="m766.28,105.4c-.87-.38-1.55-.91-2.04-1.61s-.74-1.48-.76-2.36l1.94-.32c.04,1.03.39,1.81,1.07,2.35.67.54,1.62.81,2.82.81,1.04,0,1.87-.18,2.48-.55.61-.37.92-.94.92-1.71,0-.47-.09-.84-.27-1.12s-.45-.5-.8-.67c-.35-.17-.84-.33-1.47-.47l-2.57-.59c-1.13-.25-2.01-.68-2.62-1.3-.61-.61-.92-1.43-.92-2.46,0-1.19.45-2.13,1.34-2.83.89-.7,2.16-1.05,3.79-1.05,1.06,0,1.99.16,2.78.49s1.42.81,1.89,1.44.75,1.41.84,2.31l-1.94.32c-.13-1.06-.5-1.81-1.12-2.24s-1.44-.65-2.44-.65c-.65,0-1.2.08-1.65.23-.45.15-.8.37-1.05.66s-.38.66-.38,1.11c0,.36.08.67.23.95.15.27.38.5.68.67.3.18.67.32,1.12.43l2.92.7c1.22.29,2.15.75,2.77,1.39.62.64.93,1.51.93,2.61,0,.81-.23,1.52-.69,2.13-.46.61-1.1,1.08-1.93,1.42-.83.33-1.78.5-2.86.5-1.13,0-2.14-.19-3.01-.57Z"/>
    <path class="cls-2" d="m779.09,102.29v-8.83h-2.97v-1.62h2.97v-3.65h2.05v3.65h3.92v1.62h-3.92v8.67c0,.54.08.96.23,1.24.15.29.36.49.62.61.26.12.62.18,1.07.18.58,0,1.21-.06,1.89-.19v1.7c-.68.14-1.45.22-2.29.22-.76,0-1.39-.11-1.92-.32s-.93-.59-1.21-1.12c-.29-.53-.43-1.25-.43-2.15Z"/>
    <path class="cls-2" d="m786.87,98.7c0-1.46.27-2.74.82-3.83.55-1.1,1.32-1.93,2.31-2.51.99-.58,2.13-.86,3.43-.86s2.33.26,3.27.78c.94.52,1.66,1.29,2.17,2.29.51,1.01.77,2.19.77,3.54v1h-10.67c.04,1.03.21,1.91.51,2.65.34.83.85,1.45,1.54,1.88.68.42,1.52.63,2.51.63,1.15,0,2.07-.27,2.77-.82.69-.55,1.13-1.34,1.31-2.39l1.94.27c-.2.94-.57,1.75-1.11,2.46s-1.23,1.24-2.08,1.62c-.85.38-1.82.57-2.92.57-1.37,0-2.55-.29-3.54-.86s-1.75-1.41-2.27-2.5c-.52-1.09-.78-2.39-.78-3.9Zm2.19-1.24h8.53c-.05-.74-.19-1.39-.41-1.94-.32-.77-.8-1.36-1.43-1.75-.63-.4-1.41-.59-2.35-.59s-1.74.22-2.4.65-1.17,1.06-1.51,1.89c-.22.52-.36,1.11-.43,1.75Z"/>
    <path class="cls-2" d="m816.87,93.17c-1.21,0-2.13.42-2.78,1.24-.59.79-.9,1.95-.92,3.48v7.8h-2.08v-8.72c0-1.17-.27-2.1-.8-2.78-.53-.68-1.33-1.03-2.39-1.03-1.22,0-2.15.42-2.78,1.24-.61.77-.93,1.94-.94,3.48v7.8h-2.05v-13.85h1.94l.08,2.51c.36-.97.9-1.69,1.62-2.16.76-.47,1.69-.7,2.81-.7,1.01,0,1.85.22,2.54.65.68.43,1.2,1.04,1.54,1.84.09.22.17.44.24.67.02-.07.04-.13.05-.19.4-1.01.98-1.75,1.75-2.24.77-.49,1.73-.73,2.86-.73,1.51,0,2.65.45,3.42,1.34.76.89,1.15,2.22,1.15,3.98v8.88h-2.05v-8.72c0-1.3-.26-2.25-.77-2.88-.51-.62-1.33-.93-2.44-.93Z"/>
    <path class="cls-2" d="m824.43,102.08c0-1.15.42-2.11,1.27-2.88.85-.77,2.07-1.29,3.67-1.58l4.64-.78v-.7c-.02-.65-.16-1.2-.42-1.65-.26-.45-.65-.78-1.16-1s-1.13-.32-1.85-.32c-1.21,0-2.13.27-2.77.81s-1,1.35-1.09,2.43l-1.92-.27c.14-1.48.71-2.62,1.7-3.43.99-.81,2.39-1.21,4.19-1.21s3.1.43,4.01,1.28c.91.86,1.36,2.08,1.36,3.69v9.23h-1.94l-.08-2.73c-.07.14-.15.29-.24.43-.5.83-1.2,1.46-2.08,1.9-.88.44-1.87.66-2.97.66-.85,0-1.59-.16-2.24-.49-.65-.32-1.16-.78-1.53-1.38s-.55-1.27-.55-2.03Zm9.58-3.64l-4.02.76c-1.21.23-2.08.57-2.62,1-.54.43-.81,1-.81,1.7,0,.76.25,1.34.74,1.75s1.2.62,2.12.62c.79,0,1.53-.14,2.2-.43.67-.29,1.23-.71,1.66-1.27.41-.52.66-1.15.73-1.89v-2.24Z"/>
    <path class="cls-2" d="m685.84,131.1c0-1.49.27-2.79.81-3.87s1.29-1.92,2.24-2.48,2.03-.85,3.21-.85,2.29.29,3.16.86c.74.49,1.32,1.16,1.75,2.02v-7.86h2.08v19.17h-1.97l-.05-2.86c-.49.95-1.14,1.7-1.97,2.24-.9.59-1.97.89-3.21.89-1.17,0-2.21-.29-3.12-.86-.91-.58-1.62-1.41-2.15-2.51-.52-1.1-.78-2.39-.78-3.89Zm11.21-.03c0-1.13-.18-2.11-.54-2.93-.36-.82-.88-1.45-1.57-1.89-.68-.44-1.49-.66-2.43-.66-1.4.02-2.51.51-3.32,1.49-.81.97-1.21,2.31-1.21,4.02,0,1.13.18,2.12.55,2.96.37.84.89,1.48,1.57,1.92.68.44,1.49.66,2.44.66,1.4,0,2.51-.5,3.31-1.49.8-.99,1.2-2.35,1.2-4.08Z"/>
    <path class="cls-2" d="m701.55,131.1c0-1.46.27-2.74.82-3.83.55-1.1,1.32-1.93,2.31-2.51.99-.58,2.13-.86,3.43-.86s2.33.26,3.27.78c.94.52,1.66,1.29,2.17,2.29.51,1.01.77,2.19.77,3.54v1h-10.67c.04,1.03.21,1.91.51,2.65.34.83.85,1.45,1.54,1.88.68.42,1.52.63,2.51.63,1.15,0,2.07-.27,2.77-.82.69-.55,1.13-1.34,1.31-2.39l1.94.27c-.2.94-.57,1.75-1.11,2.46s-1.23,1.24-2.08,1.62c-.85.38-1.82.57-2.92.57-1.37,0-2.55-.29-3.54-.86s-1.75-1.41-2.27-2.5c-.52-1.09-.78-2.39-.78-3.9Zm2.19-1.24h8.53c-.05-.74-.19-1.39-.41-1.94-.32-.77-.8-1.36-1.43-1.75-.63-.4-1.41-.59-2.35-.59s-1.74.22-2.4.65-1.17,1.06-1.51,1.89c-.22.52-.36,1.11-.43,1.75Z"/>
    <path class="cls-2" d="m724.01,118.39h2.19v3.38h-2.19v-3.38Zm.08,5.86h2.05v13.85h-2.05v-13.85Z"/>
    <path class="cls-2" d="m744.1,125.57c-1.21,0-2.13.42-2.78,1.24-.59.79-.9,1.95-.92,3.48v7.8h-2.08v-8.72c0-1.17-.27-2.1-.8-2.78-.53-.68-1.33-1.03-2.39-1.03-1.22,0-2.15.42-2.78,1.24-.61.77-.93,1.94-.94,3.48v7.8h-2.05v-13.85h1.94l.08,2.51c.36-.97.9-1.69,1.62-2.16.76-.47,1.69-.7,2.81-.7,1.01,0,1.85.22,2.54.65.68.43,1.2,1.04,1.54,1.84.09.22.17.44.24.67.02-.07.04-.13.05-.19.4-1.01.98-1.75,1.75-2.24.77-.49,1.73-.73,2.86-.73,1.51,0,2.65.45,3.42,1.34.76.89,1.15,2.22,1.15,3.98v8.88h-2.05v-8.72c0-1.3-.26-2.25-.77-2.88-.51-.62-1.33-.93-2.44-.93Z"/>
    <path class="cls-2" d="m752.2,124.25h1.94l.08,2.7c.47-.94,1.11-1.66,1.92-2.19.9-.58,1.98-.86,3.24-.86,1.17,0,2.21.28,3.12.84.91.56,1.63,1.39,2.16,2.48.53,1.1.8,2.39.8,3.89s-.28,2.76-.82,3.86-1.3,1.94-2.27,2.52-2.03.88-3.2.88-2.28-.3-3.16-.89c-.74-.52-1.32-1.21-1.75-2.08v8.1h-2.05v-19.25Zm11.07,6.86c0-1.73-.4-3.08-1.2-4.05-.8-.97-1.9-1.46-3.31-1.46s-2.51.49-3.32,1.46c-.68.86-1.08,2.02-1.19,3.46v1.3c.05.86.23,1.62.54,2.27.36.83.88,1.46,1.55,1.9.68.44,1.48.66,2.42.66,1.42,0,2.53-.49,3.33-1.47.8-.98,1.19-2.33,1.17-4.06Z"/>
    <path class="cls-2" d="m767.38,134.48c0-1.15.42-2.11,1.27-2.88.85-.77,2.07-1.29,3.67-1.58l4.64-.78v-.7c-.02-.65-.16-1.2-.42-1.65-.26-.45-.65-.78-1.16-1s-1.13-.32-1.85-.32c-1.21,0-2.13.27-2.77.81s-1,1.35-1.09,2.43l-1.92-.27c.14-1.48.71-2.62,1.7-3.43.99-.81,2.39-1.21,4.19-1.21s3.1.43,4.01,1.28c.91.86,1.36,2.08,1.36,3.69v9.23h-1.94l-.08-2.73c-.07.14-.15.29-.24.43-.5.83-1.2,1.46-2.08,1.9-.88.44-1.87.66-2.97.66-.85,0-1.59-.16-2.24-.49-.65-.32-1.16-.78-1.53-1.38s-.55-1.27-.55-2.03Zm9.58-3.64l-4.02.76c-1.21.23-2.08.57-2.62,1-.54.43-.81,1-.81,1.7,0,.76.25,1.34.74,1.75s1.2.62,2.12.62c.79,0,1.53-.14,2.2-.43.67-.29,1.23-.71,1.66-1.27.41-.52.66-1.15.73-1.89v-2.24Z"/>
    <path class="cls-2" d="m784.84,137.49c-1.03-.58-1.82-1.42-2.38-2.5-.56-1.08-.84-2.38-.84-3.89s.28-2.79.84-3.89c.56-1.1,1.34-1.93,2.33-2.5,1-.57,2.17-.84,3.5-.82,1.15,0,2.16.22,3.01.65.85.43,1.52,1.04,2,1.82.48.78.76,1.68.85,2.69l-1.94.27c-.09-1.17-.46-2.09-1.12-2.75-.66-.67-1.58-1-2.77-1-.97.02-1.8.23-2.47.65s-1.19,1.03-1.55,1.85c-.36.82-.54,1.83-.54,3.04s.18,2.17.54,3.01c.36.84.9,1.47,1.61,1.9s1.57.65,2.58.65c.76,0,1.41-.14,1.97-.41.56-.27,1-.66,1.32-1.17.32-.51.53-1.12.62-1.82l1.92.32c-.13.95-.44,1.79-.94,2.5-.5.71-1.17,1.27-2.01,1.67-.84.41-1.8.61-2.9.61-1.39,0-2.59-.29-3.62-.88Z"/>
    <path class="cls-2" d="m798.75,134.69v-8.83h-2.97v-1.62h2.97v-3.65h2.05v3.65h3.92v1.62h-3.92v8.67c0,.54.08.96.23,1.24.15.29.36.49.62.61.26.12.62.18,1.07.18.58,0,1.21-.06,1.89-.19v1.7c-.68.14-1.45.22-2.29.22-.76,0-1.39-.11-1.92-.32s-.93-.59-1.21-1.12c-.29-.53-.43-1.25-.43-2.15Z"/>
    <path class="cls-2" d="m809.8,137.45c-1.04-.58-1.84-1.41-2.42-2.5-.58-1.09-.86-2.38-.86-3.87s.29-2.78.86-3.86c.58-1.08,1.38-1.91,2.42-2.48,1.04-.58,2.19-.86,3.47-.86s2.46.29,3.48.86c1.03.58,1.83,1.4,2.42,2.48s.88,2.37.88,3.86-.29,2.79-.88,3.87-1.39,1.92-2.42,2.5c-1.03.58-2.19.86-3.48.86s-2.43-.29-3.47-.86Zm5.93-1.51c.68-.43,1.21-1.06,1.59-1.88s.57-1.81.57-2.98-.19-2.14-.55-2.97c-.37-.83-.9-1.45-1.59-1.88-.69-.42-1.52-.64-2.47-.66-.94,0-1.75.22-2.44.65-.69.43-1.23,1.06-1.61,1.89-.38.83-.57,1.82-.57,2.97s.19,2.17.57,3c.38.83.91,1.46,1.61,1.89.69.43,1.51.65,2.44.65.95-.02,1.77-.24,2.46-.67Z"/>
  </g>
  <g>
    <path class="cls-1" d="m6.97,366.92h5.86l4.32,9.31c.64,1.34,1.1,2.33,1.41,2.97.3.64.76,1.6,1.38,2.89.05.09.1.18.13.26v-15.43h3.47v18.56h-5.73l-4.08-8.8c-.76-1.56-1.39-2.88-1.88-3.98-.41-.87-.88-1.86-1.41-3v15.78h-3.47v-18.56Z"/>
    <path class="cls-1" d="m26.03,378.56c0-1.43.3-2.69.89-3.77.59-1.08,1.41-1.91,2.47-2.49s2.27-.88,3.65-.88c1.27,0,2.4.27,3.38.82.98.55,1.75,1.33,2.31,2.35s.84,2.2.84,3.54v1.41h-9.89c.07.55.19,1.03.37,1.46.28.65.69,1.14,1.23,1.44.54.31,1.18.47,1.92.49.88,0,1.56-.19,2.03-.56.47-.37.78-.95.94-1.72l3.26.48c-.25.96-.66,1.77-1.23,2.45s-1.3,1.21-2.17,1.59-1.87.57-2.98.57c-1.45,0-2.7-.29-3.75-.88-1.05-.58-1.86-1.41-2.41-2.49-.56-1.08-.83-2.35-.83-3.82Zm3.71-1.62h6.34c-.05-.33-.12-.64-.21-.93-.23-.6-.58-1.06-1.06-1.38-.48-.32-1.09-.48-1.83-.48s-1.39.17-1.9.52-.88.84-1.13,1.5c-.09.23-.16.49-.21.77Z"/>
    <path class="cls-1" d="m41.52,386.57l3.23-.45c.16.72.5,1.28,1.03,1.67s1.25.58,2.17.58c1.03,0,1.83-.29,2.41-.88.58-.58.88-1.41.9-2.47v-2.33c-.3.55-.69,1.02-1.17,1.41-.74.62-1.69.93-2.84.93s-2.26-.26-3.18-.79-1.64-1.3-2.16-2.32c-.52-1.02-.78-2.22-.78-3.62s.26-2.64.77-3.67,1.22-1.83,2.12-2.37,1.92-.82,3.05-.82c1.2,0,2.18.27,2.94.82.58.41,1.05.95,1.41,1.62l.11-2.09h3.31l-.05,13.07c0,1.22-.27,2.3-.81,3.24-.54.94-1.32,1.66-2.35,2.17s-2.25.77-3.66.77c-1.24,0-2.31-.17-3.22-.5-.91-.34-1.64-.84-2.19-1.5-.55-.66-.9-1.48-1.06-2.45Zm9.92-8.25c.02-.85-.1-1.59-.36-2.23-.26-.64-.63-1.13-1.13-1.47-.49-.34-1.1-.52-1.83-.52-1.08,0-1.91.38-2.48,1.13-.57.75-.85,1.77-.83,3.06,0,.83.13,1.56.38,2.19.26.63.63,1.11,1.13,1.46.49.34,1.1.52,1.8.52s1.31-.17,1.8-.52.87-.83,1.13-1.44c.26-.62.38-1.34.38-2.17Z"/>
    <path class="cls-1" d="m60.21,384.78c-1.08-.57-1.92-1.4-2.52-2.48s-.9-2.33-.9-3.76.3-2.71.9-3.79,1.44-1.9,2.52-2.48c1.08-.57,2.3-.86,3.66-.86s2.61.29,3.69.88,1.91,1.41,2.51,2.48c.59,1.07.89,2.33.89,3.78s-.3,2.68-.89,3.75c-.59,1.07-1.43,1.9-2.51,2.48s-2.31.88-3.69.88-2.58-.29-3.66-.86Zm5.51-2.48c.51-.32.91-.8,1.18-1.43.27-.64.41-1.41.41-2.33s-.13-1.72-.4-2.36c-.27-.64-.66-1.11-1.18-1.42-.52-.31-1.15-.47-1.87-.49-.71-.02-1.32.14-1.83.46-.51.33-.91.81-1.18,1.45-.27.64-.41,1.42-.41,2.36s.14,1.7.42,2.35c.28.65.68,1.13,1.18,1.45.5.32,1.11.48,1.82.48.72-.02,1.34-.19,1.86-.5Zm-1.59-16.81h4.11l-3.29,4.3h-2.09l1.27-4.3Z"/>
    <path class="cls-1" d="m75.72,384.87c-1.08-.58-1.91-1.42-2.5-2.51-.59-1.09-.89-2.36-.89-3.8s.3-2.71.89-3.79c.59-1.08,1.42-1.91,2.48-2.49s2.28-.87,3.66-.85c1.22,0,2.28.22,3.18.66.9.44,1.61,1.05,2.12,1.83.51.78.81,1.66.9,2.65l-3.26.42c-.05-.83-.32-1.5-.8-2-.48-.5-1.18-.76-2.12-.76-.74,0-1.36.16-1.86.46-.5.31-.88.78-1.14,1.42-.26.64-.4,1.45-.4,2.44,0,.94.14,1.73.41,2.39.27.65.68,1.15,1.22,1.49.54.34,1.19.5,1.95.5.6,0,1.1-.1,1.51-.29.41-.19.72-.48.95-.85s.39-.84.48-1.41l3.23.53c-.19.97-.57,1.82-1.13,2.55-.56.72-1.27,1.29-2.15,1.68-.88.4-1.89.6-3.04.6-1.4,0-2.63-.29-3.71-.88Z"/>
    <path class="cls-1" d="m87.89,366.15h3.66v3.42h-3.66v-3.42Zm.08,5.62h3.53v13.71h-3.53v-13.71Z"/>
    <path class="cls-1" d="m97.12,384.78c-1.08-.57-1.92-1.4-2.52-2.48s-.9-2.33-.9-3.76.3-2.71.9-3.79,1.44-1.9,2.52-2.48c1.08-.57,2.3-.86,3.66-.86s2.61.29,3.69.88,1.91,1.41,2.51,2.48c.59,1.07.89,2.33.89,3.78s-.3,2.68-.89,3.75c-.59,1.07-1.43,1.9-2.51,2.48s-2.31.88-3.69.88-2.58-.29-3.66-.86Zm5.51-2.48c.51-.32.91-.8,1.18-1.43.27-.64.41-1.41.41-2.33s-.13-1.72-.4-2.36c-.27-.64-.66-1.11-1.18-1.42-.52-.31-1.15-.47-1.87-.49-.71-.02-1.32.14-1.83.46-.51.33-.91.81-1.18,1.45-.27.64-.41,1.42-.41,2.36s.14,1.7.42,2.35c.28.65.68,1.13,1.18,1.45.5.32,1.11.48,1.82.48.72-.02,1.34-.19,1.86-.5Z"/>
  </g>
  <path class="cls-1" d="m0,523.88v-.85h167.84c18.6,0,33.73-12.64,33.73-28.18v-25.87c0-16.01,15.52-29.04,34.59-29.04h128.11c18.6.01,33.73-12.63,33.73-28.17v-25.87c0-16.01,15.52-29.04,34.59-29.04h188.97c18.6,0,33.73-12.64,33.73-28.18v-25.87c0-16.01,15.52-29.04,34.59-29.04h205.76v.85h-205.76c-18.6,0-33.73,12.64-33.73,28.18v25.87c0,16.01-15.52,29.04-34.59,29.04h-188.97c-18.6,0-33.73,12.64-33.73,28.18v25.87c0,16.01-15.52,29.04-34.59,29.04h-98.06s-30.05-.01-30.05-.01c-18.6,0-33.73,12.64-33.73,28.18v25.87c0,16.01-15.52,29.04-34.59,29.04H0Z"/>
  <g>
    <path class="cls-2" d="m231.92,396.28h6.56c1.73,0,3.27.38,4.63,1.13,1.36.76,2.42,1.84,3.17,3.27.76,1.42,1.13,3.11,1.13,5.05s-.38,3.63-1.13,5.05c-.76,1.42-1.81,2.51-3.17,3.27-1.36.76-2.9,1.13-4.63,1.13h-6.56v-18.9Zm10.03,16.16c1.04-.6,1.84-1.48,2.42-2.62.58-1.14.86-2.51.86-4.09s-.29-2.97-.86-4.12c-.58-1.14-1.38-2.01-2.42-2.61s-2.25-.89-3.63-.89h-4.29v15.23h4.29c1.39,0,2.6-.3,3.63-.9Z"/>
    <path class="cls-2" d="m250.09,395.47h2.19v3.38h-2.19v-3.38Zm.08,5.86h2.05v13.85h-2.05v-13.85Z"/>
    <path class="cls-2" d="m261.05,395.93c.72,0,1.42.05,2.11.16v1.73c-.68-.11-1.28-.16-1.78-.16-.7,0-1.21.16-1.54.49s-.49.84-.49,1.54v1.65h3.81v1.65h-3.81v12.2h-2.08v-12.2h-2.84v-1.65h2.84v-1.94c0-1.08.35-1.93,1.04-2.54.69-.61,1.61-.92,2.74-.92Z"/>
    <path class="cls-2" d="m264.94,408.19c0-1.46.27-2.74.82-3.83.55-1.1,1.32-1.93,2.31-2.51.99-.58,2.13-.86,3.43-.86s2.33.26,3.27.78c.94.52,1.66,1.29,2.17,2.29.51,1.01.77,2.19.77,3.54v1h-10.67c.04,1.03.21,1.91.51,2.65.34.83.85,1.45,1.54,1.88.68.42,1.52.63,2.51.63,1.15,0,2.07-.27,2.77-.82.69-.55,1.13-1.34,1.31-2.39l1.94.27c-.2.94-.57,1.75-1.11,2.46s-1.23,1.24-2.08,1.62c-.85.38-1.82.57-2.92.57-1.37,0-2.55-.29-3.54-.86s-1.75-1.41-2.27-2.5c-.52-1.09-.78-2.39-.78-3.9Zm2.19-1.24h8.53c-.05-.74-.19-1.39-.41-1.94-.32-.77-.8-1.36-1.43-1.75-.63-.4-1.41-.59-2.35-.59s-1.74.22-2.4.65-1.17,1.06-1.51,1.89c-.22.52-.36,1.11-.43,1.75Z"/>
    <path class="cls-2" d="m280.19,401.33h1.94l.05,2.97c.05-.13.1-.24.14-.35.4-.99.96-1.72,1.69-2.2.73-.48,1.62-.72,2.66-.72.14,0,.41.02.81.05v1.89c-.52-.07-1.03-.11-1.51-.11-.79,0-1.47.19-2.02.57-.56.38-.98.96-1.27,1.75-.29.79-.43,1.79-.43,3v6.99h-2.05v-13.85Z"/>
    <path class="cls-2" d="m288.86,408.19c0-1.46.27-2.74.82-3.83.55-1.1,1.32-1.93,2.31-2.51.99-.58,2.13-.86,3.43-.86s2.33.26,3.27.78c.94.52,1.66,1.29,2.17,2.29.51,1.01.77,2.19.77,3.54v1h-10.67c.04,1.03.21,1.91.51,2.65.34.83.85,1.45,1.54,1.88.68.42,1.52.63,2.51.63,1.15,0,2.07-.27,2.77-.82.69-.55,1.13-1.34,1.31-2.39l1.94.27c-.2.94-.57,1.75-1.11,2.46s-1.23,1.24-2.08,1.62c-.85.38-1.82.57-2.92.57-1.37,0-2.55-.29-3.54-.86s-1.75-1.41-2.27-2.5c-.52-1.09-.78-2.39-.78-3.9Zm2.19-1.24h8.53c-.05-.74-.19-1.39-.41-1.94-.32-.77-.8-1.36-1.43-1.75-.63-.4-1.41-.59-2.35-.59s-1.74.22-2.4.65-1.17,1.06-1.51,1.89c-.22.52-.36,1.11-.43,1.75Z"/>
    <path class="cls-2" d="m310.52,402.65c-.85,0-1.6.19-2.25.58s-1.17.97-1.54,1.74c-.37.77-.55,1.72-.55,2.83v7.37h-2.05v-13.85h1.94l.08,2.75s.04-.07.05-.11c.49-1.03,1.15-1.78,2-2.27.85-.49,1.84-.73,3-.73,1.06,0,1.96.2,2.7.61.74.41,1.29,1,1.66,1.8s.55,1.76.55,2.92v8.88h-2.02v-8.56c0-.86-.13-1.59-.38-2.17-.25-.58-.64-1.03-1.16-1.34-.52-.31-1.2-.46-2.03-.46Z"/>
    <path class="cls-2" d="m321.67,414.57c-1.03-.58-1.82-1.42-2.38-2.5-.56-1.08-.84-2.38-.84-3.89s.28-2.79.84-3.89c.56-1.1,1.34-1.93,2.33-2.5,1-.57,2.17-.84,3.5-.82,1.15,0,2.16.22,3.01.65.85.43,1.52,1.04,2,1.82.48.78.76,1.68.85,2.69l-1.94.27c-.09-1.17-.46-2.09-1.12-2.75-.66-.67-1.58-1-2.77-1-.97.02-1.8.23-2.47.65s-1.19,1.03-1.55,1.85c-.36.82-.54,1.83-.54,3.04s.18,2.17.54,3.01c.36.84.9,1.47,1.61,1.9s1.57.65,2.58.65c.76,0,1.41-.14,1.97-.41.56-.27,1-.66,1.32-1.17.32-.51.53-1.12.62-1.82l1.92.32c-.13.95-.44,1.79-.94,2.5-.5.71-1.17,1.27-2.01,1.67-.84.41-1.8.61-2.9.61-1.39,0-2.59-.29-3.62-.88Z"/>
    <path class="cls-2" d="m333.84,395.47h2.19v3.38h-2.19v-3.38Zm.08,5.86h2.05v13.85h-2.05v-13.85Z"/>
    <path class="cls-2" d="m338.65,411.56c0-1.15.42-2.11,1.27-2.88.85-.77,2.07-1.29,3.67-1.58l4.64-.78v-.7c-.02-.65-.16-1.2-.42-1.65-.26-.45-.65-.78-1.16-1s-1.13-.32-1.85-.32c-1.21,0-2.13.27-2.77.81s-1,1.35-1.09,2.43l-1.92-.27c.14-1.48.71-2.62,1.7-3.43.99-.81,2.39-1.21,4.19-1.21s3.1.43,4.01,1.28c.91.86,1.36,2.08,1.36,3.69v9.23h-1.94l-.08-2.73c-.07.14-.15.29-.24.43-.5.83-1.2,1.46-2.08,1.9-.88.44-1.87.66-2.97.66-.85,0-1.59-.16-2.24-.49-.65-.32-1.16-.78-1.53-1.38s-.55-1.27-.55-2.03Zm9.58-3.64l-4.02.76c-1.21.23-2.08.57-2.62,1-.54.43-.81,1-.81,1.7,0,.76.25,1.34.74,1.75s1.2.62,2.12.62c.79,0,1.53-.14,2.2-.43.67-.29,1.23-.71,1.66-1.27.41-.52.66-1.15.73-1.89v-2.24Z"/>
    <path class="cls-2" d="m353.63,395.47h2.19v3.38h-2.19v-3.38Zm.08,5.86h2.05v13.85h-2.05v-13.85Z"/>
    <path class="cls-2" d="m361.21,414.88c-.87-.38-1.55-.91-2.04-1.61s-.74-1.48-.76-2.36l1.94-.32c.04,1.03.39,1.81,1.07,2.35.67.54,1.62.81,2.82.81,1.04,0,1.87-.18,2.48-.55.61-.37.92-.94.92-1.71,0-.47-.09-.84-.27-1.12s-.45-.5-.8-.67c-.35-.17-.84-.33-1.47-.47l-2.57-.59c-1.13-.25-2.01-.68-2.62-1.3-.61-.61-.92-1.43-.92-2.46,0-1.19.45-2.13,1.34-2.83.89-.7,2.16-1.05,3.79-1.05,1.06,0,1.99.16,2.78.49s1.42.81,1.89,1.44.75,1.41.84,2.31l-1.94.32c-.13-1.06-.5-1.81-1.12-2.24s-1.44-.65-2.44-.65c-.65,0-1.2.08-1.65.23-.45.15-.8.37-1.05.66s-.38.66-.38,1.11c0,.36.08.67.23.95.15.27.38.5.68.67.3.18.67.32,1.12.43l2.92.7c1.22.29,2.15.75,2.77,1.39.62.64.93,1.51.93,2.61,0,.81-.23,1.52-.69,2.13-.46.61-1.1,1.08-1.93,1.42-.83.33-1.78.5-2.86.5-1.13,0-2.14-.19-3.01-.57Z"/>
  </g>
  <g>
    <path class="cls-2" d="m453.18,302.23c-1.31-.79-2.34-1.92-3.08-3.39-.74-1.47-1.11-3.18-1.11-5.14s.36-3.65,1.08-5.12,1.72-2.6,3.01-3.4c1.29-.8,2.77-1.2,4.44-1.2,1.51,0,2.83.26,3.94.77s2.01,1.25,2.69,2.21,1.12,2.11,1.34,3.44l-2.11.38c-.29-1.64-.9-2.88-1.85-3.71s-2.28-1.26-4.01-1.26c-1.22,0-2.31.31-3.25.93-.95.62-1.69,1.53-2.23,2.71-.54,1.19-.81,2.59-.81,4.21s.27,3,.81,4.18,1.29,2.11,2.25,2.75c.96.65,2.07.97,3.31.97,1.69,0,3.02-.43,4-1.3.97-.86,1.61-2.08,1.92-3.64l2.13.35c-.25,1.28-.72,2.4-1.4,3.36-.68.96-1.58,1.71-2.7,2.25-1.12.54-2.43.81-3.94.81-1.64,0-3.11-.4-4.43-1.19Z"/>
    <path class="cls-2" d="m470.48,302.49c-1.04-.58-1.84-1.41-2.42-2.5-.58-1.09-.86-2.38-.86-3.87s.29-2.78.86-3.86c.58-1.08,1.38-1.91,2.42-2.48,1.04-.58,2.19-.86,3.47-.86s2.46.29,3.48.86c1.03.58,1.83,1.4,2.42,2.48s.88,2.37.88,3.86-.29,2.79-.88,3.87-1.39,1.92-2.42,2.5c-1.03.58-2.19.86-3.48.86s-2.43-.29-3.47-.86Zm5.93-1.51c.68-.43,1.21-1.06,1.59-1.88s.57-1.81.57-2.98-.19-2.14-.55-2.97c-.37-.83-.9-1.45-1.59-1.88-.69-.42-1.52-.64-2.47-.66-.94,0-1.75.22-2.44.65-.69.43-1.23,1.06-1.61,1.89-.38.83-.57,1.82-.57,2.97s.19,2.17.57,3c.38.83.91,1.46,1.61,1.89.69.43,1.51.65,2.44.65.95-.02,1.77-.24,2.46-.67Z"/>
    <path class="cls-2" d="m489.58,290.61c-.85,0-1.6.19-2.25.58s-1.17.97-1.54,1.74c-.37.77-.55,1.72-.55,2.83v7.37h-2.05v-13.85h1.94l.08,2.75s.04-.07.05-.11c.49-1.03,1.15-1.78,2-2.27.85-.49,1.84-.73,3-.73,1.06,0,1.96.2,2.7.61.74.41,1.29,1,1.66,1.8s.55,1.76.55,2.92v8.88h-2.02v-8.56c0-.86-.13-1.59-.38-2.17-.25-.58-.64-1.03-1.16-1.34-.52-.31-1.2-.46-2.03-.46Z"/>
    <path class="cls-2" d="m497.52,296.15c0-1.46.27-2.74.82-3.83.55-1.1,1.32-1.93,2.31-2.51.99-.58,2.13-.86,3.43-.86s2.33.26,3.27.78c.94.52,1.66,1.29,2.17,2.29.51,1.01.77,2.19.77,3.54v1h-10.67c.04,1.03.21,1.91.51,2.65.34.83.85,1.45,1.54,1.88.68.42,1.52.63,2.51.63,1.15,0,2.07-.27,2.77-.82.69-.55,1.13-1.34,1.31-2.39l1.94.27c-.2.94-.57,1.75-1.11,2.46s-1.23,1.24-2.08,1.62c-.85.38-1.82.57-2.92.57-1.37,0-2.55-.29-3.54-.86s-1.75-1.41-2.27-2.5c-.52-1.09-.78-2.39-.78-3.9Zm2.19-1.24h8.53c-.05-.74-.19-1.39-.41-1.94-.32-.77-.8-1.36-1.43-1.75-.63-.4-1.41-.59-2.35-.59s-1.74.22-2.4.65-1.17,1.06-1.51,1.89c-.22.52-.36,1.11-.43,1.75Z"/>
    <path class="cls-2" d="m511.88,289.29h2.35l4,5.16,3.89-5.16h2.43l-5.21,6.61,5.59,7.24h-2.35l-4.35-5.64-4.27,5.64h-2.48l5.62-7.1-5.21-6.75Z"/>
    <path class="cls-2" d="m526.05,299.52c0-1.15.42-2.11,1.27-2.88.85-.77,2.07-1.29,3.67-1.58l4.64-.78v-.7c-.02-.65-.16-1.2-.42-1.65-.26-.45-.65-.78-1.16-1s-1.13-.32-1.85-.32c-1.21,0-2.13.27-2.77.81s-1,1.35-1.09,2.43l-1.92-.27c.14-1.48.71-2.62,1.7-3.43.99-.81,2.39-1.21,4.19-1.21s3.1.43,4.01,1.28c.91.86,1.36,2.08,1.36,3.69v9.23h-1.94l-.08-2.73c-.07.14-.15.29-.24.43-.5.83-1.2,1.46-2.08,1.9-.88.44-1.87.66-2.97.66-.85,0-1.59-.16-2.24-.49-.65-.32-1.16-.78-1.53-1.38s-.55-1.27-.55-2.03Zm7.14-12.83c-.3-.14-.64-.34-1.04-.59-.32-.22-.59-.37-.81-.47-.22-.1-.44-.15-.68-.15-.34,0-.62.13-.84.38-.22.25-.32.59-.32,1.03h-1.35c0-.76.2-1.41.61-1.97.41-.56.99-.84,1.74-.84.34,0,.66.06.95.19s.63.32,1.03.57c.38.23.67.4.88.51s.44.16.69.16c.34,0,.62-.12.82-.36.21-.24.32-.59.34-1.04h1.35c-.02.76-.23,1.41-.62,1.97-.4.56-.97.84-1.73.84-.38,0-.71-.07-1.01-.22Zm2.44,9.18l-4.02.76c-1.21.23-2.08.57-2.62,1-.54.43-.81,1-.81,1.7,0,.76.25,1.34.74,1.75s1.2.62,2.12.62c.79,0,1.53-.14,2.2-.43.67-.29,1.23-.71,1.66-1.27.41-.52.66-1.15.73-1.89v-2.24Z"/>
    <path class="cls-2" d="m543.62,302.49c-1.04-.58-1.84-1.41-2.42-2.5-.58-1.09-.86-2.38-.86-3.87s.29-2.78.86-3.86c.58-1.08,1.38-1.91,2.42-2.48,1.04-.58,2.19-.86,3.47-.86s2.46.29,3.48.86c1.03.58,1.83,1.4,2.42,2.48s.88,2.37.88,3.86-.29,2.79-.88,3.87-1.39,1.92-2.42,2.5c-1.03.58-2.19.86-3.48.86s-2.43-.29-3.47-.86Zm5.93-1.51c.68-.43,1.21-1.06,1.59-1.88s.57-1.81.57-2.98-.19-2.14-.55-2.97c-.37-.83-.9-1.45-1.59-1.88-.69-.42-1.52-.64-2.47-.66-.94,0-1.75.22-2.44.65-.69.43-1.23,1.06-1.61,1.89-.38.83-.57,1.82-.57,2.97s.19,2.17.57,3c.38.83.91,1.46,1.61,1.89.69.43,1.51.65,2.44.65.95-.02,1.77-.24,2.46-.67Z"/>
    <path class="cls-2" d="m449.05,328.55c0-1.46.27-2.74.82-3.83.55-1.1,1.32-1.93,2.31-2.51.99-.58,2.13-.86,3.43-.86s2.33.26,3.27.78c.94.52,1.66,1.29,2.17,2.29.51,1.01.77,2.19.77,3.54v1h-10.67c.04,1.03.21,1.91.51,2.65.34.83.85,1.45,1.54,1.88.68.42,1.52.63,2.51.63,1.15,0,2.07-.27,2.77-.82.69-.55,1.13-1.34,1.31-2.39l1.94.27c-.2.94-.57,1.75-1.11,2.46s-1.23,1.24-2.08,1.62c-.85.38-1.82.57-2.92.57-1.37,0-2.55-.29-3.54-.86s-1.75-1.41-2.27-2.5c-.52-1.09-.78-2.39-.78-3.9Zm2.19-1.24h8.53c-.05-.74-.19-1.39-.41-1.94-.32-.77-.8-1.36-1.43-1.75-.63-.4-1.41-.59-2.35-.59s-1.74.22-2.4.65-1.17,1.06-1.51,1.89c-.22.52-.36,1.11-.43,1.75Z"/>
    <path class="cls-2" d="m479.05,323.02c-1.21,0-2.13.42-2.78,1.24-.59.79-.9,1.95-.92,3.48v7.8h-2.08v-8.72c0-1.17-.27-2.1-.8-2.78-.53-.68-1.33-1.03-2.39-1.03-1.22,0-2.15.42-2.78,1.24-.61.77-.93,1.94-.94,3.48v7.8h-2.05v-13.85h1.94l.08,2.51c.36-.97.9-1.69,1.62-2.16.76-.47,1.69-.7,2.81-.7,1.01,0,1.85.22,2.54.65.68.43,1.2,1.04,1.54,1.84.09.22.17.44.24.67.02-.07.04-.13.05-.19.4-1.01.98-1.75,1.75-2.24.77-.49,1.73-.73,2.86-.73,1.51,0,2.65.45,3.42,1.34.76.89,1.15,2.22,1.15,3.98v8.88h-2.05v-8.72c0-1.3-.26-2.25-.77-2.88-.51-.62-1.33-.93-2.44-.93Z"/>
    <path class="cls-2" d="m489.94,334.9c-1.04-.58-1.84-1.41-2.42-2.5-.58-1.09-.86-2.38-.86-3.87s.29-2.78.86-3.86c.58-1.08,1.38-1.91,2.42-2.48,1.04-.58,2.19-.86,3.47-.86s2.46.29,3.48.86c1.03.58,1.83,1.4,2.42,2.48s.88,2.37.88,3.86-.29,2.79-.88,3.87-1.39,1.92-2.42,2.5c-1.03.58-2.19.86-3.48.86s-2.43-.29-3.47-.86Zm5.93-1.51c.68-.43,1.21-1.06,1.59-1.88s.57-1.81.57-2.98-.19-2.14-.55-2.97c-.37-.83-.9-1.45-1.59-1.88-.69-.42-1.52-.64-2.47-.66-.94,0-1.75.22-2.44.65-.69.43-1.23,1.06-1.61,1.89-.38.83-.57,1.82-.57,2.97s.19,2.17.57,3c.38.83.91,1.46,1.61,1.89.69.43,1.51.65,2.44.65.95-.02,1.77-.24,2.46-.67Z"/>
    <path class="cls-2" d="m505.37,334.94c-1.03-.58-1.82-1.42-2.38-2.5-.56-1.08-.84-2.38-.84-3.89s.28-2.79.84-3.89c.56-1.1,1.34-1.93,2.33-2.5,1-.57,2.17-.84,3.5-.82,1.15,0,2.16.22,3.01.65.85.43,1.52,1.04,2,1.82.48.78.76,1.68.85,2.69l-1.94.27c-.09-1.17-.46-2.09-1.12-2.75-.66-.67-1.58-1-2.77-1-.97.02-1.8.23-2.47.65s-1.19,1.03-1.55,1.85c-.36.82-.54,1.83-.54,3.04s.18,2.17.54,3.01c.36.84.9,1.47,1.61,1.9s1.57.65,2.58.65c.76,0,1.41-.14,1.97-.41.56-.27,1-.66,1.32-1.17.32-.51.53-1.12.62-1.82l1.92.32c-.13.95-.44,1.79-.94,2.5-.5.71-1.17,1.27-2.01,1.67-.84.41-1.8.61-2.9.61-1.39,0-2.59-.29-3.62-.88Z"/>
    <path class="cls-2" d="m517.55,315.83h2.19v3.38h-2.19v-3.38Zm.08,5.86h2.05v13.85h-2.05v-13.85Z"/>
    <path class="cls-2" d="m525.69,334.9c-1.04-.58-1.84-1.41-2.42-2.5-.58-1.09-.86-2.38-.86-3.87s.29-2.78.86-3.86c.58-1.08,1.38-1.91,2.42-2.48,1.04-.58,2.19-.86,3.47-.86s2.46.29,3.48.86c1.03.58,1.83,1.4,2.42,2.48s.88,2.37.88,3.86-.29,2.79-.88,3.87-1.39,1.92-2.42,2.5c-1.03.58-2.19.86-3.48.86s-2.43-.29-3.47-.86Zm5.93-1.51c.68-.43,1.21-1.06,1.59-1.88s.57-1.81.57-2.98-.19-2.14-.55-2.97c-.37-.83-.9-1.45-1.59-1.88-.69-.42-1.52-.64-2.47-.66-.94,0-1.75.22-2.44.65-.69.43-1.23,1.06-1.61,1.89-.38.83-.57,1.82-.57,2.97s.19,2.17.57,3c.38.83.91,1.46,1.61,1.89.69.43,1.51.65,2.44.65.95-.02,1.77-.24,2.46-.67Z"/>
    <path class="cls-2" d="m544.79,323.02c-.85,0-1.6.19-2.25.58s-1.17.97-1.54,1.74c-.37.77-.55,1.72-.55,2.83v7.37h-2.05v-13.85h1.94l.08,2.75s.04-.07.05-.11c.49-1.03,1.15-1.78,2-2.27.85-.49,1.84-.73,3-.73,1.06,0,1.96.2,2.7.61.74.41,1.29,1,1.66,1.8s.55,1.76.55,2.92v8.88h-2.02v-8.56c0-.86-.13-1.59-.38-2.17-.25-.58-.64-1.03-1.16-1.34-.52-.31-1.2-.46-2.03-.46Z"/>
    <path class="cls-2" d="m552.68,331.93c0-1.15.42-2.11,1.27-2.88.85-.77,2.07-1.29,3.67-1.58l4.64-.78v-.7c-.02-.65-.16-1.2-.42-1.65-.26-.45-.65-.78-1.16-1s-1.13-.32-1.85-.32c-1.21,0-2.13.27-2.77.81s-1,1.35-1.09,2.43l-1.92-.27c.14-1.48.71-2.62,1.7-3.43.99-.81,2.39-1.21,4.19-1.21s3.1.43,4.01,1.28c.91.86,1.36,2.08,1.36,3.69v9.23h-1.94l-.08-2.73c-.07.14-.15.29-.24.43-.5.83-1.2,1.46-2.08,1.9-.88.44-1.87.66-2.97.66-.85,0-1.59-.16-2.24-.49-.65-.32-1.16-.78-1.53-1.38s-.55-1.27-.55-2.03Zm9.58-3.64l-4.02.76c-1.21.23-2.08.57-2.62,1-.54.43-.81,1-.81,1.7,0,.76.25,1.34.74,1.75s1.2.62,2.12.62c.79,0,1.53-.14,2.2-.43.67-.29,1.23-.71,1.66-1.27.41-.52.66-1.15.73-1.89v-2.24Z"/>
    <path class="cls-2" d="m567.42,316.37h2.05v19.17h-2.05v-19.17Z"/>
  </g>
  <g>
    <path class="cls-2" d="m702.33,229.13h3.67v18.9h-2.11v-17.2l-5.83,17.2h-3.24l-5.83-17.2v17.2h-2.08v-18.9h3.64l5.89,17.44,5.89-17.44Z"/>
    <path class="cls-2" d="m712.34,247.39c-1.04-.58-1.84-1.41-2.42-2.5-.58-1.09-.86-2.38-.86-3.87s.29-2.78.86-3.86c.58-1.08,1.38-1.91,2.42-2.48,1.04-.58,2.19-.86,3.47-.86s2.46.29,3.48.86c1.03.58,1.83,1.4,2.42,2.48s.88,2.37.88,3.86-.29,2.79-.88,3.87-1.39,1.92-2.42,2.5c-1.03.58-2.19.86-3.48.86s-2.43-.29-3.47-.86Zm5.93-1.51c.68-.43,1.21-1.06,1.59-1.88s.57-1.81.57-2.98-.19-2.14-.55-2.97c-.37-.83-.9-1.45-1.59-1.88-.69-.42-1.52-.64-2.47-.66-.94,0-1.75.22-2.44.65-.69.43-1.23,1.06-1.61,1.89-.38.83-.57,1.82-.57,2.97s.19,2.17.57,3c.38.83.91,1.46,1.61,1.89.69.43,1.51.65,2.44.65.95-.02,1.77-.24,2.46-.67Z"/>
    <path class="cls-2" d="m725.04,228.87h2.05v7.96c.47-.92,1.1-1.63,1.89-2.13.9-.58,1.98-.86,3.24-.86,1.17,0,2.21.28,3.12.84.91.56,1.63,1.39,2.16,2.48.53,1.1.8,2.39.8,3.87s-.28,2.78-.82,3.88-1.3,1.94-2.27,2.52-2.03.88-3.2.88-2.28-.3-3.16-.89c-.77-.54-1.39-1.29-1.84-2.24l-.13,2.86h-1.84v-19.17Zm11.07,12.18c0-1.13-.18-2.11-.54-2.94s-.88-1.46-1.55-1.9c-.67-.44-1.49-.66-2.44-.66-1.39,0-2.48.49-3.28,1.47s-1.21,2.33-1.23,4.06c0,1.71.41,3.06,1.21,4.04.81.98,1.91,1.47,3.29,1.47.95,0,1.77-.22,2.46-.67.68-.45,1.2-1.09,1.55-1.92s.53-1.81.53-2.94Z"/>
    <path class="cls-2" d="m741,228.33h2.19v3.38h-2.19v-3.38Zm.08,5.86h2.05v13.85h-2.05v-13.85Z"/>
    <path class="cls-2" d="m746.34,228.87h2.05v19.17h-2.05v-19.17Z"/>
    <path class="cls-2" d="m751.61,228.33h2.19v3.38h-2.19v-3.38Zm.08,5.86h2.05v13.85h-2.05v-13.85Z"/>
    <path class="cls-2" d="m756.33,246.6l8.15-10.85h-7.99v-1.59h10.48v1.43l-8.13,10.85h8.13v1.59h-10.64v-1.43Z"/>
    <path class="cls-2" d="m768.83,244.42c0-1.15.42-2.11,1.27-2.88.85-.77,2.07-1.29,3.67-1.58l4.64-.78v-.7c-.02-.65-.16-1.2-.42-1.65-.26-.45-.65-.78-1.16-1s-1.13-.32-1.85-.32c-1.21,0-2.13.27-2.77.81s-1,1.35-1.09,2.43l-1.92-.27c.14-1.48.71-2.62,1.7-3.43.99-.81,2.39-1.21,4.19-1.21s3.1.43,4.01,1.28c.91.86,1.36,2.08,1.36,3.69v9.23h-1.94l-.08-2.73c-.07.14-.15.29-.24.43-.5.83-1.2,1.46-2.08,1.9-.88.44-1.87.66-2.97.66-.85,0-1.59-.16-2.24-.49-.65-.32-1.16-.78-1.53-1.38s-.55-1.27-.55-2.03Zm9.58-3.64l-4.02.76c-1.21.23-2.08.57-2.62,1-.54.43-.81,1-.81,1.7,0,.76.25,1.34.74,1.75s1.2.62,2.12.62c.79,0,1.53-.14,2.2-.43.67-.29,1.23-.71,1.66-1.27.41-.52.66-1.15.73-1.89v-2.24Z"/>
    <path class="cls-2" d="m783.09,241.04c0-1.49.28-2.79.84-3.89.56-1.1,1.34-1.93,2.33-2.5,1-.57,2.17-.84,3.5-.82,1.15,0,2.16.22,3.01.65.85.43,1.52,1.04,2,1.82.48.78.76,1.68.85,2.69l-1.94.27c-.09-1.17-.46-2.09-1.12-2.75-.66-.67-1.58-1-2.77-1-.97.02-1.8.23-2.47.65s-1.19,1.03-1.55,1.85c-.36.82-.54,1.83-.54,3.04s.18,2.17.54,3.01c.36.84.9,1.47,1.61,1.9s1.57.65,2.58.65c.76,0,1.41-.14,1.97-.41.56-.27,1-.66,1.32-1.17.32-.51.53-1.12.62-1.82l1.92.32c-.13.95-.44,1.79-.94,2.5-.5.71-1.17,1.27-2,1.69-.72.34-1.55.54-2.48.59l-.65,2.03h.08c.74,0,1.32.17,1.75.51.43.34.66.82.67,1.43.02.59-.2,1.07-.66,1.43s-1.09.54-1.9.54c-.59,0-1.16-.04-1.7-.11v-1.08c.52.07,1.03.11,1.51.11.43,0,.76-.08.99-.24.22-.16.33-.4.31-.73,0-.32-.11-.57-.34-.73s-.53-.24-.9-.24l-1.51.03,1.32-2.97c-1.13-.07-2.14-.35-3.02-.84-1.03-.59-1.82-1.43-2.38-2.51-.56-1.08-.84-2.38-.84-3.89Z"/>
    <path class="cls-2" d="m797.75,244.42c0-1.15.42-2.11,1.27-2.88.85-.77,2.07-1.29,3.67-1.58l4.64-.78v-.7c-.02-.65-.16-1.2-.42-1.65-.26-.45-.65-.78-1.16-1s-1.13-.32-1.85-.32c-1.21,0-2.13.27-2.77.81s-1,1.35-1.09,2.43l-1.92-.27c.14-1.48.71-2.62,1.7-3.43.99-.81,2.39-1.21,4.19-1.21s3.1.43,4.01,1.28c.91.86,1.36,2.08,1.36,3.69v9.23h-1.94l-.08-2.73c-.07.14-.15.29-.24.43-.5.83-1.2,1.46-2.08,1.9-.88.44-1.87.66-2.97.66-.85,0-1.59-.16-2.24-.49-.65-.32-1.16-.78-1.53-1.38s-.55-1.27-.55-2.03Zm7.14-12.83c-.3-.14-.64-.34-1.04-.59-.32-.22-.59-.37-.81-.47-.22-.1-.44-.15-.68-.15-.34,0-.62.13-.84.38-.22.25-.32.59-.32,1.03h-1.35c0-.76.2-1.41.61-1.97.41-.56.99-.84,1.74-.84.34,0,.66.06.95.19s.63.32,1.03.57c.38.23.67.4.88.51s.44.16.69.16c.34,0,.62-.12.82-.36.21-.24.32-.59.34-1.04h1.35c-.02.76-.23,1.41-.62,1.97-.4.56-.97.84-1.73.84-.38,0-.71-.07-1.01-.22Zm2.44,9.18l-4.02.76c-1.21.23-2.08.57-2.62,1-.54.43-.81,1-.81,1.7,0,.76.25,1.34.74,1.75s1.2.62,2.12.62c.79,0,1.53-.14,2.2-.43.67-.29,1.23-.71,1.66-1.27.41-.52.66-1.15.73-1.89v-2.24Z"/>
    <path class="cls-2" d="m815.31,247.39c-1.04-.58-1.84-1.41-2.42-2.5-.58-1.09-.86-2.38-.86-3.87s.29-2.78.86-3.86c.58-1.08,1.38-1.91,2.42-2.48,1.04-.58,2.19-.86,3.47-.86s2.46.29,3.48.86c1.03.58,1.83,1.4,2.42,2.48s.88,2.37.88,3.86-.29,2.79-.88,3.87-1.39,1.92-2.42,2.5c-1.03.58-2.19.86-3.48.86s-2.43-.29-3.47-.86Zm5.93-1.51c.68-.43,1.21-1.06,1.59-1.88s.57-1.81.57-2.98-.19-2.14-.55-2.97c-.37-.83-.9-1.45-1.59-1.88-.69-.42-1.52-.64-2.47-.66-.94,0-1.75.22-2.44.65-.69.43-1.23,1.06-1.61,1.89-.38.83-.57,1.82-.57,2.97s.19,2.17.57,3c.38.83.91,1.46,1.61,1.89.69.43,1.51.65,2.44.65.95-.02,1.77-.24,2.46-.67Z"/>
  </g>
  <g>
    <path class="cls-1" d="m5.17,498.93c-1.36-.77-2.42-1.87-3.17-3.31-.75-1.44-1.13-3.14-1.13-5.1s.38-3.58,1.14-5.01c.76-1.43,1.81-2.54,3.16-3.31,1.34-.78,2.88-1.17,4.61-1.17,1.5,0,2.85.26,4.03.78s2.14,1.27,2.88,2.25c.73.98,1.18,2.13,1.34,3.43l-3.53.61c-.23-1.38-.76-2.4-1.58-3.06-.82-.66-1.86-.99-3.12-.99-.88,0-1.72.23-2.51.68-.79.45-1.42,1.16-1.91,2.13-.49.97-.73,2.18-.73,3.63s.23,2.58.68,3.57c.45.98,1.07,1.72,1.86,2.23.79.5,1.67.76,2.67.76,1.24,0,2.27-.31,3.1-.93.83-.62,1.38-1.61,1.64-2.97l3.53.56c-.25,1.31-.74,2.44-1.47,3.41-.73.96-1.68,1.7-2.85,2.21-1.17.51-2.48.77-3.95.77-1.77,0-3.33-.38-4.69-1.15Z"/>
    <path class="cls-1" d="m22.51,499.12c-1.08-.57-1.92-1.4-2.52-2.48s-.9-2.33-.9-3.76.3-2.71.9-3.79,1.44-1.9,2.52-2.48c1.08-.57,2.3-.86,3.66-.86s2.61.29,3.69.88,1.91,1.41,2.51,2.48c.59,1.07.89,2.33.89,3.78s-.3,2.68-.89,3.75c-.59,1.07-1.43,1.9-2.51,2.48s-2.31.88-3.69.88-2.58-.29-3.66-.86Zm5.51-2.48c.51-.32.91-.8,1.18-1.43.27-.64.41-1.41.41-2.33s-.13-1.72-.4-2.36c-.27-.64-.66-1.11-1.18-1.42-.52-.31-1.15-.47-1.87-.49-.71-.02-1.32.14-1.83.46-.51.33-.91.81-1.18,1.45-.27.64-.41,1.42-.41,2.36s.14,1.7.42,2.35c.28.65.68,1.13,1.18,1.45.5.32,1.11.48,1.82.48.72-.02,1.34-.19,1.86-.5Z"/>
    <path class="cls-1" d="m50.11,488.58c-.87,0-1.53.28-1.99.85-.46.55-.69,1.37-.69,2.47v7.93h-3.53v-8.33c0-.96-.2-1.68-.6-2.17-.4-.49-.99-.74-1.76-.74-.87,0-1.54.28-2.02.85-.44.55-.66,1.37-.66,2.47v7.93h-3.53v-13.71h3.31l.16,2.28c.32-.83.77-1.46,1.35-1.88.69-.49,1.59-.74,2.7-.74,1.01,0,1.85.21,2.52.62.67.42,1.18,1.03,1.54,1.84.05.12.1.25.13.37.37-.92.9-1.62,1.59-2.09.74-.49,1.67-.74,2.78-.74,1.52,0,2.66.46,3.42,1.37.76.91,1.14,2.25,1.14,4.02v8.67h-3.53v-8.33c0-.99-.2-1.72-.58-2.2s-.98-.72-1.78-.72Z"/>
    <path class="cls-1" d="m58.44,494.89v-8.78h3.53v8.11c0,1.08.22,1.86.65,2.35.43.49,1.12.73,2.05.73.6,0,1.12-.14,1.56-.42.44-.28.78-.7,1.01-1.26.23-.56.34-1.26.34-2.11v-7.4h3.53v13.71h-3.31l-.13-2.41c-.39.85-.91,1.49-1.56,1.94-.74.51-1.67.77-2.78.77-1.04,0-1.93-.2-2.65-.58s-1.28-.97-1.66-1.75c-.38-.78-.57-1.74-.57-2.89Z"/>
    <path class="cls-1" d="m80.5,488.58c-.64,0-1.19.14-1.67.42-.48.28-.84.71-1.1,1.27-.26.57-.38,1.26-.38,2.09v7.45h-3.53v-13.71h3.31l.16,2.39c.41-.87.96-1.53,1.67-1.99.78-.49,1.73-.74,2.86-.74,1.03,0,1.91.21,2.65.62.74.42,1.31,1.03,1.7,1.83.39.8.58,1.78.58,2.93v8.67h-3.5v-7.98c0-.72-.1-1.33-.3-1.8-.2-.48-.51-.84-.91-1.09-.41-.25-.92-.37-1.54-.37Z"/>
    <path class="cls-1" d="m89.4,480.49h3.66v3.42h-3.66v-3.42Zm.08,5.62h3.53v13.71h-3.53v-13.71Z"/>
    <path class="cls-1" d="m98.6,499.21c-1.08-.58-1.91-1.42-2.5-2.51-.59-1.09-.89-2.36-.89-3.8s.3-2.71.89-3.79c.59-1.08,1.42-1.91,2.48-2.49s2.28-.87,3.66-.85c1.22,0,2.28.22,3.18.66.9.44,1.61,1.05,2.12,1.83.51.78.81,1.66.9,2.65l-3.26.42c-.05-.83-.32-1.5-.8-2-.48-.5-1.18-.76-2.12-.76-.74,0-1.36.16-1.86.46-.5.31-.88.78-1.14,1.42-.26.64-.4,1.45-.4,2.44,0,.94.14,1.73.41,2.39.27.65.68,1.15,1.22,1.49.54.34,1.19.5,1.95.5.6,0,1.1-.1,1.51-.29.41-.19.72-.48.95-.85s.39-.84.48-1.41l3.23.53c-.19.97-.57,1.82-1.13,2.55-.56.72-1.27,1.29-2.15,1.68-.88.4-1.89.6-3.04.6-1.4,0-2.63-.29-3.71-.88Z"/>
    <path class="cls-1" d="m110.06,496.11c0-1.17.4-2.13,1.21-2.89.8-.76,2.02-1.28,3.65-1.56l4.14-.69v-.24c-.02-.48-.12-.88-.3-1.21s-.47-.57-.85-.74-.83-.25-1.37-.25c-.85,0-1.52.19-2,.58s-.76.95-.81,1.67l-3.26-.42c.19-1.45.82-2.58,1.88-3.38,1.06-.8,2.51-1.21,4.35-1.21,1.96,0,3.43.48,4.41,1.43.98.96,1.47,2.29,1.47,4v8.62h-3.31l-.19-2.57v.03c-.37.87-.93,1.55-1.67,2.05s-1.69.76-2.84.76c-.88,0-1.67-.16-2.35-.48s-1.21-.78-1.59-1.38c-.38-.6-.57-1.31-.57-2.12Zm8.99-2.97l-3,.61c-.87.18-1.49.42-1.87.73-.38.31-.57.73-.57,1.26.04.51.23.91.58,1.21.35.29.87.44,1.54.44.62,0,1.17-.11,1.66-.34.49-.23.88-.55,1.17-.97.29-.42.46-.92.49-1.5v-1.43Z"/>
    <path class="cls-1" d="m124.64,492.9c0-1.45.3-2.71.89-3.79s1.42-1.91,2.48-2.49,2.28-.87,3.66-.85c1.22,0,2.28.22,3.18.66.9.44,1.61,1.05,2.12,1.83.51.78.81,1.66.9,2.65l-3.26.42c-.05-.83-.32-1.5-.79-2s-1.18-.76-2.12-.76c-.74,0-1.36.16-1.86.46-.5.31-.88.78-1.14,1.42-.27.64-.4,1.45-.4,2.44,0,.94.14,1.73.41,2.39.27.65.68,1.15,1.22,1.49s1.19.5,1.95.5c.6,0,1.1-.1,1.51-.29.41-.19.72-.48.96-.85.23-.37.39-.84.48-1.41l3.23.53c-.19.97-.57,1.82-1.13,2.55s-1.28,1.28-2.16,1.67c-.67.32-1.41.51-2.23.58l-.32,1.62c.64.07,1.15.26,1.54.58.49.39.75.91.77,1.56.02.67-.24,1.21-.77,1.63-.53.42-1.26.62-2.17.62-.62,0-1.24-.02-1.86-.05v-1.64c.51.04,1.02.05,1.54.05.3,0,.54-.06.7-.19s.25-.3.25-.53c-.02-.25-.11-.43-.27-.54-.16-.12-.39-.17-.69-.17l-1.48.03,1.17-2.97c-1.08-.09-2.05-.37-2.92-.85-1.08-.58-1.91-1.42-2.51-2.51s-.89-2.36-.89-3.8Z"/>
    <path class="cls-1" d="m139.52,496.11c0-1.17.4-2.13,1.21-2.89.8-.76,2.02-1.28,3.65-1.56l4.14-.69v-.24c-.02-.48-.12-.88-.3-1.21s-.47-.57-.85-.74-.83-.25-1.37-.25c-.85,0-1.52.19-2,.58s-.76.95-.81,1.67l-3.26-.42c.19-1.45.82-2.58,1.88-3.38,1.06-.8,2.51-1.21,4.35-1.21,1.96,0,3.43.48,4.41,1.43.98.96,1.47,2.29,1.47,4v8.62h-3.31l-.19-2.57v.03c-.37.87-.93,1.55-1.67,2.05s-1.69.76-2.84.76c-.88,0-1.67-.16-2.35-.48s-1.21-.78-1.59-1.38c-.38-.6-.57-1.31-.57-2.12Zm7.58-12.45c-.3-.12-.65-.28-1.06-.49-.26-.18-.5-.3-.69-.38-.19-.08-.4-.12-.61-.12-.3,0-.54.1-.73.31s-.28.48-.28.83h-2.15c.02-.9.26-1.69.74-2.37s1.15-1.02,2.02-1.02c.37,0,.7.06.99.17.29.12.63.28,1.02.49.34.18.6.31.78.38.19.08.39.12.62.12.3,0,.54-.09.72-.28s.27-.46.27-.83h2.15c0,.92-.23,1.71-.7,2.37-.47.66-1.15.99-2.05.99-.39,0-.73-.06-1.03-.17Zm1.41,9.48l-3,.61c-.87.18-1.49.42-1.87.73-.38.31-.57.73-.57,1.26.04.51.23.91.58,1.21.35.29.87.44,1.54.44.62,0,1.17-.11,1.66-.34.49-.23.88-.55,1.17-.97.29-.42.46-.92.49-1.5v-1.43Z"/>
    <path class="cls-1" d="m157.54,499.12c-1.08-.57-1.92-1.4-2.52-2.48-.6-1.08-.9-2.33-.9-3.76s.3-2.71.9-3.79c.6-1.08,1.44-1.9,2.52-2.48,1.08-.57,2.3-.86,3.66-.86s2.61.29,3.69.88,1.91,1.41,2.51,2.48c.59,1.07.89,2.33.89,3.78s-.3,2.68-.89,3.75c-.59,1.07-1.43,1.9-2.51,2.48s-2.31.88-3.69.88-2.58-.29-3.66-.86Zm5.51-2.48c.51-.32.91-.8,1.18-1.43.27-.64.41-1.41.41-2.33s-.13-1.72-.4-2.36c-.26-.64-.66-1.11-1.18-1.42-.52-.31-1.14-.47-1.87-.49-.71-.02-1.32.14-1.83.46-.51.33-.91.81-1.18,1.45s-.41,1.42-.41,2.36.14,1.7.42,2.35c.28.65.68,1.13,1.18,1.45s1.11.48,1.82.48c.72-.02,1.34-.19,1.86-.5Z"/>
  </g>
  <g>
    <path class="cls-1" d="m235.29,508.5c-.88-.5-1.57-1.21-2.07-2.13-.49-.92-.74-2-.74-3.24s.25-2.31.74-3.23,1.18-1.63,2.07-2.12c.88-.5,1.9-.75,3.04-.75s2.14.25,3.03.75c.88.5,1.57,1.21,2.07,2.12.49.92.74,1.99.74,3.23s-.25,2.32-.74,3.24c-.49.92-1.18,1.64-2.07,2.13-.88.5-1.89.75-3.03.75s-2.16-.25-3.04-.75Zm4.9-1.7c.51-.33.9-.8,1.16-1.42.26-.62.39-1.36.39-2.24s-.13-1.61-.39-2.24c-.26-.63-.65-1.11-1.16-1.44-.51-.33-1.13-.5-1.85-.5s-1.34.17-1.85.5c-.51.33-.9.82-1.16,1.44-.27.63-.4,1.38-.4,2.24s.13,1.6.4,2.23c.27.62.65,1.1,1.16,1.43.51.33,1.13.49,1.85.49s1.34-.16,1.85-.49Z"/>
    <path class="cls-1" d="m249.72,501.87c-.41,0-.76.09-1.07.27-.31.18-.54.45-.71.82-.16.36-.25.81-.25,1.34v4.78h-2.26v-8.79h2.12l.1,1.53c.26-.56.62-.98,1.07-1.28.5-.32,1.11-.48,1.84-.48.66,0,1.22.13,1.7.4.48.27.84.66,1.09,1.17.25.52.37,1.14.37,1.88v5.56h-2.24v-5.12c0-.46-.07-.85-.2-1.16-.13-.31-.33-.54-.59-.7-.26-.16-.59-.24-.99-.24Z"/>
    <path class="cls-1" d="m254.97,504.64c0-.93.18-1.74.54-2.43s.84-1.22,1.45-1.59c.61-.37,1.28-.55,2.01-.55.82,0,1.48.19,1.99.56.28.22.52.47.71.77v-4.39h2.26v12.07h-2.11l-.08-1.5c-.25.43-.57.79-.97,1.07-.56.4-1.24.59-2.06.59-.72,0-1.37-.18-1.93-.55-.56-.37-1-.9-1.33-1.6s-.48-1.52-.48-2.46Zm6.73-.02c0-.57-.09-1.05-.26-1.45s-.43-.71-.76-.94c-.33-.22-.72-.33-1.17-.33-.69.01-1.23.26-1.62.74-.39.48-.58,1.15-.57,2,0,.57.09,1.06.26,1.47.18.41.43.73.76.95.33.22.72.33,1.17.33.68,0,1.21-.25,1.6-.74.38-.49.58-1.17.59-2.03Z"/>
    <path class="cls-1" d="m265.26,506.7c0-.75.26-1.37.77-1.85.52-.49,1.29-.82,2.34-1l2.65-.44v-.15c-.01-.31-.08-.56-.2-.77s-.3-.37-.54-.48c-.24-.11-.54-.16-.88-.16-.54,0-.97.12-1.28.37-.31.25-.48.61-.52,1.07l-2.09-.27c.12-.93.53-1.65,1.21-2.17.68-.52,1.61-.77,2.79-.77,1.26,0,2.2.31,2.83.92.63.61.94,1.47.94,2.57v5.53h-2.12l-.12-1.65v.02c-.24.56-.59.99-1.07,1.32-.48.32-1.08.48-1.82.48-.57,0-1.07-.1-1.5-.31-.44-.2-.78-.5-1.02-.88-.24-.39-.37-.84-.37-1.36Zm5.76-1.9l-1.92.39c-.56.11-.96.27-1.2.47-.24.2-.37.47-.37.81.02.33.15.59.37.77.23.19.56.28.99.28.4,0,.75-.07,1.06-.22s.56-.35.75-.62c.19-.27.29-.59.31-.96v-.92Z"/>
    <path class="cls-1" d="m281.54,508.5c-.74-.5-1.3-1.2-1.69-2.1-.39-.9-.59-1.95-.59-3.15s.2-2.24.59-3.14c.39-.9.96-1.6,1.69-2.1.74-.5,1.6-.75,2.58-.75s1.86.25,2.59.75c.73.5,1.29,1.2,1.68,2.1.39.9.59,1.95.59,3.14s-.2,2.25-.59,3.15c-.39.9-.95,1.6-1.68,2.1-.73.5-1.6.75-2.59.75s-1.85-.25-2.58-.75Zm3.97-1.62c.38-.35.66-.83.85-1.45.19-.62.28-1.34.28-2.17s-.09-1.57-.28-2.18c-.19-.62-.47-1.1-.85-1.45s-.84-.52-1.39-.52-1.01.17-1.39.5c-.38.33-.66.81-.85,1.44-.19.62-.28,1.36-.28,2.21s.09,1.57.28,2.19c.19.62.47,1.1.85,1.44.38.33.84.5,1.39.5s1.01-.17,1.39-.52Z"/>
    <path class="cls-1" d="m293.02,500.81h-2.94v-1.92h2.94v-1.48h2.28v11.66h-2.28v-8.26Z"/>
    <path class="cls-1" d="m302.25,503.64h8.4v1.73h-8.4v-1.73Z"/>
    <path class="cls-1" d="m317.31,497.18h5.85c.82,0,1.52.14,2.11.43.59.28,1.04.7,1.36,1.25.32.55.48,1.22.48,2.01s-.16,1.49-.48,2.05c-.32.56-.78.99-1.38,1.27s-1.29.44-2.08.45l-3.55.02v4.42h-2.29v-11.9Zm2.29,1.96v3.55h3.13c.65,0,1.14-.16,1.49-.47s.52-.76.52-1.35c0-.56-.17-.98-.52-1.28-.35-.3-.84-.45-1.49-.45h-3.13Z"/>
    <path class="cls-1" d="m328.43,500.29h2.12l.09,2.01c.04-.15.09-.29.14-.42.23-.6.56-1.05,1.01-1.35.45-.3,1.02-.44,1.71-.43.06,0,.16,0,.32.02v1.99c-.4-.01-.79-.02-1.17-.02-.44,0-.8.08-1.09.23-.28.15-.5.4-.65.74s-.22.78-.22,1.33v4.71h-2.26v-8.79Z"/>
    <path class="cls-1" d="m336.52,508.63c-.69-.37-1.23-.9-1.61-1.59-.39-.69-.58-1.5-.58-2.41s.19-1.74.58-2.43c.38-.69.92-1.22,1.61-1.59s1.47-.55,2.35-.55,1.67.19,2.36.56,1.23.9,1.61,1.59c.38.69.57,1.49.57,2.42s-.19,1.72-.57,2.41c-.38.69-.92,1.22-1.61,1.59s-1.48.56-2.36.56-1.66-.18-2.35-.55Zm3.54-1.59c.33-.2.58-.51.76-.92s.26-.91.26-1.5-.08-1.1-.25-1.51c-.17-.41-.42-.71-.76-.91-.33-.2-.73-.3-1.2-.31-.45-.01-.84.09-1.17.3-.33.21-.58.52-.76.93s-.26.91-.26,1.51.09,1.09.27,1.5c.18.41.43.72.76.93.32.2.71.31,1.17.31.46-.01.86-.12,1.19-.32Z"/>
    <path class="cls-1" d="m344.34,504.64c0-.93.18-1.74.54-2.43s.84-1.22,1.45-1.59c.61-.37,1.28-.55,2.01-.55.82,0,1.48.19,1.99.56.28.22.52.47.71.77v-4.39h2.26v12.07h-2.11l-.08-1.5c-.25.43-.57.79-.97,1.07-.56.4-1.24.59-2.06.59-.72,0-1.37-.18-1.93-.55-.56-.37-1-.9-1.33-1.6s-.48-1.52-.48-2.46Zm6.73-.02c0-.57-.09-1.05-.26-1.45s-.43-.71-.76-.94c-.33-.22-.72-.33-1.17-.33-.69.01-1.23.26-1.62.74-.39.48-.58,1.15-.57,2,0,.57.09,1.06.26,1.47.18.41.43.73.76.95.33.22.72.33,1.17.33.68,0,1.21-.25,1.6-.74.38-.49.58-1.17.59-2.03Z"/>
    <path class="cls-1" d="m354.95,505.91v-5.63h2.26v5.2c0,.69.14,1.19.42,1.5.28.31.72.47,1.32.47.39,0,.72-.09,1-.27.28-.18.5-.45.65-.81.15-.36.22-.81.22-1.35v-4.74h2.26v8.79h-2.12l-.08-1.55c-.25.54-.58.96-1,1.24-.48.33-1.07.49-1.78.49-.67,0-1.24-.12-1.7-.37-.46-.25-.82-.62-1.06-1.12-.24-.5-.37-1.12-.37-1.85Z"/>
    <path class="cls-1" d="m365.86,506.61v-4.54h-1.73v-1.79h1.73v-2.24h2.24v2.24h2.21v1.79h-2.21v4.3c0,.24.03.43.1.57.07.14.17.24.31.29s.33.08.57.08c.37,0,.77-.02,1.19-.05l.02,1.82c-.63.03-1.29.05-1.97.05-.52,0-.96-.09-1.33-.27-.36-.18-.64-.46-.84-.83s-.3-.84-.3-1.41Z"/>
    <path class="cls-1" d="m373.34,508.63c-.69-.37-1.23-.9-1.61-1.59-.39-.69-.58-1.5-.58-2.41s.19-1.74.58-2.43c.38-.69.92-1.22,1.61-1.59s1.47-.55,2.35-.55,1.67.19,2.36.56,1.23.9,1.61,1.59c.38.69.57,1.49.57,2.42s-.19,1.72-.57,2.41c-.38.69-.92,1.22-1.61,1.59s-1.48.56-2.36.56-1.66-.18-2.35-.55Zm3.54-1.59c.33-.2.58-.51.76-.92s.26-.91.26-1.5-.08-1.1-.25-1.51c-.17-.41-.42-.71-.76-.91-.33-.2-.73-.3-1.2-.31-.45-.01-.84.09-1.17.3-.33.21-.58.52-.76.93s-.26.91-.26,1.51.09,1.09.27,1.5c.18.41.43.72.76.93.32.2.71.31,1.17.31.46-.01.86-.12,1.19-.32Z"/>
  </g>
  <g>
    <path class="cls-1" d="m449.15,508.38c-.88-.5-1.57-1.21-2.07-2.13-.49-.92-.74-2-.74-3.24s.25-2.31.74-3.23,1.18-1.63,2.07-2.12c.88-.5,1.9-.75,3.04-.75s2.14.25,3.03.75c.88.5,1.57,1.21,2.07,2.12.49.92.74,1.99.74,3.23s-.25,2.32-.74,3.24c-.49.92-1.18,1.64-2.07,2.13-.88.5-1.89.75-3.03.75s-2.16-.25-3.04-.75Zm4.9-1.7c.51-.33.9-.8,1.16-1.42.26-.62.39-1.36.39-2.24s-.13-1.61-.39-2.24c-.26-.63-.65-1.11-1.16-1.44-.51-.33-1.13-.5-1.85-.5s-1.34.17-1.85.5c-.51.33-.9.82-1.16,1.44-.27.63-.4,1.38-.4,2.24s.13,1.6.4,2.23c.27.62.65,1.1,1.16,1.43.51.33,1.13.49,1.85.49s1.34-.16,1.85-.49Z"/>
    <path class="cls-1" d="m463.58,501.75c-.41,0-.76.09-1.07.27-.31.18-.54.45-.71.82-.16.36-.25.81-.25,1.34v4.78h-2.26v-8.79h2.12l.1,1.53c.26-.56.62-.98,1.07-1.28.5-.32,1.11-.48,1.84-.48.66,0,1.22.13,1.7.4.48.27.84.66,1.09,1.17.25.52.37,1.14.37,1.88v5.56h-2.24v-5.12c0-.46-.07-.85-.2-1.16-.13-.31-.33-.54-.59-.7-.26-.16-.59-.24-.99-.24Z"/>
    <path class="cls-1" d="m468.83,504.52c0-.93.18-1.74.54-2.43s.84-1.22,1.45-1.59c.61-.37,1.28-.55,2.01-.55.82,0,1.48.19,1.99.56.28.22.52.47.71.77v-4.39h2.26v12.07h-2.11l-.08-1.5c-.25.43-.57.79-.97,1.07-.56.4-1.24.59-2.06.59-.72,0-1.37-.18-1.93-.55-.56-.37-1-.9-1.33-1.6s-.48-1.52-.48-2.46Zm6.73-.02c0-.57-.09-1.05-.26-1.45s-.43-.71-.76-.94c-.33-.22-.72-.33-1.17-.33-.69.01-1.23.26-1.62.74-.39.48-.58,1.15-.57,2,0,.57.09,1.06.26,1.47.18.41.43.73.76.95.33.22.72.33,1.17.33.68,0,1.21-.25,1.6-.74.38-.49.58-1.17.59-2.03Z"/>
    <path class="cls-1" d="m479.12,506.58c0-.75.26-1.37.77-1.85.52-.49,1.29-.82,2.34-1l2.65-.44v-.15c-.01-.31-.08-.56-.2-.77s-.3-.37-.54-.48c-.24-.11-.54-.16-.88-.16-.54,0-.97.12-1.28.37-.31.25-.48.61-.52,1.07l-2.09-.27c.12-.93.53-1.65,1.21-2.17.68-.52,1.61-.77,2.79-.77,1.26,0,2.2.31,2.83.92.63.61.94,1.47.94,2.57v5.53h-2.12l-.12-1.65v.02c-.24.56-.59.99-1.07,1.32-.48.32-1.08.48-1.82.48-.57,0-1.07-.1-1.5-.31-.44-.2-.78-.5-1.02-.88-.24-.39-.37-.84-.37-1.36Zm5.76-1.9l-1.92.39c-.56.11-.96.27-1.2.47-.24.2-.37.47-.37.81.02.33.15.59.37.77.23.19.56.28.99.28.4,0,.75-.07,1.06-.22s.56-.35.75-.62c.19-.27.29-.59.31-.96v-.92Z"/>
    <path class="cls-1" d="m495.4,508.38c-.74-.5-1.3-1.2-1.69-2.1-.39-.9-.59-1.95-.59-3.15s.2-2.24.59-3.14c.39-.9.96-1.6,1.69-2.1.74-.5,1.6-.75,2.58-.75s1.86.25,2.59.75c.73.5,1.29,1.2,1.68,2.1.39.9.59,1.95.59,3.14s-.2,2.25-.59,3.15c-.39.9-.95,1.6-1.68,2.1-.73.5-1.6.75-2.59.75s-1.85-.25-2.58-.75Zm3.97-1.62c.38-.35.66-.83.85-1.45.19-.62.28-1.34.28-2.17s-.09-1.57-.28-2.18c-.19-.62-.47-1.1-.85-1.45s-.84-.52-1.39-.52-1.01.17-1.39.5c-.38.33-.66.81-.85,1.44-.19.62-.28,1.36-.28,2.21s.09,1.57.28,2.19c.19.62.47,1.1.85,1.44.38.33.84.5,1.39.5s1.01-.17,1.39-.52Z"/>
    <path class="cls-1" d="m503.85,507.31l3.67-3.03.2-.17c.5-.42.9-.8,1.21-1.15s.54-.69.71-1.05c.16-.35.25-.73.25-1.14s-.07-.73-.2-.99-.33-.46-.59-.59c-.26-.14-.58-.2-.95-.2-.68,0-1.19.23-1.54.7s-.5,1.13-.45,2.01l-2.28-.32c.01-1.39.41-2.45,1.18-3.16s1.83-1.07,3.15-1.07c.84,0,1.56.14,2.18.43.61.29,1.07.71,1.38,1.25s.47,1.19.47,1.94c0,.63-.14,1.22-.43,1.76s-.67,1.04-1.14,1.5c-.47.46-1.11,1.02-1.93,1.67-.14.11-.28.23-.42.34l-1.29,1.07h5.52v1.85h-8.69v-1.65Z"/>
    <path class="cls-1" d="m518.44,503.52h8.4v1.73h-8.4v-1.73Z"/>
    <path class="cls-1" d="m533.5,497.06h5.85c.82,0,1.52.14,2.11.43.59.28,1.04.7,1.36,1.25.32.55.48,1.22.48,2.01s-.16,1.49-.48,2.05c-.32.56-.78.99-1.38,1.27s-1.29.44-2.08.45l-3.55.02v4.42h-2.29v-11.9Zm2.29,1.96v3.55h3.13c.65,0,1.14-.16,1.49-.47s.52-.76.52-1.35c0-.56-.17-.98-.52-1.28-.35-.3-.84-.45-1.49-.45h-3.13Z"/>
    <path class="cls-1" d="m544.21,504.52c0-.92.19-1.72.57-2.41s.91-1.22,1.58-1.6c.67-.37,1.45-.56,2.34-.56.82,0,1.54.18,2.17.53.63.35,1.12.85,1.48,1.5.36.65.54,1.41.54,2.27v.9h-6.34c.04.35.12.66.24.93.18.42.45.73.79.93s.76.3,1.23.31c.57,0,1-.12,1.3-.36.3-.24.5-.61.6-1.1l2.09.31c-.16.61-.42,1.14-.79,1.57-.37.44-.83.78-1.39,1.02-.56.24-1.2.37-1.91.37-.93,0-1.73-.19-2.41-.56-.67-.37-1.19-.91-1.55-1.6-.36-.69-.54-1.51-.54-2.45Zm2.38-1.04h4.06c-.03-.22-.08-.41-.14-.6-.15-.38-.37-.68-.68-.88-.31-.2-.7-.31-1.17-.31s-.89.11-1.22.33c-.32.22-.56.54-.72.96-.06.15-.1.31-.14.49Z"/>
    <path class="cls-1" d="m555.76,508.79c-.58-.23-1.05-.56-1.39-.99-.34-.44-.54-.95-.61-1.54l2.09-.34c.07.54.28.93.63,1.17.35.24.8.36,1.34.36.48,0,.85-.08,1.12-.24.27-.16.41-.41.41-.76,0-.19-.05-.35-.14-.48-.1-.12-.24-.22-.42-.3-.19-.07-.45-.14-.77-.21l-1.39-.27c-.79-.16-1.4-.46-1.82-.9-.42-.44-.63-1.03-.63-1.75,0-.8.31-1.44.94-1.9.62-.46,1.49-.69,2.6-.69.71,0,1.34.1,1.87.31.53.21.96.51,1.27.9.31.39.51.86.59,1.4l-2.09.32c-.06-.46-.23-.8-.51-.99s-.66-.3-1.12-.3c-.29,0-.54.03-.75.09s-.36.15-.47.27c-.11.12-.16.27-.16.47,0,.16.04.29.11.41.07.11.18.2.32.27.14.07.33.13.55.19l1.6.36c.87.19,1.52.5,1.96.93.43.43.65,1.03.65,1.81,0,.54-.16,1.02-.48,1.44-.32.41-.76.73-1.33.96s-1.21.34-1.94.34-1.43-.11-2.01-.34Z"/>
    <path class="cls-1" d="m564.29,508.79c-.58-.23-1.05-.56-1.39-.99-.34-.44-.54-.95-.61-1.54l2.09-.34c.07.54.28.93.63,1.17.35.24.8.36,1.34.36.48,0,.85-.08,1.12-.24.27-.16.41-.41.41-.76,0-.19-.05-.35-.14-.48-.1-.12-.24-.22-.42-.3-.19-.07-.45-.14-.77-.21l-1.39-.27c-.79-.16-1.4-.46-1.82-.9-.42-.44-.63-1.03-.63-1.75,0-.8.31-1.44.94-1.9.62-.46,1.49-.69,2.6-.69.71,0,1.34.1,1.87.31.53.21.96.51,1.27.9.31.39.51.86.59,1.4l-2.09.32c-.06-.46-.23-.8-.51-.99s-.66-.3-1.12-.3c-.29,0-.54.03-.75.09s-.36.15-.47.27c-.11.12-.16.27-.16.47,0,.16.04.29.11.41.07.11.18.2.32.27.14.07.33.13.55.19l1.6.36c.87.19,1.52.5,1.96.93.43.43.65,1.03.65,1.81,0,.54-.16,1.02-.48,1.44-.32.41-.76.73-1.33.96s-1.21.34-1.94.34-1.43-.11-2.01-.34Z"/>
    <path class="cls-1" d="m573.07,508.51c-.69-.37-1.23-.9-1.61-1.59-.39-.69-.58-1.5-.58-2.41s.19-1.74.58-2.43c.38-.69.92-1.22,1.61-1.59s1.47-.55,2.35-.55,1.67.19,2.36.56,1.23.9,1.61,1.59c.38.69.57,1.49.57,2.42s-.19,1.72-.57,2.41c-.38.69-.92,1.22-1.61,1.59s-1.48.56-2.36.56-1.66-.18-2.35-.55Zm3.54-1.59c.33-.2.58-.51.76-.92s.26-.91.26-1.5-.08-1.1-.25-1.51c-.17-.41-.42-.71-.76-.91-.33-.2-.73-.3-1.2-.31-.45-.01-.84.09-1.17.3-.33.21-.58.52-.76.93s-.26.91-.26,1.51.09,1.09.27,1.5c.18.41.43.72.76.93.32.2.71.31,1.17.31.46-.01.86-.12,1.19-.32Z"/>
    <path class="cls-1" d="m580.89,506.58c0-.75.26-1.37.77-1.85.52-.49,1.29-.82,2.34-1l2.65-.44v-.15c-.01-.31-.08-.56-.2-.77s-.3-.37-.54-.48c-.24-.11-.54-.16-.88-.16-.54,0-.97.12-1.28.37-.31.25-.48.61-.52,1.07l-2.09-.27c.12-.93.53-1.65,1.21-2.17.68-.52,1.61-.77,2.79-.77,1.26,0,2.2.31,2.83.92.63.61.94,1.47.94,2.57v5.53h-2.12l-.12-1.65v.02c-.24.56-.59.99-1.07,1.32-.48.32-1.08.48-1.82.48-.57,0-1.07-.1-1.5-.31-.44-.2-.78-.5-1.02-.88-.24-.39-.37-.84-.37-1.36Zm5.76-1.9l-1.92.39c-.56.11-.96.27-1.2.47-.24.2-.37.47-.37.81.02.33.15.59.37.77.23.19.56.28.99.28.4,0,.75-.07,1.06-.22s.56-.35.75-.62c.19-.27.29-.59.31-.96v-.92Z"/>
    <path class="cls-1" d="m592.19,508.79c-.58-.23-1.05-.56-1.39-.99-.34-.44-.54-.95-.61-1.54l2.09-.34c.07.54.28.93.63,1.17.35.24.8.36,1.34.36.48,0,.85-.08,1.12-.24.27-.16.41-.41.41-.76,0-.19-.05-.35-.14-.48-.1-.12-.24-.22-.42-.3-.19-.07-.45-.14-.77-.21l-1.39-.27c-.79-.16-1.4-.46-1.82-.9-.42-.44-.63-1.03-.63-1.75,0-.8.31-1.44.94-1.9.62-.46,1.49-.69,2.6-.69.71,0,1.34.1,1.87.31.53.21.96.51,1.27.9.31.39.51.86.59,1.4l-2.09.32c-.06-.46-.23-.8-.51-.99s-.66-.3-1.12-.3c-.29,0-.54.03-.75.09s-.36.15-.47.27c-.11.12-.16.27-.16.47,0,.16.04.29.11.41.07.11.18.2.32.27.14.07.33.13.55.19l1.6.36c.87.19,1.52.5,1.96.93.43.43.65,1.03.65,1.81,0,.54-.16,1.02-.48,1.44-.32.41-.76.73-1.33.96s-1.21.34-1.94.34-1.43-.11-2.01-.34Z"/>
  </g>
  <g>
    <path class="cls-1" d="m690.28,508.5c-.88-.5-1.57-1.21-2.07-2.13-.49-.92-.74-2-.74-3.24s.25-2.31.74-3.23,1.18-1.63,2.07-2.12c.88-.5,1.9-.75,3.04-.75s2.14.25,3.03.75c.88.5,1.57,1.21,2.07,2.12.49.92.74,1.99.74,3.23s-.25,2.32-.74,3.24c-.49.92-1.18,1.64-2.07,2.13-.88.5-1.89.75-3.03.75s-2.16-.25-3.04-.75Zm4.9-1.7c.51-.33.9-.8,1.16-1.42.26-.62.39-1.36.39-2.24s-.13-1.61-.39-2.24c-.26-.63-.65-1.11-1.16-1.44-.51-.33-1.13-.5-1.85-.5s-1.34.17-1.85.5c-.51.33-.9.82-1.16,1.44-.27.63-.4,1.38-.4,2.24s.13,1.6.4,2.23c.27.62.65,1.1,1.16,1.43.51.33,1.13.49,1.85.49s1.34-.16,1.85-.49Z"/>
    <path class="cls-1" d="m704.72,501.87c-.41,0-.76.09-1.07.27-.31.18-.54.45-.71.82-.16.36-.25.81-.25,1.34v4.78h-2.26v-8.79h2.12l.1,1.53c.26-.56.62-.98,1.07-1.28.5-.32,1.11-.48,1.84-.48.66,0,1.22.13,1.7.4.48.27.84.66,1.09,1.17.25.52.37,1.14.37,1.88v5.56h-2.24v-5.12c0-.46-.07-.85-.2-1.16-.13-.31-.33-.54-.59-.7-.26-.16-.59-.24-.99-.24Z"/>
    <path class="cls-1" d="m709.97,504.64c0-.93.18-1.74.54-2.43s.84-1.22,1.45-1.59c.61-.37,1.28-.55,2.01-.55.82,0,1.48.19,1.99.56.28.22.52.47.71.77v-4.39h2.26v12.07h-2.11l-.08-1.5c-.25.43-.57.79-.97,1.07-.56.4-1.24.59-2.06.59-.72,0-1.37-.18-1.93-.55-.56-.37-1-.9-1.33-1.6s-.48-1.52-.48-2.46Zm6.73-.02c0-.57-.09-1.05-.26-1.45s-.43-.71-.76-.94c-.33-.22-.72-.33-1.17-.33-.69.01-1.23.26-1.62.74-.39.48-.58,1.15-.57,2,0,.57.09,1.06.26,1.47.18.41.43.73.76.95.33.22.72.33,1.17.33.68,0,1.21-.25,1.6-.74.38-.49.58-1.17.59-2.03Z"/>
    <path class="cls-1" d="m720.25,506.7c0-.75.26-1.37.77-1.85.52-.49,1.29-.82,2.34-1l2.65-.44v-.15c-.01-.31-.08-.56-.2-.77s-.3-.37-.54-.48c-.24-.11-.54-.16-.88-.16-.54,0-.97.12-1.28.37-.31.25-.48.61-.52,1.07l-2.09-.27c.12-.93.53-1.65,1.21-2.17.68-.52,1.61-.77,2.79-.77,1.26,0,2.2.31,2.83.92.63.61.94,1.47.94,2.57v5.53h-2.12l-.12-1.65v.02c-.24.56-.59.99-1.07,1.32-.48.32-1.08.48-1.82.48-.57,0-1.07-.1-1.5-.31-.44-.2-.78-.5-1.02-.88-.24-.39-.37-.84-.37-1.36Zm5.76-1.9l-1.92.39c-.56.11-.96.27-1.2.47-.24.2-.37.47-.37.81.02.33.15.59.37.77.23.19.56.28.99.28.4,0,.75-.07,1.06-.22s.56-.35.75-.62c.19-.27.29-.59.31-.96v-.92Z"/>
    <path class="cls-1" d="m736.54,508.5c-.74-.5-1.3-1.2-1.69-2.1-.39-.9-.59-1.95-.59-3.15s.2-2.24.59-3.14c.39-.9.96-1.6,1.69-2.1.74-.5,1.6-.75,2.58-.75s1.86.25,2.59.75c.73.5,1.29,1.2,1.68,2.1.39.9.59,1.95.59,3.14s-.2,2.25-.59,3.15c-.39.9-.95,1.6-1.68,2.1-.73.5-1.6.75-2.59.75s-1.85-.25-2.58-.75Zm3.97-1.62c.38-.35.66-.83.85-1.45.19-.62.28-1.34.28-2.17s-.09-1.57-.28-2.18c-.19-.62-.47-1.1-.85-1.45s-.84-.52-1.39-.52-1.01.17-1.39.5c-.38.33-.66.81-.85,1.44-.19.62-.28,1.36-.28,2.21s.09,1.57.28,2.19c.19.62.47,1.1.85,1.44.38.33.84.5,1.39.5s1.01-.17,1.39-.52Z"/>
    <path class="cls-1" d="m744.8,505.54l2.24-.31c.06.66.27,1.18.65,1.58s.9.59,1.57.59c.63,0,1.14-.15,1.51-.46s.56-.73.56-1.28c0-.36-.09-.68-.26-.94-.18-.27-.42-.47-.73-.6-.31-.14-.67-.2-1.06-.2h-.97v-1.75h.75c.61,0,1.09-.13,1.44-.39.35-.26.53-.63.53-1.12s-.16-.9-.48-1.16c-.32-.26-.75-.39-1.29-.39-.62,0-1.11.17-1.46.51-.35.34-.55.84-.6,1.5l-2.24-.31c.07-1.14.5-2.02,1.29-2.63.79-.61,1.81-.92,3.06-.93.78,0,1.48.12,2.1.35.62.23,1.1.58,1.44,1.05s.51,1.03.51,1.7c0,.49-.11.92-.32,1.31-.21.39-.53.71-.93.97-.24.15-.5.27-.8.37.36.11.69.25.97.41.46.26.82.6,1.05,1.03.24.43.36.93.36,1.52,0,.66-.19,1.24-.56,1.73s-.9.88-1.56,1.16c-.67.27-1.46.41-2.36.41s-1.64-.15-2.27-.45c-.63-.3-1.12-.72-1.48-1.27-.36-.55-.58-1.22-.66-2Z"/>
    <path class="cls-1" d="m759.76,503.64h8.4v1.73h-8.4v-1.73Z"/>
    <path class="cls-1" d="m774.82,497.18h5.85c.82,0,1.52.14,2.11.43.59.28,1.04.7,1.36,1.25.32.55.48,1.22.48,2.01s-.16,1.49-.48,2.05c-.32.56-.78.99-1.38,1.27s-1.29.44-2.08.45l-3.55.02v4.42h-2.29v-11.9Zm2.29,1.96v3.55h3.13c.65,0,1.14-.16,1.49-.47s.52-.76.52-1.35c0-.56-.17-.98-.52-1.28-.35-.3-.84-.45-1.49-.45h-3.13Z"/>
    <path class="cls-1" d="m785.94,500.29h2.12l.09,2.01c.04-.15.09-.29.14-.42.23-.6.56-1.05,1.01-1.35.45-.3,1.02-.44,1.71-.43.06,0,.16,0,.32.02v1.99c-.4-.01-.79-.02-1.17-.02-.44,0-.8.08-1.09.23-.28.15-.5.4-.65.74s-.22.78-.22,1.33v4.71h-2.26v-8.79Z"/>
    <path class="cls-1" d="m794.03,508.63c-.69-.37-1.23-.9-1.61-1.59-.39-.69-.58-1.5-.58-2.41s.19-1.74.58-2.43c.38-.69.92-1.22,1.61-1.59s1.47-.55,2.35-.55,1.67.19,2.36.56,1.23.9,1.61,1.59c.38.69.57,1.49.57,2.42s-.19,1.72-.57,2.41c-.38.69-.92,1.22-1.61,1.59s-1.48.56-2.36.56-1.66-.18-2.35-.55Zm3.54-1.59c.33-.2.58-.51.76-.92s.26-.91.26-1.5-.08-1.1-.25-1.51c-.17-.41-.42-.71-.76-.91-.33-.2-.73-.3-1.2-.31-.45-.01-.84.09-1.17.3-.33.21-.58.52-.76.93s-.26.91-.26,1.51.09,1.09.27,1.5c.18.41.43.72.76.93.32.2.71.31,1.17.31.46-.01.86-.12,1.19-.32Z"/>
    <path class="cls-1" d="m802.26,500.29h2.12l.1,1.41c.24-.43.55-.79.95-1.07.53-.37,1.21-.56,2.02-.56.73,0,1.37.18,1.94.54.57.36,1.01.89,1.33,1.58.32.69.48,1.51.48,2.45s-.18,1.74-.53,2.44c-.35.7-.83,1.23-1.44,1.6-.61.37-1.29.56-2.02.57-.77,0-1.41-.2-1.9-.59-.32-.25-.58-.56-.78-.94v4.76h-2.26v-12.19Zm6.61,4.35c0-.85-.2-1.52-.59-2.01-.39-.49-.93-.73-1.61-.73s-1.21.24-1.59.72-.57,1.15-.57,2.01c0,.57.08,1.06.25,1.47.17.41.42.73.74.95s.71.33,1.17.33c.68,0,1.21-.24,1.61-.73.39-.49.59-1.16.59-2.02Z"/>
    <path class="cls-1" d="m814.33,508.63c-.69-.37-1.23-.9-1.61-1.59-.39-.69-.58-1.5-.58-2.41s.19-1.74.58-2.43c.38-.69.92-1.22,1.61-1.59s1.47-.55,2.35-.55,1.67.19,2.36.56,1.23.9,1.61,1.59c.38.69.57,1.49.57,2.42s-.19,1.72-.57,2.41c-.38.69-.92,1.22-1.61,1.59s-1.48.56-2.36.56-1.66-.18-2.35-.55Zm3.54-1.59c.33-.2.58-.51.76-.92s.26-.91.26-1.5-.08-1.1-.25-1.51c-.17-.41-.42-.71-.76-.91-.33-.2-.73-.3-1.2-.31-.45-.01-.84.09-1.17.3-.33.21-.58.52-.76.93s-.26.91-.26,1.51.09,1.09.27,1.5c.18.41.43.72.76.93.32.2.71.31,1.17.31.46-.01.86-.12,1.19-.32Zm-1.02-10.78h2.63l-2.11,2.75h-1.34l.82-2.75Z"/>
    <path class="cls-1" d="m824.04,508.91c-.58-.23-1.05-.56-1.39-.99-.34-.44-.54-.95-.61-1.54l2.09-.34c.07.54.28.93.63,1.17.35.24.8.36,1.34.36.48,0,.85-.08,1.12-.24.27-.16.41-.41.41-.76,0-.19-.05-.35-.14-.48-.1-.12-.24-.22-.42-.3-.19-.07-.45-.14-.77-.21l-1.39-.27c-.79-.16-1.4-.46-1.82-.9-.42-.44-.63-1.03-.63-1.75,0-.8.31-1.44.94-1.9.62-.46,1.49-.69,2.6-.69.71,0,1.34.1,1.87.31.53.21.96.51,1.27.9.31.39.51.86.59,1.4l-2.09.32c-.06-.46-.23-.8-.51-.99s-.66-.3-1.12-.3c-.29,0-.54.03-.75.09s-.36.15-.47.27c-.11.12-.16.27-.16.47,0,.16.04.29.11.41.07.11.18.2.32.27.14.07.33.13.55.19l1.6.36c.87.19,1.52.5,1.96.93.43.43.65,1.03.65,1.81,0,.54-.16,1.02-.48,1.44-.32.41-.76.73-1.33.96s-1.21.34-1.94.34-1.43-.11-2.01-.34Z"/>
    <path class="cls-1" d="m831.09,496.68h2.35v2.19h-2.35v-2.19Zm.05,3.6h2.26v8.79h-2.26v-8.79Z"/>
    <path class="cls-1" d="m836.28,506.61v-4.54h-1.73v-1.79h1.73v-2.24h2.24v2.24h2.21v1.79h-2.21v4.3c0,.24.03.43.1.57.07.14.17.24.31.29s.33.08.57.08c.37,0,.77-.02,1.19-.05l.02,1.82c-.63.03-1.29.05-1.97.05-.52,0-.96-.09-1.33-.27-.36-.18-.64-.46-.84-.83s-.3-.84-.3-1.41Z"/>
    <path class="cls-1" d="m843.76,508.63c-.69-.37-1.23-.9-1.61-1.59-.39-.69-.58-1.5-.58-2.41s.19-1.74.58-2.43c.38-.69.92-1.22,1.61-1.59s1.47-.55,2.35-.55,1.67.19,2.36.56,1.23.9,1.61,1.59c.38.69.57,1.49.57,2.42s-.19,1.72-.57,2.41c-.38.69-.92,1.22-1.61,1.59s-1.48.56-2.36.56-1.66-.18-2.35-.55Zm3.54-1.59c.33-.2.58-.51.76-.92s.26-.91.26-1.5-.08-1.1-.25-1.51c-.17-.41-.42-.71-.76-.91-.33-.2-.73-.3-1.2-.31-.45-.01-.84.09-1.17.3-.33.21-.58.52-.76.93s-.26.91-.26,1.51.09,1.09.27,1.5c.18.41.43.72.76.93.32.2.71.31,1.17.31.46-.01.86-.12,1.19-.32Z"/>
  </g>
</svg>
