<?xml version="1.0" encoding="UTF-8"?>
<svg id="Camada_1" data-name="Camada 1" xmlns="http://www.w3.org/2000/svg" viewBox="0 0 1757.75 642.71">
  <defs>
    <style>
      .cls-1 {
        fill: #fff;
        stroke-width: 0px;
      }
    </style>
  </defs>
  <g>
    <path class="cls-1" d="m332.85,636.5c-1.38-.78-2.45-1.89-3.22-3.33-.77-1.44-1.15-3.12-1.15-5.05s.38-3.61,1.15-5.04c.77-1.43,1.84-2.54,3.22-3.31,1.38-.78,2.96-1.17,4.75-1.17s3.34.39,4.72,1.17c1.38.78,2.45,1.88,3.22,3.31.77,1.43,1.15,3.11,1.15,5.04s-.38,3.61-1.15,5.05c-.77,1.44-1.84,2.55-3.22,3.33-1.38.78-2.95,1.17-4.72,1.17s-3.37-.39-4.75-1.17Zm7.64-2.65c.8-.51,1.4-1.25,1.8-2.21.41-.96.61-2.13.61-3.49s-.2-2.5-.61-3.49c-.41-.98-1.01-1.73-1.8-2.25-.79-.52-1.76-.78-2.89-.78s-2.09.26-2.89.78c-.79.52-1.4,1.27-1.82,2.25-.42.98-.62,2.14-.62,3.49s.21,2.5.62,3.47c.42.97,1.02,1.71,1.82,2.23.8.51,1.76.77,2.89.77s2.09-.26,2.89-.77Z"/>
    <path class="cls-1" d="m355.36,626.16c-.64,0-1.19.14-1.67.42-.48.28-.84.71-1.1,1.27-.26.57-.38,1.26-.38,2.09v7.45h-3.53v-13.71h3.31l.16,2.39c.41-.87.96-1.53,1.67-1.99.78-.49,1.73-.74,2.86-.74,1.02,0,1.91.21,2.65.62.74.42,1.31,1.03,1.7,1.83.39.8.58,1.78.58,2.93v8.67h-3.5v-7.98c0-.72-.1-1.33-.31-1.8-.2-.48-.51-.84-.91-1.09-.41-.25-.92-.37-1.54-.37Z"/>
    <path class="cls-1" d="m363.55,630.48c0-1.45.28-2.71.84-3.79s1.31-1.9,2.25-2.48c.95-.57,1.99-.86,3.14-.86,1.27,0,2.31.29,3.1.88.44.34.81.73,1.11,1.19v-6.84h3.53v18.83h-3.29l-.13-2.33c-.39.67-.89,1.23-1.51,1.67-.87.62-1.94.93-3.21.93-1.13,0-2.13-.29-3.01-.86-.88-.57-1.56-1.41-2.07-2.49s-.76-2.36-.76-3.83Zm10.5-.03c0-.88-.14-1.64-.41-2.27-.27-.63-.67-1.11-1.18-1.46s-1.12-.52-1.83-.52c-1.08.02-1.92.4-2.53,1.15-.61.75-.91,1.79-.89,3.12,0,.88.14,1.65.41,2.29.27.65.67,1.14,1.18,1.49s1.12.52,1.83.52c1.06,0,1.89-.38,2.49-1.15.6-.77.91-1.83.93-3.17Z"/>
    <path class="cls-1" d="m379.59,633.69c0-1.17.4-2.13,1.21-2.89.8-.76,2.02-1.28,3.65-1.56l4.14-.69v-.24c-.02-.48-.12-.88-.31-1.21s-.47-.57-.85-.74-.83-.25-1.37-.25c-.85,0-1.52.19-2,.58s-.75.95-.81,1.67l-3.26-.42c.19-1.45.82-2.58,1.88-3.38,1.06-.8,2.51-1.21,4.35-1.21,1.96,0,3.43.48,4.42,1.43.98.96,1.47,2.29,1.47,4v8.62h-3.31l-.19-2.57v.03c-.37.87-.93,1.55-1.67,2.05s-1.69.76-2.84.76c-.88,0-1.67-.16-2.35-.48s-1.21-.78-1.59-1.38c-.38-.6-.57-1.31-.57-2.12Zm8.99-2.97l-3,.61c-.87.18-1.49.42-1.87.73-.38.31-.57.73-.57,1.26.04.51.23.91.58,1.21s.87.44,1.54.44c.62,0,1.17-.11,1.66-.34.49-.23.88-.55,1.17-.97.29-.42.46-.92.49-1.5v-1.43Z"/>
    <path class="cls-1" d="m405,636.5c-1.15-.78-2.03-1.87-2.64-3.27-.61-1.41-.92-3.04-.92-4.92s.31-3.49.92-4.89c.61-1.41,1.49-2.5,2.64-3.27,1.15-.78,2.49-1.17,4.03-1.17s2.9.39,4.04,1.17c1.14.78,2.02,1.87,2.62,3.27s.92,3.04.92,4.89-.31,3.51-.92,4.92-1.48,2.5-2.62,3.27c-1.14.78-2.49,1.17-4.04,1.17s-2.88-.39-4.03-1.17Zm6.19-2.53c.59-.54,1.03-1.29,1.33-2.25.29-.96.44-2.09.44-3.38s-.15-2.44-.44-3.41c-.29-.96-.73-1.71-1.33-2.25-.59-.54-1.31-.81-2.16-.81s-1.57.26-2.16.78c-.59.52-1.03,1.27-1.33,2.24-.29.97-.44,2.12-.44,3.45s.15,2.45.44,3.42c.29.97.73,1.72,1.33,2.24.59.52,1.31.78,2.16.78s1.57-.27,2.16-.81Z"/>
    <path class="cls-1" d="m422.89,624.52h-4.59v-3h4.59v-2.31h3.55v18.19h-3.55v-12.89Z"/>
    <path class="cls-1" d="m437.29,628.92h13.1v2.7h-13.1v-2.7Z"/>
    <path class="cls-1" d="m460.78,618.84h9.12c1.27,0,2.37.22,3.29.66.92.44,1.63,1.09,2.12,1.95s.74,1.9.74,3.14-.25,2.32-.76,3.2c-.5.88-1.22,1.54-2.15,1.99-.93.45-2.01.69-3.25.7l-5.54.03v6.89h-3.58v-18.56Zm3.58,3.05v5.54h4.88c1.01,0,1.78-.24,2.32-.73s.81-1.19.81-2.11c0-.87-.27-1.53-.81-2-.54-.47-1.31-.7-2.32-.7h-4.88Z"/>
    <path class="cls-1" d="m478.12,623.69h3.31l.13,3.13c.07-.23.14-.45.21-.66.35-.94.88-1.64,1.58-2.11.7-.47,1.59-.69,2.67-.68.09,0,.26,0,.5.03v3.1c-.62-.02-1.23-.03-1.83-.03-.69,0-1.25.12-1.7.36-.44.24-.78.62-1.01,1.15-.23.53-.34,1.22-.34,2.07v7.34h-3.53v-13.71Z"/>
    <path class="cls-1" d="m490.74,636.7c-1.08-.57-1.92-1.4-2.52-2.48-.6-1.08-.9-2.33-.9-3.76s.3-2.71.9-3.79c.6-1.08,1.44-1.9,2.52-2.48,1.08-.57,2.3-.86,3.66-.86s2.61.29,3.69.88c1.08.58,1.91,1.41,2.5,2.48.59,1.07.89,2.33.89,3.78s-.3,2.68-.89,3.75c-.59,1.07-1.43,1.9-2.5,2.48-1.08.58-2.31.88-3.69.88s-2.58-.29-3.66-.86Zm5.51-2.48c.51-.32.91-.8,1.18-1.43.27-.64.41-1.41.41-2.33s-.13-1.72-.4-2.36-.66-1.11-1.18-1.42c-.52-.31-1.14-.47-1.87-.49-.71-.02-1.32.14-1.83.46-.51.33-.91.81-1.18,1.45-.27.64-.41,1.42-.41,2.36s.14,1.7.42,2.35c.28.65.68,1.13,1.18,1.45s1.11.48,1.82.48c.72-.02,1.34-.19,1.86-.5Z"/>
    <path class="cls-1" d="m502.94,630.48c0-1.45.28-2.71.84-3.79s1.31-1.9,2.25-2.48c.95-.57,1.99-.86,3.14-.86,1.27,0,2.31.29,3.1.88.44.34.81.73,1.11,1.19v-6.84h3.53v18.83h-3.29l-.13-2.33c-.39.67-.89,1.23-1.51,1.67-.87.62-1.94.93-3.21.93-1.13,0-2.13-.29-3.01-.86-.88-.57-1.56-1.41-2.07-2.49s-.76-2.36-.76-3.83Zm10.5-.03c0-.88-.14-1.64-.41-2.27-.27-.63-.67-1.11-1.18-1.46s-1.12-.52-1.83-.52c-1.08.02-1.92.4-2.53,1.15-.61.75-.91,1.79-.89,3.12,0,.88.14,1.65.41,2.29.27.65.67,1.14,1.18,1.49s1.12.52,1.83.52c1.06,0,1.89-.38,2.49-1.15.6-.77.91-1.83.93-3.17Z"/>
    <path class="cls-1" d="m519.48,632.47v-8.78h3.53v8.11c0,1.08.22,1.86.65,2.35.43.49,1.12.73,2.05.73.6,0,1.12-.14,1.56-.42.44-.28.78-.7,1.01-1.26.23-.56.34-1.26.34-2.11v-7.4h3.53v13.71h-3.31l-.13-2.41c-.39.85-.91,1.49-1.56,1.94-.74.51-1.67.77-2.78.77-1.04,0-1.93-.2-2.65-.58s-1.28-.97-1.66-1.75c-.38-.78-.57-1.74-.57-2.89Z"/>
    <path class="cls-1" d="m536.5,633.56v-7.08h-2.7v-2.78h2.7v-3.5h3.5v3.5h3.45v2.78h-3.45v6.71c0,.37.05.67.16.89.11.22.27.37.49.45.22.08.52.12.89.12.58,0,1.2-.03,1.86-.08l.03,2.84c-.99.05-2.02.08-3.08.08-.81,0-1.5-.14-2.07-.42-.57-.28-1-.72-1.31-1.3-.31-.58-.46-1.32-.46-2.2Z"/>
    <path class="cls-1" d="m548.17,636.7c-1.08-.57-1.92-1.4-2.52-2.48-.6-1.08-.9-2.33-.9-3.76s.3-2.71.9-3.79c.6-1.08,1.44-1.9,2.52-2.48,1.08-.57,2.3-.86,3.66-.86s2.61.29,3.69.88c1.08.58,1.91,1.41,2.5,2.48.59,1.07.89,2.33.89,3.78s-.3,2.68-.89,3.75c-.59,1.07-1.43,1.9-2.5,2.48-1.08.58-2.31.88-3.69.88s-2.58-.29-3.66-.86Zm5.51-2.48c.51-.32.91-.8,1.18-1.43.27-.64.41-1.41.41-2.33s-.13-1.72-.4-2.36-.66-1.11-1.18-1.42c-.52-.31-1.14-.47-1.87-.49-.71-.02-1.32.14-1.83.46-.51.33-.91.81-1.18,1.45-.27.64-.41,1.42-.41,2.36s.14,1.7.42,2.35c.28.65.68,1.13,1.18,1.45s1.11.48,1.82.48c.72-.02,1.34-.19,1.86-.5Z"/>
  </g>
  <g>
    <path class="cls-1" d="m7.41,616.99c-1.44-.81-2.55-1.98-3.35-3.5-.79-1.52-1.19-3.32-1.19-5.39s.4-3.78,1.2-5.29c.8-1.51,1.91-2.68,3.33-3.5,1.42-.82,3.04-1.23,4.87-1.23,1.59,0,3.01.28,4.26.82,1.25.55,2.26,1.35,3.04,2.38.77,1.04,1.25,2.24,1.41,3.63l-3.72.64c-.24-1.46-.8-2.53-1.67-3.23-.87-.7-1.96-1.05-3.29-1.05-.93,0-1.82.24-2.65.71-.83.48-1.5,1.23-2.02,2.25-.51,1.03-.77,2.31-.77,3.84s.24,2.73.71,3.77c.48,1.04,1.13,1.82,1.96,2.35.83.53,1.77.8,2.81.8,1.31,0,2.4-.33,3.28-.98.88-.65,1.46-1.7,1.74-3.14l3.72.59c-.26,1.38-.78,2.58-1.55,3.6-.77,1.02-1.78,1.8-3.01,2.34s-2.62.81-4.17.81c-1.87,0-3.52-.41-4.96-1.22Z"/>
    <path class="cls-1" d="m25.72,617.18c-1.14-.61-2.03-1.48-2.66-2.62-.63-1.14-.95-2.46-.95-3.97s.32-2.87.95-4c.63-1.14,1.52-2.01,2.66-2.62,1.14-.61,2.43-.91,3.86-.91s2.75.31,3.89.92c1.14.62,2.02,1.49,2.65,2.62.62,1.13.94,2.46.94,3.99s-.31,2.83-.94,3.96c-.63,1.13-1.51,2-2.65,2.62-1.14.62-2.44.92-3.89.92s-2.73-.3-3.86-.91Zm5.82-2.62c.54-.34.96-.84,1.25-1.51.29-.67.43-1.49.43-2.46s-.14-1.82-.42-2.49c-.28-.67-.7-1.17-1.25-1.5-.55-.33-1.21-.5-1.97-.52-.75-.02-1.39.14-1.93.49-.54.34-.96.85-1.25,1.53-.29.67-.43,1.5-.43,2.49s.15,1.8.45,2.48c.3.68.71,1.19,1.25,1.53.53.34,1.17.5,1.92.5.77-.02,1.42-.2,1.96-.53Z"/>
    <path class="cls-1" d="m54.87,606.05c-.91,0-1.61.3-2.1.9-.49.58-.73,1.45-.73,2.6v8.37h-3.72v-8.79c0-1.01-.21-1.77-.63-2.29-.42-.52-1.04-.79-1.86-.79-.91,0-1.62.3-2.13.9-.47.58-.7,1.45-.7,2.6v8.37h-3.72v-14.48h3.5l.17,2.41c.34-.88.81-1.54,1.43-1.99.73-.52,1.68-.78,2.86-.78,1.06,0,1.95.22,2.66.66.71.44,1.25,1.09,1.62,1.95.06.13.1.26.14.39.39-.97.95-1.71,1.68-2.21.78-.52,1.76-.78,2.94-.78,1.61,0,2.81.48,3.61,1.44.8.96,1.2,2.38,1.2,4.24v9.16h-3.72v-8.79c0-1.04-.21-1.82-.62-2.32s-1.04-.76-1.88-.76Z"/>
    <path class="cls-1" d="m63.66,612.72v-9.27h3.72v8.57c0,1.14.23,1.96.69,2.48.46.51,1.18.77,2.17.77.63,0,1.19-.15,1.65-.45.47-.3.82-.74,1.06-1.33.24-.59.36-1.33.36-2.22v-7.81h3.72v14.48h-3.5l-.14-2.55c-.41.9-.96,1.58-1.65,2.04-.78.54-1.76.81-2.94.81-1.1,0-2.03-.21-2.8-.62-.77-.41-1.35-1.03-1.75-1.85-.4-.82-.6-1.84-.6-3.05Z"/>
    <path class="cls-1" d="m86.96,606.05c-.67,0-1.26.15-1.76.45-.5.3-.89.75-1.16,1.34-.27.6-.41,1.33-.41,2.21v7.87h-3.72v-14.48h3.5l.17,2.52c.43-.91,1.02-1.61,1.76-2.1.82-.52,1.83-.78,3.02-.78,1.08,0,2.02.22,2.8.66.78.44,1.38,1.08,1.79,1.93.41.85.62,1.88.62,3.09v9.16h-3.7v-8.43c0-.77-.11-1.4-.32-1.9-.21-.5-.54-.89-.97-1.15-.43-.26-.97-.39-1.62-.39Z"/>
    <path class="cls-1" d="m96.37,597.51h3.86v3.61h-3.86v-3.61Zm.08,5.94h3.72v14.48h-3.72v-14.48Z"/>
    <path class="cls-1" d="m106.08,617.28c-1.14-.62-2.02-1.5-2.65-2.65s-.94-2.49-.94-4.02.31-2.87.94-4,1.5-2.02,2.62-2.63c1.12-.62,2.41-.91,3.86-.89,1.29,0,2.41.23,3.36.7s1.7,1.11,2.24,1.93c.54.82.86,1.76.95,2.8l-3.44.45c-.06-.88-.34-1.58-.84-2.11-.5-.53-1.25-.8-2.24-.8-.78,0-1.44.16-1.96.49-.52.33-.92.83-1.2,1.5s-.42,1.53-.42,2.58c0,.99.14,1.83.43,2.52.29.69.72,1.21,1.29,1.57.57.36,1.25.53,2.06.53.63,0,1.17-.1,1.6-.31.43-.21.77-.5,1.01-.9s.41-.89.5-1.48l3.42.56c-.21,1.03-.6,1.92-1.19,2.69-.59.77-1.34,1.36-2.27,1.78-.92.42-1.99.63-3.21.63-1.48,0-2.78-.31-3.92-.92Z"/>
    <path class="cls-1" d="m118.18,614.01c0-1.23.42-2.25,1.27-3.05.85-.8,2.13-1.35,3.85-1.65l4.37-.73v-.25c-.02-.51-.13-.93-.32-1.28-.2-.35-.5-.61-.9-.78-.4-.18-.88-.27-1.44-.27-.9,0-1.6.21-2.11.62-.51.41-.8,1-.85,1.76l-3.44-.45c.21-1.53.87-2.72,1.99-3.57s2.65-1.27,4.59-1.27c2.07,0,3.63.5,4.66,1.51s1.55,2.42,1.55,4.23v9.1h-3.5l-.2-2.72v.03c-.39.92-.98,1.64-1.76,2.17-.78.53-1.78.8-3,.8-.93,0-1.76-.17-2.48-.5-.72-.34-1.28-.82-1.68-1.46s-.6-1.38-.6-2.24Zm9.49-3.14l-3.16.64c-.91.19-1.57.44-1.97.77s-.6.77-.6,1.33c.04.54.24.97.62,1.27.37.31.91.46,1.62.46.65,0,1.24-.12,1.75-.37.51-.24.92-.58,1.23-1.02.31-.44.48-.96.52-1.58v-1.51Z"/>
    <path class="cls-1" d="m133.58,610.62c0-1.53.31-2.87.94-4s1.5-2.02,2.62-2.63c1.12-.62,2.41-.91,3.86-.89,1.29,0,2.41.23,3.36.7s1.7,1.11,2.24,1.93c.54.82.86,1.76.95,2.8l-3.44.45c-.06-.88-.34-1.58-.84-2.11-.5-.53-1.25-.8-2.24-.8-.78,0-1.44.16-1.96.49-.52.33-.92.83-1.2,1.5s-.42,1.53-.42,2.58c0,.99.14,1.83.43,2.52.29.69.72,1.21,1.29,1.57.57.36,1.25.53,2.06.53.63,0,1.17-.1,1.6-.31.43-.21.77-.5,1.01-.9s.41-.89.5-1.48l3.42.56c-.21,1.03-.6,1.92-1.19,2.69-.59.77-1.35,1.35-2.28,1.76-.71.34-1.49.54-2.35.62l-.34,1.71c.67.07,1.21.28,1.62.62.52.41.79.96.81,1.65.02.71-.25,1.28-.81,1.72s-1.33.66-2.3.66c-.65,0-1.31-.02-1.96-.06v-1.73c.54.04,1.08.05,1.62.05.32,0,.56-.06.74-.2.18-.13.27-.32.27-.56-.02-.26-.11-.45-.28-.57s-.41-.18-.73-.18l-1.57.03,1.23-3.13c-1.14-.09-2.17-.39-3.08-.9-1.14-.62-2.02-1.5-2.65-2.65s-.94-2.49-.94-4.02Z"/>
    <path class="cls-1" d="m149.28,614.01c0-1.23.42-2.25,1.27-3.05.85-.8,2.13-1.35,3.85-1.65l4.37-.73v-.25c-.02-.51-.13-.93-.32-1.28-.2-.35-.5-.61-.9-.78-.4-.18-.88-.27-1.44-.27-.9,0-1.6.21-2.11.62-.51.41-.8,1-.85,1.76l-3.44-.45c.21-1.53.87-2.72,1.99-3.57s2.65-1.27,4.59-1.27c2.07,0,3.63.5,4.66,1.51s1.55,2.42,1.55,4.23v9.1h-3.5l-.2-2.72v.03c-.39.92-.98,1.64-1.76,2.17-.78.53-1.78.8-3,.8-.93,0-1.76-.17-2.48-.5-.72-.34-1.28-.82-1.68-1.46s-.6-1.38-.6-2.24Zm8.01-13.15c-.32-.12-.69-.29-1.12-.52-.28-.19-.52-.32-.73-.41-.21-.08-.42-.13-.64-.13-.32,0-.57.11-.77.32-.2.21-.29.51-.29.88h-2.27c.02-.95.28-1.79.78-2.51s1.21-1.08,2.13-1.08c.39,0,.74.06,1.05.18.31.12.67.29,1.08.52.35.19.63.32.83.41.2.08.42.13.66.13.32,0,.57-.1.76-.29.19-.2.28-.49.28-.88h2.27c0,.97-.25,1.81-.74,2.51-.49.7-1.22,1.05-2.17,1.05-.41,0-.77-.06-1.09-.18Zm1.48,10.01l-3.16.64c-.91.19-1.57.44-1.97.77s-.6.77-.6,1.33c.04.54.24.97.62,1.27.37.31.91.46,1.62.46.65,0,1.24-.12,1.75-.37.51-.24.92-.58,1.23-1.02.31-.44.48-.96.52-1.58v-1.51Z"/>
    <path class="cls-1" d="m168.32,617.18c-1.14-.61-2.03-1.48-2.66-2.62-.63-1.14-.95-2.46-.95-3.97s.32-2.87.95-4c.63-1.14,1.52-2.01,2.66-2.62,1.14-.61,2.43-.91,3.86-.91s2.75.31,3.89.92c1.14.62,2.02,1.49,2.65,2.62.62,1.13.94,2.46.94,3.99s-.31,2.83-.94,3.96c-.63,1.13-1.51,2-2.65,2.62-1.14.62-2.44.92-3.89.92s-2.73-.3-3.86-.91Zm5.82-2.62c.54-.34.96-.84,1.25-1.51.29-.67.43-1.49.43-2.46s-.14-1.82-.42-2.49c-.28-.67-.7-1.17-1.25-1.5-.55-.33-1.21-.5-1.97-.52-.75-.02-1.39.14-1.93.49-.54.34-.96.85-1.25,1.53-.29.67-.43,1.5-.43,2.49s.15,1.8.45,2.48c.3.68.71,1.19,1.25,1.53.53.34,1.17.5,1.92.5.77-.02,1.42-.2,1.96-.53Z"/>
  </g>
  <g>
    <path class="cls-1" d="m837.71,636.5c-1.38-.78-2.45-1.89-3.22-3.33-.77-1.44-1.15-3.12-1.15-5.05s.38-3.61,1.15-5.04c.77-1.43,1.84-2.54,3.22-3.31,1.38-.78,2.96-1.17,4.75-1.17s3.34.39,4.72,1.17c1.38.78,2.45,1.88,3.22,3.31.77,1.43,1.15,3.11,1.15,5.04s-.38,3.61-1.15,5.05c-.77,1.44-1.84,2.55-3.22,3.33-1.38.78-2.95,1.17-4.72,1.17s-3.37-.39-4.75-1.17Zm7.64-2.65c.8-.51,1.4-1.25,1.8-2.21.41-.96.61-2.13.61-3.49s-.2-2.5-.61-3.49c-.41-.98-1.01-1.73-1.8-2.25-.79-.52-1.76-.78-2.89-.78s-2.09.26-2.89.78c-.79.52-1.4,1.27-1.82,2.25-.42.98-.62,2.14-.62,3.49s.21,2.5.62,3.47c.42.97,1.02,1.71,1.82,2.23.8.51,1.76.77,2.89.77s2.09-.26,2.89-.77Z"/>
    <path class="cls-1" d="m860.22,626.16c-.64,0-1.19.14-1.67.42-.48.28-.84.71-1.1,1.27-.26.57-.38,1.26-.38,2.09v7.45h-3.53v-13.71h3.31l.16,2.39c.41-.87.96-1.53,1.67-1.99.78-.49,1.73-.74,2.86-.74,1.02,0,1.91.21,2.65.62.74.42,1.31,1.03,1.7,1.83.39.8.58,1.78.58,2.93v8.67h-3.5v-7.98c0-.72-.1-1.33-.31-1.8-.2-.48-.51-.84-.91-1.09-.41-.25-.92-.37-1.54-.37Z"/>
    <path class="cls-1" d="m868.41,630.48c0-1.45.28-2.71.84-3.79s1.31-1.9,2.25-2.48c.95-.57,1.99-.86,3.14-.86,1.27,0,2.31.29,3.1.88.44.34.81.73,1.11,1.19v-6.84h3.53v18.83h-3.29l-.13-2.33c-.39.67-.89,1.23-1.51,1.67-.87.62-1.94.93-3.21.93-1.13,0-2.13-.29-3.01-.86-.88-.57-1.56-1.41-2.07-2.49s-.76-2.36-.76-3.83Zm10.5-.03c0-.88-.14-1.64-.41-2.27-.27-.63-.67-1.11-1.18-1.46s-1.12-.52-1.83-.52c-1.08.02-1.92.4-2.53,1.15-.61.75-.91,1.79-.89,3.12,0,.88.14,1.65.41,2.29.27.65.67,1.14,1.18,1.49s1.12.52,1.83.52c1.06,0,1.89-.38,2.49-1.15.6-.77.91-1.83.93-3.17Z"/>
    <path class="cls-1" d="m884.45,633.69c0-1.17.4-2.13,1.21-2.89.8-.76,2.02-1.28,3.65-1.56l4.14-.69v-.24c-.02-.48-.12-.88-.31-1.21s-.47-.57-.85-.74-.83-.25-1.37-.25c-.85,0-1.52.19-2,.58s-.75.95-.81,1.67l-3.26-.42c.19-1.45.82-2.58,1.88-3.38,1.06-.8,2.51-1.21,4.35-1.21,1.96,0,3.43.48,4.42,1.43.98.96,1.47,2.29,1.47,4v8.62h-3.31l-.19-2.57v.03c-.37.87-.93,1.55-1.67,2.05s-1.69.76-2.84.76c-.88,0-1.67-.16-2.35-.48s-1.21-.78-1.59-1.38c-.38-.6-.57-1.31-.57-2.12Zm8.99-2.97l-3,.61c-.87.18-1.49.42-1.87.73-.38.31-.57.73-.57,1.26.04.51.23.91.58,1.21s.87.44,1.54.44c.62,0,1.17-.11,1.66-.34.49-.23.88-.55,1.17-.97.29-.42.46-.92.49-1.5v-1.43Z"/>
    <path class="cls-1" d="m909.85,636.5c-1.15-.78-2.03-1.87-2.64-3.27-.61-1.41-.92-3.04-.92-4.92s.31-3.49.92-4.89c.61-1.41,1.49-2.5,2.64-3.27,1.15-.78,2.49-1.17,4.03-1.17s2.9.39,4.04,1.17c1.14.78,2.02,1.87,2.62,3.27s.92,3.04.92,4.89-.31,3.51-.92,4.92-1.48,2.5-2.62,3.27c-1.14.78-2.49,1.17-4.04,1.17s-2.88-.39-4.03-1.17Zm6.19-2.53c.59-.54,1.03-1.29,1.33-2.25.29-.96.44-2.09.44-3.38s-.15-2.44-.44-3.41c-.29-.96-.73-1.71-1.33-2.25-.59-.54-1.31-.81-2.16-.81s-1.57.26-2.16.78c-.59.52-1.03,1.27-1.33,2.24-.29.97-.44,2.12-.44,3.45s.15,2.45.44,3.42c.29.97.73,1.72,1.33,2.24.59.52,1.31.78,2.16.78s1.57-.27,2.16-.81Z"/>
    <path class="cls-1" d="m923.03,634.83l5.73-4.72.32-.27c.78-.65,1.41-1.25,1.88-1.79.48-.54.84-1.08,1.1-1.63.26-.55.38-1.14.38-1.78s-.11-1.13-.32-1.54-.52-.72-.93-.93c-.41-.21-.9-.32-1.49-.32-1.06,0-1.86.36-2.4,1.09s-.77,1.77-.7,3.13l-3.55-.5c.02-2.17.63-3.82,1.84-4.93,1.21-1.11,2.85-1.67,4.92-1.67,1.31,0,2.44.23,3.39.68.95.45,1.67,1.1,2.16,1.95.49.85.73,1.86.73,3.02,0,.99-.22,1.91-.68,2.74-.45.84-1.04,1.62-1.78,2.33s-1.74,1.59-3.01,2.61c-.21.18-.43.35-.66.53l-2.02,1.67h8.62v2.89h-13.55v-2.57Z"/>
    <path class="cls-1" d="m945.78,628.92h13.1v2.7h-13.1v-2.7Z"/>
    <path class="cls-1" d="m969.27,618.84h9.12c1.27,0,2.37.22,3.29.66.92.44,1.63,1.09,2.12,1.95s.74,1.9.74,3.14-.25,2.32-.76,3.2c-.5.88-1.22,1.54-2.15,1.99-.93.45-2.01.69-3.25.7l-5.54.03v6.89h-3.58v-18.56Zm3.58,3.05v5.54h4.88c1.01,0,1.78-.24,2.32-.73s.81-1.19.81-2.11c0-.87-.27-1.53-.81-2-.54-.47-1.31-.7-2.32-.7h-4.88Z"/>
    <path class="cls-1" d="m985.97,630.48c0-1.43.3-2.69.89-3.77.59-1.08,1.41-1.91,2.47-2.49s2.27-.88,3.65-.88c1.27,0,2.4.27,3.38.82s1.75,1.33,2.31,2.35.83,2.2.83,3.54v1.41h-9.89c.07.55.19,1.03.37,1.46.28.65.69,1.14,1.23,1.44.54.31,1.18.47,1.92.49.88,0,1.56-.19,2.03-.56s.78-.95.94-1.72l3.26.48c-.25.96-.66,1.77-1.23,2.45s-1.3,1.21-2.17,1.59-1.87.57-2.98.57c-1.45,0-2.7-.29-3.75-.88-1.05-.58-1.86-1.41-2.41-2.49-.56-1.08-.84-2.35-.84-3.82Zm3.71-1.62h6.34c-.05-.33-.12-.64-.21-.93-.23-.6-.58-1.06-1.06-1.38-.48-.32-1.09-.48-1.83-.48s-1.39.17-1.9.52-.88.84-1.13,1.5c-.09.23-.16.49-.21.77Z"/>
    <path class="cls-1" d="m1003.99,637.14c-.91-.35-1.63-.87-2.16-1.55-.53-.68-.85-1.48-.95-2.4l3.26-.53c.11.85.43,1.46.98,1.83.55.37,1.25.56,2.09.56.74,0,1.33-.12,1.75-.37.42-.25.64-.64.64-1.19,0-.3-.08-.55-.23-.74-.15-.19-.37-.35-.66-.46-.29-.11-.69-.22-1.21-.33l-2.17-.42c-1.24-.25-2.18-.72-2.84-1.41-.65-.69-.98-1.6-.98-2.73,0-1.25.49-2.24,1.46-2.96.97-.72,2.32-1.07,4.06-1.07,1.11,0,2.09.16,2.92.49.83.33,1.49.8,1.97,1.41.49.61.79,1.34.92,2.19l-3.26.5c-.09-.72-.35-1.24-.79-1.55-.44-.31-1.03-.46-1.75-.46-.46,0-.85.05-1.17.15-.32.1-.56.24-.73.42-.17.19-.25.43-.25.73,0,.25.06.46.17.64s.28.32.5.42c.22.11.51.2.86.29l2.49.56c1.36.3,2.38.78,3.05,1.45.67.66,1.01,1.6,1.01,2.82,0,.85-.25,1.6-.74,2.24-.49.65-1.18,1.15-2.07,1.5-.88.35-1.89.53-3.02.53s-2.23-.18-3.14-.53Z"/>
    <path class="cls-1" d="m1017.3,637.14c-.91-.35-1.63-.87-2.16-1.55-.53-.68-.85-1.48-.95-2.4l3.26-.53c.11.85.43,1.46.98,1.83.55.37,1.25.56,2.09.56.74,0,1.33-.12,1.75-.37.42-.25.64-.64.64-1.19,0-.3-.08-.55-.23-.74-.15-.19-.37-.35-.66-.46-.29-.11-.69-.22-1.21-.33l-2.17-.42c-1.24-.25-2.18-.72-2.84-1.41-.65-.69-.98-1.6-.98-2.73,0-1.25.49-2.24,1.46-2.96.97-.72,2.32-1.07,4.06-1.07,1.11,0,2.09.16,2.92.49.83.33,1.49.8,1.97,1.41.49.61.79,1.34.92,2.19l-3.26.5c-.09-.72-.35-1.24-.79-1.55-.44-.31-1.03-.46-1.75-.46-.46,0-.85.05-1.17.15-.32.1-.56.24-.73.42-.17.19-.25.43-.25.73,0,.25.06.46.17.64s.28.32.5.42c.22.11.51.2.86.29l2.49.56c1.36.3,2.38.78,3.05,1.45.67.66,1.01,1.6,1.01,2.82,0,.85-.25,1.6-.74,2.24-.49.65-1.18,1.15-2.07,1.5-.88.35-1.89.53-3.02.53s-2.23-.18-3.14-.53Z"/>
    <path class="cls-1" d="m1030.99,636.7c-1.08-.57-1.92-1.4-2.52-2.48-.6-1.08-.9-2.33-.9-3.76s.3-2.71.9-3.79c.6-1.08,1.44-1.9,2.52-2.48,1.08-.57,2.3-.86,3.66-.86s2.61.29,3.69.88c1.08.58,1.91,1.41,2.5,2.48.59,1.07.89,2.33.89,3.78s-.3,2.68-.89,3.75c-.59,1.07-1.43,1.9-2.5,2.48-1.08.58-2.31.88-3.69.88s-2.58-.29-3.66-.86Zm5.51-2.48c.51-.32.91-.8,1.18-1.43.27-.64.41-1.41.41-2.33s-.13-1.72-.4-2.36-.66-1.11-1.18-1.42c-.52-.31-1.14-.47-1.87-.49-.71-.02-1.32.14-1.83.46-.51.33-.91.81-1.18,1.45-.27.64-.41,1.42-.41,2.36s.14,1.7.42,2.35c.28.65.68,1.13,1.18,1.45s1.11.48,1.82.48c.72-.02,1.34-.19,1.86-.5Z"/>
    <path class="cls-1" d="m1043.19,633.69c0-1.17.4-2.13,1.21-2.89.8-.76,2.02-1.28,3.65-1.56l4.14-.69v-.24c-.02-.48-.12-.88-.31-1.21s-.47-.57-.85-.74-.83-.25-1.37-.25c-.85,0-1.52.19-2,.58s-.75.95-.81,1.67l-3.26-.42c.19-1.45.82-2.58,1.88-3.38,1.06-.8,2.51-1.21,4.35-1.21,1.96,0,3.43.48,4.42,1.43.98.96,1.47,2.29,1.47,4v8.62h-3.31l-.19-2.57v.03c-.37.87-.93,1.55-1.67,2.05s-1.69.76-2.84.76c-.88,0-1.67-.16-2.35-.48s-1.21-.78-1.59-1.38c-.38-.6-.57-1.31-.57-2.12Zm8.99-2.97l-3,.61c-.87.18-1.49.42-1.87.73-.38.31-.57.73-.57,1.26.04.51.23.91.58,1.21s.87.44,1.54.44c.62,0,1.17-.11,1.66-.34.49-.23.88-.55,1.17-.97.29-.42.46-.92.49-1.5v-1.43Z"/>
    <path class="cls-1" d="m1060.81,637.14c-.91-.35-1.63-.87-2.16-1.55-.53-.68-.85-1.48-.95-2.4l3.26-.53c.11.85.43,1.46.98,1.83.55.37,1.25.56,2.09.56.74,0,1.33-.12,1.75-.37.42-.25.64-.64.64-1.19,0-.3-.08-.55-.23-.74-.15-.19-.37-.35-.66-.46-.29-.11-.69-.22-1.21-.33l-2.17-.42c-1.24-.25-2.18-.72-2.84-1.41-.65-.69-.98-1.6-.98-2.73,0-1.25.49-2.24,1.46-2.96.97-.72,2.32-1.07,4.06-1.07,1.11,0,2.09.16,2.92.49.83.33,1.49.8,1.97,1.41.49.61.79,1.34.92,2.19l-3.26.5c-.09-.72-.35-1.24-.79-1.55-.44-.31-1.03-.46-1.75-.46-.46,0-.85.05-1.17.15-.32.1-.56.24-.73.42-.17.19-.25.43-.25.73,0,.25.06.46.17.64s.28.32.5.42c.22.11.51.2.86.29l2.49.56c1.36.3,2.38.78,3.05,1.45.67.66,1.01,1.6,1.01,2.82,0,.85-.25,1.6-.74,2.24-.49.65-1.18,1.15-2.07,1.5-.88.35-1.89.53-3.02.53s-2.23-.18-3.14-.53Z"/>
  </g>
  <g>
    <path class="cls-1" d="m1339.75,636.5c-1.38-.78-2.45-1.89-3.22-3.33s-1.15-3.12-1.15-5.05.38-3.61,1.15-5.04c.77-1.43,1.84-2.54,3.22-3.31,1.38-.78,2.96-1.17,4.75-1.17s3.34.39,4.72,1.17c1.38.78,2.45,1.88,3.22,3.31.77,1.43,1.15,3.11,1.15,5.04s-.38,3.61-1.15,5.05c-.77,1.44-1.84,2.55-3.22,3.33-1.38.78-2.95,1.17-4.72,1.17s-3.37-.39-4.75-1.17Zm7.64-2.65c.8-.51,1.4-1.25,1.8-2.21.41-.96.61-2.13.61-3.49s-.2-2.5-.61-3.49c-.41-.98-1.01-1.73-1.8-2.25-.79-.52-1.76-.78-2.89-.78s-2.09.26-2.89.78c-.79.52-1.4,1.27-1.82,2.25-.42.98-.62,2.14-.62,3.49s.21,2.5.62,3.47c.42.97,1.02,1.71,1.82,2.23.8.51,1.76.77,2.89.77s2.09-.26,2.89-.77Z"/>
    <path class="cls-1" d="m1362.26,626.16c-.64,0-1.19.14-1.67.43-.48.28-.84.71-1.1,1.27-.26.57-.38,1.26-.38,2.1v7.45h-3.53v-13.71h3.31l.16,2.39c.41-.87.96-1.53,1.67-1.99.78-.49,1.73-.74,2.86-.74,1.02,0,1.91.21,2.65.62.74.42,1.31,1.03,1.7,1.83s.58,1.78.58,2.93v8.67h-3.5v-7.98c0-.72-.1-1.33-.31-1.8s-.51-.84-.91-1.09c-.41-.25-.92-.37-1.54-.37Z"/>
    <path class="cls-1" d="m1370.45,630.48c0-1.45.28-2.71.84-3.79s1.31-1.9,2.25-2.48c.95-.57,1.99-.86,3.14-.86,1.27,0,2.31.29,3.1.88.44.34.81.73,1.11,1.19v-6.84h3.53v18.82h-3.29l-.13-2.33c-.39.67-.89,1.23-1.51,1.67-.87.62-1.94.93-3.21.93-1.13,0-2.13-.29-3.01-.86s-1.56-1.41-2.07-2.49c-.5-1.09-.76-2.37-.76-3.83Zm10.5-.03c0-.88-.14-1.64-.41-2.27s-.67-1.11-1.18-1.46c-.51-.34-1.12-.52-1.83-.52-1.08.02-1.92.4-2.53,1.15-.61.75-.91,1.79-.89,3.12,0,.88.14,1.65.41,2.29.27.65.67,1.14,1.18,1.49.51.34,1.12.52,1.83.52,1.06,0,1.89-.38,2.49-1.15.6-.77.91-1.83.93-3.17Z"/>
    <path class="cls-1" d="m1386.49,633.69c0-1.17.4-2.13,1.21-2.89.8-.76,2.02-1.28,3.65-1.56l4.14-.69v-.24c-.02-.48-.12-.88-.31-1.21-.19-.33-.47-.57-.85-.74s-.83-.25-1.37-.25c-.85,0-1.52.2-2,.58s-.75.95-.81,1.67l-3.26-.42c.19-1.45.82-2.58,1.88-3.38s2.51-1.21,4.35-1.21c1.96,0,3.43.48,4.42,1.43.98.96,1.47,2.29,1.47,4v8.62h-3.31l-.19-2.57v.03c-.37.87-.93,1.55-1.67,2.05s-1.69.76-2.84.76c-.88,0-1.67-.16-2.35-.48s-1.21-.78-1.59-1.38-.57-1.31-.57-2.12Zm8.99-2.97l-3,.61c-.87.18-1.49.42-1.87.73s-.57.73-.57,1.26c.04.51.23.91.58,1.21.35.29.87.44,1.54.44.62,0,1.17-.11,1.66-.34.49-.23.88-.55,1.17-.97.29-.41.46-.91.49-1.5v-1.43Z"/>
    <path class="cls-1" d="m1411.9,636.5c-1.15-.78-2.03-1.87-2.64-3.28-.61-1.4-.92-3.04-.92-4.92s.31-3.49.92-4.89c.61-1.4,1.49-2.5,2.64-3.27,1.15-.78,2.49-1.17,4.03-1.17s2.9.39,4.04,1.17c1.14.78,2.02,1.87,2.62,3.27.61,1.41.92,3.04.92,4.89s-.31,3.51-.92,4.92c-.61,1.41-1.48,2.5-2.62,3.28-1.14.78-2.49,1.17-4.04,1.17s-2.88-.39-4.03-1.17Zm6.19-2.53c.59-.54,1.03-1.29,1.33-2.25.29-.96.44-2.09.44-3.38s-.15-2.44-.44-3.41-.73-1.71-1.33-2.25c-.59-.54-1.31-.81-2.16-.81s-1.57.26-2.16.78c-.59.52-1.03,1.27-1.33,2.24-.29.97-.44,2.12-.44,3.45s.15,2.45.44,3.42c.29.97.73,1.72,1.33,2.24.59.52,1.31.78,2.16.78s1.57-.27,2.16-.81Z"/>
    <path class="cls-1" d="m1424.78,631.89l3.5-.48c.09,1.03.43,1.85,1.02,2.47.59.62,1.41.93,2.45.93s1.78-.24,2.36-.72c.58-.48.87-1.14.87-1.99,0-.56-.14-1.06-.41-1.47-.27-.42-.65-.73-1.14-.94-.49-.21-1.04-.32-1.66-.32h-1.51v-2.73h1.17c.96,0,1.71-.2,2.25-.61.55-.41.82-.99.82-1.75s-.25-1.39-.74-1.8c-.5-.41-1.17-.61-2.02-.61-.97,0-1.73.27-2.28.79-.55.53-.86,1.31-.93,2.33l-3.5-.48c.11-1.79.78-3.15,2.01-4.1s2.83-1.43,4.77-1.45c1.22,0,2.31.18,3.27.54.96.36,1.71.91,2.24,1.63s.79,1.61.79,2.65c0,.76-.17,1.44-.5,2.04-.34.6-.82,1.11-1.46,1.51-.37.23-.79.42-1.25.58.57.18,1.07.39,1.51.64.72.41,1.27.94,1.64,1.6s.56,1.45.56,2.37c0,1.03-.29,1.93-.88,2.71-.58.78-1.4,1.38-2.44,1.8s-2.27.64-3.68.64-2.56-.23-3.54-.7c-.98-.47-1.75-1.13-2.31-1.99s-.9-1.9-1.02-3.12Z"/>
    <path class="cls-1" d="m1448.11,628.92h13.1v2.71h-13.1v-2.71Z"/>
    <path class="cls-1" d="m1471.6,618.84h9.12c1.27,0,2.37.22,3.29.66s1.63,1.09,2.12,1.95.74,1.9.74,3.14-.25,2.32-.76,3.2c-.5.88-1.22,1.54-2.15,1.99-.93.45-2.01.69-3.25.7l-5.54.03v6.89h-3.58v-18.56Zm3.58,3.05v5.54h4.88c1.01,0,1.78-.24,2.32-.73s.81-1.19.81-2.11c0-.87-.27-1.53-.81-2-.54-.47-1.31-.7-2.32-.7h-4.88Z"/>
    <path class="cls-1" d="m1488.94,623.7h3.31l.13,3.13c.07-.23.14-.45.21-.66.35-.94.88-1.64,1.58-2.11s1.59-.69,2.67-.68c.09,0,.26,0,.5.03v3.1c-.62-.02-1.23-.03-1.83-.03-.69,0-1.25.12-1.7.36-.44.24-.78.62-1.01,1.15s-.34,1.22-.34,2.07v7.34h-3.53v-13.71Z"/>
    <path class="cls-1" d="m1501.57,636.7c-1.08-.57-1.92-1.4-2.52-2.48-.6-1.08-.9-2.33-.9-3.76s.3-2.71.9-3.79c.6-1.08,1.44-1.9,2.52-2.48s2.3-.86,3.66-.86,2.61.29,3.69.88c1.08.58,1.91,1.41,2.5,2.48.59,1.07.89,2.33.89,3.78s-.3,2.68-.89,3.75c-.59,1.07-1.43,1.9-2.5,2.48-1.08.58-2.31.88-3.69.88s-2.58-.29-3.66-.86Zm5.51-2.48c.51-.32.91-.79,1.18-1.43.27-.64.41-1.41.41-2.33s-.13-1.72-.4-2.36-.66-1.11-1.18-1.42c-.52-.31-1.14-.47-1.87-.49-.71-.02-1.32.14-1.83.46-.51.33-.91.81-1.18,1.45-.27.64-.41,1.42-.41,2.36s.14,1.7.42,2.35c.28.64.68,1.13,1.18,1.45s1.11.48,1.82.48c.72-.02,1.34-.19,1.86-.5Z"/>
    <path class="cls-1" d="m1514.4,623.7h3.31l.16,2.2c.37-.67.87-1.23,1.48-1.67.83-.58,1.88-.88,3.16-.88,1.13,0,2.14.28,3.02.85.88.56,1.57,1.39,2.07,2.46s.74,2.35.74,3.82-.27,2.72-.82,3.8c-.55,1.09-1.3,1.92-2.25,2.49-.96.57-2.01.87-3.16.89-1.2,0-2.19-.31-2.97-.93-.5-.39-.9-.88-1.22-1.46v7.42h-3.53v-19.01Zm10.31,6.79c0-1.33-.31-2.37-.92-3.13s-1.45-1.14-2.51-1.14-1.89.38-2.48,1.13c-.59.75-.89,1.8-.89,3.14,0,.88.13,1.65.4,2.29.27.65.65,1.14,1.15,1.49.5.34,1.11.52,1.82.52,1.06,0,1.9-.38,2.51-1.14s.92-1.81.92-3.16Z"/>
    <path class="cls-1" d="m1533.22,636.7c-1.08-.57-1.92-1.4-2.52-2.48-.6-1.08-.9-2.33-.9-3.76s.3-2.71.9-3.79c.6-1.08,1.44-1.9,2.52-2.48s2.3-.86,3.66-.86,2.61.29,3.69.88c1.08.58,1.91,1.41,2.5,2.48.59,1.07.89,2.33.89,3.78s-.3,2.68-.89,3.75c-.59,1.07-1.43,1.9-2.5,2.48-1.08.58-2.31.88-3.69.88s-2.58-.29-3.66-.86Zm5.51-2.48c.51-.32.91-.79,1.18-1.43.27-.64.41-1.41.41-2.33s-.13-1.72-.4-2.36-.66-1.11-1.18-1.42c-.52-.31-1.14-.47-1.87-.49-.71-.02-1.32.14-1.83.46-.51.33-.91.81-1.18,1.45-.27.64-.41,1.42-.41,2.36s.14,1.7.42,2.35c.28.64.68,1.13,1.18,1.45s1.11.48,1.82.48c.72-.02,1.34-.19,1.86-.5Zm-1.59-16.81h4.11l-3.29,4.3h-2.09l1.27-4.3Z"/>
    <path class="cls-1" d="m1548.38,637.14c-.91-.35-1.63-.87-2.16-1.55-.53-.68-.85-1.48-.95-2.4l3.26-.53c.11.85.43,1.46.98,1.83s1.25.56,2.09.56c.74,0,1.33-.12,1.75-.37s.64-.64.64-1.19c0-.3-.08-.55-.23-.74-.15-.19-.37-.35-.66-.46-.29-.11-.69-.22-1.21-.33l-2.17-.42c-1.24-.25-2.18-.72-2.84-1.41s-.98-1.6-.98-2.73c0-1.26.49-2.24,1.46-2.96.97-.71,2.32-1.07,4.06-1.07,1.11,0,2.09.16,2.92.49.83.33,1.49.8,1.97,1.41s.79,1.34.92,2.19l-3.26.5c-.09-.72-.35-1.24-.79-1.55-.44-.31-1.03-.46-1.75-.46-.46,0-.85.05-1.17.15s-.56.24-.73.42c-.17.19-.25.43-.25.73,0,.25.06.46.17.64.12.18.28.32.5.42.22.11.51.2.86.29l2.49.56c1.36.3,2.38.78,3.05,1.45.67.66,1.01,1.6,1.01,2.82,0,.85-.25,1.6-.74,2.24-.49.65-1.18,1.15-2.07,1.5-.88.35-1.89.53-3.02.53s-2.23-.18-3.14-.53Z"/>
    <path class="cls-1" d="m1559.37,618.07h3.66v3.42h-3.66v-3.42Zm.08,5.62h3.53v13.71h-3.53v-13.71Z"/>
    <path class="cls-1" d="m1567.45,633.56v-7.08h-2.7v-2.78h2.7v-3.5h3.5v3.5h3.45v2.78h-3.45v6.71c0,.37.05.67.16.89.11.22.27.37.49.45.22.08.52.12.89.12.58,0,1.2-.03,1.86-.08l.03,2.84c-.99.05-2.02.08-3.08.08-.81,0-1.5-.14-2.07-.42-.57-.28-1-.72-1.31-1.3-.31-.58-.46-1.32-.46-2.2Z"/>
    <path class="cls-1" d="m1579.12,636.7c-1.08-.57-1.92-1.4-2.52-2.48-.6-1.08-.9-2.33-.9-3.76s.3-2.71.9-3.79c.6-1.08,1.44-1.9,2.52-2.48s2.3-.86,3.66-.86,2.61.29,3.69.88c1.08.58,1.91,1.41,2.5,2.48.59,1.07.89,2.33.89,3.78s-.3,2.68-.89,3.75c-.59,1.07-1.43,1.9-2.5,2.48-1.08.58-2.31.88-3.69.88s-2.58-.29-3.66-.86Zm5.51-2.48c.51-.32.91-.79,1.18-1.43.27-.64.41-1.41.41-2.33s-.13-1.72-.4-2.36-.66-1.11-1.18-1.42c-.52-.31-1.14-.47-1.87-.49-.71-.02-1.32.14-1.83.46-.51.33-.91.81-1.18,1.45-.27.64-.41,1.42-.41,2.36s.14,1.7.42,2.35c.28.64.68,1.13,1.18,1.45s1.11.48,1.82.48c.72-.02,1.34-.19,1.86-.5Z"/>
  </g>
  <path class="cls-1" d="m0,393.73v-.86h232.37c25.3,0,45.89-20.59,45.89-45.89v-38.33c0-25.77,20.97-46.74,46.74-46.74h198.73v.02h211.9c25.3,0,45.89-20.58,45.89-45.89v-38.33c0-25.77,20.97-46.74,46.74-46.74h412.31c25.3,0,45.89-20.58,45.89-45.89v-38.33c0-25.77,20.97-46.74,46.74-46.74h424.54v.86h-424.54c-25.3,0-45.89,20.58-45.89,45.89v38.33c0,25.77-20.97,46.74-46.74,46.74h-412.31c-25.3,0-45.89,20.58-45.89,45.89v38.33c0,25.77-20.97,46.74-46.74,46.74h-212.76v-.02h-197.87c-25.3,0-45.89,20.58-45.89,45.89v38.33c0,25.77-20.97,46.74-46.74,46.74H0Z"/>
  <path class="cls-1" d="m232.37,515.78H0v-.86h232.37c25.3,0,45.89-20.58,45.89-45.89v-38.33c0-25.77,20.97-46.74,46.74-46.74h198.73v.02h211.9c25.3,0,45.89-20.58,45.89-45.89v-38.33c0-25.77,20.97-46.74,46.74-46.74h412.31c25.3,0,45.89-20.59,45.89-45.89v-38.33c0-25.77,20.97-46.74,46.74-46.74h424.54v.86h-424.54c-25.3,0-45.89,20.58-45.89,45.89v38.33c0,25.77-20.97,46.74-46.74,46.74h-412.31c-25.3,0-45.89,20.58-45.89,45.89v38.33c0,25.77-20.97,46.74-46.74,46.74h-212.76v-.02h-197.87c-25.3,0-45.89,20.58-45.89,45.89v38.33c0,25.77-20.97,46.74-46.74,46.74Z"/>
  <path class="cls-1" d="m0,637.83v-.86h232.37c25.3,0,45.89-20.59,45.89-45.89v-38.33c0-25.77,20.97-46.74,46.74-46.74h198.73v.02h211.9c25.3,0,45.89-20.58,45.89-45.89v-38.33c0-25.77,20.97-46.74,46.74-46.74h412.31c25.3,0,45.89-20.58,45.89-45.89v-38.33c0-25.77,20.97-46.74,46.74-46.74h424.54v.86h-424.54c-25.3,0-45.89,20.58-45.89,45.89v38.33c0,25.77-20.97,46.74-46.74,46.74h-412.31c-25.3,0-45.89,20.58-45.89,45.89v38.33c0,25.77-20.97,46.74-46.74,46.74h-212.76v-.02h-197.87c-25.3,0-45.89,20.58-45.89,45.89v38.33c0,25.77-20.97,46.74-46.74,46.74H0Z"/>
  <g>
    <path class="cls-1" d="m332.97,240.97c-1.31-.79-2.34-1.92-3.08-3.39-.74-1.47-1.11-3.18-1.11-5.14s.36-3.65,1.08-5.12,1.72-2.6,3.01-3.4c1.29-.8,2.77-1.2,4.44-1.2,1.51,0,2.83.26,3.94.77,1.12.51,2.01,1.25,2.69,2.21s1.12,2.11,1.34,3.44l-2.11.38c-.29-1.64-.9-2.88-1.85-3.71-.95-.84-2.28-1.26-4.01-1.26-1.22,0-2.31.31-3.25.93-.95.62-1.69,1.53-2.23,2.71-.54,1.19-.81,2.59-.81,4.21s.27,3,.81,4.19c.54,1.19,1.29,2.11,2.25,2.75s2.07.97,3.31.97c1.69,0,3.02-.43,4-1.29s1.61-2.08,1.92-3.64l2.13.35c-.25,1.28-.72,2.4-1.4,3.36-.68.96-1.58,1.71-2.7,2.26-1.12.54-2.43.81-3.94.81-1.64,0-3.11-.39-4.43-1.19Z"/>
    <path class="cls-1" d="m350.27,241.24c-1.04-.57-1.84-1.41-2.42-2.5-.58-1.09-.86-2.38-.86-3.88s.29-2.78.86-3.86c.58-1.08,1.38-1.91,2.42-2.48,1.04-.57,2.19-.86,3.47-.86s2.46.29,3.48.86c1.03.58,1.83,1.4,2.42,2.48s.88,2.37.88,3.86-.29,2.79-.88,3.88c-.58,1.09-1.39,1.92-2.42,2.5-1.03.58-2.19.87-3.48.87s-2.43-.29-3.47-.87Zm5.93-1.51c.68-.43,1.21-1.06,1.59-1.88.38-.82.57-1.81.57-2.98s-.19-2.14-.55-2.97c-.37-.83-.9-1.45-1.59-1.88-.69-.42-1.52-.64-2.47-.66-.94,0-1.75.22-2.44.65-.69.43-1.23,1.06-1.61,1.89-.38.83-.57,1.82-.57,2.97s.19,2.17.57,3c.38.83.91,1.46,1.61,1.89.69.43,1.51.65,2.44.65.95-.02,1.77-.24,2.46-.68Z"/>
    <path class="cls-1" d="m369.37,229.37c-.85,0-1.6.19-2.25.58s-1.17.97-1.54,1.74c-.37.77-.55,1.72-.55,2.83v7.37h-2.05v-13.85h1.94l.08,2.75s.04-.07.05-.11c.49-1.03,1.15-1.78,2-2.27s1.84-.73,3-.73c1.06,0,1.96.2,2.7.61s1.29,1,1.66,1.79c.37.79.55,1.76.55,2.92v8.88h-2.02v-8.56c0-.86-.13-1.59-.38-2.17-.25-.58-.64-1.03-1.16-1.34-.52-.31-1.2-.46-2.03-.46Z"/>
    <path class="cls-1" d="m384.11,229.37c-.83,0-1.57.19-2.21.58s-1.15.97-1.51,1.74c-.36.77-.54,1.72-.54,2.83v7.37h-2.05v-19.17h2.05v8.02-.03c.49-1.03,1.15-1.79,2-2.28.85-.49,1.84-.74,2.97-.74,1.06,0,1.96.21,2.69.62.73.41,1.28,1.03,1.65,1.84s.55,1.78.55,2.92v8.83h-2.08v-8.56c0-1.3-.28-2.28-.84-2.96-.56-.67-1.45-1.01-2.67-1.01Z"/>
    <path class="cls-1" d="m392.05,234.9c0-1.46.27-2.74.82-3.83s1.32-1.94,2.31-2.51c.99-.58,2.13-.86,3.43-.86s2.33.26,3.27.78c.94.52,1.66,1.29,2.17,2.29.51,1.01.77,2.19.77,3.54v1h-10.67c.04,1.03.21,1.91.51,2.65.34.83.85,1.45,1.54,1.88.68.42,1.52.63,2.51.63,1.15,0,2.07-.28,2.77-.82.69-.55,1.13-1.35,1.31-2.39l1.94.27c-.2.94-.57,1.75-1.11,2.46-.54.7-1.23,1.24-2.08,1.62-.85.38-1.82.57-2.92.57-1.37,0-2.55-.29-3.54-.86s-1.75-1.41-2.27-2.5c-.52-1.09-.78-2.39-.78-3.9Zm2.19-1.24h8.53c-.05-.74-.19-1.39-.41-1.94-.32-.78-.8-1.36-1.43-1.76s-1.41-.59-2.35-.59-1.74.22-2.4.65-1.17,1.06-1.51,1.89c-.22.52-.36,1.11-.43,1.76Z"/>
    <path class="cls-1" d="m410.03,241.29c-1.03-.58-1.82-1.42-2.38-2.5-.56-1.08-.84-2.38-.84-3.89s.28-2.79.84-3.89c.56-1.1,1.34-1.93,2.33-2.5,1-.57,2.17-.84,3.5-.82,1.15,0,2.16.21,3.01.65.85.43,1.52,1.04,2,1.82.48.78.76,1.68.85,2.69l-1.94.27c-.09-1.17-.46-2.09-1.12-2.75-.66-.66-1.58-1-2.77-1-.97.02-1.8.23-2.47.65s-1.19,1.03-1.55,1.85c-.36.82-.54,1.83-.54,3.04s.18,2.17.54,3.01c.36.84.9,1.47,1.61,1.9s1.57.65,2.58.65c.76,0,1.41-.14,1.97-.41.56-.27,1-.66,1.32-1.17.32-.51.53-1.12.62-1.82l1.92.32c-.13.95-.44,1.79-.94,2.5-.5.71-1.17,1.27-2.01,1.67-.84.41-1.8.61-2.9.61-1.39,0-2.59-.29-3.62-.88Z"/>
    <path class="cls-1" d="m422.21,222.18h2.19v3.38h-2.19v-3.38Zm.08,5.86h2.05v13.85h-2.05v-13.85Z"/>
    <path class="cls-1" d="m442.3,229.37c-1.21,0-2.13.41-2.78,1.24-.59.79-.9,1.95-.92,3.48v7.8h-2.08v-8.72c0-1.17-.27-2.1-.8-2.78-.53-.68-1.33-1.03-2.39-1.03-1.22,0-2.15.41-2.78,1.24-.61.77-.93,1.94-.94,3.48v7.8h-2.05v-13.85h1.94l.08,2.51c.36-.97.9-1.69,1.62-2.16.76-.47,1.69-.7,2.81-.7,1.01,0,1.85.21,2.54.65.68.43,1.2,1.04,1.54,1.84.09.21.17.44.24.67.02-.07.04-.13.05-.19.4-1.01.98-1.75,1.75-2.24.77-.49,1.73-.73,2.86-.73,1.51,0,2.65.45,3.42,1.34.76.89,1.15,2.22,1.15,3.98v8.88h-2.05v-8.72c0-1.29-.26-2.25-.77-2.88-.51-.62-1.33-.93-2.44-.93Z"/>
    <path class="cls-1" d="m449.91,234.9c0-1.46.27-2.74.82-3.83s1.32-1.94,2.31-2.51c.99-.58,2.13-.86,3.43-.86s2.33.26,3.27.78c.94.52,1.66,1.29,2.17,2.29.51,1.01.77,2.19.77,3.54v1h-10.67c.04,1.03.21,1.91.51,2.65.34.83.85,1.45,1.54,1.88.68.42,1.52.63,2.51.63,1.15,0,2.07-.28,2.77-.82.69-.55,1.13-1.35,1.31-2.39l1.94.27c-.2.94-.57,1.75-1.11,2.46-.54.7-1.23,1.24-2.08,1.62-.85.38-1.82.57-2.92.57-1.37,0-2.55-.29-3.54-.86s-1.75-1.41-2.27-2.5c-.52-1.09-.78-2.39-.78-3.9Zm2.19-1.24h8.53c-.05-.74-.19-1.39-.41-1.94-.32-.78-.8-1.36-1.43-1.76s-1.41-.59-2.35-.59-1.74.22-2.4.65-1.17,1.06-1.51,1.89c-.22.52-.36,1.11-.43,1.76Z"/>
    <path class="cls-1" d="m471.56,229.37c-.85,0-1.6.19-2.25.58s-1.17.97-1.54,1.74c-.37.77-.55,1.72-.55,2.83v7.37h-2.05v-13.85h1.94l.08,2.75s.04-.07.05-.11c.49-1.03,1.15-1.78,2-2.27s1.84-.73,3-.73c1.06,0,1.96.2,2.7.61s1.29,1,1.66,1.79c.37.79.55,1.76.55,2.92v8.88h-2.02v-8.56c0-.86-.13-1.59-.38-2.17-.25-.58-.64-1.03-1.16-1.34-.52-.31-1.2-.46-2.03-.46Z"/>
    <path class="cls-1" d="m481.96,238.49v-8.83h-2.97v-1.62h2.97v-3.65h2.05v3.65h3.92v1.62h-3.92v8.67c0,.54.08.96.23,1.24.15.29.36.49.62.61.26.12.62.18,1.07.18.58,0,1.21-.06,1.89-.19v1.7c-.68.14-1.45.22-2.29.22-.76,0-1.39-.11-1.92-.32-.52-.21-.93-.59-1.21-1.12-.29-.53-.43-1.25-.43-2.15Z"/>
    <path class="cls-1" d="m493.01,241.24c-1.04-.57-1.84-1.41-2.42-2.5-.58-1.09-.86-2.38-.86-3.88s.29-2.78.86-3.86c.58-1.08,1.38-1.91,2.42-2.48,1.04-.57,2.19-.86,3.47-.86s2.46.29,3.48.86c1.03.58,1.83,1.4,2.42,2.48s.88,2.37.88,3.86-.29,2.79-.88,3.88c-.58,1.09-1.39,1.92-2.42,2.5-1.03.58-2.19.87-3.48.87s-2.43-.29-3.47-.87Zm5.93-1.51c.68-.43,1.21-1.06,1.59-1.88.38-.82.57-1.81.57-2.98s-.19-2.14-.55-2.97c-.37-.83-.9-1.45-1.59-1.88-.69-.42-1.52-.64-2.47-.66-.94,0-1.75.22-2.44.65-.69.43-1.23,1.06-1.61,1.89-.38.83-.57,1.82-.57,2.97s.19,2.17.57,3c.38.83.91,1.46,1.61,1.89.69.43,1.51.65,2.44.65.95-.02,1.77-.24,2.46-.68Z"/>
  </g>
  <g>
    <path class="cls-1" d="m332.97,361.84c-1.31-.79-2.34-1.92-3.08-3.39-.74-1.47-1.11-3.18-1.11-5.14s.36-3.65,1.08-5.12,1.72-2.6,3.01-3.4c1.29-.8,2.77-1.2,4.44-1.2,1.51,0,2.83.26,3.94.77,1.12.51,2.01,1.25,2.69,2.21s1.12,2.11,1.34,3.44l-2.11.38c-.29-1.64-.9-2.88-1.85-3.71-.95-.84-2.28-1.26-4.01-1.26-1.22,0-2.31.31-3.25.93-.95.62-1.69,1.53-2.23,2.71-.54,1.19-.81,2.59-.81,4.21s.27,3,.81,4.19c.54,1.19,1.29,2.11,2.25,2.75s2.07.97,3.31.97c1.69,0,3.02-.43,4-1.29s1.61-2.08,1.92-3.64l2.13.35c-.25,1.28-.72,2.4-1.4,3.36-.68.96-1.58,1.71-2.7,2.26-1.12.54-2.43.81-3.94.81-1.64,0-3.11-.39-4.43-1.19Z"/>
    <path class="cls-1" d="m347.34,357.79l.03-8.88h2.05v8.56c0,1.29.28,2.27.85,2.92s1.46.97,2.69.97c.79,0,1.5-.19,2.12-.57.62-.38,1.11-.95,1.46-1.71.35-.76.53-1.71.53-2.85v-7.32h2.08v13.85h-1.97l-.08-2.81s0,.06-.03.08c-.45,1.01-1.09,1.76-1.92,2.25-.83.5-1.79.74-2.89.74s-1.98-.2-2.71-.59c-.73-.39-1.28-.98-1.66-1.75s-.56-1.74-.54-2.89Z"/>
    <path class="cls-1" d="m364.31,362.46c-.87-.38-1.55-.91-2.04-1.61s-.74-1.48-.76-2.36l1.94-.32c.04,1.03.39,1.81,1.07,2.35.67.54,1.62.81,2.82.81,1.04,0,1.87-.19,2.48-.55.61-.37.92-.94.92-1.71,0-.47-.09-.84-.27-1.12s-.45-.5-.8-.68c-.35-.17-.84-.33-1.47-.47l-2.57-.59c-1.13-.25-2.01-.68-2.62-1.3-.61-.61-.92-1.43-.92-2.46,0-1.19.45-2.13,1.34-2.83.89-.7,2.16-1.05,3.79-1.05,1.06,0,1.99.16,2.78.49s1.42.8,1.89,1.44.75,1.41.84,2.31l-1.94.32c-.13-1.06-.5-1.81-1.12-2.24s-1.44-.65-2.44-.65c-.65,0-1.2.08-1.65.23-.45.15-.8.38-1.05.66-.25.29-.38.66-.38,1.11,0,.36.08.67.23.95.15.27.38.49.68.67.3.18.67.32,1.12.43l2.92.7c1.22.29,2.15.75,2.77,1.39s.93,1.51.93,2.61c0,.81-.23,1.52-.69,2.13s-1.1,1.08-1.93,1.42c-.83.33-1.78.5-2.86.5-1.13,0-2.14-.19-3.01-.57Z"/>
    <path class="cls-1" d="m377.12,359.36v-8.83h-2.97v-1.62h2.97v-3.65h2.05v3.65h3.92v1.62h-3.92v8.67c0,.54.08.96.23,1.24.15.29.36.49.62.61.26.12.62.18,1.07.18.58,0,1.21-.06,1.89-.19v1.7c-.68.14-1.45.22-2.29.22-.76,0-1.39-.11-1.92-.32-.52-.21-.93-.59-1.21-1.12-.29-.53-.43-1.25-.43-2.15Z"/>
    <path class="cls-1" d="m388.17,362.11c-1.04-.57-1.84-1.41-2.42-2.5-.58-1.09-.86-2.38-.86-3.88s.29-2.78.86-3.86c.58-1.08,1.38-1.91,2.42-2.48,1.04-.57,2.19-.86,3.47-.86s2.46.29,3.48.86c1.03.58,1.83,1.4,2.42,2.48s.88,2.37.88,3.86-.29,2.79-.88,3.88c-.58,1.09-1.39,1.92-2.42,2.5-1.03.58-2.19.87-3.48.87s-2.43-.29-3.47-.87Zm5.93-1.51c.68-.43,1.21-1.06,1.59-1.88.38-.82.57-1.81.57-2.98s-.19-2.14-.55-2.97c-.37-.83-.9-1.45-1.59-1.88-.69-.42-1.52-.64-2.47-.66-.94,0-1.75.22-2.44.65-.69.43-1.23,1.06-1.61,1.89-.38.83-.57,1.82-.57,2.97s.19,2.17.57,3c.38.83.91,1.46,1.61,1.89.69.43,1.51.65,2.44.65.95-.02,1.77-.24,2.46-.68Z"/>
    <path class="cls-1" d="m400.88,354.61h7.64v1.76h-7.64v-1.76Z"/>
    <path class="cls-1" d="m411.46,343.59h2.05v7.96c.47-.92,1.1-1.63,1.89-2.13.9-.58,1.98-.86,3.24-.86,1.17,0,2.21.28,3.12.84.91.56,1.63,1.39,2.16,2.48.53,1.1.8,2.39.8,3.88s-.28,2.78-.82,3.88-1.3,1.94-2.27,2.52c-.96.59-2.03.88-3.2.88s-2.28-.3-3.16-.89c-.77-.54-1.39-1.29-1.84-2.24l-.13,2.86h-1.84v-19.17Zm11.07,12.18c0-1.13-.18-2.12-.54-2.94s-.88-1.46-1.55-1.9c-.67-.44-1.49-.66-2.44-.66-1.39,0-2.48.49-3.28,1.47-.8.98-1.21,2.34-1.23,4.06,0,1.71.41,3.05,1.21,4.04.81.98,1.91,1.47,3.29,1.47.95,0,1.77-.22,2.46-.68.68-.45,1.2-1.09,1.55-1.92s.53-1.81.53-2.94Z"/>
    <path class="cls-1" d="m426.69,355.77c0-1.46.27-2.74.82-3.83s1.32-1.94,2.31-2.51c.99-.58,2.13-.86,3.43-.86s2.33.26,3.27.78c.94.52,1.66,1.29,2.17,2.29.51,1.01.77,2.19.77,3.54v1h-10.67c.04,1.03.21,1.91.51,2.65.34.83.85,1.45,1.54,1.88.68.42,1.52.63,2.51.63,1.15,0,2.07-.28,2.77-.82.69-.55,1.13-1.35,1.31-2.39l1.94.27c-.2.94-.57,1.75-1.11,2.46-.54.7-1.23,1.24-2.08,1.62-.85.38-1.82.57-2.92.57-1.37,0-2.55-.29-3.54-.86s-1.75-1.41-2.27-2.5c-.52-1.09-.78-2.39-.78-3.9Zm2.19-1.24h8.53c-.05-.74-.19-1.39-.41-1.94-.32-.78-.8-1.36-1.43-1.76s-1.41-.59-2.35-.59-1.74.22-2.4.65-1.17,1.06-1.51,1.89c-.22.52-.36,1.11-.43,1.76Z"/>
    <path class="cls-1" d="m448.34,350.23c-.85,0-1.6.19-2.25.58s-1.17.97-1.54,1.74c-.37.77-.55,1.72-.55,2.83v7.37h-2.05v-13.85h1.94l.08,2.75s.04-.07.05-.11c.49-1.03,1.15-1.78,2-2.27s1.84-.73,3-.73c1.06,0,1.96.2,2.7.61s1.29,1,1.66,1.79c.37.79.55,1.76.55,2.92v8.88h-2.02v-8.56c0-.86-.13-1.59-.38-2.17-.25-.58-.64-1.03-1.16-1.34-.52-.31-1.2-.46-2.03-.46Z"/>
    <path class="cls-1" d="m456.28,355.77c0-1.46.27-2.74.82-3.83s1.32-1.94,2.31-2.51c.99-.58,2.13-.86,3.43-.86s2.33.26,3.27.78c.94.52,1.66,1.29,2.17,2.29.51,1.01.77,2.19.77,3.54v1h-10.67c.04,1.03.21,1.91.51,2.65.34.83.85,1.45,1.54,1.88.68.42,1.52.63,2.51.63,1.15,0,2.07-.28,2.77-.82.69-.55,1.13-1.35,1.31-2.39l1.94.27c-.2.94-.57,1.75-1.11,2.46-.54.7-1.23,1.24-2.08,1.62-.85.38-1.82.57-2.92.57-1.37,0-2.55-.29-3.54-.86s-1.75-1.41-2.27-2.5c-.52-1.09-.78-2.39-.78-3.9Zm2.19-1.24h8.53c-.05-.74-.19-1.39-.41-1.94-.32-.78-.8-1.36-1.43-1.76s-1.41-.59-2.35-.59-1.74.22-2.4.65-1.17,1.06-1.51,1.89c-.22.52-.36,1.11-.43,1.76Z"/>
    <path class="cls-1" d="m477.15,343.51c.72,0,1.42.05,2.11.16v1.73c-.68-.11-1.28-.16-1.78-.16-.7,0-1.21.16-1.54.49s-.49.84-.49,1.54v1.65h3.81v1.65h-3.81v12.2h-2.08v-12.2h-2.84v-1.65h2.84v-1.95c0-1.08.35-1.93,1.04-2.54.69-.61,1.61-.92,2.74-.92Z"/>
    <path class="cls-1" d="m481.85,348.88h2.05v13.88h-2.05v-13.88Zm2.03-6.24h2.54l-2.89,4.05h-1.24l1.59-4.05Z"/>
    <path class="cls-1" d="m489.84,362.15c-1.03-.58-1.82-1.42-2.38-2.5-.56-1.08-.84-2.38-.84-3.89s.28-2.79.84-3.89c.56-1.1,1.34-1.93,2.33-2.5,1-.57,2.17-.84,3.5-.82,1.15,0,2.16.21,3.01.65.85.43,1.52,1.04,2,1.82.48.78.76,1.68.85,2.69l-1.94.27c-.09-1.17-.46-2.09-1.12-2.75-.66-.66-1.58-1-2.77-1-.97.02-1.8.23-2.47.65s-1.19,1.03-1.55,1.85c-.36.82-.54,1.83-.54,3.04s.18,2.17.54,3.01c.36.84.9,1.47,1.61,1.9s1.57.65,2.58.65c.76,0,1.41-.14,1.97-.41.56-.27,1-.66,1.32-1.17.32-.51.53-1.12.62-1.82l1.92.32c-.13.95-.44,1.79-.94,2.5-.5.71-1.17,1.27-2.01,1.67-.84.41-1.8.61-2.9.61-1.39,0-2.59-.29-3.62-.88Z"/>
    <path class="cls-1" d="m502.02,343.05h2.19v3.38h-2.19v-3.38Zm.08,5.86h2.05v13.85h-2.05v-13.85Z"/>
    <path class="cls-1" d="m510.16,362.11c-1.04-.57-1.84-1.41-2.42-2.5-.58-1.09-.86-2.38-.86-3.88s.29-2.78.86-3.86c.58-1.08,1.38-1.91,2.42-2.48,1.04-.57,2.19-.86,3.47-.86s2.46.29,3.48.86c1.03.58,1.83,1.4,2.42,2.48s.88,2.37.88,3.86-.29,2.79-.88,3.88c-.58,1.09-1.39,1.92-2.42,2.5-1.03.58-2.19.87-3.48.87s-2.43-.29-3.47-.87Zm5.93-1.51c.68-.43,1.21-1.06,1.59-1.88.38-.82.57-1.81.57-2.98s-.19-2.14-.55-2.97c-.37-.83-.9-1.45-1.59-1.88-.69-.42-1.52-.64-2.47-.66-.94,0-1.75.22-2.44.65-.69.43-1.23,1.06-1.61,1.89-.38.83-.57,1.82-.57,2.97s.19,2.17.57,3c.38.83.91,1.46,1.61,1.89.69.43,1.51.65,2.44.65.95-.02,1.77-.24,2.46-.68Z"/>
  </g>
  <g>
    <path class="cls-1" d="m329.92,464.94h6.56c1.73,0,3.27.38,4.63,1.13,1.36.76,2.42,1.85,3.17,3.27.76,1.42,1.13,3.11,1.13,5.05s-.38,3.63-1.13,5.05c-.76,1.42-1.81,2.51-3.17,3.27-1.36.76-2.9,1.13-4.63,1.13h-6.56v-18.9Zm10.03,16.16c1.04-.6,1.84-1.47,2.42-2.62.58-1.14.86-2.51.86-4.09s-.29-2.97-.86-4.12-1.38-2.01-2.42-2.61-2.25-.89-3.63-.89h-4.29v15.23h4.29c1.39,0,2.6-.3,3.63-.9Z"/>
    <path class="cls-1" d="m348.09,464.13h2.19v3.38h-2.19v-3.38Zm.08,5.86h2.05v13.85h-2.05v-13.85Z"/>
    <path class="cls-1" d="m359.06,464.59c.72,0,1.42.05,2.11.16v1.73c-.68-.11-1.28-.16-1.78-.16-.7,0-1.21.16-1.54.49s-.49.84-.49,1.54v1.65h3.81v1.65h-3.81v12.2h-2.08v-12.2h-2.84v-1.65h2.84v-1.95c0-1.08.35-1.93,1.04-2.54.69-.61,1.61-.92,2.74-.92Z"/>
    <path class="cls-1" d="m362.94,476.85c0-1.46.27-2.74.82-3.83s1.32-1.94,2.31-2.51c.99-.58,2.13-.86,3.43-.86s2.33.26,3.27.78c.94.52,1.66,1.29,2.17,2.29.51,1.01.77,2.19.77,3.54v1h-10.67c.04,1.03.21,1.91.51,2.65.34.83.85,1.45,1.54,1.88.68.42,1.52.63,2.51.63,1.15,0,2.07-.28,2.77-.82.69-.55,1.13-1.35,1.31-2.39l1.94.27c-.2.94-.57,1.75-1.11,2.46-.54.7-1.23,1.24-2.08,1.62-.85.38-1.82.57-2.92.57-1.37,0-2.55-.29-3.54-.86s-1.75-1.41-2.27-2.5c-.52-1.09-.78-2.39-.78-3.9Zm2.19-1.24h8.53c-.05-.74-.19-1.39-.41-1.94-.32-.78-.8-1.36-1.43-1.76s-1.41-.59-2.35-.59-1.74.22-2.4.65-1.17,1.06-1.51,1.89c-.22.52-.36,1.11-.43,1.76Z"/>
    <path class="cls-1" d="m378.2,469.99h1.94l.05,2.97c.05-.12.1-.24.14-.35.4-.99.96-1.72,1.69-2.2.73-.48,1.62-.72,2.66-.72.14,0,.41.02.81.05v1.89c-.52-.07-1.03-.11-1.51-.11-.79,0-1.47.19-2.02.57-.56.38-.98.96-1.27,1.75-.29.79-.43,1.79-.43,3v6.99h-2.05v-13.85Z"/>
    <path class="cls-1" d="m386.86,476.85c0-1.46.27-2.74.82-3.83s1.32-1.94,2.31-2.51c.99-.58,2.13-.86,3.43-.86s2.33.26,3.27.78c.94.52,1.66,1.29,2.17,2.29.51,1.01.77,2.19.77,3.54v1h-10.67c.04,1.03.21,1.91.51,2.65.34.83.85,1.45,1.54,1.88.68.42,1.52.63,2.51.63,1.15,0,2.07-.28,2.77-.82.69-.55,1.13-1.35,1.31-2.39l1.94.27c-.2.94-.57,1.75-1.11,2.46-.54.7-1.23,1.24-2.08,1.62-.85.38-1.82.57-2.92.57-1.37,0-2.55-.29-3.54-.86s-1.75-1.41-2.27-2.5c-.52-1.09-.78-2.39-.78-3.9Zm2.19-1.24h8.53c-.05-.74-.19-1.39-.41-1.94-.32-.78-.8-1.36-1.43-1.76s-1.41-.59-2.35-.59-1.74.22-2.4.65-1.17,1.06-1.51,1.89c-.22.52-.36,1.11-.43,1.76Z"/>
    <path class="cls-1" d="m408.52,471.31c-.85,0-1.6.19-2.25.58s-1.17.97-1.54,1.74c-.37.77-.55,1.72-.55,2.83v7.37h-2.05v-13.85h1.94l.08,2.75s.04-.07.05-.11c.49-1.03,1.15-1.78,2-2.27s1.84-.73,3-.73c1.06,0,1.96.2,2.7.61s1.29,1,1.66,1.79c.37.79.55,1.76.55,2.92v8.88h-2.02v-8.56c0-.86-.13-1.59-.38-2.17-.25-.58-.64-1.03-1.16-1.34-.52-.31-1.2-.46-2.03-.46Z"/>
    <path class="cls-1" d="m419.67,483.23c-1.03-.58-1.82-1.42-2.38-2.5-.56-1.08-.84-2.38-.84-3.89s.28-2.79.84-3.89c.56-1.1,1.34-1.93,2.33-2.5,1-.57,2.17-.84,3.5-.82,1.15,0,2.16.21,3.01.65.85.43,1.52,1.04,2,1.82.48.78.76,1.68.85,2.69l-1.94.27c-.09-1.17-.46-2.09-1.12-2.75-.66-.66-1.58-1-2.77-1-.97.02-1.8.23-2.47.65s-1.19,1.03-1.55,1.85c-.36.82-.54,1.83-.54,3.04s.18,2.17.54,3.01c.36.84.9,1.47,1.61,1.9s1.57.65,2.58.65c.76,0,1.41-.14,1.97-.41.56-.27,1-.66,1.32-1.17.32-.51.53-1.12.62-1.82l1.92.32c-.13.95-.44,1.79-.94,2.5-.5.71-1.17,1.27-2.01,1.67-.84.41-1.8.61-2.9.61-1.39,0-2.59-.29-3.62-.88Z"/>
    <path class="cls-1" d="m431.85,464.13h2.19v3.38h-2.19v-3.38Zm.08,5.86h2.05v13.85h-2.05v-13.85Z"/>
    <path class="cls-1" d="m436.65,480.22c0-1.15.42-2.11,1.27-2.88.85-.77,2.07-1.29,3.67-1.58l4.64-.78v-.7c-.02-.65-.16-1.2-.42-1.65-.26-.45-.65-.78-1.16-1-.51-.22-1.13-.32-1.85-.32-1.21,0-2.13.27-2.77.81-.64.54-1,1.35-1.09,2.43l-1.92-.27c.14-1.48.71-2.62,1.7-3.43.99-.81,2.39-1.21,4.19-1.21s3.1.43,4.01,1.28c.91.86,1.36,2.08,1.36,3.69v9.23h-1.94l-.08-2.73c-.07.14-.15.29-.24.43-.5.83-1.2,1.46-2.08,1.9s-1.87.66-2.97.66c-.85,0-1.59-.16-2.24-.48-.65-.32-1.16-.78-1.53-1.38s-.55-1.27-.55-2.03Zm9.58-3.64l-4.02.76c-1.21.23-2.08.57-2.62,1s-.81,1-.81,1.7c0,.76.25,1.34.74,1.76s1.2.62,2.12.62c.79,0,1.53-.14,2.2-.43.67-.29,1.23-.71,1.66-1.27.41-.52.66-1.15.73-1.89v-2.24Z"/>
    <path class="cls-1" d="m451.64,464.13h2.19v3.38h-2.19v-3.38Zm.08,5.86h2.05v13.85h-2.05v-13.85Z"/>
    <path class="cls-1" d="m459.21,483.54c-.87-.38-1.55-.91-2.04-1.61s-.74-1.48-.76-2.36l1.94-.32c.04,1.03.39,1.81,1.07,2.35.67.54,1.62.81,2.82.81,1.04,0,1.87-.19,2.48-.55.61-.37.92-.94.92-1.71,0-.47-.09-.84-.27-1.12s-.45-.5-.8-.68c-.35-.17-.84-.33-1.47-.47l-2.57-.59c-1.13-.25-2.01-.68-2.62-1.3-.61-.61-.92-1.43-.92-2.46,0-1.19.45-2.13,1.34-2.83.89-.7,2.16-1.05,3.79-1.05,1.06,0,1.99.16,2.78.49s1.42.8,1.89,1.44.75,1.41.84,2.31l-1.94.32c-.13-1.06-.5-1.81-1.12-2.24s-1.44-.65-2.44-.65c-.65,0-1.2.08-1.65.23-.45.15-.8.38-1.05.66-.25.29-.38.66-.38,1.11,0,.36.08.67.23.95.15.27.38.49.68.67.3.18.67.32,1.12.43l2.92.7c1.22.29,2.15.75,2.77,1.39s.93,1.51.93,2.61c0,.81-.23,1.52-.69,2.13s-1.1,1.08-1.93,1.42c-.83.33-1.78.5-2.86.5-1.13,0-2.14-.19-3.01-.57Z"/>
  </g>
  <g>
    <path class="cls-1" d="m834.78,94.55h2.11v18.9h-2.11v-18.9Z"/>
    <path class="cls-1" d="m839.96,106.46c0-1.49.27-2.79.81-3.88.54-1.09,1.29-1.92,2.24-2.48.95-.57,2.03-.85,3.21-.85s2.29.29,3.16.86c.74.49,1.32,1.16,1.75,2.03v-7.86h2.08v19.17h-1.97l-.05-2.86c-.49.95-1.14,1.7-1.97,2.24-.9.59-1.97.89-3.21.89-1.17,0-2.21-.29-3.12-.86-.91-.58-1.62-1.41-2.15-2.51-.52-1.1-.78-2.39-.78-3.89Zm11.21-.03c0-1.13-.18-2.11-.54-2.93-.36-.82-.88-1.45-1.57-1.89-.68-.44-1.49-.66-2.43-.66-1.4.02-2.51.51-3.32,1.48-.81.97-1.21,2.31-1.21,4.02,0,1.13.18,2.12.55,2.96.37.84.89,1.47,1.57,1.92.68.44,1.49.66,2.44.66,1.4,0,2.51-.5,3.31-1.49.8-.99,1.2-2.35,1.2-4.08Z"/>
    <path class="cls-1" d="m855.67,106.46c0-1.46.27-2.74.82-3.83s1.32-1.94,2.31-2.51c.99-.58,2.13-.86,3.43-.86s2.33.26,3.27.78c.94.52,1.66,1.29,2.17,2.29.51,1.01.77,2.19.77,3.54v1h-10.67c.04,1.03.21,1.91.51,2.65.34.83.85,1.45,1.54,1.88.68.42,1.52.63,2.51.63,1.15,0,2.07-.28,2.77-.82.69-.55,1.13-1.35,1.31-2.39l1.94.27c-.2.94-.57,1.75-1.11,2.46-.54.7-1.23,1.24-2.08,1.62-.85.38-1.82.57-2.92.57-1.37,0-2.55-.29-3.54-.86s-1.75-1.41-2.27-2.5c-.52-1.09-.78-2.39-.78-3.9Zm2.19-1.24h8.53c-.05-.74-.19-1.39-.41-1.94-.32-.78-.8-1.36-1.43-1.76s-1.41-.59-2.35-.59-1.74.22-2.4.65-1.17,1.06-1.51,1.89c-.22.52-.36,1.11-.43,1.76Z"/>
    <path class="cls-1" d="m877.33,100.92c-.85,0-1.6.19-2.25.58s-1.17.97-1.54,1.74c-.37.77-.55,1.72-.55,2.83v7.37h-2.05v-13.85h1.94l.08,2.75s.04-.07.05-.11c.49-1.03,1.15-1.78,2-2.27s1.84-.73,3-.73c1.06,0,1.96.2,2.7.61s1.29,1,1.66,1.79c.37.79.55,1.76.55,2.92v8.88h-2.02v-8.56c0-.86-.13-1.59-.38-2.17-.25-.58-.64-1.03-1.16-1.34-.52-.31-1.2-.46-2.03-.46Z"/>
    <path class="cls-1" d="m887.72,110.04v-8.83h-2.97v-1.62h2.97v-3.65h2.05v3.65h3.92v1.62h-3.92v8.67c0,.54.08.96.23,1.24.15.29.36.49.62.61.26.12.62.18,1.07.18.58,0,1.21-.06,1.89-.19v1.7c-.68.14-1.45.22-2.29.22-.76,0-1.39-.11-1.92-.32-.52-.21-.93-.59-1.21-1.12-.29-.53-.43-1.25-.43-2.15Z"/>
    <path class="cls-1" d="m896.23,93.74h2.19v3.38h-2.19v-3.38Zm.08,5.86h2.05v13.85h-2.05v-13.85Z"/>
    <path class="cls-1" d="m907.19,94.2c.72,0,1.42.05,2.11.16v1.73c-.68-.11-1.28-.16-1.78-.16-.7,0-1.21.16-1.54.49s-.49.84-.49,1.54v1.65h3.81v1.65h-3.81v12.2h-2.08v-12.2h-2.84v-1.65h2.84v-1.95c0-1.08.35-1.93,1.04-2.54.69-.61,1.61-.92,2.74-.92Z"/>
    <path class="cls-1" d="m911.81,93.74h2.19v3.38h-2.19v-3.38Zm.08,5.86h2.05v13.85h-2.05v-13.85Z"/>
    <path class="cls-1" d="m919.88,112.84c-1.03-.58-1.82-1.42-2.38-2.5-.56-1.08-.84-2.38-.84-3.89s.28-2.79.84-3.89c.56-1.1,1.34-1.93,2.33-2.5,1-.57,2.17-.84,3.5-.82,1.15,0,2.16.21,3.01.65.85.43,1.52,1.04,2,1.82.48.78.76,1.68.85,2.69l-1.94.27c-.09-1.17-.46-2.09-1.12-2.75-.66-.66-1.58-1-2.77-1-.97.02-1.8.23-2.47.65s-1.19,1.03-1.55,1.85c-.36.82-.54,1.83-.54,3.04s.18,2.17.54,3.01c.36.84.9,1.47,1.61,1.9s1.57.65,2.58.65c.76,0,1.41-.14,1.97-.41.56-.27,1-.66,1.32-1.17.32-.51.53-1.12.62-1.82l1.92.32c-.13.95-.44,1.79-.94,2.5-.5.71-1.17,1.27-2.01,1.67-.84.41-1.8.61-2.9.61-1.39,0-2.59-.29-3.62-.88Z"/>
    <path class="cls-1" d="m931.27,109.83c0-1.15.42-2.11,1.27-2.88.85-.77,2.07-1.29,3.67-1.58l4.64-.78v-.7c-.02-.65-.16-1.2-.42-1.65-.26-.45-.65-.78-1.16-1-.51-.22-1.13-.32-1.85-.32-1.21,0-2.13.27-2.77.81-.64.54-1,1.35-1.09,2.43l-1.92-.27c.14-1.48.71-2.62,1.7-3.43.99-.81,2.39-1.21,4.19-1.21s3.1.43,4.01,1.28c.91.86,1.36,2.08,1.36,3.69v9.23h-1.94l-.08-2.73c-.07.14-.15.29-.24.43-.5.83-1.2,1.46-2.08,1.9s-1.87.66-2.97.66c-.85,0-1.59-.16-2.24-.48-.65-.32-1.16-.78-1.53-1.38s-.55-1.27-.55-2.03Zm9.58-3.64l-4.02.76c-1.21.23-2.08.57-2.62,1s-.81,1-.81,1.7c0,.76.25,1.34.74,1.76s1.2.62,2.12.62c.79,0,1.53-.14,2.2-.43.67-.29,1.23-.71,1.66-1.27.41-.52.66-1.15.73-1.89v-2.24Z"/>
    <path class="cls-1" d="m945.53,106.46c0-1.49.28-2.79.84-3.89.56-1.1,1.34-1.93,2.33-2.5,1-.57,2.17-.84,3.5-.82,1.15,0,2.16.21,3.01.65.85.43,1.52,1.04,2,1.82.48.78.76,1.68.85,2.69l-1.94.27c-.09-1.17-.46-2.09-1.12-2.75-.66-.66-1.58-1-2.77-1-.97.02-1.8.23-2.47.65s-1.19,1.03-1.55,1.85c-.36.82-.54,1.83-.54,3.04s.18,2.17.54,3.01c.36.84.9,1.47,1.61,1.9s1.57.65,2.58.65c.76,0,1.41-.14,1.97-.41.56-.27,1-.66,1.32-1.17.32-.51.53-1.12.62-1.82l1.92.32c-.13.95-.44,1.79-.94,2.5-.5.71-1.17,1.27-2,1.69-.72.34-1.55.54-2.48.59l-.65,2.03h.08c.74,0,1.32.17,1.75.51.43.34.66.82.67,1.43.02.59-.2,1.07-.66,1.43-.46.36-1.09.54-1.9.54-.59,0-1.16-.04-1.7-.11v-1.08c.52.07,1.03.11,1.51.11.43,0,.76-.08.99-.24.22-.16.33-.4.31-.73,0-.32-.11-.57-.34-.73s-.53-.24-.9-.24l-1.51.03,1.32-2.97c-1.13-.07-2.14-.35-3.02-.84-1.03-.59-1.82-1.43-2.38-2.51-.56-1.08-.84-2.38-.84-3.89Z"/>
    <path class="cls-1" d="m960.19,109.83c0-1.15.42-2.11,1.27-2.88.85-.77,2.07-1.29,3.67-1.58l4.64-.78v-.7c-.02-.65-.16-1.2-.42-1.65-.26-.45-.65-.78-1.16-1-.51-.22-1.13-.32-1.85-.32-1.21,0-2.13.27-2.77.81-.64.54-1,1.35-1.09,2.43l-1.92-.27c.14-1.48.71-2.62,1.7-3.43.99-.81,2.39-1.21,4.19-1.21s3.1.43,4.01,1.28c.91.86,1.36,2.08,1.36,3.69v9.23h-1.94l-.08-2.73c-.07.14-.15.29-.24.43-.5.83-1.2,1.46-2.08,1.9s-1.87.66-2.97.66c-.85,0-1.59-.16-2.24-.48-.65-.32-1.16-.78-1.53-1.38s-.55-1.27-.55-2.03Zm7.14-12.83c-.3-.14-.64-.34-1.04-.59-.32-.21-.59-.37-.81-.47-.22-.1-.44-.15-.68-.15-.34,0-.62.13-.84.38s-.32.59-.32,1.03h-1.35c0-.76.2-1.41.61-1.97s.99-.84,1.74-.84c.34,0,.66.06.95.19.29.13.63.32,1.03.57.38.23.67.4.88.51.21.11.44.16.69.16.34,0,.62-.12.82-.36.21-.24.32-.59.34-1.04h1.35c-.02.76-.23,1.41-.62,1.97-.4.56-.97.84-1.73.84-.38,0-.71-.07-1.01-.22Zm2.44,9.18l-4.02.76c-1.21.23-2.08.57-2.62,1s-.81,1-.81,1.7c0,.76.25,1.34.74,1.76s1.2.62,2.12.62c.79,0,1.53-.14,2.2-.43.67-.29,1.23-.71,1.66-1.27.41-.52.66-1.15.73-1.89v-2.24Z"/>
    <path class="cls-1" d="m977.75,112.8c-1.04-.57-1.84-1.41-2.42-2.5-.58-1.09-.86-2.38-.86-3.88s.29-2.78.86-3.86c.58-1.08,1.38-1.91,2.42-2.48,1.04-.57,2.19-.86,3.47-.86s2.46.29,3.48.86c1.03.58,1.83,1.4,2.42,2.48s.88,2.37.88,3.86-.29,2.79-.88,3.88c-.58,1.09-1.39,1.92-2.42,2.5-1.03.58-2.19.87-3.48.87s-2.43-.29-3.47-.87Zm5.93-1.51c.68-.43,1.21-1.06,1.59-1.88.38-.82.57-1.81.57-2.98s-.19-2.14-.55-2.97c-.37-.83-.9-1.45-1.59-1.88-.69-.42-1.52-.64-2.47-.66-.94,0-1.75.22-2.44.65-.69.43-1.23,1.06-1.61,1.89-.38.83-.57,1.82-.57,2.97s.19,2.17.57,3c.38.83.91,1.46,1.61,1.89.69.43,1.51.65,2.44.65.95-.02,1.77-.24,2.46-.68Z"/>
  </g>
  <g>
    <path class="cls-1" d="m834.78,215.42h12.66v1.84h-10.56v6.48h9.8v1.84h-9.8v8.75h-2.11v-18.9Z"/>
    <path class="cls-1" d="m850.01,214.61h2.19v3.38h-2.19v-3.38Zm.08,5.86h2.05v13.85h-2.05v-13.85Z"/>
    <path class="cls-1" d="m854.87,227.32c0-1.49.27-2.79.81-3.87.54-1.09,1.29-1.92,2.24-2.48.95-.57,2.03-.85,3.21-.85s2.29.29,3.16.87c.74.49,1.32,1.16,1.75,2.02v-7.86h2.08v19.17h-1.97l-.05-2.86c-.49.96-1.14,1.7-1.97,2.24-.9.59-1.97.89-3.21.89-1.17,0-2.21-.29-3.12-.86-.91-.58-1.62-1.41-2.15-2.51-.52-1.1-.78-2.39-.78-3.89Zm11.21-.03c0-1.13-.18-2.11-.54-2.93-.36-.82-.88-1.45-1.57-1.89-.68-.44-1.49-.66-2.43-.66-1.4.02-2.51.51-3.32,1.49-.81.97-1.21,2.31-1.21,4.02,0,1.13.18,2.12.55,2.96.37.84.89,1.48,1.57,1.92.68.44,1.49.66,2.44.66,1.4,0,2.51-.49,3.31-1.48s1.2-2.35,1.2-4.08Z"/>
    <path class="cls-1" d="m870.58,227.32c0-1.46.27-2.73.82-3.83.55-1.1,1.32-1.93,2.31-2.51.99-.58,2.13-.87,3.43-.87s2.33.26,3.27.78c.94.52,1.66,1.29,2.17,2.29.51,1.01.77,2.19.77,3.54v1h-10.67c.04,1.03.21,1.91.51,2.64.34.83.85,1.46,1.54,1.88.68.42,1.52.63,2.51.63,1.15,0,2.07-.27,2.77-.82.69-.55,1.13-1.34,1.31-2.39l1.94.27c-.2.94-.57,1.76-1.11,2.46-.54.7-1.23,1.24-2.08,1.62-.85.38-1.82.57-2.92.57-1.37,0-2.55-.29-3.54-.86s-1.75-1.41-2.27-2.5c-.52-1.09-.78-2.39-.78-3.9Zm2.19-1.24h8.53c-.05-.74-.19-1.38-.41-1.94-.32-.77-.8-1.36-1.43-1.75-.63-.4-1.41-.6-2.35-.6s-1.74.22-2.4.65-1.17,1.06-1.51,1.89c-.22.52-.36,1.11-.43,1.75Z"/>
    <path class="cls-1" d="m885.83,215.15h2.05v19.17h-2.05v-19.17Z"/>
    <path class="cls-1" d="m891.1,214.61h2.19v3.38h-2.19v-3.38Zm.08,5.86h2.05v13.85h-2.05v-13.85Z"/>
    <path class="cls-1" d="m895.82,232.88l8.15-10.85h-7.99v-1.59h10.48v1.43l-8.13,10.85h8.13v1.59h-10.64v-1.43Z"/>
    <path class="cls-1" d="m908.33,230.7c0-1.15.42-2.11,1.27-2.88.85-.77,2.07-1.29,3.67-1.58l4.64-.78v-.7c-.02-.65-.16-1.2-.42-1.65s-.65-.78-1.16-1c-.51-.21-1.13-.32-1.85-.32-1.21,0-2.13.27-2.77.81-.64.54-1,1.35-1.09,2.43l-1.92-.27c.14-1.48.71-2.62,1.7-3.43.99-.81,2.39-1.21,4.19-1.21s3.1.43,4.01,1.28c.91.86,1.36,2.08,1.36,3.69v9.23h-1.94l-.08-2.73c-.07.14-.15.29-.24.43-.5.83-1.2,1.46-2.08,1.9-.88.44-1.87.66-2.97.66-.85,0-1.59-.16-2.24-.49-.65-.32-1.16-.78-1.53-1.38s-.55-1.27-.55-2.03Zm9.58-3.64l-4.02.76c-1.21.23-2.08.57-2.62,1-.54.43-.81,1-.81,1.7,0,.76.25,1.34.74,1.75s1.2.62,2.12.62c.79,0,1.53-.14,2.2-.43s1.23-.71,1.66-1.27c.41-.52.66-1.15.73-1.89v-2.24Z"/>
    <path class="cls-1" d="m922.58,227.32c0-1.49.28-2.79.84-3.89.56-1.1,1.34-1.93,2.33-2.5s2.17-.84,3.5-.82c1.15,0,2.16.22,3.01.65.85.43,1.52,1.04,2,1.82.48.78.76,1.68.85,2.69l-1.94.27c-.09-1.17-.46-2.09-1.12-2.75s-1.58-1-2.77-1c-.97.02-1.8.23-2.47.65s-1.19,1.03-1.55,1.85c-.36.82-.54,1.83-.54,3.04s.18,2.17.54,3.01c.36.84.9,1.47,1.61,1.9s1.57.65,2.58.65c.76,0,1.41-.13,1.97-.4.56-.27,1-.66,1.32-1.18.32-.51.53-1.12.62-1.82l1.92.32c-.13.96-.44,1.79-.94,2.5-.5.71-1.17,1.27-2,1.69-.72.34-1.55.54-2.48.59l-.65,2.03h.08c.74,0,1.32.17,1.75.51.43.34.66.82.67,1.43.02.59-.2,1.07-.66,1.43-.46.36-1.09.54-1.9.54-.59,0-1.16-.04-1.7-.11v-1.08c.52.07,1.03.11,1.51.11.43,0,.76-.08.99-.24.22-.16.33-.4.31-.73,0-.32-.11-.57-.34-.73s-.53-.24-.9-.24l-1.51.03,1.32-2.97c-1.13-.07-2.14-.35-3.02-.84-1.03-.6-1.82-1.43-2.38-2.51-.56-1.08-.84-2.38-.84-3.89Z"/>
    <path class="cls-1" d="m937.24,230.7c0-1.15.42-2.11,1.27-2.88.85-.77,2.07-1.29,3.67-1.58l4.64-.78v-.7c-.02-.65-.16-1.2-.42-1.65s-.65-.78-1.16-1c-.51-.21-1.13-.32-1.85-.32-1.21,0-2.13.27-2.77.81-.64.54-1,1.35-1.09,2.43l-1.92-.27c.14-1.48.71-2.62,1.7-3.43.99-.81,2.39-1.21,4.19-1.21s3.1.43,4.01,1.28c.91.86,1.36,2.08,1.36,3.69v9.23h-1.94l-.08-2.73c-.07.14-.15.29-.24.43-.5.83-1.2,1.46-2.08,1.9-.88.44-1.87.66-2.97.66-.85,0-1.59-.16-2.24-.49-.65-.32-1.16-.78-1.53-1.38s-.55-1.27-.55-2.03Zm7.14-12.82c-.3-.14-.64-.34-1.04-.59-.32-.22-.59-.37-.81-.47-.22-.1-.44-.15-.68-.15-.34,0-.62.12-.84.38-.22.25-.32.6-.32,1.03h-1.35c0-.76.2-1.41.61-1.97.41-.56.99-.84,1.74-.84.34,0,.66.06.95.19.29.12.63.31,1.03.57.38.23.67.4.88.51.21.11.44.16.69.16.34,0,.62-.12.82-.37.21-.24.32-.59.34-1.04h1.35c-.02.76-.23,1.41-.62,1.97-.4.56-.97.84-1.73.84-.38,0-.71-.07-1.01-.22Zm2.44,9.18l-4.02.76c-1.21.23-2.08.57-2.62,1-.54.43-.81,1-.81,1.7,0,.76.25,1.34.74,1.75s1.2.62,2.12.62c.79,0,1.53-.14,2.2-.43s1.23-.71,1.66-1.27c.41-.52.66-1.15.73-1.89v-2.24Z"/>
    <path class="cls-1" d="m954.8,233.67c-1.04-.58-1.84-1.41-2.42-2.5-.58-1.09-.86-2.38-.86-3.87s.29-2.78.86-3.86c.58-1.08,1.38-1.91,2.42-2.48s2.19-.86,3.47-.86,2.46.29,3.48.86c1.03.58,1.83,1.4,2.42,2.48s.88,2.37.88,3.86-.29,2.79-.88,3.87c-.58,1.09-1.39,1.92-2.42,2.5-1.03.58-2.19.86-3.48.86s-2.43-.29-3.47-.86Zm5.93-1.51c.68-.43,1.21-1.06,1.59-1.88.38-.82.57-1.81.57-2.98s-.19-2.14-.55-2.97c-.37-.83-.9-1.45-1.59-1.88-.69-.42-1.52-.64-2.47-.66-.94,0-1.75.22-2.44.65-.69.43-1.23,1.06-1.61,1.89s-.57,1.82-.57,2.97.19,2.17.57,3,.91,1.46,1.61,1.89c.69.43,1.51.65,2.44.65.95-.02,1.77-.24,2.46-.67Z"/>
  </g>
  <g>
    <path class="cls-1" d="m837.83,354.48c-1.31-.79-2.34-1.92-3.08-3.39s-1.11-3.18-1.11-5.14.36-3.65,1.08-5.12,1.72-2.6,3.01-3.4,2.77-1.2,4.44-1.2c1.51,0,2.83.26,3.94.77,1.12.51,2.01,1.25,2.69,2.21s1.12,2.11,1.34,3.44l-2.11.38c-.29-1.64-.9-2.88-1.85-3.71-.95-.84-2.28-1.26-4.01-1.26-1.22,0-2.31.31-3.25.93-.95.62-1.69,1.53-2.23,2.71s-.81,2.59-.81,4.21.27,3,.81,4.18c.54,1.19,1.29,2.11,2.25,2.75.96.65,2.07.97,3.31.97,1.69,0,3.02-.43,4-1.3.97-.86,1.61-2.08,1.92-3.64l2.13.35c-.25,1.28-.72,2.4-1.4,3.36-.68.96-1.58,1.71-2.7,2.25-1.12.54-2.43.81-3.94.81-1.64,0-3.11-.4-4.43-1.19Z"/>
    <path class="cls-1" d="m855.12,354.75c-1.04-.58-1.84-1.41-2.42-2.5-.58-1.09-.86-2.38-.86-3.87s.29-2.78.86-3.86c.58-1.08,1.38-1.91,2.42-2.48s2.19-.86,3.47-.86,2.46.29,3.48.86c1.03.58,1.83,1.4,2.42,2.48s.88,2.37.88,3.86-.29,2.79-.88,3.87c-.58,1.09-1.39,1.92-2.42,2.5-1.03.58-2.19.86-3.48.86s-2.43-.29-3.47-.86Zm5.93-1.51c.68-.43,1.21-1.06,1.59-1.88.38-.82.57-1.81.57-2.98s-.19-2.14-.55-2.97c-.37-.83-.9-1.45-1.59-1.88-.69-.42-1.52-.64-2.47-.66-.94,0-1.75.22-2.44.65-.69.43-1.23,1.06-1.61,1.89s-.57,1.82-.57,2.97.19,2.17.57,3,.91,1.46,1.61,1.89c.69.43,1.51.65,2.44.65.95-.02,1.77-.24,2.46-.67Z"/>
    <path class="cls-1" d="m874.22,342.87c-.85,0-1.6.2-2.25.58s-1.17.97-1.54,1.74c-.37.78-.55,1.72-.55,2.84v7.37h-2.05v-13.85h1.94l.08,2.75.05-.11c.49-1.03,1.15-1.78,2-2.27.85-.49,1.84-.73,3-.73,1.06,0,1.96.2,2.7.61.74.41,1.29,1,1.66,1.8.37.79.55,1.76.55,2.92v8.88h-2.02v-8.56c0-.87-.13-1.59-.38-2.17-.25-.59-.64-1.03-1.16-1.34-.52-.3-1.2-.46-2.03-.46Z"/>
    <path class="cls-1" d="m882.16,348.41c0-1.46.27-2.73.82-3.83.55-1.1,1.32-1.93,2.31-2.51.99-.58,2.13-.87,3.43-.87s2.33.26,3.27.78c.94.52,1.66,1.29,2.17,2.29.51,1.01.77,2.19.77,3.54v1h-10.67c.04,1.03.21,1.91.51,2.64.34.83.85,1.46,1.54,1.88.68.42,1.52.63,2.51.63,1.15,0,2.07-.27,2.77-.82.69-.55,1.13-1.34,1.31-2.39l1.94.27c-.2.94-.57,1.76-1.11,2.46-.54.7-1.23,1.24-2.08,1.62-.85.38-1.82.57-2.92.57-1.37,0-2.55-.29-3.54-.86s-1.75-1.41-2.27-2.5c-.52-1.09-.78-2.39-.78-3.9Zm2.19-1.24h8.53c-.05-.74-.19-1.38-.41-1.94-.32-.77-.8-1.36-1.43-1.75-.63-.4-1.41-.6-2.35-.6s-1.74.22-2.4.65-1.17,1.06-1.51,1.89c-.22.52-.36,1.11-.43,1.75Z"/>
    <path class="cls-1" d="m896.52,341.55h2.35l4,5.16,3.89-5.16h2.43l-5.21,6.62,5.59,7.24h-2.35l-4.35-5.64-4.27,5.64h-2.48l5.62-7.1-5.21-6.75Z"/>
    <path class="cls-1" d="m910.7,351.78c0-1.15.42-2.11,1.27-2.88.85-.77,2.07-1.29,3.67-1.58l4.64-.78v-.7c-.02-.65-.16-1.2-.42-1.65s-.65-.78-1.16-1c-.51-.21-1.13-.32-1.85-.32-1.21,0-2.13.27-2.77.81-.64.54-1,1.35-1.09,2.43l-1.92-.27c.14-1.48.71-2.62,1.7-3.43.99-.81,2.39-1.21,4.19-1.21s3.1.43,4.01,1.28c.91.86,1.36,2.08,1.36,3.69v9.23h-1.94l-.08-2.73c-.07.14-.15.29-.24.43-.5.83-1.2,1.46-2.08,1.9-.88.44-1.87.66-2.97.66-.85,0-1.59-.16-2.24-.49-.65-.32-1.16-.78-1.53-1.38s-.55-1.27-.55-2.03Zm7.14-12.82c-.3-.14-.64-.34-1.04-.59-.32-.22-.59-.37-.81-.47-.22-.1-.44-.15-.68-.15-.34,0-.62.12-.84.38-.22.25-.32.6-.32,1.03h-1.35c0-.76.2-1.41.61-1.97.41-.56.99-.84,1.74-.84.34,0,.66.06.95.19.29.12.63.31,1.03.57.38.23.67.4.88.51.21.11.44.16.69.16.34,0,.62-.12.82-.37.21-.24.32-.59.34-1.04h1.35c-.02.76-.23,1.41-.62,1.97-.4.56-.97.84-1.73.84-.38,0-.71-.07-1.01-.22Zm2.44,9.18l-4.02.76c-1.21.23-2.08.57-2.62,1-.54.43-.81,1-.81,1.7,0,.76.25,1.34.74,1.75s1.2.62,2.12.62c.79,0,1.53-.14,2.2-.43s1.23-.71,1.66-1.27c.41-.52.66-1.15.73-1.89v-2.24Z"/>
    <path class="cls-1" d="m928.26,354.75c-1.04-.58-1.84-1.41-2.42-2.5-.58-1.09-.86-2.38-.86-3.87s.29-2.78.86-3.86c.58-1.08,1.38-1.91,2.42-2.48s2.19-.86,3.47-.86,2.46.29,3.48.86c1.03.58,1.83,1.4,2.42,2.48s.88,2.37.88,3.86-.29,2.79-.88,3.87c-.58,1.09-1.39,1.92-2.42,2.5-1.03.58-2.19.86-3.48.86s-2.43-.29-3.47-.86Zm5.93-1.51c.68-.43,1.21-1.06,1.59-1.88.38-.82.57-1.81.57-2.98s-.19-2.14-.55-2.97c-.37-.83-.9-1.45-1.59-1.88-.69-.42-1.52-.64-2.47-.66-.94,0-1.75.22-2.44.65-.69.43-1.23,1.06-1.61,1.89s-.57,1.82-.57,2.97.19,2.17.57,3,.91,1.46,1.61,1.89c.69.43,1.51.65,2.44.65.95-.02,1.77-.24,2.46-.67Z"/>
    <path class="cls-1" d="m947.45,348.41c0-1.46.27-2.73.82-3.83.55-1.1,1.32-1.93,2.31-2.51.99-.58,2.13-.87,3.43-.87s2.33.26,3.27.78c.94.52,1.66,1.29,2.17,2.29.51,1.01.77,2.19.77,3.54v1h-10.67c.04,1.03.21,1.91.51,2.64.34.83.85,1.46,1.54,1.88.68.42,1.52.63,2.51.63,1.15,0,2.07-.27,2.77-.82.69-.55,1.13-1.34,1.31-2.39l1.94.27c-.2.94-.57,1.76-1.11,2.46-.54.7-1.23,1.24-2.08,1.62-.85.38-1.82.57-2.92.57-1.37,0-2.55-.29-3.54-.86s-1.75-1.41-2.27-2.5c-.52-1.09-.78-2.39-.78-3.9Zm2.19-1.24h8.53c-.05-.74-.19-1.38-.41-1.94-.32-.77-.8-1.36-1.43-1.75-.63-.4-1.41-.6-2.35-.6s-1.74.22-2.4.65-1.17,1.06-1.51,1.89c-.22.52-.36,1.11-.43,1.75Z"/>
    <path class="cls-1" d="m977.44,342.87c-1.21,0-2.13.42-2.78,1.24-.59.79-.9,1.95-.92,3.48v7.8h-2.08v-8.72c0-1.17-.27-2.1-.8-2.78-.53-.68-1.33-1.03-2.39-1.03-1.22,0-2.15.42-2.78,1.24-.61.78-.93,1.94-.94,3.48v7.8h-2.05v-13.85h1.94l.08,2.51c.36-.97.9-1.69,1.62-2.16.76-.47,1.69-.7,2.81-.7,1.01,0,1.85.22,2.54.65.68.43,1.2,1.04,1.54,1.84.09.22.17.44.24.68.02-.07.04-.13.05-.19.4-1.01.98-1.76,1.75-2.24.77-.49,1.73-.73,2.86-.73,1.51,0,2.65.45,3.42,1.34.76.89,1.15,2.22,1.15,3.98v8.88h-2.05v-8.72c0-1.3-.26-2.26-.77-2.88-.51-.62-1.33-.93-2.44-.93Z"/>
    <path class="cls-1" d="m988.34,354.75c-1.04-.58-1.84-1.41-2.42-2.5-.58-1.09-.86-2.38-.86-3.87s.29-2.78.86-3.86c.58-1.08,1.38-1.91,2.42-2.48s2.19-.86,3.47-.86,2.46.29,3.48.86c1.03.58,1.83,1.4,2.42,2.48s.88,2.37.88,3.86-.29,2.79-.88,3.87c-.58,1.09-1.39,1.92-2.42,2.5-1.03.58-2.19.86-3.48.86s-2.43-.29-3.47-.86Zm5.93-1.51c.68-.43,1.21-1.06,1.59-1.88.38-.82.57-1.81.57-2.98s-.19-2.14-.55-2.97c-.37-.83-.9-1.45-1.59-1.88-.69-.42-1.52-.64-2.47-.66-.94,0-1.75.22-2.44.65-.69.43-1.23,1.06-1.61,1.89s-.57,1.82-.57,2.97.19,2.17.57,3,.91,1.46,1.61,1.89c.69.43,1.51.65,2.44.65.95-.02,1.77-.24,2.46-.67Z"/>
    <path class="cls-1" d="m1003.77,354.79c-1.03-.59-1.82-1.42-2.38-2.5-.56-1.08-.84-2.38-.84-3.89s.28-2.79.84-3.89c.56-1.1,1.34-1.93,2.33-2.5s2.17-.84,3.5-.82c1.15,0,2.16.22,3.01.65.85.43,1.52,1.04,2,1.82.48.78.76,1.68.85,2.69l-1.94.27c-.09-1.17-.46-2.09-1.12-2.75s-1.58-1-2.77-1c-.97.02-1.8.23-2.47.65s-1.19,1.03-1.55,1.85c-.36.82-.54,1.83-.54,3.04s.18,2.17.54,3.01c.36.84.9,1.47,1.61,1.9s1.57.65,2.58.65c.76,0,1.41-.13,1.97-.4.56-.27,1-.66,1.32-1.18.32-.51.53-1.12.62-1.82l1.92.32c-.13.96-.44,1.79-.94,2.5-.5.71-1.17,1.27-2.01,1.67s-1.8.61-2.9.61c-1.39,0-2.59-.29-3.62-.88Z"/>
    <path class="cls-1" d="m1015.94,335.69h2.19v3.38h-2.19v-3.38Zm.08,5.86h2.05v13.85h-2.05v-13.85Z"/>
    <path class="cls-1" d="m1024.08,354.75c-1.04-.58-1.84-1.41-2.42-2.5-.58-1.09-.86-2.38-.86-3.87s.29-2.78.86-3.86c.58-1.08,1.38-1.91,2.42-2.48s2.19-.86,3.47-.86,2.46.29,3.48.86c1.03.58,1.83,1.4,2.42,2.48s.88,2.37.88,3.86-.29,2.79-.88,3.87c-.58,1.09-1.39,1.92-2.42,2.5-1.03.58-2.19.86-3.48.86s-2.43-.29-3.47-.86Zm5.93-1.51c.68-.43,1.21-1.06,1.59-1.88.38-.82.57-1.81.57-2.98s-.19-2.14-.55-2.97c-.37-.83-.9-1.45-1.59-1.88-.69-.42-1.52-.64-2.47-.66-.94,0-1.75.22-2.44.65-.69.43-1.23,1.06-1.61,1.89s-.57,1.82-.57,2.97.19,2.17.57,3,.91,1.46,1.61,1.89c.69.43,1.51.65,2.44.65.95-.02,1.77-.24,2.46-.67Z"/>
    <path class="cls-1" d="m1043.19,342.87c-.85,0-1.6.2-2.25.58s-1.17.97-1.54,1.74c-.37.78-.55,1.72-.55,2.84v7.37h-2.05v-13.85h1.94l.08,2.75.05-.11c.49-1.03,1.15-1.78,2-2.27.85-.49,1.84-.73,3-.73,1.06,0,1.96.2,2.7.61.74.41,1.29,1,1.66,1.8.37.79.55,1.76.55,2.92v8.88h-2.02v-8.56c0-.87-.13-1.59-.38-2.17-.25-.59-.64-1.03-1.16-1.34-.52-.3-1.2-.46-2.03-.46Z"/>
    <path class="cls-1" d="m1051.07,351.78c0-1.15.42-2.11,1.27-2.88.85-.77,2.07-1.29,3.67-1.58l4.64-.78v-.7c-.02-.65-.16-1.2-.42-1.65s-.65-.78-1.16-1c-.51-.21-1.13-.32-1.85-.32-1.21,0-2.13.27-2.77.81-.64.54-1,1.35-1.09,2.43l-1.92-.27c.14-1.48.71-2.62,1.7-3.43.99-.81,2.39-1.21,4.19-1.21s3.1.43,4.01,1.28c.91.86,1.36,2.08,1.36,3.69v9.23h-1.94l-.08-2.73c-.07.14-.15.29-.24.43-.5.83-1.2,1.46-2.08,1.9-.88.44-1.87.66-2.97.66-.85,0-1.59-.16-2.24-.49-.65-.32-1.16-.78-1.53-1.38s-.55-1.27-.55-2.03Zm9.58-3.64l-4.02.76c-1.21.23-2.08.57-2.62,1-.54.43-.81,1-.81,1.7,0,.76.25,1.34.74,1.75s1.2.62,2.12.62c.79,0,1.53-.14,2.2-.43s1.23-.71,1.66-1.27c.41-.52.66-1.15.73-1.89v-2.24Z"/>
    <path class="cls-1" d="m1065.81,336.23h2.05v19.17h-2.05v-19.17Z"/>
  </g>
  <g>
    <path class="cls-1" d="m1336.82,86h12.53v1.84h-10.42v6.4h9.67v1.84h-9.67v6.99h10.53v1.84h-12.64v-18.9Z"/>
    <path class="cls-1" d="m1354.81,104.29c-1.03-.59-1.82-1.42-2.38-2.5-.56-1.08-.84-2.38-.84-3.89s.28-2.79.84-3.89c.56-1.1,1.34-1.93,2.33-2.5s2.17-.84,3.5-.82c1.15,0,2.16.22,3.01.65.85.43,1.52,1.04,2,1.82.48.78.76,1.68.85,2.69l-1.94.27c-.09-1.17-.46-2.09-1.12-2.75s-1.58-1-2.77-1c-.97.02-1.8.23-2.47.65s-1.19,1.03-1.55,1.85c-.36.82-.54,1.83-.54,3.04s.18,2.17.54,3.01c.36.84.9,1.47,1.61,1.9s1.57.65,2.58.65c.76,0,1.41-.13,1.97-.4.56-.27,1-.66,1.32-1.18.32-.51.53-1.12.62-1.82l1.92.32c-.13.96-.44,1.79-.94,2.5-.5.71-1.17,1.27-2.01,1.67s-1.8.61-2.9.61c-1.39,0-2.59-.29-3.62-.88Z"/>
    <path class="cls-1" d="m1369.53,104.25c-1.04-.58-1.84-1.41-2.42-2.5-.58-1.09-.86-2.38-.86-3.87s.29-2.78.86-3.86c.58-1.08,1.38-1.91,2.42-2.48s2.19-.86,3.47-.86,2.46.29,3.48.86c1.03.58,1.83,1.4,2.42,2.48s.88,2.37.88,3.86-.29,2.79-.88,3.87c-.58,1.09-1.39,1.92-2.42,2.5-1.03.58-2.19.86-3.48.86s-2.43-.29-3.47-.86Zm5.93-1.51c.68-.43,1.21-1.06,1.59-1.88.38-.82.57-1.81.57-2.98s-.19-2.14-.55-2.97c-.37-.83-.9-1.45-1.59-1.88-.69-.42-1.52-.64-2.47-.66-.94,0-1.75.22-2.44.65-.69.43-1.23,1.06-1.61,1.89s-.57,1.82-.57,2.97.19,2.17.57,3,.91,1.46,1.61,1.89c.69.43,1.51.65,2.44.65.95-.02,1.77-.24,2.46-.67Z"/>
    <path class="cls-1" d="m1384.46,104.6c-.87-.38-1.55-.91-2.04-1.61s-.74-1.48-.76-2.36l1.94-.32c.04,1.03.39,1.81,1.07,2.35.67.54,1.62.81,2.82.81,1.04,0,1.87-.18,2.48-.55.61-.37.92-.94.92-1.71,0-.47-.09-.84-.27-1.12s-.45-.5-.8-.67c-.35-.17-.84-.33-1.47-.47l-2.57-.59c-1.13-.25-2.01-.69-2.62-1.3s-.92-1.43-.92-2.46c0-1.19.45-2.13,1.34-2.84.89-.7,2.16-1.05,3.79-1.05,1.06,0,1.99.16,2.78.49s1.42.81,1.89,1.45.75,1.41.84,2.31l-1.94.32c-.13-1.06-.5-1.81-1.12-2.24s-1.44-.65-2.44-.65c-.65,0-1.2.08-1.65.23-.45.15-.8.37-1.05.66-.25.29-.38.66-.38,1.11,0,.36.08.68.23.95.15.27.38.5.68.68.3.18.67.32,1.12.43l2.92.7c1.22.29,2.15.75,2.77,1.39.62.64.93,1.51.93,2.61,0,.81-.23,1.52-.69,2.13-.46.61-1.1,1.09-1.93,1.42-.83.33-1.78.5-2.86.5-1.13,0-2.14-.19-3.01-.57Z"/>
    <path class="cls-1" d="m1397.53,104.6c-.87-.38-1.55-.91-2.04-1.61s-.74-1.48-.76-2.36l1.94-.32c.04,1.03.39,1.81,1.07,2.35.67.54,1.62.81,2.82.81,1.04,0,1.87-.18,2.48-.55.61-.37.92-.94.92-1.71,0-.47-.09-.84-.27-1.12s-.45-.5-.8-.67c-.35-.17-.84-.33-1.47-.47l-2.57-.59c-1.13-.25-2.01-.69-2.62-1.3s-.92-1.43-.92-2.46c0-1.19.45-2.13,1.34-2.84.89-.7,2.16-1.05,3.79-1.05,1.06,0,1.99.16,2.78.49s1.42.81,1.89,1.45.75,1.41.84,2.31l-1.94.32c-.13-1.06-.5-1.81-1.12-2.24s-1.44-.65-2.44-.65c-.65,0-1.2.08-1.65.23-.45.15-.8.37-1.05.66-.25.29-.38.66-.38,1.11,0,.36.08.68.23.95.15.27.38.5.68.68.3.18.67.32,1.12.43l2.92.7c1.22.29,2.15.75,2.77,1.39.62.64.93,1.51.93,2.61,0,.81-.23,1.52-.69,2.13-.46.61-1.1,1.09-1.93,1.42-.83.33-1.78.5-2.86.5-1.13,0-2.14-.19-3.01-.57Z"/>
    <path class="cls-1" d="m1408.62,85.19h2.19v3.38h-2.19v-3.38Zm.08,5.86h2.05v13.85h-2.05v-13.85Z"/>
    <path class="cls-1" d="m1416.19,104.6c-.87-.38-1.55-.91-2.04-1.61s-.74-1.48-.76-2.36l1.94-.32c.04,1.03.39,1.81,1.07,2.35.67.54,1.62.81,2.82.81,1.04,0,1.87-.18,2.48-.55.61-.37.92-.94.92-1.71,0-.47-.09-.84-.27-1.12s-.45-.5-.8-.67c-.35-.17-.84-.33-1.47-.47l-2.57-.59c-1.13-.25-2.01-.69-2.62-1.3s-.92-1.43-.92-2.46c0-1.19.45-2.13,1.34-2.84.89-.7,2.16-1.05,3.79-1.05,1.06,0,1.99.16,2.78.49s1.42.81,1.89,1.45.75,1.41.84,2.31l-1.94.32c-.13-1.06-.5-1.81-1.12-2.24s-1.44-.65-2.44-.65c-.65,0-1.2.08-1.65.23-.45.15-.8.37-1.05.66-.25.29-.38.66-.38,1.11,0,.36.08.68.23.95.15.27.38.5.68.68.3.18.67.32,1.12.43l2.92.7c1.22.29,2.15.75,2.77,1.39.62.64.93,1.51.93,2.61,0,.81-.23,1.52-.69,2.13-.46.61-1.1,1.09-1.93,1.42-.83.33-1.78.5-2.86.5-1.13,0-2.14-.19-3.01-.57Z"/>
    <path class="cls-1" d="m1429,101.5v-8.83h-2.97v-1.62h2.97v-3.64h2.05v3.64h3.92v1.62h-3.92v8.67c0,.54.08.96.23,1.24.15.29.36.49.62.61s.62.18,1.07.18c.58,0,1.21-.06,1.89-.19v1.7c-.68.14-1.45.22-2.29.22-.76,0-1.39-.11-1.92-.32-.52-.22-.93-.59-1.21-1.12s-.43-1.25-.43-2.15Z"/>
    <path class="cls-1" d="m1436.78,97.91c0-1.46.27-2.73.82-3.83.55-1.1,1.32-1.93,2.31-2.51.99-.58,2.13-.87,3.43-.87s2.33.26,3.27.78c.94.52,1.66,1.29,2.17,2.29.51,1.01.77,2.19.77,3.54v1h-10.67c.04,1.03.21,1.91.51,2.64.34.83.85,1.46,1.54,1.88.68.42,1.52.63,2.51.63,1.15,0,2.07-.27,2.77-.82.69-.55,1.13-1.34,1.31-2.39l1.94.27c-.2.94-.57,1.76-1.11,2.46-.54.7-1.23,1.24-2.08,1.62-.85.38-1.82.57-2.92.57-1.37,0-2.55-.29-3.54-.86s-1.75-1.41-2.27-2.5c-.52-1.09-.78-2.39-.78-3.9Zm2.19-1.24h8.53c-.05-.74-.19-1.38-.41-1.94-.32-.77-.8-1.36-1.43-1.75-.63-.4-1.41-.6-2.35-.6s-1.74.22-2.4.65-1.17,1.06-1.51,1.89c-.22.52-.36,1.11-.43,1.75Z"/>
    <path class="cls-1" d="m1466.77,92.37c-1.21,0-2.13.42-2.78,1.24-.59.79-.9,1.95-.92,3.48v7.8h-2.08v-8.72c0-1.17-.27-2.1-.8-2.78-.53-.68-1.33-1.03-2.39-1.03-1.22,0-2.15.42-2.78,1.24-.61.78-.93,1.94-.94,3.48v7.8h-2.05v-13.85h1.94l.08,2.51c.36-.97.9-1.69,1.62-2.16.76-.47,1.69-.7,2.81-.7,1.01,0,1.85.22,2.54.65.68.43,1.2,1.04,1.54,1.84.09.22.17.44.24.68.02-.07.04-.13.05-.19.4-1.01.98-1.76,1.75-2.24.77-.49,1.73-.73,2.86-.73,1.51,0,2.65.45,3.42,1.34.76.89,1.15,2.22,1.15,3.98v8.88h-2.05v-8.72c0-1.3-.26-2.26-.77-2.88-.51-.62-1.33-.93-2.44-.93Z"/>
    <path class="cls-1" d="m1474.33,101.28c0-1.15.42-2.11,1.27-2.88.85-.77,2.07-1.29,3.67-1.58l4.64-.78v-.7c-.02-.65-.16-1.2-.42-1.65s-.65-.78-1.16-1c-.51-.21-1.13-.32-1.85-.32-1.21,0-2.13.27-2.77.81-.64.54-1,1.35-1.09,2.43l-1.92-.27c.14-1.48.71-2.62,1.7-3.43.99-.81,2.39-1.21,4.19-1.21s3.1.43,4.01,1.28c.91.86,1.36,2.08,1.36,3.69v9.23h-1.94l-.08-2.73c-.07.14-.15.29-.24.43-.5.83-1.2,1.46-2.08,1.9-.88.44-1.87.66-2.97.66-.85,0-1.59-.16-2.24-.49-.65-.32-1.16-.78-1.53-1.38s-.55-1.27-.55-2.03Zm9.58-3.64l-4.02.76c-1.21.23-2.08.57-2.62,1-.54.43-.81,1-.81,1.7,0,.76.25,1.34.74,1.75s1.2.62,2.12.62c.79,0,1.53-.14,2.2-.43s1.23-.71,1.66-1.27c.41-.52.66-1.15.73-1.89v-2.24Z"/>
    <path class="cls-1" d="m1495.55,97.91c0-1.49.27-2.79.81-3.87.54-1.09,1.29-1.92,2.24-2.48.95-.57,2.03-.85,3.21-.85s2.29.29,3.16.87c.74.49,1.32,1.16,1.75,2.02v-7.86h2.08v19.17h-1.97l-.05-2.86c-.49.96-1.14,1.7-1.97,2.24-.9.59-1.97.89-3.21.89-1.17,0-2.21-.29-3.12-.86-.91-.58-1.62-1.41-2.15-2.51-.52-1.1-.78-2.39-.78-3.89Zm11.21-.03c0-1.13-.18-2.11-.54-2.93-.36-.82-.88-1.45-1.57-1.89-.68-.44-1.49-.66-2.43-.66-1.4.02-2.51.51-3.32,1.49-.81.97-1.21,2.31-1.21,4.02,0,1.13.18,2.12.55,2.96.37.84.89,1.48,1.57,1.92.68.44,1.49.66,2.44.66,1.4,0,2.51-.49,3.31-1.48s1.2-2.35,1.2-4.08Z"/>
    <path class="cls-1" d="m1511.27,97.91c0-1.46.27-2.73.82-3.83.55-1.1,1.32-1.93,2.31-2.51.99-.58,2.13-.87,3.43-.87s2.33.26,3.27.78c.94.52,1.66,1.29,2.17,2.29.51,1.01.77,2.19.77,3.54v1h-10.67c.04,1.03.21,1.91.51,2.64.34.83.85,1.46,1.54,1.88.68.42,1.52.63,2.51.63,1.15,0,2.07-.27,2.77-.82.69-.55,1.13-1.34,1.31-2.39l1.94.27c-.2.94-.57,1.76-1.11,2.46-.54.7-1.23,1.24-2.08,1.62-.85.38-1.82.57-2.92.57-1.37,0-2.55-.29-3.54-.86s-1.75-1.41-2.27-2.5c-.52-1.09-.78-2.39-.78-3.9Zm2.19-1.24h8.53c-.05-.74-.19-1.38-.41-1.94-.32-.77-.8-1.36-1.43-1.75-.63-.4-1.41-.6-2.35-.6s-1.74.22-2.4.65-1.17,1.06-1.51,1.89c-.22.52-.36,1.11-.43,1.75Z"/>
    <path class="cls-1" d="m1533.73,85.19h2.19v3.38h-2.19v-3.38Zm.08,5.86h2.05v13.85h-2.05v-13.85Z"/>
    <path class="cls-1" d="m1553.82,92.37c-1.21,0-2.13.42-2.78,1.24-.59.79-.9,1.95-.92,3.48v7.8h-2.08v-8.72c0-1.17-.27-2.1-.8-2.78-.53-.68-1.33-1.03-2.39-1.03-1.22,0-2.15.42-2.78,1.24-.61.78-.93,1.94-.94,3.48v7.8h-2.05v-13.85h1.94l.08,2.51c.36-.97.9-1.69,1.62-2.16.76-.47,1.69-.7,2.81-.7,1.01,0,1.85.22,2.54.65.68.43,1.2,1.04,1.54,1.84.09.22.17.44.24.68.02-.07.04-.13.05-.19.4-1.01.98-1.76,1.75-2.24.77-.49,1.73-.73,2.86-.73,1.51,0,2.65.45,3.42,1.34.76.89,1.15,2.22,1.15,3.98v8.88h-2.05v-8.72c0-1.3-.26-2.26-.77-2.88-.51-.62-1.33-.93-2.44-.93Z"/>
    <path class="cls-1" d="m1561.92,91.05h1.94l.08,2.7c.47-.94,1.11-1.66,1.92-2.19.9-.58,1.98-.87,3.24-.87,1.17,0,2.21.28,3.12.84s1.63,1.39,2.16,2.48c.53,1.1.8,2.39.8,3.89s-.28,2.76-.82,3.86-1.3,1.94-2.27,2.53c-.96.58-2.03.88-3.2.88s-2.28-.3-3.16-.89c-.74-.52-1.32-1.21-1.75-2.08v8.1h-2.05v-19.25Zm11.07,6.86c0-1.73-.4-3.08-1.2-4.05-.8-.97-1.9-1.46-3.31-1.46s-2.51.49-3.32,1.46c-.68.86-1.08,2.02-1.19,3.46v1.3c.05.86.23,1.62.54,2.27.36.83.88,1.46,1.55,1.9.68.44,1.48.66,2.42.66,1.42,0,2.53-.49,3.33-1.47s1.19-2.34,1.17-4.06Z"/>
    <path class="cls-1" d="m1577.09,101.28c0-1.15.42-2.11,1.27-2.88.85-.77,2.07-1.29,3.67-1.58l4.64-.78v-.7c-.02-.65-.16-1.2-.42-1.65s-.65-.78-1.16-1c-.51-.21-1.13-.32-1.85-.32-1.21,0-2.13.27-2.77.81-.64.54-1,1.35-1.09,2.43l-1.92-.27c.14-1.48.71-2.62,1.7-3.43.99-.81,2.39-1.21,4.19-1.21s3.1.43,4.01,1.28c.91.86,1.36,2.08,1.36,3.69v9.23h-1.94l-.08-2.73c-.07.14-.15.29-.24.43-.5.83-1.2,1.46-2.08,1.9-.88.44-1.87.66-2.97.66-.85,0-1.59-.16-2.24-.49-.65-.32-1.16-.78-1.53-1.38s-.55-1.27-.55-2.03Zm9.58-3.64l-4.02.76c-1.21.23-2.08.57-2.62,1-.54.43-.81,1-.81,1.7,0,.76.25,1.34.74,1.75s1.2.62,2.12.62c.79,0,1.53-.14,2.2-.43s1.23-.71,1.66-1.27c.41-.52.66-1.15.73-1.89v-2.24Z"/>
    <path class="cls-1" d="m1594.56,104.29c-1.03-.59-1.82-1.42-2.38-2.5-.56-1.08-.84-2.38-.84-3.89s.28-2.79.84-3.89c.56-1.1,1.34-1.93,2.33-2.5s2.17-.84,3.5-.82c1.15,0,2.16.22,3.01.65.85.43,1.52,1.04,2,1.82.48.78.76,1.68.85,2.69l-1.94.27c-.09-1.17-.46-2.09-1.12-2.75s-1.58-1-2.77-1c-.97.02-1.8.23-2.47.65s-1.19,1.03-1.55,1.85c-.36.82-.54,1.83-.54,3.04s.18,2.17.54,3.01c.36.84.9,1.47,1.61,1.9s1.57.65,2.58.65c.76,0,1.41-.13,1.97-.4.56-.27,1-.66,1.32-1.18.32-.51.53-1.12.62-1.82l1.92.32c-.13.96-.44,1.79-.94,2.5-.5.71-1.17,1.27-2.01,1.67s-1.8.61-2.9.61c-1.39,0-2.59-.29-3.62-.88Z"/>
    <path class="cls-1" d="m1608.47,101.5v-8.83h-2.97v-1.62h2.97v-3.64h2.05v3.64h3.92v1.62h-3.92v8.67c0,.54.08.96.23,1.24.15.29.36.49.62.61s.62.18,1.07.18c.58,0,1.21-.06,1.89-.19v1.7c-.68.14-1.45.22-2.29.22-.76,0-1.39-.11-1.92-.32-.52-.22-.93-.59-1.21-1.12s-.43-1.25-.43-2.15Z"/>
    <path class="cls-1" d="m1619.52,104.25c-1.04-.58-1.84-1.41-2.42-2.5-.58-1.09-.86-2.38-.86-3.87s.29-2.78.86-3.86c.58-1.08,1.38-1.91,2.42-2.48s2.19-.86,3.47-.86,2.46.29,3.48.86c1.03.58,1.83,1.4,2.42,2.48s.88,2.37.88,3.86-.29,2.79-.88,3.87c-.58,1.09-1.39,1.92-2.42,2.5-1.03.58-2.19.86-3.48.86s-2.43-.29-3.47-.86Zm5.93-1.51c.68-.43,1.21-1.06,1.59-1.88.38-.82.57-1.81.57-2.98s-.19-2.14-.55-2.97c-.37-.83-.9-1.45-1.59-1.88-.69-.42-1.52-.64-2.47-.66-.94,0-1.75.22-2.44.65-.69.43-1.23,1.06-1.61,1.89s-.57,1.82-.57,2.97.19,2.17.57,3,.91,1.46,1.61,1.89c.69.43,1.51.65,2.44.65.95-.02,1.77-.24,2.46-.67Z"/>
  </g>
  <g>
    <path class="cls-1" d="m1352.24,207.08h3.67v18.9h-2.11v-17.2l-5.83,17.2h-3.24l-5.83-17.2v17.2h-2.08v-18.9h3.64l5.89,17.44,5.89-17.44Z"/>
    <path class="cls-1" d="m1362.24,225.34c-1.04-.58-1.84-1.41-2.42-2.5-.58-1.09-.86-2.38-.86-3.87s.29-2.78.86-3.86c.58-1.08,1.38-1.91,2.42-2.48s2.19-.86,3.47-.86,2.46.29,3.48.86c1.03.58,1.83,1.4,2.42,2.48s.88,2.37.88,3.86-.29,2.79-.88,3.87c-.58,1.09-1.39,1.92-2.42,2.5-1.03.58-2.19.86-3.48.86s-2.43-.29-3.47-.86Zm5.93-1.51c.68-.43,1.21-1.06,1.59-1.88.38-.82.57-1.81.57-2.98s-.19-2.14-.55-2.97c-.37-.83-.9-1.45-1.59-1.88-.69-.42-1.52-.64-2.47-.66-.94,0-1.75.22-2.44.65-.69.43-1.23,1.06-1.61,1.89s-.57,1.82-.57,2.97.19,2.17.57,3,.91,1.46,1.61,1.89c.69.43,1.51.65,2.44.65.95-.02,1.77-.24,2.46-.67Z"/>
    <path class="cls-1" d="m1374.95,206.81h2.05v7.96c.47-.92,1.1-1.63,1.89-2.13.9-.58,1.98-.87,3.24-.87,1.17,0,2.21.28,3.12.84s1.63,1.39,2.16,2.48c.53,1.1.8,2.39.8,3.87s-.28,2.78-.82,3.88-1.3,1.94-2.27,2.53c-.96.58-2.03.88-3.2.88s-2.28-.3-3.16-.89c-.77-.54-1.39-1.29-1.84-2.24l-.13,2.86h-1.84v-19.17Zm11.07,12.18c0-1.13-.18-2.11-.54-2.94s-.88-1.46-1.55-1.9c-.67-.44-1.49-.66-2.44-.66-1.39,0-2.48.49-3.28,1.47-.8.98-1.21,2.33-1.23,4.06,0,1.71.41,3.06,1.21,4.04.81.98,1.91,1.47,3.29,1.47.95,0,1.77-.22,2.46-.67.68-.45,1.2-1.09,1.55-1.92s.53-1.81.53-2.94Z"/>
    <path class="cls-1" d="m1390.9,206.27h2.19v3.38h-2.19v-3.38Zm.08,5.86h2.05v13.85h-2.05v-13.85Z"/>
    <path class="cls-1" d="m1396.25,206.81h2.05v19.17h-2.05v-19.17Z"/>
    <path class="cls-1" d="m1401.51,206.27h2.19v3.38h-2.19v-3.38Zm.08,5.86h2.05v13.85h-2.05v-13.85Z"/>
    <path class="cls-1" d="m1406.24,224.55l8.15-10.85h-7.99v-1.59h10.48v1.43l-8.13,10.85h8.13v1.59h-10.64v-1.43Z"/>
    <path class="cls-1" d="m1418.74,222.37c0-1.15.42-2.11,1.27-2.88.85-.77,2.07-1.29,3.67-1.58l4.64-.78v-.7c-.02-.65-.16-1.2-.42-1.65s-.65-.78-1.16-1c-.51-.21-1.13-.32-1.85-.32-1.21,0-2.13.27-2.77.81-.64.54-1,1.35-1.09,2.43l-1.92-.27c.14-1.48.71-2.62,1.7-3.43.99-.81,2.39-1.21,4.19-1.21s3.1.43,4.01,1.28c.91.86,1.36,2.08,1.36,3.69v9.23h-1.94l-.08-2.73c-.07.14-.15.29-.24.43-.5.83-1.2,1.46-2.08,1.9-.88.44-1.87.66-2.97.66-.85,0-1.59-.16-2.24-.49-.65-.32-1.16-.78-1.53-1.38s-.55-1.27-.55-2.03Zm9.58-3.64l-4.02.76c-1.21.23-2.08.57-2.62,1-.54.43-.81,1-.81,1.7,0,.76.25,1.34.74,1.75s1.2.62,2.12.62c.79,0,1.53-.14,2.2-.43s1.23-.71,1.66-1.27c.41-.52.66-1.15.73-1.89v-2.24Z"/>
    <path class="cls-1" d="m1433,218.99c0-1.49.28-2.79.84-3.89.56-1.1,1.34-1.93,2.33-2.5s2.17-.84,3.5-.82c1.15,0,2.16.22,3.01.65.85.43,1.52,1.04,2,1.82.48.78.76,1.68.85,2.69l-1.94.27c-.09-1.17-.46-2.09-1.12-2.75s-1.58-1-2.77-1c-.97.02-1.8.23-2.47.65s-1.19,1.03-1.55,1.85c-.36.82-.54,1.83-.54,3.04s.18,2.17.54,3.01c.36.84.9,1.47,1.61,1.9s1.57.65,2.58.65c.76,0,1.41-.13,1.97-.4.56-.27,1-.66,1.32-1.18.32-.51.53-1.12.62-1.82l1.92.32c-.13.96-.44,1.79-.94,2.5-.5.71-1.17,1.27-2,1.69-.72.34-1.55.54-2.48.59l-.65,2.03h.08c.74,0,1.32.17,1.75.51.43.34.66.82.67,1.43.02.59-.2,1.07-.66,1.43-.46.36-1.09.54-1.9.54-.59,0-1.16-.04-1.7-.11v-1.08c.52.07,1.03.11,1.51.11.43,0,.76-.08.99-.24.22-.16.33-.4.31-.73,0-.32-.11-.57-.34-.73s-.53-.24-.9-.24l-1.51.03,1.32-2.97c-1.13-.07-2.14-.35-3.02-.84-1.03-.6-1.82-1.43-2.38-2.51-.56-1.08-.84-2.38-.84-3.89Z"/>
    <path class="cls-1" d="m1447.66,222.37c0-1.15.42-2.11,1.27-2.88.85-.77,2.07-1.29,3.67-1.58l4.64-.78v-.7c-.02-.65-.16-1.2-.42-1.65s-.65-.78-1.16-1c-.51-.21-1.13-.32-1.85-.32-1.21,0-2.13.27-2.77.81-.64.54-1,1.35-1.09,2.43l-1.92-.27c.14-1.48.71-2.62,1.7-3.43.99-.81,2.39-1.21,4.19-1.21s3.1.43,4.01,1.28c.91.86,1.36,2.08,1.36,3.69v9.23h-1.94l-.08-2.73c-.07.14-.15.29-.24.43-.5.83-1.2,1.46-2.08,1.9-.88.44-1.87.66-2.97.66-.85,0-1.59-.16-2.24-.49-.65-.32-1.16-.78-1.53-1.38s-.55-1.27-.55-2.03Zm7.14-12.82c-.3-.14-.64-.34-1.04-.59-.32-.22-.59-.37-.81-.47-.22-.1-.44-.15-.68-.15-.34,0-.62.12-.84.38-.22.25-.32.6-.32,1.03h-1.35c0-.76.2-1.41.61-1.97.41-.56.99-.84,1.74-.84.34,0,.66.06.95.19.29.12.63.31,1.03.57.38.23.67.4.88.51.21.11.44.16.69.16.34,0,.62-.12.82-.37.21-.24.32-.59.34-1.04h1.35c-.02.76-.23,1.41-.62,1.97-.4.56-.97.84-1.73.84-.38,0-.71-.07-1.01-.22Zm2.44,9.18l-4.02.76c-1.21.23-2.08.57-2.62,1-.54.43-.81,1-.81,1.7,0,.76.25,1.34.74,1.75s1.2.62,2.12.62c.79,0,1.53-.14,2.2-.43s1.23-.71,1.66-1.27c.41-.52.66-1.15.73-1.89v-2.24Z"/>
    <path class="cls-1" d="m1465.22,225.34c-1.04-.58-1.84-1.41-2.42-2.5-.58-1.09-.86-2.38-.86-3.87s.29-2.78.86-3.86c.58-1.08,1.38-1.91,2.42-2.48s2.19-.86,3.47-.86,2.46.29,3.48.86c1.03.58,1.83,1.4,2.42,2.48s.88,2.37.88,3.86-.29,2.79-.88,3.87c-.58,1.09-1.39,1.92-2.42,2.5-1.03.58-2.19.86-3.48.86s-2.43-.29-3.47-.86Zm5.93-1.51c.68-.43,1.21-1.06,1.59-1.88.38-.82.57-1.81.57-2.98s-.19-2.14-.55-2.97c-.37-.83-.9-1.45-1.59-1.88-.69-.42-1.52-.64-2.47-.66-.94,0-1.75.22-2.44.65-.69.43-1.23,1.06-1.61,1.89s-.57,1.82-.57,2.97.19,2.17.57,3,.91,1.46,1.61,1.89c.69.43,1.51.65,2.44.65.95-.02,1.77-.24,2.46-.67Z"/>
  </g>
  <g>
    <path class="cls-1" d="m19.76,355.8h6.52v19.6h-3.7v-17l-4.68,17h-5.46l-4.68-17.19v17.19h-3.7v-19.6h6.55l4.54,17.11,4.59-17.11Z"/>
    <path class="cls-1" d="m28.91,371.48c0-1.23.42-2.25,1.27-3.05.85-.8,2.13-1.35,3.85-1.65l4.37-.73v-.25c-.02-.5-.13-.93-.32-1.27-.2-.35-.5-.61-.9-.79-.4-.18-.88-.27-1.44-.27-.9,0-1.6.21-2.11.62-.51.41-.8,1-.85,1.76l-3.44-.45c.21-1.53.87-2.72,1.99-3.57,1.12-.85,2.65-1.27,4.59-1.27,2.07,0,3.63.5,4.66,1.51s1.55,2.42,1.55,4.23v9.1h-3.5l-.2-2.71v.03c-.39.91-.98,1.64-1.76,2.17-.78.53-1.78.8-3,.8-.93,0-1.76-.17-2.48-.5-.72-.34-1.28-.82-1.68-1.46s-.6-1.38-.6-2.24Zm9.49-3.13l-3.16.64c-.91.19-1.57.44-1.97.77-.4.33-.6.77-.6,1.33.04.54.24.96.62,1.27.37.31.91.46,1.62.46.65,0,1.24-.12,1.75-.36.51-.24.92-.58,1.23-1.02.31-.44.48-.97.52-1.58v-1.51Z"/>
    <path class="cls-1" d="m44.99,360.93h3.5l.14,3.3c.07-.24.15-.48.22-.7.37-.99.93-1.73,1.67-2.23.74-.49,1.68-.73,2.81-.71.09,0,.27,0,.53.03v3.28c-.65-.02-1.3-.03-1.93-.03-.73,0-1.33.12-1.79.38-.47.25-.82.66-1.06,1.22-.24.56-.36,1.29-.36,2.18v7.76h-3.72v-14.47Z"/>
    <path class="cls-1" d="m58.29,374.76c-1.14-.62-2.02-1.5-2.65-2.65s-.94-2.49-.94-4.02.31-2.87.94-4,1.5-2.02,2.62-2.63,2.41-.91,3.86-.9c1.29,0,2.41.23,3.36.7s1.7,1.11,2.24,1.93c.54.82.86,1.75.95,2.8l-3.44.45c-.06-.88-.34-1.58-.84-2.12-.5-.53-1.25-.8-2.24-.8-.78,0-1.44.16-1.96.49-.52.33-.92.83-1.2,1.5s-.42,1.53-.42,2.58c0,.99.14,1.83.43,2.52.29.69.72,1.21,1.29,1.57.57.35,1.25.53,2.06.53.63,0,1.17-.1,1.6-.31.43-.21.77-.5,1.01-.89.24-.39.41-.89.5-1.48l3.42.56c-.21,1.03-.6,1.92-1.19,2.69-.59.77-1.34,1.36-2.27,1.78-.92.42-1.99.63-3.21.63-1.48,0-2.78-.31-3.92-.92Z"/>
    <path class="cls-1" d="m70.38,371.48c0-1.23.42-2.25,1.27-3.05.85-.8,2.13-1.35,3.85-1.65l4.37-.73v-.25c-.02-.5-.13-.93-.32-1.27-.2-.35-.5-.61-.9-.79-.4-.18-.88-.27-1.44-.27-.9,0-1.6.21-2.11.62-.51.41-.8,1-.85,1.76l-3.44-.45c.21-1.53.87-2.72,1.99-3.57,1.12-.85,2.65-1.27,4.59-1.27,2.07,0,3.63.5,4.66,1.51s1.55,2.42,1.55,4.23v9.1h-3.5l-.2-2.71v.03c-.39.91-.98,1.64-1.76,2.17-.78.53-1.78.8-3,.8-.93,0-1.76-.17-2.48-.5-.72-.34-1.28-.82-1.68-1.46s-.6-1.38-.6-2.24Zm9.49-3.13l-3.16.64c-.91.19-1.57.44-1.97.77-.4.33-.6.77-.6,1.33.04.54.24.96.62,1.27.37.31.91.46,1.62.46.65,0,1.24-.12,1.75-.36.51-.24.92-.58,1.23-1.02.31-.44.48-.97.52-1.58v-1.51Z"/>
  </g>
  <g>
    <path class="cls-1" d="m4.08,475.34h6.19l4.56,9.83c.67,1.42,1.17,2.46,1.48,3.14s.8,1.69,1.46,3.05c.06.09.1.19.14.28v-16.29h3.67v19.6h-6.05l-4.31-9.3c-.8-1.64-1.47-3.04-1.99-4.2-.43-.91-.92-1.97-1.48-3.16v16.66h-3.67v-19.6Z"/>
    <path class="cls-1" d="m24.21,487.63c0-1.51.31-2.84.94-3.98s1.49-2.02,2.6-2.63c1.11-.62,2.39-.92,3.85-.92,1.34,0,2.53.29,3.57.87,1.04.58,1.85,1.4,2.44,2.48.59,1.07.88,2.32.88,3.74v1.48h-10.44c.07.58.21,1.09.39,1.54.3.69.73,1.2,1.3,1.53.57.33,1.25.5,2.03.52.93,0,1.65-.2,2.14-.59.49-.39.83-1,.99-1.82l3.44.5c-.26,1.01-.7,1.87-1.3,2.59-.61.72-1.37,1.28-2.3,1.68-.92.4-1.97.6-3.15.6-1.53,0-2.85-.31-3.96-.92-1.11-.62-1.96-1.49-2.55-2.63-.59-1.14-.88-2.48-.88-4.03Zm3.92-1.71h6.69c-.06-.36-.13-.68-.22-.98-.24-.63-.62-1.12-1.12-1.46s-1.15-.5-1.93-.5-1.47.18-2,.55c-.53.36-.93.89-1.19,1.58-.09.24-.17.51-.22.81Z"/>
    <path class="cls-1" d="m40.56,496.09l3.42-.48c.17.77.53,1.35,1.09,1.76s1.33.62,2.3.62c1.08,0,1.93-.31,2.55-.92.62-.62.93-1.48.95-2.6v-2.46c-.32.58-.73,1.07-1.23,1.48-.78.65-1.78.98-3,.98s-2.39-.28-3.36-.84-1.73-1.38-2.28-2.45c-.55-1.07-.83-2.35-.83-3.82s.27-2.79.81-3.88c.54-1.09,1.29-1.93,2.24-2.51.95-.58,2.02-.87,3.22-.87,1.27,0,2.31.29,3.11.87.62.43,1.11,1,1.48,1.71l.11-2.21h3.5l-.06,13.8c0,1.29-.28,2.43-.85,3.42-.57.99-1.4,1.75-2.48,2.29s-2.37.81-3.86.81c-1.31,0-2.44-.18-3.4-.53-.96-.36-1.73-.88-2.31-1.58-.58-.7-.95-1.56-1.12-2.59Zm10.47-8.71c.02-.9-.11-1.68-.38-2.35s-.67-1.19-1.19-1.55c-.52-.36-1.17-.54-1.93-.54-1.14,0-2.01.4-2.62,1.19-.61.79-.9,1.87-.88,3.23,0,.88.13,1.65.41,2.31.27.66.67,1.18,1.19,1.54.52.36,1.16.54,1.9.54s1.38-.18,1.9-.54c.52-.36.92-.87,1.19-1.53.27-.65.41-1.42.41-2.3Z"/>
    <path class="cls-1" d="m60.3,494.2c-1.14-.61-2.03-1.48-2.66-2.62-.63-1.14-.95-2.46-.95-3.97s.32-2.87.95-4c.63-1.14,1.52-2.01,2.66-2.62,1.14-.61,2.43-.91,3.86-.91s2.75.31,3.89.92c1.14.62,2.02,1.49,2.65,2.62.62,1.13.94,2.46.94,3.99s-.31,2.83-.94,3.96c-.63,1.13-1.51,2-2.65,2.62-1.14.62-2.44.92-3.89.92s-2.73-.3-3.86-.91Zm5.82-2.62c.54-.34.96-.84,1.25-1.51.29-.67.43-1.49.43-2.46s-.14-1.82-.42-2.49c-.28-.67-.7-1.17-1.25-1.5-.55-.33-1.21-.5-1.97-.52-.75-.02-1.39.14-1.93.49-.54.34-.96.85-1.25,1.53-.29.67-.43,1.5-.43,2.49s.15,1.8.45,2.48c.3.68.71,1.19,1.25,1.53.53.34,1.17.5,1.92.5.77-.02,1.42-.2,1.96-.53Zm-1.68-17.75h4.34l-3.47,4.54h-2.21l1.34-4.54Z"/>
    <path class="cls-1" d="m76.68,494.29c-1.14-.62-2.02-1.5-2.65-2.65s-.94-2.49-.94-4.02.31-2.87.94-4,1.5-2.02,2.62-2.63c1.12-.62,2.41-.91,3.86-.89,1.29,0,2.41.23,3.36.7s1.7,1.11,2.24,1.93c.54.82.86,1.76.95,2.8l-3.44.45c-.06-.88-.34-1.58-.84-2.11-.5-.53-1.25-.8-2.24-.8-.78,0-1.44.16-1.96.49-.52.33-.92.83-1.2,1.5s-.42,1.53-.42,2.58c0,.99.14,1.83.43,2.52.29.69.72,1.21,1.29,1.57.57.36,1.25.53,2.06.53.63,0,1.17-.1,1.6-.31.43-.21.77-.5,1.01-.9s.41-.89.5-1.48l3.42.56c-.21,1.03-.6,1.92-1.19,2.69-.59.77-1.34,1.36-2.27,1.78-.92.42-1.99.63-3.21.63-1.48,0-2.78-.31-3.92-.92Z"/>
    <path class="cls-1" d="m89.53,474.53h3.86v3.61h-3.86v-3.61Zm.08,5.94h3.72v14.48h-3.72v-14.48Z"/>
    <path class="cls-1" d="m99.28,494.2c-1.14-.61-2.03-1.48-2.66-2.62-.63-1.14-.95-2.46-.95-3.97s.32-2.87.95-4c.63-1.14,1.52-2.01,2.66-2.62,1.14-.61,2.43-.91,3.86-.91s2.75.31,3.89.92c1.14.62,2.02,1.49,2.65,2.62.62,1.13.94,2.46.94,3.99s-.31,2.83-.94,3.96c-.63,1.13-1.51,2-2.65,2.62-1.14.62-2.44.92-3.89.92s-2.73-.3-3.86-.91Zm5.82-2.62c.54-.34.96-.84,1.25-1.51.29-.67.43-1.49.43-2.46s-.14-1.82-.42-2.49c-.28-.67-.7-1.17-1.25-1.5-.55-.33-1.21-.5-1.97-.52-.75-.02-1.39.14-1.93.49-.54.34-.96.85-1.25,1.53-.29.67-.43,1.5-.43,2.49s.15,1.8.45,2.48c.3.68.71,1.19,1.25,1.53.53.34,1.17.5,1.92.5.77-.02,1.42-.2,1.96-.53Z"/>
  </g>
</svg>
