<?xml version="1.0" encoding="UTF-8"?>
<svg id="Camada_1" data-name="Camada 1" xmlns="http://www.w3.org/2000/svg" viewBox="0 0 895.62 523.88">
  <defs>
    <style>
      .cls-1 {
        fill: #fff;
        stroke-width: 0px;
      }
    </style>
  </defs>
  <path class="cls-1" d="m0,295.2v-.85h107.84c18.6,0,33.73-12.64,33.73-28.18v-25.87c0-16.01,15.52-29.04,34.59-29.04h90.91s97.2.01,97.2.01c18.6,0,33.73-12.64,33.73-28.18v-25.87c0-16.01,15.52-29.04,34.59-29.04h188.97c18.6,0,33.73-12.64,33.73-28.18v-25.87c0-16.01,15.52-29.04,34.59-29.04h205.76v.85h-205.76c-18.6,0-33.73,12.64-33.73,28.18v25.87c0,16.01-15.52,29.04-34.59,29.04h-188.97c-18.6,0-33.73,12.64-33.73,28.18v25.87c0,16.01-15.52,29.04-34.59,29.04h-98.06s-90.05-.01-90.05-.01c-18.6,0-33.73,12.64-33.73,28.18v25.87c0,16.01-15.52,29.04-34.59,29.04H0Zm195.19-108.44c1.48,0,2.77-.27,3.87-.8,1.1-.53,1.98-1.27,2.65-2.21.67-.95,1.13-2.05,1.38-3.3l-2.09-.34c-.3,1.54-.93,2.73-1.88,3.58s-2.26,1.27-3.92,1.27c-1.22,0-2.3-.32-3.25-.95-.95-.64-1.68-1.54-2.21-2.71-.53-1.17-.8-2.54-.8-4.11s.27-2.97.8-4.14c.53-1.17,1.26-2.06,2.19-2.67.93-.61,1.99-.92,3.19-.92,1.7,0,3.01.41,3.94,1.23.93.82,1.53,2.04,1.82,3.65l2.07-.37c-.21-1.31-.65-2.43-1.31-3.38-.66-.95-1.54-1.67-2.64-2.17s-2.39-.76-3.87-.76c-1.64,0-3.1.39-4.36,1.18-1.26.79-2.25,1.9-2.96,3.34-.71,1.44-1.06,3.12-1.06,5.02s.36,3.61,1.09,5.05c.72,1.44,1.73,2.55,3.02,3.33,1.29.78,2.74,1.17,4.35,1.17Zm16.04-.05c1.27,0,2.41-.28,3.42-.85,1.01-.57,1.8-1.38,2.37-2.45s.86-2.34.86-3.8-.29-2.73-.86-3.79-1.37-1.87-2.37-2.44c-1.01-.57-2.15-.85-3.42-.85s-2.39.28-3.41.85c-1.02.57-1.81,1.38-2.37,2.44-.57,1.06-.85,2.33-.85,3.79s.28,2.74.85,3.8c.57,1.07,1.36,1.89,2.37,2.45,1.02.57,2.15.85,3.41.85Zm0-1.67c-.92,0-1.72-.21-2.4-.64-.68-.42-1.21-1.04-1.58-1.86-.37-.81-.56-1.79-.56-2.94s.19-2.1.56-2.92c.37-.81.9-1.43,1.58-1.86.68-.42,1.48-.64,2.4-.64.94.02,1.75.23,2.43.65.68.42,1.2,1.03,1.56,1.84.36.81.54,1.79.54,2.92s-.19,2.13-.56,2.93c-.37.8-.89,1.42-1.56,1.84s-1.48.65-2.41.66Zm17.34-10.39c.51.3.89.74,1.14,1.31.25.57.37,1.29.37,2.13v8.41h1.99v-8.72c0-1.13-.18-2.08-.54-2.86-.36-.78-.91-1.37-1.63-1.76-.72-.4-1.61-.6-2.65-.6-1.13,0-2.11.24-2.94.72s-1.48,1.22-1.96,2.23c-.02.04-.04.07-.05.11l-.08-2.7h-1.91v13.6h2.01v-7.24c0-1.1.18-2.02.54-2.78.36-.76.87-1.33,1.51-1.71s1.38-.57,2.21-.57,1.48.15,1.99.45Zm15.11.54c.55.66.82,1.63.82,2.9v8.41h2.04v-8.67c0-1.11-.18-2.07-.54-2.86-.36-.79-.9-1.4-1.62-1.8-.72-.41-1.59-.61-2.64-.61-1.11,0-2.09.24-2.92.73-.83.49-1.48,1.23-1.96,2.24v.03-7.88h-2.01v18.83h2.01v-7.24c0-1.1.18-2.02.53-2.78s.85-1.33,1.49-1.71c.64-.38,1.36-.57,2.17-.57,1.2,0,2.08.33,2.62.99Zm5.94,8.27c.51,1.07,1.25,1.89,2.23,2.45.97.57,2.13.85,3.47.85,1.08,0,2.03-.19,2.86-.56s1.51-.9,2.04-1.59.89-1.49,1.09-2.41l-1.91-.27c-.18,1.03-.61,1.81-1.29,2.35s-1.59.81-2.72.81c-.97,0-1.79-.21-2.47-.62s-1.18-1.03-1.51-1.84c-.3-.72-.47-1.59-.5-2.6h10.47v-.98c0-1.33-.25-2.48-.76-3.47-.5-.99-1.21-1.74-2.13-2.25-.92-.51-1.99-.77-3.21-.77s-2.4.28-3.37.85c-.97.57-1.73,1.39-2.27,2.47s-.81,2.33-.81,3.76.26,2.76.77,3.83Zm1.8-6.77c.33-.81.83-1.43,1.48-1.86.65-.42,1.44-.64,2.36-.64s1.69.19,2.31.58c.62.39,1.09.96,1.41,1.72.21.55.34,1.18.4,1.91h-8.38c.07-.64.21-1.21.42-1.72Zm18.64,10.08c1.08,0,2.03-.2,2.85-.6.82-.4,1.48-.95,1.97-1.64.5-.7.8-1.52.93-2.45l-1.88-.32c-.09.69-.29,1.29-.61,1.79-.32.5-.75.89-1.3,1.15-.55.26-1.19.4-1.94.4-.99,0-1.83-.21-2.53-.64-.7-.42-1.22-1.05-1.58-1.87-.35-.82-.53-1.81-.53-2.96s.18-2.18.53-2.98c.35-.8.86-1.41,1.52-1.82s1.47-.62,2.43-.64c1.17,0,2.07.33,2.72.98s1.01,1.56,1.1,2.7l1.91-.26c-.09-.99-.37-1.87-.83-2.64-.47-.77-1.12-1.37-1.96-1.79-.84-.42-1.83-.64-2.96-.64-1.31-.02-2.45.25-3.43.81-.98.56-1.75,1.37-2.29,2.45-.55,1.08-.82,2.35-.82,3.82s.27,2.76.82,3.82c.55,1.06,1.33,1.88,2.33,2.45,1.01.58,2.19.86,3.55.86Zm8.4-16.31h2.15v-3.31h-2.15v3.31Zm.08,16.04h2.02v-13.6h-2.02v13.6Zm22.05-11.39c.5.61.76,1.55.76,2.82v8.56h2.01v-8.72c0-1.73-.38-3.04-1.13-3.91-.75-.88-1.87-1.31-3.35-1.31-1.11,0-2.05.24-2.81.72-.76.48-1.33,1.21-1.72,2.2-.02.05-.04.12-.05.19-.07-.23-.15-.45-.24-.66-.34-.78-.84-1.38-1.51-1.8-.67-.42-1.5-.64-2.49-.64-1.1,0-2.02.23-2.76.69-.71.46-1.24,1.17-1.59,2.12l-.08-2.47h-1.91v13.6h2.01v-7.66c.02-1.52.33-2.66.93-3.42.62-.81,1.53-1.22,2.73-1.22,1.04,0,1.83.34,2.35,1.01.52.67.78,1.58.78,2.73v8.56h2.04v-7.66c.02-1.5.32-2.64.9-3.42.64-.81,1.55-1.22,2.73-1.22,1.1,0,1.9.3,2.4.92Zm5.85,8.35c.51,1.07,1.25,1.89,2.23,2.45.97.57,2.13.85,3.47.85,1.08,0,2.03-.19,2.86-.56s1.51-.9,2.04-1.59.89-1.49,1.09-2.41l-1.91-.27c-.18,1.03-.61,1.81-1.29,2.35s-1.59.81-2.72.81c-.97,0-1.79-.21-2.47-.62s-1.18-1.03-1.51-1.84c-.3-.72-.47-1.59-.5-2.6h10.47v-.98c0-1.33-.25-2.48-.76-3.47-.5-.99-1.21-1.74-2.13-2.25-.92-.51-1.99-.77-3.21-.77s-2.4.28-3.37.85c-.97.57-1.73,1.39-2.27,2.47s-.81,2.33-.81,3.76.26,2.76.77,3.83Zm1.8-6.77c.33-.81.83-1.43,1.48-1.86.65-.42,1.44-.64,2.36-.64s1.69.19,2.31.58c.62.39,1.09.96,1.41,1.72.21.55.34,1.18.4,1.91h-8.38c.07-.64.21-1.21.42-1.72Zm20.68-2.04c.51.3.89.74,1.14,1.31.25.57.37,1.29.37,2.13v8.41h1.99v-8.72c0-1.13-.18-2.08-.54-2.86-.36-.78-.91-1.37-1.63-1.76-.72-.4-1.61-.6-2.65-.6-1.13,0-2.11.24-2.94.72s-1.48,1.22-1.96,2.23c-.02.04-.04.07-.05.11l-.08-2.7h-1.91v13.6h2.01v-7.24c0-1.1.18-2.02.54-2.78.36-.76.87-1.33,1.51-1.71s1.38-.57,2.21-.57,1.48.15,1.99.45Zm8.64,10.62c.28.52.68.89,1.19,1.1s1.14.32,1.88.32c.83,0,1.58-.07,2.25-.21v-1.67c-.67.12-1.29.19-1.86.19-.44,0-.79-.06-1.05-.17-.26-.12-.46-.31-.61-.6-.15-.28-.23-.69-.23-1.22v-8.51h3.84v-1.59h-3.84v-3.58h-2.01v3.58h-2.92v1.59h2.92v8.67c0,.88.14,1.59.42,2.11Zm13.84,1.45c1.27,0,2.41-.28,3.42-.85,1.01-.57,1.8-1.38,2.37-2.45s.86-2.34.86-3.8-.29-2.73-.86-3.79-1.37-1.87-2.37-2.44c-1.01-.57-2.15-.85-3.42-.85s-2.39.28-3.41.85c-1.02.57-1.81,1.38-2.37,2.44-.57,1.06-.85,2.33-.85,3.79s.28,2.74.85,3.8c.57,1.07,1.36,1.89,2.37,2.45,1.02.57,2.15.85,3.41.85Zm0-1.67c-.92,0-1.72-.21-2.4-.64-.68-.42-1.21-1.04-1.58-1.86-.37-.81-.56-1.79-.56-2.94s.19-2.1.56-2.92c.37-.81.9-1.43,1.58-1.86.68-.42,1.48-.64,2.4-.64.94.02,1.75.23,2.43.65.68.42,1.2,1.03,1.56,1.84.36.81.54,1.79.54,2.92s-.19,2.13-.56,2.93c-.37.8-.89,1.42-1.56,1.84s-1.48.65-2.41.66Zm98.68-80.58h2.07v-18.56h-2.07v18.56Zm5.86-3.05c.51,1.08,1.22,1.9,2.11,2.47s1.91.85,3.06.85c1.22,0,2.27-.29,3.16-.88.81-.53,1.46-1.26,1.94-2.2l.05,2.81h1.94v-18.83h-2.04v7.72c-.42-.85-1-1.51-1.72-1.99-.85-.57-1.88-.85-3.1-.85s-2.22.28-3.16.83c-.94.56-1.67,1.37-2.2,2.44s-.79,2.34-.79,3.8.26,2.74.77,3.82Zm9.05.16c-.79.97-1.87,1.46-3.25,1.46-.94,0-1.74-.22-2.4-.65-.66-.43-1.18-1.06-1.54-1.88s-.54-1.79-.54-2.9c0-1.68.4-3,1.19-3.95.79-.96,1.88-1.44,3.26-1.46.92,0,1.71.22,2.39.65.67.43,1.18,1.05,1.54,1.86.35.8.53,1.76.53,2.88,0,1.7-.39,3.03-1.18,4Zm6.38-.15c.51,1.07,1.25,1.89,2.23,2.45.97.57,2.13.85,3.47.85,1.08,0,2.03-.19,2.86-.56s1.51-.9,2.04-1.59.89-1.49,1.09-2.41l-1.91-.27c-.18,1.03-.61,1.81-1.29,2.35s-1.59.81-2.72.81c-.97,0-1.79-.21-2.47-.62s-1.18-1.03-1.51-1.84c-.3-.72-.47-1.59-.5-2.6h10.47v-.98c0-1.33-.25-2.48-.76-3.47-.5-.99-1.21-1.74-2.13-2.25-.92-.51-1.99-.77-3.21-.77s-2.4.28-3.37.85c-.97.57-1.73,1.39-2.27,2.47s-.81,2.33-.81,3.76.26,2.76.77,3.83Zm1.8-6.77c.33-.81.83-1.43,1.48-1.86.65-.42,1.44-.64,2.36-.64s1.69.19,2.31.58c.62.39,1.09.96,1.41,1.72.21.55.34,1.18.4,1.91h-8.38c.07-.64.21-1.21.42-1.72Zm20.68-2.04c.51.3.89.74,1.14,1.31.25.57.37,1.29.37,2.13v8.41h1.99v-8.72c0-1.13-.18-2.08-.54-2.86-.36-.78-.91-1.37-1.63-1.76-.72-.4-1.61-.6-2.65-.6-1.13,0-2.11.24-2.94.72s-1.48,1.22-1.96,2.23c-.02.04-.04.07-.05.11l-.08-2.7h-1.91v13.6h2.01v-7.24c0-1.1.18-2.02.54-2.78.36-.76.87-1.33,1.51-1.71s1.38-.57,2.21-.57,1.48.15,1.99.45Zm8.64,10.62c.28.52.68.89,1.19,1.1s1.14.32,1.88.32c.83,0,1.58-.07,2.25-.21v-1.67c-.67.12-1.29.19-1.86.19-.44,0-.79-.06-1.05-.17-.26-.12-.46-.31-.61-.6-.15-.28-.23-.69-.23-1.22v-8.51h3.84v-1.59h-3.84v-3.58h-2.01v3.58h-2.92v1.59h2.92v8.67c0,.88.14,1.59.42,2.11Zm7.93-14.81h2.15v-3.31h-2.15v3.31Zm.08,16.04h2.02v-13.6h-2.02v13.6Zm7.99-18c-.68.6-1.02,1.43-1.02,2.49v1.91h-2.78v1.62h2.78v11.98h2.04v-11.98h3.74v-1.62h-3.74v-1.62c0-.69.16-1.19.48-1.51s.82-.48,1.51-.48c.49,0,1.08.05,1.75.16v-1.7c-.67-.11-1.36-.16-2.07-.16-1.11,0-2.01.3-2.69.9Zm7.22,1.96h2.15v-3.31h-2.15v3.31Zm.08,16.04h2.02v-13.6h-2.02v13.6Zm11.4.27c1.08,0,2.03-.2,2.85-.6.82-.4,1.48-.95,1.97-1.64.5-.7.8-1.52.93-2.45l-1.88-.32c-.09.69-.29,1.29-.61,1.79-.32.5-.75.89-1.3,1.15-.55.26-1.19.4-1.94.4-.99,0-1.83-.21-2.53-.64-.7-.42-1.22-1.05-1.58-1.87-.35-.82-.53-1.81-.53-2.96s.18-2.18.53-2.98c.35-.8.86-1.41,1.52-1.82s1.47-.62,2.43-.64c1.17,0,2.07.33,2.72.98s1.01,1.56,1.1,2.7l1.91-.26c-.09-.99-.37-1.87-.83-2.64-.47-.77-1.12-1.37-1.96-1.79-.84-.42-1.83-.64-2.96-.64-1.31-.02-2.45.25-3.43.81-.98.56-1.75,1.37-2.29,2.45-.55,1.08-.82,2.35-.82,3.82s.27,2.76.82,3.82c.55,1.06,1.33,1.88,2.33,2.45,1.01.58,2.19.86,3.55.86Zm8.18-1.83c.36.58.86,1.03,1.5,1.35.64.32,1.37.48,2.2.48,1.08,0,2.05-.22,2.92-.65.87-.43,1.55-1.06,2.04-1.87.09-.14.17-.28.24-.42l.08,2.68h1.91v-9.07c0-1.57-.45-2.78-1.34-3.62-.89-.84-2.21-1.26-3.94-1.26s-3.14.4-4.11,1.19c-.97.79-1.53,1.92-1.67,3.37l1.88.26c.09-1.06.45-1.86,1.07-2.39.63-.53,1.53-.8,2.72-.8.71,0,1.31.11,1.82.32s.88.54,1.14.98c.26.44.39.98.41,1.62v.69l-4.56.77c-1.57.28-2.78.8-3.61,1.55-.83.75-1.25,1.69-1.25,2.82,0,.74.18,1.41.54,1.99Zm8.87-3.37c-.07.72-.31,1.34-.72,1.86-.42.55-.97.96-1.63,1.25-.66.28-1.38.42-2.16.42-.9,0-1.6-.2-2.08-.61-.49-.41-.73-.98-.73-1.72,0-.69.26-1.25.79-1.67.53-.42,1.39-.75,2.57-.98l3.95-.74v2.2Zm5.41,1.88c.55,1.06,1.33,1.88,2.33,2.47.87.48,1.86.75,2.97.82l-1.3,2.92,1.49-.03c.37,0,.67.08.89.24s.33.4.33.72c.02.32-.08.56-.3.72-.22.16-.54.24-.97.24-.48,0-.97-.04-1.49-.11v1.06c.53.07,1.09.11,1.67.11.79,0,1.42-.18,1.87-.53.45-.35.67-.82.65-1.41-.02-.6-.24-1.07-.66-1.41-.42-.34-1-.5-1.72-.5h-.08l.64-1.99c.92-.05,1.73-.25,2.44-.58.81-.41,1.47-.96,1.96-1.66.5-.7.8-1.52.93-2.45l-1.88-.32c-.09.69-.29,1.29-.61,1.79-.32.5-.75.89-1.3,1.15-.55.26-1.19.4-1.94.4-.99,0-1.83-.21-2.53-.64-.7-.42-1.22-1.05-1.58-1.87-.35-.82-.53-1.81-.53-2.96s.18-2.18.53-2.98c.35-.8.86-1.41,1.52-1.82s1.47-.62,2.43-.64c1.17,0,2.07.33,2.72.98s1.01,1.56,1.1,2.7l1.91-.26c-.09-.99-.37-1.87-.83-2.64-.47-.77-1.12-1.37-1.96-1.79-.84-.42-1.83-.64-2.96-.64-1.31-.02-2.45.25-3.43.81-.98.56-1.75,1.37-2.29,2.45-.55,1.08-.82,2.35-.82,3.82s.27,2.76.82,3.82Zm14.12,1.48c.36.58.86,1.03,1.5,1.35.64.32,1.37.48,2.2.48,1.08,0,2.05-.22,2.92-.65.87-.43,1.55-1.06,2.04-1.87.09-.14.17-.28.24-.42l.08,2.68h1.91v-9.07c0-1.57-.45-2.78-1.34-3.62-.89-.84-2.21-1.26-3.94-1.26s-3.14.4-4.11,1.19c-.97.79-1.53,1.92-1.67,3.37l1.88.26c.09-1.06.45-1.86,1.07-2.39.63-.53,1.53-.8,2.72-.8.71,0,1.31.11,1.82.32s.88.54,1.14.98c.26.44.39.98.41,1.62v.69l-4.56.77c-1.57.28-2.78.8-3.61,1.55-.83.75-1.25,1.69-1.25,2.82,0,.74.18,1.41.54,1.99Zm7.46-14.37c.74,0,1.31-.27,1.7-.82.39-.55.59-1.19.61-1.94h-1.33c-.02.44-.13.78-.33,1.02s-.47.36-.81.36c-.25,0-.47-.05-.68-.16-.2-.11-.49-.27-.86-.5-.39-.25-.73-.43-1.01-.56-.28-.12-.59-.19-.93-.19-.74,0-1.31.27-1.71.82-.4.55-.6,1.19-.6,1.94h1.33c0-.42.11-.76.32-1.01.21-.25.49-.37.82-.37.23,0,.45.05.66.15.21.1.48.25.8.46.39.25.73.44,1.02.58.29.14.62.21.99.21Zm1.41,11c-.07.72-.31,1.34-.72,1.86-.42.55-.97.96-1.63,1.25-.66.28-1.38.42-2.16.42-.9,0-1.6-.2-2.08-.61-.49-.41-.73-.98-.73-1.72,0-.69.26-1.25.79-1.67.53-.42,1.39-.75,2.57-.98l3.95-.74v2.2Zm11.24,5.14c1.27,0,2.41-.28,3.42-.85,1.01-.57,1.8-1.38,2.37-2.45s.86-2.34.86-3.8-.29-2.73-.86-3.79-1.37-1.87-2.37-2.44c-1.01-.57-2.15-.85-3.42-.85s-2.39.28-3.41.85c-1.02.57-1.81,1.38-2.37,2.44-.57,1.06-.85,2.33-.85,3.79s.28,2.74.85,3.8c.57,1.07,1.36,1.89,2.37,2.45,1.02.57,2.15.85,3.41.85Zm0-1.67c-.92,0-1.72-.21-2.4-.64-.68-.42-1.21-1.04-1.58-1.86-.37-.81-.56-1.79-.56-2.94s.19-2.1.56-2.92c.37-.81.9-1.43,1.58-1.86.68-.42,1.48-.64,2.4-.64.94.02,1.75.23,2.43.65.68.42,1.2,1.03,1.56,1.84.36.81.54,1.79.54,2.92s-.19,2.13-.56,2.93c-.37.8-.89,1.42-1.56,1.84s-1.48.65-2.41.66Zm97.88-83.65h2.84l6.84-18.56h-2.17l-6.04,16.94-6.12-16.94h-2.2l6.87,18.56Zm11.45-16.04h2.15V0h-2.15v3.31Zm.08,16.04h2.02V5.75h-2.02v13.6Zm10.31.27c1.06,0,2-.16,2.81-.49.81-.33,1.45-.79,1.9-1.39.45-.6.68-1.3.68-2.09,0-1.08-.3-1.93-.91-2.56-.61-.63-1.52-1.08-2.72-1.37l-2.86-.69c-.44-.11-.81-.25-1.1-.42-.29-.18-.51-.4-.66-.66-.15-.26-.23-.57-.23-.93,0-.44.12-.8.37-1.09.25-.28.59-.5,1.03-.65s.98-.23,1.62-.23c.99,0,1.79.21,2.4.64.61.42.98,1.16,1.1,2.2l1.91-.32c-.09-.88-.36-1.64-.82-2.27-.46-.63-1.08-1.1-1.86-1.42-.78-.32-1.69-.48-2.73-.48-1.61,0-2.85.34-3.72,1.03s-1.31,1.62-1.31,2.78c0,1.01.3,1.81.9,2.41.6.6,1.46,1.03,2.57,1.27l2.52.58c.62.14,1.1.3,1.45.46s.6.39.78.66c.18.27.26.64.26,1.1,0,.76-.3,1.32-.9,1.68-.6.36-1.41.54-2.44.54-1.18,0-2.11-.26-2.77-.8-.66-.53-1.01-1.3-1.05-2.31l-1.91.32c.02.87.27,1.64.74,2.32.48.68,1.14,1.21,2,1.58.86.37,1.84.56,2.96.56Zm7.7-1.83c.36.58.86,1.03,1.5,1.35.64.32,1.37.48,2.2.48,1.08,0,2.05-.22,2.92-.65.87-.43,1.55-1.06,2.04-1.87.09-.14.17-.28.24-.42l.08,2.68h1.91v-9.07c0-1.57-.45-2.78-1.34-3.62-.89-.84-2.21-1.26-3.94-1.26s-3.14.4-4.11,1.19c-.97.79-1.53,1.92-1.67,3.37l1.88.26c.09-1.06.45-1.86,1.07-2.39.63-.53,1.53-.8,2.72-.8.71,0,1.31.11,1.82.32s.88.54,1.14.98c.26.44.39.98.41,1.62v.69l-4.56.77c-1.57.28-2.78.8-3.61,1.55-.83.75-1.25,1.69-1.25,2.82,0,.74.18,1.41.54,1.99Zm7.46-14.37c.74,0,1.31-.27,1.7-.82.39-.55.59-1.19.61-1.94h-1.33c-.02.44-.13.78-.33,1.02s-.47.36-.81.36c-.25,0-.47-.05-.68-.16-.2-.11-.49-.27-.86-.5-.39-.25-.73-.43-1.01-.56-.28-.12-.59-.19-.93-.19-.74,0-1.31.27-1.71.82-.4.55-.6,1.19-.6,1.94h1.33c0-.42.11-.76.32-1.01.21-.25.49-.37.82-.37.23,0,.45.05.66.15.21.1.48.25.8.46.39.25.73.44,1.02.58.29.14.62.21.99.21Zm1.41,11c-.07.72-.31,1.34-.72,1.86-.42.55-.97.96-1.63,1.25-.66.28-1.38.42-2.16.42-.9,0-1.6-.2-2.08-.61-.49-.41-.73-.98-.73-1.72,0-.69.26-1.25.79-1.67.53-.42,1.39-.75,2.57-.98l3.95-.74v2.2Zm11.24,5.14c1.27,0,2.41-.28,3.42-.85,1.01-.57,1.8-1.38,2.37-2.45s.86-2.34.86-3.8-.29-2.73-.86-3.79-1.37-1.87-2.37-2.44c-1.01-.57-2.15-.85-3.42-.85s-2.39.28-3.41.85c-1.02.57-1.81,1.38-2.37,2.44-.57,1.06-.85,2.33-.85,3.79s.28,2.74.85,3.8c.57,1.07,1.36,1.89,2.37,2.45,1.02.57,2.15.85,3.41.85Zm0-1.67c-.92,0-1.72-.21-2.4-.64-.68-.42-1.21-1.04-1.58-1.86-.37-.81-.56-1.79-.56-2.94s.19-2.1.56-2.92c.37-.81.9-1.43,1.58-1.86.68-.42,1.48-.64,2.4-.64.94.02,1.75.23,2.43.65.68.42,1.2,1.03,1.56,1.84.36.81.54,1.79.54,2.92s-.19,2.13-.56,2.93c-.37.8-.89,1.42-1.56,1.84s-1.48.65-2.41.66Zm16.2-1.59c.51,1.08,1.22,1.9,2.11,2.47s1.91.85,3.06.85c1.22,0,2.27-.29,3.16-.88.81-.53,1.46-1.26,1.94-2.2l.05,2.81h1.94V.53h-2.04v7.72c-.42-.85-1-1.51-1.72-1.99-.85-.57-1.88-.85-3.1-.85s-2.22.28-3.16.83c-.94.56-1.67,1.37-2.2,2.44s-.79,2.34-.79,3.8.26,2.74.77,3.82Zm9.05.16c-.79.97-1.87,1.46-3.25,1.46-.94,0-1.74-.22-2.4-.65-.66-.43-1.18-1.06-1.54-1.88s-.54-1.79-.54-2.9c0-1.68.4-3,1.19-3.95.79-.96,1.88-1.44,3.26-1.46.92,0,1.71.22,2.39.65.67.43,1.18,1.05,1.54,1.86.35.8.53,1.76.53,2.88,0,1.7-.39,3.03-1.18,4Zm6.38-.15c.51,1.07,1.25,1.89,2.23,2.45.97.57,2.13.85,3.47.85,1.08,0,2.03-.19,2.86-.56s1.51-.9,2.04-1.59.89-1.49,1.09-2.41l-1.91-.27c-.18,1.03-.61,1.81-1.29,2.35s-1.59.81-2.72.81c-.97,0-1.79-.21-2.47-.62s-1.18-1.03-1.51-1.84c-.3-.72-.47-1.59-.5-2.6h10.47v-.98c0-1.33-.25-2.48-.76-3.47-.5-.99-1.21-1.74-2.13-2.25-.92-.51-1.99-.77-3.21-.77s-2.4.28-3.37.85c-.97.57-1.73,1.39-2.27,2.47s-.81,2.33-.81,3.76.26,2.76.77,3.83Zm1.8-6.77c.33-.81.83-1.43,1.48-1.86.65-.42,1.44-.64,2.36-.64s1.69.19,2.31.58c.62.39,1.09.96,1.41,1.72.21.55.34,1.18.4,1.91h-8.38c.07-.64.21-1.21.42-1.72Zm36.12-1.58c.5.61.76,1.55.76,2.82v8.56h2.01v-8.72c0-1.73-.38-3.04-1.13-3.91-.75-.88-1.87-1.31-3.35-1.31-1.11,0-2.05.24-2.81.72-.76.48-1.33,1.21-1.72,2.2-.02.05-.04.12-.05.19-.07-.23-.15-.45-.24-.66-.34-.78-.84-1.38-1.51-1.8-.67-.42-1.5-.64-2.49-.64-1.1,0-2.02.23-2.76.69-.71.46-1.24,1.17-1.59,2.12l-.08-2.47h-1.91v13.6h2.01v-7.66c.02-1.52.33-2.66.93-3.42.62-.81,1.53-1.22,2.73-1.22,1.04,0,1.83.34,2.35,1.01.52.67.78,1.58.78,2.73v8.56h2.04v-7.66c.02-1.5.32-2.64.9-3.42.64-.81,1.55-1.22,2.73-1.22,1.1,0,1.9.3,2.4.92Zm5.95,9.35c.37.76.92,1.33,1.63,1.72s1.6.58,2.66.58,2.02-.24,2.84-.73c.81-.49,1.44-1.22,1.88-2.21.02-.02.03-.04.03-.08l.08,2.76h1.94V5.75h-2.04v7.19c0,1.11-.17,2.05-.52,2.8s-.82,1.31-1.43,1.68c-.61.37-1.3.56-2.08.56-1.2,0-2.08-.32-2.64-.95-.56-.64-.84-1.59-.84-2.86V5.75h-2.01l-.03,8.72c-.02,1.13.16,2.08.53,2.84Zm22.22-9.81c.51.3.89.74,1.14,1.31.25.57.37,1.29.37,2.13v8.41h1.99v-8.72c0-1.13-.18-2.08-.54-2.86-.36-.78-.91-1.37-1.63-1.76-.72-.4-1.61-.6-2.65-.6-1.13,0-2.11.24-2.94.72s-1.48,1.22-1.96,2.23c-.02.04-.04.07-.05.11l-.08-2.7h-1.91v13.6h2.01v-7.24c0-1.1.18-2.02.54-2.78.36-.76.87-1.33,1.51-1.71s1.38-.57,2.21-.57,1.48.15,1.99.45Zm6.57,8.8c.51,1.08,1.22,1.9,2.11,2.47s1.91.85,3.06.85c1.22,0,2.27-.29,3.16-.88.81-.53,1.46-1.26,1.94-2.2l.05,2.81h1.94V.53h-2.04v7.72c-.42-.85-1-1.51-1.72-1.99-.85-.57-1.88-.85-3.1-.85s-2.22.28-3.16.83c-.94.56-1.67,1.37-2.2,2.44s-.79,2.34-.79,3.8.26,2.74.77,3.82Zm9.05.16c-.79.97-1.87,1.46-3.25,1.46-.94,0-1.74-.22-2.4-.65-.66-.43-1.18-1.06-1.54-1.88s-.54-1.79-.54-2.9c0-1.68.4-3,1.19-3.95.79-.96,1.88-1.44,3.26-1.46.92,0,1.71.22,2.39.65.67.43,1.18,1.05,1.54,1.86.35.8.53,1.76.53,2.88,0,1.7-.39,3.03-1.18,4Zm12.24,3.1c1.27,0,2.41-.28,3.42-.85,1.01-.57,1.8-1.38,2.37-2.45s.86-2.34.86-3.8-.29-2.73-.86-3.79-1.37-1.87-2.37-2.44c-1.01-.57-2.15-.85-3.42-.85s-2.39.28-3.41.85c-1.02.57-1.81,1.38-2.37,2.44-.57,1.06-.85,2.33-.85,3.79s.28,2.74.85,3.8c.57,1.07,1.36,1.89,2.37,2.45,1.02.57,2.15.85,3.41.85Zm0-1.67c-.92,0-1.72-.21-2.4-.64-.68-.42-1.21-1.04-1.58-1.86-.37-.81-.56-1.79-.56-2.94s.19-2.1.56-2.92c.37-.81.9-1.43,1.58-1.86.68-.42,1.48-.64,2.4-.64.94.02,1.75.23,2.43.65.68.42,1.2,1.03,1.56,1.84.36.81.54,1.79.54,2.92s-.19,2.13-.56,2.93c-.37.8-.89,1.42-1.56,1.84s-1.48.65-2.41.66ZM17.47,268.78l-4.29-16.2h-6.2v18.56h3.5v-16.28l4.43,16.28h5.17l4.43-16.09v16.09h3.5v-18.56h-6.18l-4.35,16.2Zm13.59.77c.38.6.91,1.06,1.59,1.38s1.46.48,2.35.48c1.15,0,2.09-.25,2.84-.76s1.3-1.19,1.67-2.05v-.03l.19,2.57h3.31v-8.62c0-1.71-.49-3.05-1.47-4-.98-.95-2.45-1.43-4.41-1.43-1.84,0-3.29.4-4.35,1.21-1.06.8-1.69,1.93-1.88,3.38l3.26.42c.05-.72.32-1.28.81-1.67s1.15-.58,2-.58c.53,0,.99.08,1.37.25s.66.42.85.74.29.73.3,1.21v.24l-4.14.69c-1.63.28-2.84.8-3.65,1.56-.8.76-1.21,1.72-1.21,2.89,0,.81.19,1.52.57,2.12Zm8.42-3.66c-.04.58-.2,1.08-.49,1.5-.29.42-.68.74-1.17.97-.49.23-1.04.34-1.66.34-.67,0-1.18-.15-1.54-.44-.35-.29-.55-.69-.58-1.21,0-.53.19-.95.57-1.26.38-.31,1-.55,1.87-.73l3-.61v1.43Zm6.23,5.25h3.53v-7.34c0-.85.12-1.54.34-2.07.23-.53.57-.91,1.01-1.15.44-.24,1.01-.36,1.7-.36.6,0,1.21,0,1.83.03v-3.1c-.25-.02-.42-.03-.5-.03-1.08-.02-1.97.21-2.66.68-.7.47-1.22,1.17-1.58,2.11-.07.21-.14.43-.21.66l-.13-3.13h-3.31v13.71Zm16.31.27c1.15,0,2.16-.2,3.04-.6.88-.4,1.59-.96,2.15-1.68s.93-1.57,1.13-2.55l-3.23-.53c-.09.57-.25,1.03-.48,1.41-.23.37-.55.65-.96.85-.41.19-.91.29-1.51.29-.76,0-1.41-.17-1.95-.5s-.95-.83-1.22-1.49c-.27-.65-.41-1.45-.41-2.39,0-.99.13-1.8.4-2.44.26-.64.64-1.11,1.14-1.42.5-.31,1.11-.46,1.86-.46.94,0,1.64.25,2.12.76s.74,1.17.79,2l3.26-.42c-.09-.99-.39-1.87-.9-2.65-.51-.78-1.22-1.39-2.12-1.83-.9-.44-1.96-.66-3.18-.66-1.38-.02-2.6.27-3.66.85s-1.89,1.41-2.48,2.49-.89,2.34-.89,3.79.3,2.72.89,3.8,1.43,1.92,2.51,2.51c1.08.58,2.32.88,3.71.88Zm8.31-1.86c.38.6.91,1.06,1.59,1.38s1.46.48,2.35.48c1.15,0,2.09-.25,2.84-.76.74-.5,1.3-1.19,1.67-2.05v-.03l.19,2.57h3.31v-8.62c0-1.71-.49-3.05-1.47-4-.98-.95-2.45-1.43-4.42-1.43-1.84,0-3.29.4-4.35,1.21-1.06.8-1.69,1.93-1.88,3.38l3.26.42c.05-.72.32-1.28.81-1.67.49-.39,1.15-.58,2-.58.53,0,.99.08,1.37.25.38.17.66.42.85.74.19.33.29.73.3,1.21v.24l-4.14.69c-1.63.28-2.84.8-3.65,1.56-.8.76-1.21,1.72-1.21,2.89,0,.81.19,1.52.57,2.12Zm8.42-3.66c-.04.58-.2,1.08-.49,1.5-.29.42-.68.74-1.17.97-.49.23-1.04.34-1.66.34-.67,0-1.18-.15-1.54-.44s-.55-.69-.58-1.21c0-.53.19-.95.57-1.26.38-.31,1-.55,1.87-.73l3-.61v1.43Zm29.09,143.65c19.07,0,34.59-13.03,34.59-29.04v-25.87c0-15.54,15.13-28.18,33.73-28.18h90.05s98.06.01,98.06.01c19.07,0,34.59-13.03,34.59-29.04v-25.87c0-15.54,15.13-28.18,33.73-28.18h188.97c19.07,0,34.59-13.03,34.59-29.04v-25.87c0-15.54,15.13-28.18,33.73-28.18h205.76v-.85h-205.76c-19.07,0-34.59,13.03-34.59,29.04v25.87c0,15.54-15.13,28.18-33.73,28.18h-188.97c-19.07,0-34.59,13.03-34.59,29.04v25.87c0,15.54-15.13,28.18-33.73,28.18h-97.2s0-.01,0-.01h-90.91c-19.07,0-34.59,13.03-34.59,29.04v25.87c0,15.54-15.13,28.18-33.73,28.18H0v.86h107.84Zm87.53-108.43c1.51,0,2.83-.27,3.94-.81,1.12-.54,2.02-1.29,2.7-2.25.68-.96,1.15-2.08,1.4-3.36l-2.13-.35c-.31,1.57-.95,2.78-1.92,3.64-.97.86-2.3,1.3-4,1.3-1.24,0-2.34-.32-3.31-.97-.96-.65-1.71-1.57-2.25-2.75s-.81-2.58-.81-4.18.27-3.02.81-4.21c.54-1.19,1.28-2.09,2.23-2.71.94-.62,2.03-.93,3.25-.93,1.73,0,3.06.42,4.01,1.26s1.56,2.07,1.85,3.71l2.11-.38c-.22-1.33-.66-2.48-1.34-3.44s-1.57-1.7-2.69-2.21-2.43-.77-3.94-.77c-1.67,0-3.15.4-4.44,1.2-1.29.8-2.29,1.94-3.01,3.4s-1.08,3.17-1.08,5.12.37,3.68,1.11,5.14c.74,1.47,1.76,2.6,3.08,3.39,1.31.79,2.79,1.19,4.43,1.19Zm10.48-2.35c.38.77.93,1.36,1.66,1.75.73.4,1.63.59,2.71.59s2.06-.25,2.89-.74c.83-.5,1.47-1.25,1.92-2.25.02-.02.03-.04.03-.08l.08,2.81h1.97v-13.85h-2.08v7.32c0,1.13-.18,2.08-.53,2.85-.35.77-.84,1.34-1.46,1.71s-1.33.57-2.12.57c-1.22,0-2.12-.32-2.69-.97s-.85-1.62-.85-2.92v-8.56h-2.05l-.03,8.88c-.02,1.15.16,2.12.54,2.89Zm19.44,2.35c1.08,0,2.03-.17,2.86-.5.83-.33,1.47-.81,1.93-1.42.46-.61.69-1.32.69-2.13,0-1.1-.31-1.97-.93-2.61-.62-.64-1.54-1.1-2.77-1.39l-2.92-.7c-.45-.11-.82-.25-1.12-.43-.3-.18-.52-.41-.68-.67-.15-.27-.23-.58-.23-.95,0-.45.13-.82.38-1.11s.6-.51,1.05-.66c.45-.15,1-.23,1.65-.23,1.01,0,1.82.22,2.44.65s1,1.18,1.12,2.24l1.94-.32c-.09-.9-.37-1.67-.84-2.31s-1.1-1.12-1.89-1.44-1.72-.49-2.78-.49c-1.64,0-2.9.35-3.79,1.05-.89.7-1.34,1.65-1.34,2.83,0,1.03.31,1.85.92,2.46.61.61,1.49,1.04,2.62,1.3l2.57.59c.63.14,1.12.3,1.47.47.35.17.62.4.8.67s.27.65.27,1.12c0,.77-.31,1.35-.92,1.71-.61.37-1.44.55-2.48.55-1.21,0-2.15-.27-2.82-.81-.68-.54-1.03-1.32-1.07-2.35l-1.94.32c.02.88.27,1.67.76,2.36s1.17,1.23,2.04,1.61,1.88.57,3.01.57Zm10.23-1.53c.29.53.69.91,1.21,1.12s1.16.32,1.92.32c.85,0,1.61-.07,2.29-.22v-1.7c-.68.13-1.31.19-1.89.19-.45,0-.81-.06-1.07-.18-.26-.12-.47-.32-.62-.61-.15-.29-.23-.7-.23-1.24v-8.67h3.92v-1.62h-3.92v-3.65h-2.05v3.65h-2.97v1.62h2.97v8.83c0,.9.14,1.62.43,2.15Zm14.09,1.47c1.3,0,2.46-.29,3.48-.86,1.03-.58,1.83-1.41,2.42-2.5s.88-2.38.88-3.87-.29-2.78-.88-3.86-1.39-1.91-2.42-2.48c-1.03-.58-2.19-.86-3.48-.86s-2.43.29-3.47.86c-1.04.58-1.84,1.4-2.42,2.48-.58,1.08-.86,2.37-.86,3.86s.29,2.79.86,3.87c.58,1.09,1.38,1.92,2.42,2.5,1.04.58,2.19.86,3.47.86Zm0-1.7c-.94,0-1.75-.22-2.44-.65-.69-.43-1.23-1.06-1.61-1.89-.38-.83-.57-1.83-.57-3s.19-2.14.57-2.97c.38-.83.91-1.46,1.61-1.89.69-.43,1.51-.65,2.44-.65.95.02,1.78.24,2.47.66.69.42,1.22,1.05,1.59,1.88.37.83.55,1.82.55,2.97s-.19,2.16-.57,2.98-.91,1.44-1.59,1.88c-.68.43-1.5.66-2.46.67Zm9.23-4.91h7.64v-1.75h-7.64v1.75Zm10.58,6.4h1.84l.13-2.86c.45.95,1.06,1.7,1.84,2.24.88.59,1.93.89,3.16.89s2.24-.29,3.2-.88,1.72-1.43,2.27-2.52.82-2.39.82-3.88-.27-2.78-.8-3.87c-.53-1.1-1.25-1.93-2.16-2.48-.91-.56-1.95-.84-3.12-.84-1.26,0-2.34.29-3.24.86-.79.5-1.42,1.21-1.89,2.13v-7.96h-2.05v19.17Zm10.54-4.05c-.35.83-.87,1.47-1.55,1.92-.68.45-1.5.67-2.46.67-1.39,0-2.48-.49-3.29-1.47-.81-.98-1.21-2.33-1.21-4.04.02-1.73.43-3.08,1.23-4.06s1.89-1.47,3.28-1.47c.95,0,1.77.22,2.44.66.68.44,1.19,1.08,1.55,1.9s.54,1.81.54,2.94-.18,2.12-.53,2.94Zm5.47.96c.52,1.09,1.28,1.92,2.27,2.5s2.17.86,3.54.86c1.1,0,2.07-.19,2.92-.57.85-.38,1.54-.92,2.08-1.62s.91-1.52,1.11-2.46l-1.94-.27c-.18,1.04-.62,1.84-1.31,2.39-.69.55-1.62.82-2.77.82-.99,0-1.83-.21-2.51-.63-.68-.42-1.2-1.05-1.54-1.88-.31-.74-.48-1.62-.51-2.65h10.67v-1c0-1.35-.26-2.53-.77-3.54-.51-1.01-1.24-1.77-2.17-2.29-.94-.52-2.03-.78-3.27-.78s-2.44.29-3.43.86c-.99.58-1.76,1.41-2.31,2.51-.55,1.1-.82,2.38-.82,3.83s.26,2.81.78,3.9Zm1.84-6.9c.34-.83.85-1.46,1.51-1.89s1.47-.65,2.4-.65,1.72.2,2.35.59c.63.4,1.11.98,1.43,1.75.22.56.35,1.21.41,1.94h-8.53c.07-.65.22-1.23.43-1.75Zm21.06-2.08c.52.31.91.75,1.16,1.34.25.58.38,1.31.38,2.17v8.56h2.02v-8.88c0-1.15-.18-2.12-.55-2.92s-.92-1.39-1.66-1.8c-.74-.4-1.64-.61-2.7-.61-1.15,0-2.15.24-3,.73-.85.49-1.51,1.24-2,2.27-.02.04-.04.07-.05.11l-.08-2.75h-1.94v13.85h2.05v-7.37c0-1.12.18-2.06.55-2.83.37-.77.88-1.35,1.54-1.74s1.41-.58,2.25-.58,1.5.15,2.03.46Zm6.7,8.98c.52,1.09,1.28,1.92,2.27,2.5s2.17.86,3.54.86c1.1,0,2.07-.19,2.92-.57.85-.38,1.54-.92,2.08-1.62s.91-1.52,1.11-2.46l-1.94-.27c-.18,1.04-.62,1.84-1.31,2.39-.69.55-1.62.82-2.77.82-.99,0-1.83-.21-2.51-.63-.68-.42-1.2-1.05-1.54-1.88-.31-.74-.48-1.62-.51-2.65h10.67v-1c0-1.35-.26-2.53-.77-3.54-.51-1.01-1.24-1.77-2.17-2.29-.94-.52-2.03-.78-3.27-.78s-2.44.29-3.43.86c-.99.58-1.76,1.41-2.31,2.51-.55,1.1-.82,2.38-.82,3.83s.26,2.81.78,3.9Zm1.84-6.9c.34-.83.85-1.46,1.51-1.89s1.47-.65,2.4-.65,1.72.2,2.35.59c.63.4,1.11.98,1.43,1.75.22.56.35,1.21.41,1.94h-8.53c.07-.65.22-1.23.43-1.75Zm15.51-8.34c-.69.61-1.04,1.46-1.04,2.54v1.94h-2.84v1.65h2.84v12.2h2.08v-12.2h3.81v-1.65h-3.81v-1.65c0-.7.16-1.21.49-1.54s.84-.49,1.54-.49c.5,0,1.1.05,1.78.16v-1.73c-.68-.11-1.39-.16-2.11-.16-1.13,0-2.05.31-2.74.92Zm7.44,18.33h2.05v-13.88h-2.05v13.88Zm.43-16.07h1.24l2.89-4.05h-2.54l-1.59,4.05Zm11.18,16.33c1.1,0,2.07-.2,2.9-.61.84-.4,1.51-.96,2.01-1.67.5-.71.82-1.54.94-2.5l-1.92-.32c-.09.7-.3,1.31-.62,1.82-.32.51-.76.9-1.32,1.17-.56.27-1.21.41-1.97.41-1.01,0-1.87-.22-2.58-.65s-1.25-1.07-1.61-1.9c-.36-.84-.54-1.84-.54-3.01s.18-2.22.54-3.04c.36-.82.88-1.44,1.55-1.85s1.5-.63,2.47-.65c1.19,0,2.11.33,2.77,1,.66.67,1.03,1.58,1.12,2.75l1.94-.27c-.09-1.01-.37-1.9-.85-2.69-.48-.78-1.14-1.39-2-1.82-.86-.43-1.86-.65-3.01-.65-1.33-.02-2.5.26-3.5.82-1,.57-1.78,1.4-2.33,2.5-.56,1.1-.84,2.39-.84,3.89s.28,2.81.84,3.89c.56,1.08,1.35,1.91,2.38,2.5s2.23.88,3.62.88Zm8.56-16.6h2.19v-3.38h-2.19v3.38Zm.08,16.33h2.05v-13.85h-2.05v13.85Zm11.53.22c1.3,0,2.46-.29,3.48-.86,1.03-.58,1.83-1.41,2.42-2.5s.88-2.38.88-3.87-.29-2.78-.88-3.86-1.39-1.91-2.42-2.48c-1.03-.58-2.19-.86-3.48-.86s-2.43.29-3.47.86c-1.04.58-1.84,1.4-2.42,2.48-.58,1.08-.86,2.37-.86,3.86s.29,2.79.86,3.87c.58,1.09,1.38,1.92,2.42,2.5,1.04.58,2.19.86,3.47.86Zm0-1.7c-.94,0-1.75-.22-2.44-.65-.69-.43-1.23-1.06-1.61-1.89-.38-.83-.57-1.83-.57-3s.19-2.14.57-2.97c.38-.83.91-1.46,1.61-1.89.69-.43,1.51-.65,2.44-.65.95.02,1.78.24,2.47.66.69.42,1.22,1.05,1.59,1.88.37.83.55,1.82.55,2.97s-.19,2.16-.57,2.98-.91,1.44-1.59,1.88c-.68.43-1.5.66-2.46.67Zm78.54-80.55h2.11v-8.75h9.8v-1.84h-9.8v-6.48h10.56v-1.84h-12.66v18.9Zm15.23-16.33h2.19v-3.38h-2.19v3.38Zm.08,16.33h2.05v-13.85h-2.05v13.85Zm5.56-3.11c.52,1.1,1.24,1.94,2.15,2.51.91.58,1.95.86,3.12.86,1.24,0,2.31-.3,3.21-.89.83-.54,1.49-1.29,1.97-2.24l.05,2.86h1.97v-19.17h-2.08v7.86c-.43-.86-1.02-1.54-1.75-2.02-.86-.58-1.92-.86-3.16-.86s-2.26.28-3.21.85-1.7,1.4-2.24,2.48-.81,2.38-.81,3.87.26,2.79.78,3.89Zm9.22.16c-.8.99-1.9,1.49-3.31,1.49-.96,0-1.77-.22-2.44-.66-.67-.44-1.2-1.08-1.57-1.92-.37-.84-.55-1.82-.55-2.96,0-1.71.41-3.05,1.21-4.02.81-.97,1.92-1.47,3.32-1.49.94,0,1.75.22,2.43.66.68.44,1.21,1.07,1.57,1.89.36.82.54,1.79.54,2.93,0,1.73-.4,3.09-1.2,4.08Zm6.49-.15c.52,1.09,1.28,1.92,2.27,2.5s2.17.86,3.54.86c1.1,0,2.07-.19,2.92-.57.85-.38,1.54-.92,2.08-1.62s.91-1.52,1.11-2.46l-1.94-.27c-.18,1.04-.62,1.84-1.31,2.39-.69.55-1.62.82-2.77.82-.99,0-1.83-.21-2.51-.63-.68-.42-1.2-1.05-1.54-1.88-.31-.74-.48-1.62-.51-2.65h10.67v-1c0-1.35-.26-2.53-.77-3.54-.51-1.01-1.24-1.77-2.17-2.29-.94-.52-2.03-.78-3.27-.78s-2.44.29-3.43.86c-.99.58-1.76,1.41-2.31,2.51-.55,1.1-.82,2.38-.82,3.83s.26,2.81.78,3.9Zm1.84-6.9c.34-.83.85-1.46,1.51-1.89s1.47-.65,2.4-.65,1.72.2,2.35.59c.63.4,1.11.98,1.43,1.75.22.56.35,1.21.41,1.94h-8.53c.07-.65.22-1.23.43-1.75Zm12.63,9.99h2.05v-19.17h-2.05v19.17Zm5.27-16.33h2.19v-3.38h-2.19v3.38Zm.08,16.33h2.05v-13.85h-2.05v13.85Zm4.64,0h10.64v-1.59h-8.13l8.13-10.85v-1.43h-10.48v1.59h7.99l-8.15,10.85v1.43Zm13.05-1.59c.37.59.88,1.05,1.53,1.38.65.32,1.4.49,2.24.49,1.1,0,2.09-.22,2.97-.66.88-.44,1.58-1.08,2.08-1.9.09-.14.17-.29.24-.43l.08,2.73h1.94v-9.23c0-1.6-.46-2.83-1.36-3.69-.91-.85-2.25-1.28-4.01-1.28s-3.2.41-4.19,1.21c-.99.81-1.56,1.95-1.7,3.43l1.92.27c.09-1.08.45-1.89,1.09-2.43s1.56-.81,2.77-.81c.72,0,1.34.11,1.85.32s.9.55,1.16,1c.26.45.4,1,.42,1.65v.7l-4.64.78c-1.6.29-2.83.81-3.67,1.58-.85.76-1.27,1.72-1.27,2.88,0,.76.18,1.43.55,2.03Zm9.03-3.43c-.07.74-.32,1.37-.73,1.89-.43.56-.99.98-1.66,1.27-.67.29-1.41.43-2.2.43-.92,0-1.62-.21-2.12-.62s-.74-1-.74-1.75c0-.7.27-1.27.81-1.7.54-.43,1.41-.76,2.62-1l4.02-.76v2.24Zm5.51,1.92c.56,1.08,1.35,1.92,2.38,2.51.88.49,1.89.76,3.02.84l-1.32,2.97,1.51-.03c.38,0,.68.08.9.24s.34.41.34.73c.02.32-.09.57-.31.73-.23.16-.55.24-.99.24-.49,0-.99-.04-1.51-.11v1.08c.54.07,1.11.11,1.7.11.81,0,1.44-.18,1.9-.54s.68-.84.66-1.43c-.02-.61-.24-1.09-.67-1.43-.43-.34-1.02-.51-1.75-.51h-.08l.65-2.03c.94-.05,1.76-.25,2.48-.59.83-.41,1.49-.98,2-1.69.5-.71.82-1.54.94-2.5l-1.92-.32c-.09.7-.3,1.31-.62,1.82-.32.51-.76.9-1.32,1.17-.56.27-1.21.41-1.97.41-1.01,0-1.87-.22-2.58-.65s-1.25-1.07-1.61-1.9c-.36-.84-.54-1.84-.54-3.01s.18-2.22.54-3.04c.36-.82.88-1.44,1.55-1.85s1.5-.63,2.47-.65c1.19,0,2.11.33,2.77,1,.66.67,1.03,1.58,1.12,2.75l1.94-.27c-.09-1.01-.37-1.9-.85-2.69-.48-.78-1.14-1.39-2-1.82-.86-.43-1.86-.65-3.01-.65-1.33-.02-2.5.26-3.5.82-1,.57-1.78,1.4-2.33,2.5-.56,1.1-.84,2.39-.84,3.89s.28,2.81.84,3.89Zm14.38,1.51c.37.59.88,1.05,1.53,1.38.65.32,1.4.49,2.24.49,1.1,0,2.09-.22,2.97-.66.88-.44,1.58-1.08,2.08-1.9.09-.14.17-.29.24-.43l.08,2.73h1.94v-9.23c0-1.6-.46-2.83-1.36-3.69-.91-.85-2.25-1.28-4.01-1.28s-3.2.41-4.19,1.21c-.99.81-1.56,1.95-1.7,3.43l1.92.27c.09-1.08.45-1.89,1.09-2.43s1.56-.81,2.77-.81c.72,0,1.34.11,1.85.32s.9.55,1.16,1c.26.45.4,1,.42,1.65v.7l-4.64.78c-1.6.29-2.83.81-3.67,1.58-.85.76-1.27,1.72-1.27,2.88,0,.76.18,1.43.55,2.03Zm7.6-14.63c.76,0,1.33-.28,1.73-.84.4-.56.6-1.21.62-1.97h-1.35c-.02.45-.13.8-.34,1.04-.21.24-.48.36-.82.36-.25,0-.48-.05-.69-.16s-.5-.28-.88-.51c-.4-.25-.74-.44-1.03-.57s-.6-.19-.95-.19c-.76,0-1.34.28-1.74.84-.41.56-.61,1.21-.61,1.97h1.35c0-.43.11-.77.32-1.03.22-.25.5-.38.84-.38.23,0,.46.05.68.15.22.1.49.26.81.47.4.25.74.45,1.04.59.3.14.63.22,1.01.22Zm1.43,11.2c-.07.74-.32,1.37-.73,1.89-.43.56-.99.98-1.66,1.27-.67.29-1.41.43-2.2.43-.92,0-1.62-.21-2.12-.62s-.74-1-.74-1.75c0-.7.27-1.27.81-1.7.54-.43,1.41-.76,2.62-1l4.02-.76v2.24Zm11.45,5.24c1.3,0,2.46-.29,3.48-.86,1.03-.58,1.83-1.41,2.42-2.5s.88-2.38.88-3.87-.29-2.78-.88-3.86-1.39-1.91-2.42-2.48c-1.03-.58-2.19-.86-3.48-.86s-2.43.29-3.47.86c-1.04.58-1.84,1.4-2.42,2.48-.58,1.08-.86,2.37-.86,3.86s.29,2.79.86,3.87c.58,1.09,1.38,1.92,2.42,2.5,1.04.58,2.19.86,3.47.86Zm0-1.7c-.94,0-1.75-.22-2.44-.65-.69-.43-1.23-1.06-1.61-1.89-.38-.83-.57-1.83-.57-3s.19-2.14.57-2.97c.38-.83.91-1.46,1.61-1.89.69-.43,1.51-.65,2.44-.65.95.02,1.78.24,2.47.66.69.42,1.22,1.05,1.59,1.88.37.83.55,1.82.55,2.97s-.19,2.16-.57,2.98-.91,1.44-1.59,1.88c-.68.43-1.5.66-2.46.67Zm113.29-111.62h12.64v-1.84h-10.53v-6.99h9.67v-1.84h-9.67v-6.4h10.42v-1.84h-12.53v18.9Zm21.6.27c1.1,0,2.07-.2,2.9-.61.84-.4,1.51-.96,2.01-1.67.5-.71.82-1.54.94-2.5l-1.92-.32c-.09.7-.3,1.31-.62,1.82-.32.51-.76.9-1.32,1.17-.56.27-1.21.41-1.97.41-1.01,0-1.87-.22-2.58-.65s-1.25-1.07-1.61-1.9c-.36-.84-.54-1.84-.54-3.01s.18-2.22.54-3.04c.36-.82.88-1.44,1.55-1.85s1.5-.63,2.47-.65c1.19,0,2.11.33,2.77,1,.66.67,1.03,1.58,1.12,2.75l1.94-.27c-.09-1.01-.37-1.9-.85-2.69-.48-.78-1.14-1.39-2-1.82-.86-.43-1.86-.65-3.01-.65-1.33-.02-2.5.26-3.5.82-1,.57-1.78,1.4-2.33,2.5-.56,1.1-.84,2.39-.84,3.89s.28,2.81.84,3.89c.56,1.08,1.35,1.91,2.38,2.5s2.23.88,3.62.88Zm14.58-.05c1.3,0,2.46-.29,3.48-.86,1.03-.58,1.83-1.41,2.42-2.5s.88-2.38.88-3.87-.29-2.78-.88-3.86-1.39-1.91-2.42-2.48c-1.03-.58-2.19-.86-3.48-.86s-2.43.29-3.47.86c-1.04.58-1.84,1.4-2.42,2.48-.58,1.08-.86,2.37-.86,3.86s.29,2.79.86,3.87c.58,1.09,1.38,1.92,2.42,2.5,1.04.58,2.19.86,3.47.86Zm0-1.7c-.94,0-1.75-.22-2.44-.65-.69-.43-1.23-1.06-1.61-1.89-.38-.83-.57-1.83-.57-3s.19-2.14.57-2.97c.38-.83.91-1.46,1.61-1.89.69-.43,1.51-.65,2.44-.65.95.02,1.78.24,2.47.66.69.42,1.22,1.05,1.59,1.88.37.83.55,1.82.55,2.97s-.19,2.16-.57,2.98-.91,1.44-1.59,1.88c-.68.43-1.5.66-2.46.67Zm14.47,1.75c1.08,0,2.03-.17,2.86-.5.83-.33,1.47-.81,1.93-1.42.46-.61.69-1.32.69-2.13,0-1.1-.31-1.97-.93-2.61-.62-.64-1.54-1.1-2.77-1.39l-2.92-.7c-.45-.11-.82-.25-1.12-.43-.3-.18-.52-.41-.68-.67-.15-.27-.23-.58-.23-.95,0-.45.13-.82.38-1.11s.6-.51,1.05-.66c.45-.15,1-.23,1.65-.23,1.01,0,1.82.22,2.44.65s1,1.18,1.12,2.24l1.94-.32c-.09-.9-.37-1.67-.84-2.31s-1.1-1.12-1.89-1.44-1.72-.49-2.78-.49c-1.64,0-2.9.35-3.79,1.05-.89.7-1.34,1.65-1.34,2.83,0,1.03.31,1.85.92,2.46.61.61,1.49,1.04,2.62,1.3l2.57.59c.63.14,1.12.3,1.47.47.35.17.62.4.8.67s.27.65.27,1.12c0,.77-.31,1.35-.92,1.71-.61.37-1.44.55-2.48.55-1.21,0-2.15-.27-2.82-.81-.68-.54-1.03-1.32-1.07-2.35l-1.94.32c.02.88.27,1.67.76,2.36s1.17,1.23,2.04,1.61,1.88.57,3.01.57Zm13.07,0c1.08,0,2.03-.17,2.86-.5.83-.33,1.47-.81,1.93-1.42.46-.61.69-1.32.69-2.13,0-1.1-.31-1.97-.93-2.61-.62-.64-1.54-1.1-2.77-1.39l-2.92-.7c-.45-.11-.82-.25-1.12-.43-.3-.18-.52-.41-.68-.67-.15-.27-.23-.58-.23-.95,0-.45.13-.82.38-1.11s.6-.51,1.05-.66c.45-.15,1-.23,1.65-.23,1.01,0,1.82.22,2.44.65s1,1.18,1.12,2.24l1.94-.32c-.09-.9-.37-1.67-.84-2.31s-1.1-1.12-1.89-1.44-1.72-.49-2.78-.49c-1.64,0-2.9.35-3.79,1.05-.89.7-1.34,1.65-1.34,2.83,0,1.03.31,1.85.92,2.46.61.61,1.49,1.04,2.62,1.3l2.57.59c.63.14,1.12.3,1.47.47.35.17.62.4.8.67s.27.65.27,1.12c0,.77-.31,1.35-.92,1.71-.61.37-1.44.55-2.48.55-1.21,0-2.15-.27-2.82-.81-.68-.54-1.03-1.32-1.07-2.35l-1.94.32c.02.88.27,1.67.76,2.36s1.17,1.23,2.04,1.61,1.88.57,3.01.57Zm8.07-16.6h2.19v-3.38h-2.19v3.38Zm.08,16.33h2.05v-13.85h-2.05v13.85Zm10.5.27c1.08,0,2.03-.17,2.86-.5.83-.33,1.47-.81,1.93-1.42.46-.61.69-1.32.69-2.13,0-1.1-.31-1.97-.93-2.61-.62-.64-1.54-1.1-2.77-1.39l-2.92-.7c-.45-.11-.82-.25-1.12-.43-.3-.18-.52-.41-.68-.67-.15-.27-.23-.58-.23-.95,0-.45.13-.82.38-1.11s.6-.51,1.05-.66c.45-.15,1-.23,1.65-.23,1.01,0,1.82.22,2.44.65s1,1.18,1.12,2.24l1.94-.32c-.09-.9-.37-1.67-.84-2.31s-1.1-1.12-1.89-1.44-1.72-.49-2.78-.49c-1.64,0-2.9.35-3.79,1.05-.89.7-1.34,1.65-1.34,2.83,0,1.03.31,1.85.92,2.46.61.61,1.49,1.04,2.62,1.3l2.57.59c.63.14,1.12.3,1.47.47.35.17.62.4.8.67s.27.65.27,1.12c0,.77-.31,1.35-.92,1.71-.61.37-1.44.55-2.48.55-1.21,0-2.15-.27-2.82-.81-.68-.54-1.03-1.32-1.07-2.35l-1.94.32c.02.88.27,1.67.76,2.36s1.17,1.23,2.04,1.61,1.88.57,3.01.57Zm10.23-1.53c.29.53.69.91,1.21,1.12s1.16.32,1.92.32c.85,0,1.61-.07,2.29-.22v-1.7c-.68.13-1.31.19-1.89.19-.45,0-.81-.06-1.07-.18-.26-.12-.47-.32-.62-.61-.15-.29-.23-.7-.23-1.24v-8.67h3.92v-1.62h-3.92v-3.65h-2.05v3.65h-2.97v1.62h2.97v8.83c0,.9.14,1.62.43,2.15Zm8.13-1.84c.52,1.09,1.28,1.92,2.27,2.5s2.17.86,3.54.86c1.1,0,2.07-.19,2.92-.57.85-.38,1.54-.92,2.08-1.62s.91-1.52,1.11-2.46l-1.94-.27c-.18,1.04-.62,1.84-1.31,2.39-.69.55-1.62.82-2.77.82-.99,0-1.83-.21-2.51-.63-.68-.42-1.2-1.05-1.54-1.88-.31-.74-.48-1.62-.51-2.65h10.67v-1c0-1.35-.26-2.53-.77-3.54-.51-1.01-1.24-1.77-2.17-2.29-.94-.52-2.03-.78-3.27-.78s-2.44.29-3.43.86c-.99.58-1.76,1.41-2.31,2.51-.55,1.1-.82,2.38-.82,3.83s.26,2.81.78,3.9Zm1.84-6.9c.34-.83.85-1.46,1.51-1.89s1.47-.65,2.4-.65,1.72.2,2.35.59c.63.4,1.11.98,1.43,1.75.22.56.35,1.21.41,1.94h-8.53c.07-.65.22-1.23.43-1.75Zm29.82-1.61c.51.62.77,1.58.77,2.88v8.72h2.05v-8.88c0-1.76-.38-3.09-1.15-3.98-.77-.89-1.9-1.34-3.42-1.34-1.13,0-2.09.24-2.86.73-.77.49-1.36,1.23-1.75,2.24-.02.05-.04.12-.05.19-.07-.23-.15-.46-.24-.67-.34-.79-.85-1.4-1.54-1.84-.68-.43-1.53-.65-2.54-.65-1.12,0-2.05.23-2.81.7-.72.47-1.26,1.19-1.62,2.16l-.08-2.51h-1.94v13.85h2.05v-7.8c.02-1.55.33-2.71.94-3.48.63-.83,1.56-1.24,2.78-1.24,1.06,0,1.86.34,2.39,1.03.53.68.8,1.61.8,2.78v8.72h2.08v-7.8c.02-1.53.32-2.69.92-3.48.65-.83,1.57-1.24,2.78-1.24,1.12,0,1.93.31,2.44.93Zm5.67,10c.37.59.88,1.05,1.53,1.38.65.32,1.4.49,2.24.49,1.1,0,2.09-.22,2.97-.66.88-.44,1.58-1.08,2.08-1.9.09-.14.17-.29.24-.43l.08,2.73h1.94v-9.23c0-1.6-.46-2.83-1.36-3.69-.91-.85-2.25-1.28-4.01-1.28s-3.2.41-4.19,1.21c-.99.81-1.56,1.95-1.7,3.43l1.92.27c.09-1.08.45-1.89,1.09-2.43s1.56-.81,2.77-.81c.72,0,1.34.11,1.85.32s.9.55,1.16,1c.26.45.4,1,.42,1.65v.7l-4.64.78c-1.6.29-2.83.81-3.67,1.58-.85.76-1.27,1.72-1.27,2.88,0,.76.18,1.43.55,2.03Zm9.03-3.43c-.07.74-.32,1.37-.73,1.89-.43.56-.99.98-1.66,1.27-.67.29-1.41.43-2.2.43-.92,0-1.62-.21-2.12-.62s-.74-1-.74-1.75c0-.7.27-1.27.81-1.7.54-.43,1.41-.76,2.62-1l4.02-.76v2.24Zm-147.39,34.32c.52,1.1,1.24,1.94,2.15,2.51.91.58,1.95.86,3.12.86,1.24,0,2.31-.3,3.21-.89.83-.54,1.49-1.29,1.97-2.24l.05,2.86h1.97v-19.17h-2.08v7.86c-.43-.86-1.02-1.54-1.75-2.02-.86-.58-1.92-.86-3.16-.86s-2.26.28-3.21.85-1.7,1.4-2.24,2.48-.81,2.38-.81,3.87.26,2.79.78,3.89Zm9.22.16c-.8.99-1.9,1.49-3.31,1.49-.96,0-1.77-.22-2.44-.66-.67-.44-1.2-1.08-1.57-1.92-.37-.84-.55-1.82-.55-2.96,0-1.71.41-3.05,1.21-4.02.81-.97,1.92-1.47,3.32-1.49.94,0,1.75.22,2.43.66.68.44,1.21,1.07,1.57,1.89.36.82.54,1.79.54,2.93,0,1.73-.4,3.09-1.2,4.08Zm6.49-.15c.52,1.09,1.28,1.92,2.27,2.5s2.17.86,3.54.86c1.1,0,2.07-.19,2.92-.57.85-.38,1.54-.92,2.08-1.62s.91-1.52,1.11-2.46l-1.94-.27c-.18,1.04-.62,1.84-1.31,2.39-.69.55-1.62.82-2.77.82-.99,0-1.83-.21-2.51-.63-.68-.42-1.2-1.05-1.54-1.88-.31-.74-.48-1.62-.51-2.65h10.67v-1c0-1.35-.26-2.53-.77-3.54-.51-1.01-1.24-1.77-2.17-2.29-.94-.52-2.03-.78-3.27-.78s-2.44.29-3.43.86c-.99.58-1.76,1.41-2.31,2.51-.55,1.1-.82,2.38-.82,3.83s.26,2.81.78,3.9Zm1.84-6.9c.34-.83.85-1.46,1.51-1.89s1.47-.65,2.4-.65,1.72.2,2.35.59c.63.4,1.11.98,1.43,1.75.22.56.35,1.21.41,1.94h-8.53c.07-.65.22-1.23.43-1.75Zm19.84-6.34h2.19v-3.38h-2.19v3.38Zm.08,16.33h2.05v-13.85h-2.05v13.85Zm22.45-11.6c.51.62.77,1.58.77,2.88v8.72h2.05v-8.88c0-1.76-.38-3.09-1.15-3.98-.77-.89-1.9-1.34-3.42-1.34-1.13,0-2.09.24-2.86.73-.77.49-1.36,1.23-1.75,2.24-.02.05-.04.12-.05.19-.07-.23-.15-.46-.24-.67-.34-.79-.85-1.4-1.54-1.84-.68-.43-1.53-.65-2.54-.65-1.12,0-2.05.23-2.81.7-.72.47-1.26,1.19-1.62,2.16l-.08-2.51h-1.94v13.85h2.05v-7.8c.02-1.55.33-2.71.94-3.48.63-.83,1.56-1.24,2.78-1.24,1.06,0,1.86.34,2.39,1.03.53.68.8,1.61.8,2.78v8.72h2.08v-7.8c.02-1.53.32-2.69.92-3.48.65-.83,1.57-1.24,2.78-1.24,1.12,0,1.93.31,2.44.93Zm5.66,17h2.05v-8.1c.43.86,1.02,1.56,1.75,2.08.88.59,1.93.89,3.16.89s2.24-.29,3.2-.88,1.72-1.43,2.27-2.52.82-2.38.82-3.86-.27-2.79-.8-3.89c-.53-1.1-1.25-1.93-2.16-2.48-.91-.56-1.95-.84-3.12-.84-1.26,0-2.34.29-3.24.86-.81.52-1.45,1.25-1.92,2.19l-.08-2.7h-1.94v19.25Zm9.9-8.33c-.8.98-1.91,1.47-3.33,1.47-.94,0-1.74-.22-2.42-.66-.67-.44-1.19-1.08-1.55-1.9-.31-.65-.49-1.4-.54-2.27v-1.3c.11-1.44.5-2.59,1.19-3.46.81-.97,1.92-1.46,3.32-1.46s2.51.49,3.31,1.46c.8.97,1.2,2.32,1.2,4.05.02,1.73-.37,3.08-1.17,4.06Zm5.83,1.34c.37.59.88,1.05,1.53,1.38.65.32,1.4.49,2.24.49,1.1,0,2.09-.22,2.97-.66.88-.44,1.58-1.08,2.08-1.9.09-.14.17-.29.24-.43l.08,2.73h1.94v-9.23c0-1.6-.46-2.83-1.36-3.69-.91-.85-2.25-1.28-4.01-1.28s-3.2.41-4.19,1.21c-.99.81-1.56,1.95-1.7,3.43l1.92.27c.09-1.08.45-1.89,1.09-2.43s1.56-.81,2.77-.81c.72,0,1.34.11,1.85.32s.9.55,1.16,1c.26.45.4,1,.42,1.65v.7l-4.64.78c-1.6.29-2.83.81-3.67,1.58-.85.76-1.27,1.72-1.27,2.88,0,.76.18,1.43.55,2.03Zm9.03-3.43c-.07.74-.32,1.37-.73,1.89-.43.56-.99.98-1.66,1.27-.67.29-1.41.43-2.2.43-.92,0-1.62-.21-2.12-.62s-.74-1-.74-1.75c0-.7.27-1.27.81-1.7.54-.43,1.41-.76,2.62-1l4.02-.76v2.24Zm11.5,5.29c1.1,0,2.07-.2,2.9-.61.84-.4,1.51-.96,2.01-1.67.5-.71.82-1.54.94-2.5l-1.92-.32c-.09.7-.3,1.31-.62,1.82-.32.51-.76.9-1.32,1.17-.56.27-1.21.41-1.97.41-1.01,0-1.87-.22-2.58-.65s-1.25-1.07-1.61-1.9c-.36-.84-.54-1.84-.54-3.01s.18-2.22.54-3.04c.36-.82.88-1.44,1.55-1.85s1.5-.63,2.47-.65c1.19,0,2.11.33,2.77,1,.66.67,1.03,1.58,1.12,2.75l1.94-.27c-.09-1.01-.37-1.9-.85-2.69-.48-.78-1.14-1.39-2-1.82-.86-.43-1.86-.65-3.01-.65-1.33-.02-2.5.26-3.5.82-1,.57-1.78,1.4-2.33,2.5-.56,1.1-.84,2.39-.84,3.89s.28,2.81.84,3.89c.56,1.08,1.35,1.91,2.38,2.5s2.23.88,3.62.88Zm10.72-1.53c.29.53.69.91,1.21,1.12s1.16.32,1.92.32c.85,0,1.61-.07,2.29-.22v-1.7c-.68.13-1.31.19-1.89.19-.45,0-.81-.06-1.07-.18-.26-.12-.47-.32-.62-.61-.15-.29-.23-.7-.23-1.24v-8.67h3.92v-1.62h-3.92v-3.65h-2.05v3.65h-2.97v1.62h2.97v8.83c0,.9.14,1.62.43,2.15Zm14.09,1.47c1.3,0,2.46-.29,3.48-.86,1.03-.58,1.83-1.41,2.42-2.5s.88-2.38.88-3.87-.29-2.78-.88-3.86-1.39-1.91-2.42-2.48c-1.03-.58-2.19-.86-3.48-.86s-2.43.29-3.47.86c-1.04.58-1.84,1.4-2.42,2.48-.58,1.08-.86,2.37-.86,3.86s.29,2.79.86,3.87c.58,1.09,1.38,1.92,2.42,2.5,1.04.58,2.19.86,3.47.86Zm0-1.7c-.94,0-1.75-.22-2.44-.65-.69-.43-1.23-1.06-1.61-1.89-.38-.83-.57-1.83-.57-3s.19-2.14.57-2.97c.38-.83.91-1.46,1.61-1.89.69-.43,1.51-.65,2.44-.65.95.02,1.78.24,2.47.66.69.42,1.22,1.05,1.59,1.88.37.83.55,1.82.55,2.97s-.19,2.16-.57,2.98-.91,1.44-1.59,1.88c-.68.43-1.5.66-2.46.67ZM6.97,385.48h3.47v-15.78c.53,1.13,1,2.13,1.41,3,.5,1.1,1.12,2.42,1.88,3.98l4.08,8.8h5.73v-18.56h-3.47v15.43c-.04-.09-.08-.18-.13-.26-.62-1.29-1.08-2.25-1.38-2.89-.3-.64-.77-1.63-1.41-2.97l-4.32-9.31h-5.86v18.56Zm19.9-3.1c.56,1.08,1.36,1.91,2.41,2.49,1.05.58,2.3.88,3.75.88,1.11,0,2.11-.19,2.98-.57s1.6-.91,2.17-1.59.99-1.5,1.23-2.45l-3.26-.48c-.16.78-.47,1.35-.94,1.72-.47.37-1.14.56-2.03.56-.74-.02-1.38-.18-1.92-.49-.54-.31-.95-.79-1.23-1.44-.18-.42-.3-.91-.37-1.46h9.89v-1.41c0-1.34-.28-2.52-.84-3.54s-1.33-1.8-2.31-2.35c-.98-.55-2.11-.82-3.38-.82-1.38,0-2.59.29-3.65.88s-1.87,1.41-2.47,2.49c-.59,1.08-.89,2.33-.89,3.77s.28,2.74.83,3.82Zm3.09-6.2c.25-.65.62-1.15,1.13-1.5s1.14-.52,1.9-.52,1.35.16,1.83.48c.48.32.83.78,1.06,1.38.09.28.16.59.21.93h-6.34c.05-.28.12-.54.21-.77Zm12.62,12.85c.55.66,1.28,1.16,2.19,1.5.91.33,1.98.5,3.22.5,1.41,0,2.63-.26,3.66-.77s1.81-1.24,2.35-2.17c.54-.94.81-2.02.81-3.24l.05-13.07h-3.31l-.11,2.09c-.35-.67-.82-1.21-1.41-1.62-.76-.55-1.74-.82-2.94-.82-1.13,0-2.15.27-3.05.82s-1.61,1.34-2.12,2.37-.77,2.26-.77,3.67.26,2.6.78,3.62c.52,1.02,1.24,1.79,2.16,2.32s1.98.79,3.18.79,2.09-.31,2.84-.93c.48-.39.87-.86,1.17-1.41v2.33c-.02,1.06-.32,1.88-.9,2.47-.58.58-1.39.88-2.41.88-.92,0-1.64-.19-2.17-.58s-.88-.95-1.03-1.67l-3.23.45c.16.97.51,1.79,1.06,2.45Zm8.47-8.52c-.26.62-.63,1.1-1.13,1.44s-1.1.52-1.8.52-1.31-.17-1.8-.52c-.5-.34-.87-.83-1.13-1.46-.26-.63-.38-1.36-.38-2.19-.02-1.29.26-2.31.83-3.06.57-.75,1.4-1.13,2.48-1.13.72,0,1.33.17,1.83.52.5.34.87.83,1.13,1.47.26.64.38,1.38.36,2.23,0,.83-.13,1.56-.38,2.17Zm12.82,5.14c1.38,0,2.61-.29,3.69-.88s1.91-1.41,2.51-2.48c.59-1.07.89-2.32.89-3.75s-.3-2.71-.89-3.78c-.59-1.07-1.43-1.9-2.51-2.48s-2.31-.88-3.69-.88-2.58.29-3.66.86c-1.08.58-1.92,1.4-2.52,2.48s-.9,2.34-.9,3.79.3,2.69.9,3.76,1.44,1.91,2.52,2.48c1.08.57,2.3.86,3.66.86Zm0-2.84c-.71,0-1.31-.16-1.82-.48-.5-.32-.9-.8-1.18-1.45-.28-.64-.42-1.43-.42-2.35s.14-1.72.41-2.36c.27-.64.67-1.12,1.18-1.45.51-.33,1.12-.48,1.83-.46.72.02,1.35.18,1.87.49.52.31.91.78,1.18,1.42.26.64.4,1.42.4,2.36s-.14,1.7-.41,2.33c-.27.64-.67,1.11-1.18,1.43s-1.13.49-1.86.5Zm-1.01-13.02h2.09l3.29-4.3h-4.11l-1.27,4.3Zm16.57,15.96c1.15,0,2.16-.2,3.04-.6.88-.4,1.59-.96,2.15-1.68.56-.72.93-1.57,1.13-2.55l-3.23-.53c-.09.57-.25,1.03-.48,1.41s-.55.65-.95.85c-.41.19-.91.29-1.51.29-.76,0-1.41-.17-1.95-.5-.54-.34-.95-.83-1.22-1.49-.27-.65-.41-1.45-.41-2.39,0-.99.13-1.8.4-2.44.27-.64.65-1.11,1.14-1.42.49-.31,1.11-.46,1.86-.46.94,0,1.64.25,2.12.76.48.5.74,1.17.8,2l3.26-.42c-.09-.99-.39-1.87-.9-2.65-.51-.78-1.22-1.39-2.12-1.83-.9-.44-1.96-.66-3.18-.66-1.38-.02-2.6.27-3.66.85s-1.89,1.41-2.48,2.49c-.59,1.08-.89,2.34-.89,3.79s.3,2.72.89,3.8c.59,1.09,1.43,1.92,2.5,2.51,1.08.58,2.32.88,3.71.88Zm8.46-16.17h3.66v-3.42h-3.66v3.42Zm.08,15.91h3.53v-13.71h-3.53v13.71Zm12.81.16c1.38,0,2.61-.29,3.69-.88s1.91-1.41,2.51-2.48c.59-1.07.89-2.32.89-3.75s-.3-2.71-.89-3.78c-.59-1.07-1.43-1.9-2.51-2.48s-2.31-.88-3.69-.88-2.58.29-3.66.86c-1.08.58-1.92,1.4-2.52,2.48s-.9,2.34-.9,3.79.3,2.69.9,3.76,1.44,1.91,2.52,2.48c1.08.57,2.3.86,3.66.86Zm0-2.84c-.71,0-1.31-.16-1.82-.48-.5-.32-.9-.8-1.18-1.45-.28-.64-.42-1.43-.42-2.35s.14-1.72.41-2.36c.27-.64.67-1.12,1.18-1.45.51-.33,1.12-.48,1.83-.46.72.02,1.35.18,1.87.49.52.31.91.78,1.18,1.42.26.64.4,1.42.4,2.36s-.14,1.7-.41,2.33c-.27.64-.67,1.11-1.18,1.43s-1.13.49-1.86.5Zm67.06,141.08c19.07,0,34.59-13.03,34.59-29.04v-25.87c0-15.54,15.13-28.18,33.73-28.18h30.05s98.06.01,98.06.01c19.07,0,34.59-13.03,34.59-29.04v-25.87c0-15.54,15.13-28.18,33.73-28.18h188.97c19.07,0,34.59-13.03,34.59-29.04v-25.87c0-15.54,15.13-28.18,33.73-28.18h205.76v-.85h-205.76c-19.07,0-34.59,13.03-34.59,29.04v25.87c0,15.54-15.13,28.18-33.73,28.18h-188.97c-19.07,0-34.59,13.03-34.59,29.04v25.87c0,15.54-15.13,28.18-33.73,28.18h-128.11c-19.07-.01-34.59,13.02-34.59,29.03v25.87c0,15.54-15.13,28.18-33.73,28.18H0v.86h167.84Zm64.08-108.7h6.56c1.73,0,3.27-.38,4.63-1.13,1.36-.76,2.42-1.84,3.17-3.27.76-1.42,1.13-3.1,1.13-5.05s-.38-3.63-1.13-5.05c-.76-1.42-1.81-2.51-3.17-3.27-1.36-.76-2.9-1.13-4.63-1.13h-6.56v18.9Zm6.4-1.84h-4.29v-15.23h4.29c1.39,0,2.6.3,3.63.89s1.84,1.46,2.42,2.61c.58,1.14.86,2.52.86,4.12s-.29,2.95-.86,4.09c-.58,1.14-1.38,2.02-2.42,2.62-1.04.6-2.25.9-3.63.9Zm11.77-14.5h2.19v-3.38h-2.19v3.38Zm.08,16.33h2.05v-13.85h-2.05v13.85Zm8.14-18.33c-.69.61-1.04,1.46-1.04,2.54v1.94h-2.84v1.65h2.84v12.2h2.08v-12.2h3.81v-1.65h-3.81v-1.65c0-.7.16-1.21.49-1.54s.84-.49,1.54-.49c.5,0,1.1.05,1.78.16v-1.73c-.68-.11-1.39-.16-2.11-.16-1.13,0-2.05.31-2.74.92Zm7.41,15.24c.52,1.09,1.28,1.92,2.27,2.5s2.17.86,3.54.86c1.1,0,2.07-.19,2.92-.57.85-.38,1.54-.92,2.08-1.62s.91-1.52,1.11-2.46l-1.94-.27c-.18,1.04-.62,1.84-1.31,2.39-.69.55-1.62.82-2.77.82-.99,0-1.83-.21-2.51-.63-.68-.42-1.2-1.05-1.54-1.88-.31-.74-.48-1.62-.51-2.65h10.67v-1c0-1.35-.26-2.53-.77-3.54-.51-1.01-1.24-1.77-2.17-2.29-.94-.52-2.03-.78-3.27-.78s-2.44.29-3.43.86c-.99.58-1.76,1.41-2.31,2.51-.55,1.1-.82,2.38-.82,3.83s.26,2.81.78,3.9Zm1.84-6.9c.34-.83.85-1.46,1.51-1.89s1.47-.65,2.4-.65,1.72.2,2.35.59c.63.4,1.11.98,1.43,1.75.22.56.35,1.21.41,1.94h-8.53c.07-.65.22-1.23.43-1.75Zm12.63,9.99h2.05v-6.99c0-1.21.14-2.2.43-3,.29-.79.71-1.38,1.27-1.75.56-.38,1.23-.57,2.02-.57.49,0,.99.04,1.51.11v-1.89c-.4-.04-.67-.05-.81-.05-1.04,0-1.93.24-2.66.72-.73.48-1.29,1.21-1.69,2.2-.04.11-.08.23-.14.35l-.05-2.97h-1.94v13.85Zm9.45-3.09c.52,1.09,1.28,1.92,2.27,2.5s2.17.86,3.54.86c1.1,0,2.07-.19,2.92-.57.85-.38,1.54-.92,2.08-1.62s.91-1.52,1.11-2.46l-1.94-.27c-.18,1.04-.62,1.84-1.31,2.39-.69.55-1.62.82-2.77.82-.99,0-1.83-.21-2.51-.63-.68-.42-1.2-1.05-1.54-1.88-.31-.74-.48-1.62-.51-2.65h10.67v-1c0-1.35-.26-2.53-.77-3.54-.51-1.01-1.24-1.77-2.17-2.29-.94-.52-2.03-.78-3.27-.78s-2.44.29-3.43.86c-.99.58-1.76,1.41-2.31,2.51-.55,1.1-.82,2.38-.82,3.83s.26,2.81.78,3.9Zm1.84-6.9c.34-.83.85-1.46,1.51-1.89s1.47-.65,2.4-.65,1.72.2,2.35.59c.63.4,1.11.98,1.43,1.75.22.56.35,1.21.41,1.94h-8.53c.07-.65.22-1.23.43-1.75Zm21.06-2.08c.52.31.91.75,1.16,1.34.25.58.38,1.31.38,2.17v8.56h2.02v-8.88c0-1.15-.18-2.12-.55-2.92s-.92-1.39-1.66-1.8c-.74-.4-1.64-.61-2.7-.61-1.15,0-2.15.24-3,.73-.85.49-1.51,1.24-2,2.27-.02.04-.04.07-.05.11l-.08-2.75h-1.94v13.85h2.05v-7.37c0-1.12.18-2.06.55-2.83.37-.77.88-1.35,1.54-1.74s1.41-.58,2.25-.58,1.5.15,2.03.46Zm12.74,12.34c1.1,0,2.07-.2,2.9-.61.84-.4,1.51-.96,2.01-1.67.5-.71.82-1.54.94-2.5l-1.92-.32c-.09.7-.3,1.31-.62,1.82-.32.51-.76.9-1.32,1.17-.56.27-1.21.41-1.97.41-1.01,0-1.87-.22-2.58-.65s-1.25-1.07-1.61-1.9c-.36-.84-.54-1.84-.54-3.01s.18-2.22.54-3.04c.36-.82.88-1.44,1.55-1.85s1.5-.63,2.47-.65c1.19,0,2.11.33,2.77,1,.66.67,1.03,1.58,1.12,2.75l1.94-.27c-.09-1.01-.37-1.9-.85-2.69-.48-.78-1.14-1.39-2-1.82-.86-.43-1.86-.65-3.01-.65-1.33-.02-2.5.26-3.5.82-1,.57-1.78,1.4-2.33,2.5-.56,1.1-.84,2.39-.84,3.89s.28,2.81.84,3.89c.56,1.08,1.35,1.91,2.38,2.5s2.23.88,3.62.88Zm8.56-16.6h2.19v-3.38h-2.19v3.38Zm.08,16.33h2.05v-13.85h-2.05v13.85Zm5.28-1.59c.37.59.88,1.05,1.53,1.38.65.32,1.4.49,2.24.49,1.1,0,2.09-.22,2.97-.66.88-.44,1.58-1.08,2.08-1.9.09-.14.17-.29.24-.43l.08,2.73h1.94v-9.23c0-1.6-.46-2.83-1.36-3.69-.91-.85-2.25-1.28-4.01-1.28s-3.2.41-4.19,1.21c-.99.81-1.56,1.95-1.7,3.43l1.92.27c.09-1.08.45-1.89,1.09-2.43s1.56-.81,2.77-.81c.72,0,1.34.11,1.85.32s.9.55,1.16,1c.26.45.4,1,.42,1.65v.7l-4.64.78c-1.6.29-2.83.81-3.67,1.58-.85.76-1.27,1.72-1.27,2.88,0,.76.18,1.43.55,2.03Zm9.03-3.43c-.07.74-.32,1.37-.73,1.89-.43.56-.99.98-1.66,1.27-.67.29-1.41.43-2.2.43-.92,0-1.62-.21-2.12-.62s-.74-1-.74-1.75c0-.7.27-1.27.81-1.7.54-.43,1.41-.76,2.62-1l4.02-.76v2.24Zm5.4-11.31h2.19v-3.38h-2.19v3.38Zm.08,16.33h2.05v-13.85h-2.05v13.85Zm10.5.27c1.08,0,2.03-.17,2.86-.5.83-.33,1.47-.81,1.93-1.42.46-.61.69-1.32.69-2.13,0-1.1-.31-1.97-.93-2.61-.62-.64-1.54-1.1-2.77-1.39l-2.92-.7c-.45-.11-.82-.25-1.12-.43-.3-.18-.52-.41-.68-.67-.15-.27-.23-.58-.23-.95,0-.45.13-.82.38-1.11s.6-.51,1.05-.66c.45-.15,1-.23,1.65-.23,1.01,0,1.82.22,2.44.65s1,1.18,1.12,2.24l1.94-.32c-.09-.9-.37-1.67-.84-2.31s-1.1-1.12-1.89-1.44-1.72-.49-2.78-.49c-1.64,0-2.9.35-3.79,1.05-.89.7-1.34,1.65-1.34,2.83,0,1.03.31,1.85.92,2.46.61.61,1.49,1.04,2.62,1.3l2.57.59c.63.14,1.12.3,1.47.47.35.17.62.4.8.67s.27.65.27,1.12c0,.77-.31,1.35-.92,1.71-.61.37-1.44.55-2.48.55-1.21,0-2.15-.27-2.82-.81-.68-.54-1.03-1.32-1.07-2.35l-1.94.32c.02.88.27,1.67.76,2.36s1.17,1.23,2.04,1.61,1.88.57,3.01.57Zm93.39-112.04c1.51,0,2.83-.27,3.94-.81,1.12-.54,2.02-1.29,2.7-2.25.68-.96,1.15-2.08,1.4-3.36l-2.13-.35c-.31,1.57-.95,2.78-1.92,3.64-.97.86-2.3,1.3-4,1.3-1.24,0-2.34-.32-3.31-.97-.96-.65-1.71-1.57-2.25-2.75s-.81-2.58-.81-4.18.27-3.02.81-4.21c.54-1.19,1.28-2.09,2.23-2.71.94-.62,2.03-.93,3.25-.93,1.73,0,3.06.42,4.01,1.26s1.56,2.07,1.85,3.71l2.11-.38c-.22-1.33-.66-2.48-1.34-3.44s-1.57-1.7-2.69-2.21-2.43-.77-3.94-.77c-1.67,0-3.15.4-4.44,1.2-1.29.8-2.29,1.94-3.01,3.4s-1.08,3.17-1.08,5.12.37,3.68,1.11,5.14c.74,1.47,1.76,2.6,3.08,3.39,1.31.79,2.79,1.19,4.43,1.19Zm16.33-.05c1.3,0,2.46-.29,3.48-.86,1.03-.58,1.83-1.41,2.42-2.5s.88-2.38.88-3.87-.29-2.78-.88-3.86-1.39-1.91-2.42-2.48c-1.03-.58-2.19-.86-3.48-.86s-2.43.29-3.47.86c-1.04.58-1.84,1.4-2.42,2.48-.58,1.08-.86,2.37-.86,3.86s.29,2.79.86,3.87c.58,1.09,1.38,1.92,2.42,2.5,1.04.58,2.19.86,3.47.86Zm0-1.7c-.94,0-1.75-.22-2.44-.65-.69-.43-1.23-1.06-1.61-1.89-.38-.83-.57-1.83-.57-3s.19-2.14.57-2.97c.38-.83.91-1.46,1.61-1.89.69-.43,1.51-.65,2.44-.65.95.02,1.78.24,2.47.66.69.42,1.22,1.05,1.59,1.88.37.83.55,1.82.55,2.97s-.19,2.16-.57,2.98-.91,1.44-1.59,1.88c-.68.43-1.5.66-2.46.67Zm17.66-10.58c.52.31.91.75,1.16,1.34.25.58.38,1.31.38,2.17v8.56h2.02v-8.88c0-1.15-.18-2.12-.55-2.92s-.92-1.39-1.66-1.8c-.74-.4-1.64-.61-2.7-.61-1.15,0-2.15.24-3,.73-.85.49-1.51,1.24-2,2.27-.02.04-.04.07-.05.11l-.08-2.75h-1.94v13.85h2.05v-7.37c0-1.12.18-2.06.55-2.83.37-.77.88-1.35,1.54-1.74s1.41-.58,2.25-.58,1.5.15,2.03.46Zm6.7,8.98c.52,1.09,1.28,1.92,2.27,2.5s2.17.86,3.54.86c1.1,0,2.07-.19,2.92-.57.85-.38,1.54-.92,2.08-1.62s.91-1.52,1.11-2.46l-1.94-.27c-.18,1.04-.62,1.84-1.31,2.39-.69.55-1.62.82-2.77.82-.99,0-1.83-.21-2.51-.63-.68-.42-1.2-1.05-1.54-1.88-.31-.74-.48-1.62-.51-2.65h10.67v-1c0-1.35-.26-2.53-.77-3.54-.51-1.01-1.24-1.77-2.17-2.29-.94-.52-2.03-.78-3.27-.78s-2.44.29-3.43.86c-.99.58-1.76,1.41-2.31,2.51-.55,1.1-.82,2.38-.82,3.83s.26,2.81.78,3.9Zm1.84-6.9c.34-.83.85-1.46,1.51-1.89s1.47-.65,2.4-.65,1.72.2,2.35.59c.63.4,1.11.98,1.43,1.75.22.56.35,1.21.41,1.94h-8.53c.07-.65.22-1.23.43-1.75Zm16.96,2.89l-5.62,7.1h2.48l4.27-5.64,4.35,5.64h2.35l-5.59-7.24,5.21-6.61h-2.43l-3.89,5.16-4-5.16h-2.35l5.21,6.75Zm9.52,5.51c.37.59.88,1.05,1.53,1.38.65.32,1.4.49,2.24.49,1.1,0,2.09-.22,2.97-.66.88-.44,1.58-1.08,2.08-1.9.09-.14.17-.29.24-.43l.08,2.73h1.94v-9.23c0-1.6-.46-2.83-1.36-3.69-.91-.85-2.25-1.28-4.01-1.28s-3.2.41-4.19,1.21c-.99.81-1.56,1.95-1.7,3.43l1.92.27c.09-1.08.45-1.89,1.09-2.43s1.56-.81,2.77-.81c.72,0,1.34.11,1.85.32s.9.55,1.16,1c.26.45.4,1,.42,1.65v.7l-4.64.78c-1.6.29-2.83.81-3.67,1.58-.85.76-1.27,1.72-1.27,2.88,0,.76.18,1.43.55,2.03Zm7.6-14.63c.76,0,1.33-.28,1.73-.84.4-.56.6-1.21.62-1.97h-1.35c-.02.45-.13.8-.34,1.04-.21.24-.48.36-.82.36-.25,0-.48-.05-.69-.16s-.5-.28-.88-.51c-.4-.25-.74-.44-1.03-.57s-.6-.19-.95-.19c-.76,0-1.34.28-1.74.84-.41.56-.61,1.21-.61,1.97h1.35c0-.43.11-.77.32-1.03.22-.25.5-.38.84-.38.23,0,.46.05.68.15.22.1.49.26.81.47.4.25.74.45,1.04.59.3.14.63.22,1.01.22Zm1.43,11.2c-.07.74-.32,1.37-.73,1.89-.43.56-.99.98-1.66,1.27-.67.29-1.41.43-2.2.43-.92,0-1.62-.21-2.12-.62s-.74-1-.74-1.75c0-.7.27-1.27.81-1.7.54-.43,1.41-.76,2.62-1l4.02-.76v2.24Zm11.45,5.24c1.3,0,2.46-.29,3.48-.86,1.03-.58,1.83-1.41,2.42-2.5s.88-2.38.88-3.87-.29-2.78-.88-3.86-1.39-1.91-2.42-2.48c-1.03-.58-2.19-.86-3.48-.86s-2.43.29-3.47.86c-1.04.58-1.84,1.4-2.42,2.48-.58,1.08-.86,2.37-.86,3.86s.29,2.79.86,3.87c.58,1.09,1.38,1.92,2.42,2.5,1.04.58,2.19.86,3.47.86Zm0-1.7c-.94,0-1.75-.22-2.44-.65-.69-.43-1.23-1.06-1.61-1.89-.38-.83-.57-1.83-.57-3s.19-2.14.57-2.97c.38-.83.91-1.46,1.61-1.89.69-.43,1.51-.65,2.44-.65.95.02,1.78.24,2.47.66.69.42,1.22,1.05,1.59,1.88.37.83.55,1.82.55,2.97s-.19,2.16-.57,2.98-.91,1.44-1.59,1.88c-.68.43-1.5.66-2.46.67Zm-97.25,30.79c.52,1.09,1.28,1.92,2.27,2.5s2.17.86,3.54.86c1.1,0,2.07-.19,2.92-.57.85-.38,1.54-.92,2.08-1.62s.91-1.52,1.11-2.46l-1.94-.27c-.18,1.04-.62,1.84-1.31,2.39-.69.55-1.62.82-2.77.82-.99,0-1.83-.21-2.51-.63-.68-.42-1.2-1.05-1.54-1.88-.31-.74-.48-1.62-.51-2.65h10.67v-1c0-1.35-.26-2.53-.77-3.54-.51-1.01-1.24-1.77-2.17-2.29-.94-.52-2.03-.78-3.27-.78s-2.44.29-3.43.86c-.99.58-1.76,1.41-2.31,2.51-.55,1.1-.82,2.38-.82,3.83s.26,2.81.78,3.9Zm1.84-6.9c.34-.83.85-1.46,1.51-1.89s1.47-.65,2.4-.65,1.72.2,2.35.59c.63.4,1.11.98,1.43,1.75.22.56.35,1.21.41,1.94h-8.53c.07-.65.22-1.23.43-1.75Zm29.82-1.61c.51.62.77,1.58.77,2.88v8.72h2.05v-8.88c0-1.76-.38-3.09-1.15-3.98-.77-.89-1.9-1.34-3.42-1.34-1.13,0-2.09.24-2.86.73-.77.49-1.36,1.23-1.75,2.24-.02.05-.04.12-.05.19-.07-.23-.15-.46-.24-.67-.34-.79-.85-1.4-1.54-1.84-.68-.43-1.53-.65-2.54-.65-1.12,0-2.05.23-2.81.7-.72.47-1.26,1.19-1.62,2.16l-.08-2.51h-1.94v13.85h2.05v-7.8c.02-1.55.33-2.71.94-3.48.63-.83,1.56-1.24,2.78-1.24,1.06,0,1.86.34,2.39,1.03.53.68.8,1.61.8,2.78v8.72h2.08v-7.8c.02-1.53.32-2.69.92-3.48.65-.83,1.57-1.24,2.78-1.24,1.12,0,1.93.31,2.44.93Zm11.92,11.81c1.3,0,2.46-.29,3.48-.86,1.03-.58,1.83-1.41,2.42-2.5s.88-2.38.88-3.87-.29-2.78-.88-3.86-1.39-1.91-2.42-2.48c-1.03-.58-2.19-.86-3.48-.86s-2.43.29-3.47.86c-1.04.58-1.84,1.4-2.42,2.48-.58,1.08-.86,2.37-.86,3.86s.29,2.79.86,3.87c.58,1.09,1.38,1.92,2.42,2.5,1.04.58,2.19.86,3.47.86Zm0-1.7c-.94,0-1.75-.22-2.44-.65-.69-.43-1.23-1.06-1.61-1.89-.38-.83-.57-1.83-.57-3s.19-2.14.57-2.97c.38-.83.91-1.46,1.61-1.89.69-.43,1.51-.65,2.44-.65.95.02,1.78.24,2.47.66.69.42,1.22,1.05,1.59,1.88.37.83.55,1.82.55,2.97s-.19,2.16-.57,2.98-.91,1.44-1.59,1.88c-.68.43-1.5.66-2.46.67Zm15.58,1.75c1.1,0,2.07-.2,2.9-.61.84-.4,1.51-.96,2.01-1.67.5-.71.82-1.54.94-2.5l-1.92-.32c-.09.7-.3,1.31-.62,1.82-.32.51-.76.9-1.32,1.17-.56.27-1.21.41-1.97.41-1.01,0-1.87-.22-2.58-.65s-1.25-1.07-1.61-1.9c-.36-.84-.54-1.84-.54-3.01s.18-2.22.54-3.04c.36-.82.88-1.44,1.55-1.85s1.5-.63,2.47-.65c1.19,0,2.11.33,2.77,1,.66.67,1.03,1.58,1.12,2.75l1.94-.27c-.09-1.01-.37-1.9-.85-2.69-.48-.78-1.14-1.39-2-1.82-.86-.43-1.86-.65-3.01-.65-1.33-.02-2.5.26-3.5.82-1,.57-1.78,1.4-2.33,2.5-.56,1.1-.84,2.39-.84,3.89s.28,2.81.84,3.89c.56,1.08,1.35,1.91,2.38,2.5s2.23.88,3.62.88Zm8.56-16.6h2.19v-3.38h-2.19v3.38Zm.08,16.33h2.05v-13.85h-2.05v13.85Zm11.53.22c1.3,0,2.46-.29,3.48-.86,1.03-.58,1.83-1.41,2.42-2.5s.88-2.38.88-3.87-.29-2.78-.88-3.86-1.39-1.91-2.42-2.48c-1.03-.58-2.19-.86-3.48-.86s-2.43.29-3.47.86c-1.04.58-1.84,1.4-2.42,2.48-.58,1.08-.86,2.37-.86,3.86s.29,2.79.86,3.87c.58,1.09,1.38,1.92,2.42,2.5,1.04.58,2.19.86,3.47.86Zm0-1.7c-.94,0-1.75-.22-2.44-.65-.69-.43-1.23-1.06-1.61-1.89-.38-.83-.57-1.83-.57-3s.19-2.14.57-2.97c.38-.83.91-1.46,1.61-1.89.69-.43,1.51-.65,2.44-.65.95.02,1.78.24,2.47.66.69.42,1.22,1.05,1.59,1.88.37.83.55,1.82.55,2.97s-.19,2.16-.57,2.98-.91,1.44-1.59,1.88c-.68.43-1.5.66-2.46.67Zm17.66-10.58c.52.31.91.75,1.16,1.34.25.58.38,1.31.38,2.17v8.56h2.02v-8.88c0-1.15-.18-2.12-.55-2.92s-.92-1.39-1.66-1.8c-.74-.4-1.64-.61-2.7-.61-1.15,0-2.15.24-3,.73-.85.49-1.51,1.24-2,2.27-.02.04-.04.07-.05.11l-.08-2.75h-1.94v13.85h2.05v-7.37c0-1.12.18-2.06.55-2.83.37-.77.88-1.35,1.54-1.74s1.41-.58,2.25-.58,1.5.15,2.03.46Zm6.41,10.48c.37.59.88,1.05,1.53,1.38.65.32,1.4.49,2.24.49,1.1,0,2.09-.22,2.97-.66.88-.44,1.58-1.08,2.08-1.9.09-.14.17-.29.24-.43l.08,2.73h1.94v-9.23c0-1.6-.46-2.83-1.36-3.69-.91-.85-2.25-1.28-4.01-1.28s-3.2.41-4.19,1.21c-.99.81-1.56,1.95-1.7,3.43l1.92.27c.09-1.08.45-1.89,1.09-2.43s1.56-.81,2.77-.81c.72,0,1.34.11,1.85.32s.9.55,1.16,1c.26.45.4,1,.42,1.65v.7l-4.64.78c-1.6.29-2.83.81-3.67,1.58-.85.76-1.27,1.72-1.27,2.88,0,.76.18,1.43.55,2.03Zm9.03-3.43c-.07.74-.32,1.37-.73,1.89-.43.56-.99.98-1.66,1.27-.67.29-1.41.43-2.2.43-.92,0-1.62-.21-2.12-.62s-.74-1-.74-1.75c0-.7.27-1.27.81-1.7.54-.43,1.41-.76,2.62-1l4.02-.76v2.24Zm5.16,5.02h2.05v-19.17h-2.05v19.17Zm129.03-88.97l-5.89-17.44h-3.64v18.9h2.08v-17.2l5.83,17.2h3.24l5.83-17.2v17.2h2.11v-18.9h-3.67l-5.89,17.44Zm19.36,1.67c1.3,0,2.46-.29,3.48-.86,1.03-.58,1.83-1.41,2.42-2.5s.88-2.38.88-3.87-.29-2.78-.88-3.86-1.39-1.91-2.42-2.48c-1.03-.58-2.19-.86-3.48-.86s-2.43.29-3.47.86c-1.04.58-1.84,1.4-2.42,2.48-.58,1.08-.86,2.37-.86,3.86s.29,2.79.86,3.87c.58,1.09,1.38,1.92,2.42,2.5,1.04.58,2.19.86,3.47.86Zm0-1.7c-.94,0-1.75-.22-2.44-.65-.69-.43-1.23-1.06-1.61-1.89-.38-.83-.57-1.83-.57-3s.19-2.14.57-2.97c.38-.83.91-1.46,1.61-1.89.69-.43,1.51-.65,2.44-.65.95.02,1.78.24,2.47.66.69.42,1.22,1.05,1.59,1.88.37.83.55,1.82.55,2.97s-.19,2.16-.57,2.98-.91,1.44-1.59,1.88c-.68.43-1.5.66-2.46.67Zm9.23,1.49h1.84l.13-2.86c.45.95,1.06,1.7,1.84,2.24.88.59,1.93.89,3.16.89s2.24-.29,3.2-.88,1.72-1.43,2.27-2.52.82-2.39.82-3.88-.27-2.78-.8-3.87c-.53-1.1-1.25-1.93-2.16-2.48-.91-.56-1.95-.84-3.12-.84-1.26,0-2.34.29-3.24.86-.79.5-1.42,1.21-1.89,2.13v-7.96h-2.05v19.17Zm10.54-4.05c-.35.83-.87,1.47-1.55,1.92-.68.45-1.5.67-2.46.67-1.39,0-2.48-.49-3.29-1.47-.81-.98-1.21-2.33-1.21-4.04.02-1.73.43-3.08,1.23-4.06s1.89-1.47,3.28-1.47c.95,0,1.77.22,2.44.66.68.44,1.19,1.08,1.55,1.9s.54,1.81.54,2.94-.18,2.12-.53,2.94Zm5.41-12.29h2.19v-3.38h-2.19v3.38Zm.08,16.33h2.05v-13.85h-2.05v13.85Zm5.26,0h2.05v-19.17h-2.05v19.17Zm5.26-16.33h2.19v-3.38h-2.19v3.38Zm.08,16.33h2.05v-13.85h-2.05v13.85Zm4.64,0h10.64v-1.59h-8.13l8.13-10.85v-1.43h-10.48v1.59h7.99l-8.15,10.85v1.43Zm13.05-1.59c.37.59.88,1.05,1.53,1.38.65.32,1.4.49,2.24.49,1.1,0,2.09-.22,2.97-.66.88-.44,1.58-1.08,2.08-1.9.09-.14.17-.29.24-.43l.08,2.73h1.94v-9.23c0-1.6-.46-2.83-1.36-3.69-.91-.85-2.25-1.28-4.01-1.28s-3.2.41-4.19,1.21c-.99.81-1.56,1.95-1.7,3.43l1.92.27c.09-1.08.45-1.89,1.09-2.43s1.56-.81,2.77-.81c.72,0,1.34.11,1.85.32s.9.55,1.16,1c.26.45.4,1,.42,1.65v.7l-4.64.78c-1.6.29-2.83.81-3.67,1.58-.85.76-1.27,1.72-1.27,2.88,0,.76.18,1.43.55,2.03Zm9.03-3.43c-.07.74-.32,1.37-.73,1.89-.43.56-.99.98-1.66,1.27-.67.29-1.41.43-2.2.43-.92,0-1.62-.21-2.12-.62s-.74-1-.74-1.75c0-.7.27-1.27.81-1.7.54-.43,1.41-.76,2.62-1l4.02-.76v2.24Zm5.51,1.92c.56,1.08,1.35,1.92,2.38,2.51.88.49,1.89.76,3.02.84l-1.32,2.97,1.51-.03c.38,0,.68.08.9.24s.34.41.34.73c.02.32-.09.57-.31.73-.23.16-.55.24-.99.24-.49,0-.99-.04-1.51-.11v1.08c.54.07,1.11.11,1.7.11.81,0,1.44-.18,1.9-.54s.68-.84.66-1.43c-.02-.61-.24-1.09-.67-1.43-.43-.34-1.02-.51-1.75-.51h-.08l.65-2.03c.94-.05,1.76-.25,2.48-.59.83-.41,1.49-.98,2-1.69.5-.71.82-1.54.94-2.5l-1.92-.32c-.09.7-.3,1.31-.62,1.82-.32.51-.76.9-1.32,1.17-.56.27-1.21.41-1.97.41-1.01,0-1.87-.22-2.58-.65s-1.25-1.07-1.61-1.9c-.36-.84-.54-1.84-.54-3.01s.18-2.22.54-3.04c.36-.82.88-1.44,1.55-1.85s1.5-.63,2.47-.65c1.19,0,2.11.33,2.77,1,.66.67,1.03,1.58,1.12,2.75l1.94-.27c-.09-1.01-.37-1.9-.85-2.69-.48-.78-1.14-1.39-2-1.82-.86-.43-1.86-.65-3.01-.65-1.33-.02-2.5.26-3.5.82-1,.57-1.78,1.4-2.33,2.5-.56,1.1-.84,2.39-.84,3.89s.28,2.81.84,3.89Zm14.38,1.51c.37.59.88,1.05,1.53,1.38.65.32,1.4.49,2.24.49,1.1,0,2.09-.22,2.97-.66.88-.44,1.58-1.08,2.08-1.9.09-.14.17-.29.24-.43l.08,2.73h1.94v-9.23c0-1.6-.46-2.83-1.36-3.69-.91-.85-2.25-1.28-4.01-1.28s-3.2.41-4.19,1.21c-.99.81-1.56,1.95-1.7,3.43l1.92.27c.09-1.08.45-1.89,1.09-2.43s1.56-.81,2.77-.81c.72,0,1.34.11,1.85.32s.9.55,1.16,1c.26.45.4,1,.42,1.65v.7l-4.64.78c-1.6.29-2.83.81-3.67,1.58-.85.76-1.27,1.72-1.27,2.88,0,.76.18,1.43.55,2.03Zm7.6-14.63c.76,0,1.33-.28,1.73-.84.4-.56.6-1.21.62-1.97h-1.35c-.02.45-.13.8-.34,1.04-.21.24-.48.36-.82.36-.25,0-.48-.05-.69-.16s-.5-.28-.88-.51c-.4-.25-.74-.44-1.03-.57s-.6-.19-.95-.19c-.76,0-1.34.28-1.74.84-.41.56-.61,1.21-.61,1.97h1.35c0-.43.11-.77.32-1.03.22-.25.5-.38.84-.38.23,0,.46.05.68.15.22.1.49.26.81.47.4.25.74.45,1.04.59.3.14.63.22,1.01.22Zm1.43,11.2c-.07.74-.32,1.37-.73,1.89-.43.56-.99.98-1.66,1.27-.67.29-1.41.43-2.2.43-.92,0-1.62-.21-2.12-.62s-.74-1-.74-1.75c0-.7.27-1.27.81-1.7.54-.43,1.41-.76,2.62-1l4.02-.76v2.24Zm11.45,5.24c1.3,0,2.46-.29,3.48-.86,1.03-.58,1.83-1.41,2.42-2.5s.88-2.38.88-3.87-.29-2.78-.88-3.86-1.39-1.91-2.42-2.48c-1.03-.58-2.19-.86-3.48-.86s-2.43.29-3.47.86c-1.04.58-1.84,1.4-2.42,2.48-.58,1.08-.86,2.37-.86,3.86s.29,2.79.86,3.87c.58,1.09,1.38,1.92,2.42,2.5,1.04.58,2.19.86,3.47.86Zm0-1.7c-.94,0-1.75-.22-2.44-.65-.69-.43-1.23-1.06-1.61-1.89-.38-.83-.57-1.83-.57-3s.19-2.14.57-2.97c.38-.83.91-1.46,1.61-1.89.69-.43,1.51-.65,2.44-.65.95.02,1.78.24,2.47.66.69.42,1.22,1.05,1.59,1.88.37.83.55,1.82.55,2.97s-.19,2.16-.57,2.98-.91,1.44-1.59,1.88c-.68.43-1.5.66-2.46.67ZM9.86,500.08c1.47,0,2.78-.26,3.95-.77,1.17-.51,2.12-1.25,2.85-2.21.73-.96,1.22-2.1,1.47-3.41l-3.53-.56c-.27,1.36-.81,2.35-1.64,2.97-.83.62-1.86.93-3.1.93-.99,0-1.88-.25-2.67-.76-.79-.5-1.41-1.25-1.86-2.23-.45-.98-.68-2.17-.68-3.57s.24-2.66.73-3.63c.49-.97,1.12-1.68,1.91-2.13.79-.45,1.62-.68,2.51-.68,1.25,0,2.29.33,3.12.99.82.66,1.35,1.68,1.58,3.06l3.53-.61c-.16-1.31-.61-2.45-1.34-3.43-.73-.98-1.69-1.73-2.88-2.25s-2.53-.78-4.03-.78c-1.73,0-3.27.39-4.61,1.17-1.34.78-2.4,1.88-3.16,3.31-.76,1.43-1.14,3.1-1.14,5.01s.38,3.66,1.13,5.1c.75,1.44,1.81,2.54,3.17,3.31,1.36.77,2.93,1.15,4.69,1.15Zm16.31-.11c1.38,0,2.61-.29,3.69-.88s1.91-1.41,2.51-2.48c.59-1.07.89-2.32.89-3.75s-.3-2.71-.89-3.78c-.59-1.07-1.43-1.9-2.51-2.48s-2.31-.88-3.69-.88-2.58.29-3.66.86c-1.08.58-1.92,1.4-2.52,2.48s-.9,2.34-.9,3.79.3,2.69.9,3.76,1.44,1.91,2.52,2.48c1.08.57,2.3.86,3.66.86Zm0-2.84c-.71,0-1.31-.16-1.82-.48-.5-.32-.9-.8-1.18-1.45-.28-.64-.42-1.43-.42-2.35s.14-1.72.41-2.36c.27-.64.67-1.12,1.18-1.45.51-.33,1.12-.48,1.83-.46.72.02,1.35.18,1.87.49.52.31.91.78,1.18,1.42.26.64.4,1.42.4,2.36s-.14,1.7-.41,2.33c-.27.64-.67,1.11-1.18,1.43s-1.13.49-1.86.5Zm25.72-7.85c.39.48.58,1.21.58,2.2v8.33h3.53v-8.67c0-1.77-.38-3.11-1.14-4.02-.76-.91-1.9-1.37-3.42-1.37-1.11,0-2.04.25-2.78.74-.69.48-1.22,1.18-1.59,2.09-.04-.12-.08-.25-.13-.37-.35-.81-.87-1.43-1.54-1.84-.67-.42-1.51-.62-2.52-.62-1.11,0-2.01.25-2.7.74-.58.42-1.03,1.05-1.35,1.88l-.16-2.28h-3.31v13.71h3.53v-7.93c0-1.1.22-1.92.66-2.47.48-.57,1.15-.85,2.02-.85.78,0,1.37.25,1.76.74.4.5.6,1.22.6,2.17v8.33h3.53v-7.93c0-1.1.23-1.92.69-2.47.46-.57,1.12-.85,1.99-.85.8,0,1.39.24,1.78.72Zm7.12,8.48c.38.78.93,1.36,1.66,1.75s1.61.58,2.65.58c1.11,0,2.04-.26,2.78-.77.65-.44,1.18-1.09,1.56-1.94l.13,2.41h3.31v-13.71h-3.53v7.4c0,.85-.12,1.55-.34,2.11-.23.56-.57.98-1.01,1.26-.44.28-.96.42-1.56.42-.94,0-1.62-.24-2.05-.73-.43-.49-.65-1.27-.65-2.35v-8.11h-3.53v8.78c0,1.15.19,2.11.57,2.89Zm23.03-8.83c.41.25.71.61.91,1.09.2.48.3,1.08.3,1.8v7.98h3.5v-8.67c0-1.15-.19-2.13-.58-2.93-.39-.8-.95-1.41-1.7-1.83-.74-.42-1.63-.62-2.65-.62-1.13,0-2.09.25-2.86.74-.71.46-1.26,1.12-1.67,1.99l-.16-2.39h-3.31v13.71h3.53v-7.45c0-.83.13-1.53.38-2.09.26-.57.62-.99,1.1-1.27.48-.28,1.03-.42,1.67-.42s1.13.12,1.54.37Zm7.37-5.04h3.66v-3.42h-3.66v3.42Zm.08,15.91h3.53v-13.71h-3.53v13.71Zm12.83.27c1.15,0,2.16-.2,3.04-.6.88-.4,1.59-.96,2.15-1.68.56-.72.93-1.57,1.13-2.55l-3.23-.53c-.09.57-.25,1.03-.48,1.41s-.55.65-.95.85c-.41.19-.91.29-1.51.29-.76,0-1.41-.17-1.95-.5-.54-.34-.95-.83-1.22-1.49-.27-.65-.41-1.45-.41-2.39,0-.99.13-1.8.4-2.44.27-.64.65-1.11,1.14-1.42.49-.31,1.11-.46,1.86-.46.94,0,1.64.25,2.12.76.48.5.74,1.17.8,2l3.26-.42c-.09-.99-.39-1.87-.9-2.65-.51-.78-1.22-1.39-2.12-1.83-.9-.44-1.96-.66-3.18-.66-1.38-.02-2.6.27-3.66.85s-1.89,1.41-2.48,2.49c-.59,1.08-.89,2.34-.89,3.79s.3,2.72.89,3.8c.59,1.09,1.43,1.92,2.5,2.51,1.08.58,2.32.88,3.71.88Zm8.31-1.86c.38.6.91,1.06,1.59,1.38s1.46.48,2.35.48c1.15,0,2.09-.25,2.84-.76s1.3-1.19,1.67-2.05v-.03l.19,2.57h3.31v-8.62c0-1.71-.49-3.05-1.47-4-.98-.95-2.45-1.43-4.41-1.43-1.84,0-3.29.4-4.35,1.21-1.06.8-1.69,1.93-1.88,3.38l3.26.42c.05-.72.32-1.28.81-1.67s1.15-.58,2-.58c.53,0,.99.08,1.37.25s.66.42.85.74.29.73.3,1.21v.24l-4.14.69c-1.63.28-2.84.8-3.65,1.56-.8.76-1.21,1.72-1.21,2.89,0,.81.19,1.52.57,2.12Zm8.42-3.66c-.04.58-.2,1.08-.49,1.5-.29.42-.68.74-1.17.97-.49.23-1.04.34-1.66.34-.67,0-1.18-.15-1.54-.44-.35-.29-.55-.69-.58-1.21,0-.53.19-.95.57-1.26.38-.31,1-.55,1.87-.73l3-.61v1.43Zm6.48,2.13c.59,1.09,1.43,1.92,2.51,2.51.87.48,1.84.76,2.92.85l-1.17,2.97,1.48-.03c.3,0,.53.06.69.17.16.11.25.29.27.54,0,.23-.08.41-.25.53s-.4.19-.7.19c-.51,0-1.03-.02-1.54-.05v1.64c.62.04,1.24.05,1.86.05.92,0,1.64-.21,2.17-.62.53-.42.79-.96.77-1.63-.02-.65-.27-1.18-.77-1.56-.39-.32-.9-.51-1.54-.58l.32-1.62c.81-.07,1.55-.26,2.23-.58.88-.39,1.6-.95,2.16-1.67s.93-1.57,1.13-2.55l-3.23-.53c-.09.57-.25,1.03-.48,1.41-.23.37-.55.65-.96.85-.41.19-.91.29-1.51.29-.76,0-1.41-.17-1.95-.5s-.95-.83-1.22-1.49c-.27-.65-.41-1.45-.41-2.39,0-.99.13-1.8.4-2.44.26-.64.64-1.11,1.14-1.42.5-.31,1.11-.46,1.86-.46.94,0,1.64.25,2.12.76s.74,1.17.79,2l3.26-.42c-.09-.99-.39-1.87-.9-2.65-.51-.78-1.22-1.39-2.12-1.83-.9-.44-1.96-.66-3.18-.66-1.38-.02-2.6.27-3.66.85s-1.89,1.41-2.48,2.49-.89,2.34-.89,3.79.3,2.72.89,3.8Zm14.56,1.52c.38.6.91,1.06,1.59,1.38s1.46.48,2.35.48c1.15,0,2.09-.25,2.84-.76s1.3-1.19,1.67-2.05v-.03l.19,2.57h3.31v-8.62c0-1.71-.49-3.05-1.47-4-.98-.95-2.45-1.43-4.41-1.43-1.84,0-3.29.4-4.35,1.21-1.06.8-1.69,1.93-1.88,3.38l3.26.42c.05-.72.32-1.28.81-1.67s1.15-.58,2-.58c.53,0,.99.08,1.37.25s.66.42.85.74.29.73.3,1.21v.24l-4.14.69c-1.63.28-2.84.8-3.65,1.56-.8.76-1.21,1.72-1.21,2.89,0,.81.19,1.52.57,2.12Zm8.05-14.4c.9,0,1.59-.33,2.05-.99.47-.66.7-1.45.7-2.37h-2.15c0,.37-.09.65-.27.83s-.42.28-.72.28c-.23,0-.44-.04-.62-.12-.19-.08-.45-.21-.78-.38-.39-.21-.73-.38-1.02-.49-.29-.11-.62-.17-.99-.17-.87,0-1.54.34-2.02,1.02s-.72,1.47-.74,2.37h2.15c0-.35.09-.63.28-.83s.43-.31.73-.31c.21,0,.42.04.61.12.19.08.42.21.69.38.41.21.76.38,1.06.49s.65.17,1.03.17Zm.37,10.74c-.04.58-.2,1.08-.49,1.5-.29.42-.68.74-1.17.97-.49.23-1.04.34-1.66.34-.67,0-1.18-.15-1.54-.44-.35-.29-.55-.69-.58-1.21,0-.53.19-.95.57-1.26.38-.31,1-.55,1.87-.73l3-.61v1.43Zm12.7,5.41c1.38,0,2.61-.29,3.69-.88s1.91-1.41,2.51-2.48c.59-1.07.89-2.32.89-3.75s-.3-2.71-.89-3.78c-.59-1.07-1.43-1.9-2.51-2.48s-2.31-.88-3.69-.88-2.58.29-3.66.86c-1.08.58-1.92,1.4-2.52,2.48-.6,1.08-.9,2.34-.9,3.79s.3,2.69.9,3.76c.6,1.08,1.44,1.91,2.52,2.48s2.3.86,3.66.86Zm0-2.84c-.71,0-1.31-.16-1.82-.48s-.9-.8-1.18-1.45c-.28-.64-.42-1.43-.42-2.35s.14-1.72.41-2.36.67-1.12,1.18-1.45c.51-.33,1.12-.48,1.83-.46.72.02,1.35.18,1.87.49.52.31.92.78,1.18,1.42.27.64.4,1.42.4,2.36s-.14,1.7-.41,2.33c-.27.64-.67,1.11-1.18,1.43s-1.13.49-1.86.5Zm77.13,12.1c1.13,0,2.14-.25,3.03-.75.88-.5,1.57-1.21,2.07-2.13.49-.92.74-2,.74-3.24s-.25-2.31-.74-3.23c-.49-.92-1.18-1.63-2.07-2.12-.88-.5-1.89-.75-3.03-.75s-2.16.25-3.04.75c-.88.5-1.57,1.21-2.07,2.12s-.74,1.99-.74,3.23.25,2.32.74,3.24c.49.92,1.18,1.64,2.07,2.13.88.5,1.9.75,3.04.75Zm0-1.96c-.73,0-1.34-.16-1.85-.49-.51-.33-.9-.8-1.16-1.43-.27-.62-.4-1.37-.4-2.23s.13-1.61.4-2.24c.27-.63.65-1.11,1.16-1.44.51-.33,1.13-.5,1.85-.5s1.34.17,1.85.5c.51.33.9.82,1.16,1.44.26.63.39,1.38.39,2.24s-.13,1.62-.39,2.24c-.26.62-.65,1.09-1.16,1.42-.51.33-1.13.49-1.85.49Zm12.38-5.18c.26.16.46.39.59.7.13.31.2.69.2,1.16v5.12h2.24v-5.56c0-.74-.12-1.36-.37-1.88-.25-.52-.61-.91-1.09-1.17-.48-.27-1.04-.4-1.7-.4-.73,0-1.34.16-1.84.48-.45.29-.81.72-1.07,1.28l-.1-1.53h-2.12v8.79h2.26v-4.78c0-.53.08-.98.25-1.34.16-.36.4-.63.71-.82.31-.18.66-.27,1.07-.27s.73.08.99.24Zm4.75,4.99c.32.7.76,1.23,1.33,1.6.56.37,1.2.55,1.93.55.82,0,1.5-.2,2.06-.59.4-.28.72-.64.97-1.07l.08,1.5h2.11v-12.07h-2.26v4.39c-.19-.29-.43-.55-.71-.77-.51-.37-1.17-.56-1.99-.56-.74,0-1.41.18-2.01.55-.61.37-1.09.9-1.45,1.59s-.54,1.5-.54,2.43.16,1.76.48,2.46Zm5.65-.44c-.39.49-.92.74-1.6.74-.45,0-.84-.11-1.17-.33-.33-.22-.58-.54-.76-.95-.18-.41-.26-.9-.26-1.47-.01-.85.18-1.52.57-2,.39-.48.93-.73,1.62-.74.45,0,.84.11,1.17.33.33.22.58.53.76.94s.26.89.26,1.45c-.01.86-.21,1.54-.59,2.03Zm4.51,1.4c.24.38.58.68,1.02.88.44.2.94.31,1.5.31.74,0,1.34-.16,1.82-.48.48-.32.83-.76,1.07-1.32v-.02l.12,1.65h2.12v-5.53c0-1.1-.31-1.96-.94-2.57-.63-.61-1.57-.92-2.83-.92-1.18,0-2.11.26-2.79.77-.68.52-1.08,1.24-1.21,2.17l2.09.27c.03-.46.21-.82.52-1.07.31-.25.74-.37,1.28-.37.34,0,.63.05.88.16.24.11.42.27.54.48s.18.47.2.77v.15l-2.65.44c-1.04.18-1.82.52-2.34,1-.52.49-.77,1.11-.77,1.85,0,.52.12.97.37,1.36Zm5.4-2.35c-.02.37-.13.69-.31.96-.19.27-.44.47-.75.62s-.67.22-1.06.22c-.43,0-.76-.09-.99-.28-.23-.19-.35-.44-.37-.77,0-.34.12-.61.37-.81.24-.2.64-.35,1.2-.47l1.92-.39v.92Zm13.11,3.54c1,0,1.86-.25,2.59-.75.73-.5,1.29-1.2,1.68-2.1.39-.9.59-1.95.59-3.15s-.2-2.24-.59-3.14c-.39-.9-.95-1.6-1.68-2.1-.73-.5-1.6-.75-2.59-.75s-1.85.25-2.58.75c-.74.5-1.3,1.2-1.69,2.1-.39.9-.59,1.95-.59,3.14s.2,2.25.59,3.15c.39.9.96,1.6,1.69,2.1.74.5,1.6.75,2.58.75Zm0-1.85c-.54,0-1.01-.17-1.39-.5-.38-.33-.66-.81-.85-1.44-.19-.62-.28-1.35-.28-2.19s.09-1.59.28-2.21c.19-.62.47-1.1.85-1.44.38-.33.84-.5,1.39-.5s1.01.17,1.39.52.66.83.85,1.45c.19.62.28,1.35.28,2.18s-.09,1.55-.28,2.17c-.19.62-.47,1.1-.85,1.45s-.84.52-1.39.52Zm8.89,1.68h2.28v-11.66h-2.28v1.48h-2.94v1.92h2.94v8.26Zm9.23-3.71h8.4v-1.73h-8.4v1.73Zm15.06,3.71h2.29v-4.42l3.55-.02c.79-.01,1.49-.16,2.08-.45s1.05-.71,1.38-1.27c.32-.56.48-1.24.48-2.05s-.16-1.46-.48-2.01c-.32-.55-.77-.97-1.36-1.25-.59-.28-1.29-.43-2.11-.43h-5.85v11.9Zm5.42-9.95c.65,0,1.14.15,1.49.45.35.3.52.73.52,1.28,0,.59-.17,1.04-.52,1.35s-.84.47-1.49.47h-3.13v-3.55h3.13Zm5.69,9.95h2.26v-4.71c0-.54.07-.99.22-1.33s.36-.59.65-.74c.28-.15.65-.23,1.09-.23.38,0,.78,0,1.17.02v-1.99c-.16-.01-.27-.02-.32-.02-.69-.01-1.26.13-1.71.43-.45.3-.79.75-1.01,1.35-.05.14-.09.28-.14.42l-.09-2.01h-2.12v8.79Zm10.44.1c.88,0,1.67-.19,2.36-.56s1.23-.9,1.61-1.59c.38-.69.57-1.49.57-2.41s-.19-1.74-.57-2.42c-.38-.69-.92-1.21-1.61-1.59s-1.48-.56-2.36-.56-1.66.18-2.35.55-1.23.9-1.61,1.59c-.39.69-.58,1.5-.58,2.43s.19,1.72.58,2.41c.38.69.92,1.22,1.61,1.59s1.47.55,2.35.55Zm0-1.82c-.45,0-.84-.1-1.17-.31-.32-.2-.58-.51-.76-.93-.18-.41-.27-.92-.27-1.5s.09-1.1.26-1.51.43-.72.76-.93c.33-.21.72-.31,1.17-.3.46.01.86.12,1.2.31.33.2.59.5.76.91.17.41.25.91.25,1.51s-.09,1.09-.26,1.5-.43.71-.76.92-.73.31-1.19.32Zm5.96-.26c.32.7.76,1.23,1.33,1.6.56.37,1.2.55,1.93.55.82,0,1.5-.2,2.06-.59.4-.28.72-.64.97-1.07l.08,1.5h2.11v-12.07h-2.26v4.39c-.19-.29-.43-.55-.71-.77-.51-.37-1.17-.56-1.99-.56-.74,0-1.41.18-2.01.55-.61.37-1.09.9-1.45,1.59s-.54,1.5-.54,2.43.16,1.76.48,2.46Zm5.65-.44c-.39.49-.92.74-1.6.74-.45,0-.84-.11-1.17-.33-.33-.22-.58-.54-.76-.95-.18-.41-.26-.9-.26-1.47-.01-.85.18-1.52.57-2,.39-.48.93-.73,1.62-.74.45,0,.84.11,1.17.33.33.22.58.53.76.94s.26.89.26,1.45c-.01.86-.21,1.54-.59,2.03Zm4.84,1.11c.24.5.6.87,1.06,1.12.46.25,1.03.37,1.7.37.71,0,1.31-.16,1.78-.49.42-.28.75-.7,1-1.24l.08,1.55h2.12v-8.79h-2.26v4.74c0,.54-.07.99-.22,1.35-.15.36-.36.63-.65.81-.28.18-.62.27-1,.27-.6,0-1.04-.16-1.32-.47-.28-.31-.42-.81-.42-1.5v-5.2h-2.26v5.63c0,.74.12,1.35.37,1.85Zm10.84.25c.2.37.48.65.84.83.36.18.8.27,1.33.27.68,0,1.34-.02,1.97-.05l-.02-1.82c-.42.03-.82.05-1.19.05-.24,0-.43-.03-.57-.08s-.25-.15-.31-.29c-.07-.14-.1-.33-.1-.57v-4.3h2.21v-1.79h-2.21v-2.24h-2.24v2.24h-1.73v1.79h1.73v4.54c0,.57.1,1.04.3,1.41Zm9.53,1.16c.88,0,1.67-.19,2.36-.56s1.23-.9,1.61-1.59c.38-.69.57-1.49.57-2.41s-.19-1.74-.57-2.42c-.38-.69-.92-1.21-1.61-1.59s-1.48-.56-2.36-.56-1.66.18-2.35.55-1.23.9-1.61,1.59c-.39.69-.58,1.5-.58,2.43s.19,1.72.58,2.41c.38.69.92,1.22,1.61,1.59s1.47.55,2.35.55Zm0-1.82c-.45,0-.84-.1-1.17-.31-.32-.2-.58-.51-.76-.93-.18-.41-.27-.92-.27-1.5s.09-1.1.26-1.51.43-.72.76-.93c.33-.21.72-.31,1.17-.3.46.01.86.12,1.2.31.33.2.59.5.76.91.17.41.25.91.25,1.51s-.09,1.09-.26,1.5-.43.71-.76.92-.73.31-1.19.32Zm76.5,1.77c1.13,0,2.14-.25,3.03-.75.88-.5,1.57-1.21,2.07-2.13.49-.92.74-2,.74-3.24s-.25-2.31-.74-3.23c-.49-.92-1.18-1.63-2.07-2.12-.88-.5-1.89-.75-3.03-.75s-2.16.25-3.04.75c-.88.5-1.57,1.21-2.07,2.12s-.74,1.99-.74,3.23.25,2.32.74,3.24c.49.92,1.18,1.64,2.07,2.13.88.5,1.9.75,3.04.75Zm0-1.96c-.73,0-1.34-.16-1.85-.49-.51-.33-.9-.8-1.16-1.43-.27-.62-.4-1.37-.4-2.23s.13-1.61.4-2.24c.27-.63.65-1.11,1.16-1.44.51-.33,1.13-.5,1.85-.5s1.34.17,1.85.5c.51.33.9.82,1.16,1.44.26.63.39,1.38.39,2.24s-.13,1.62-.39,2.24c-.26.62-.65,1.09-1.16,1.42-.51.33-1.13.49-1.85.49Zm12.38-5.18c.26.16.46.39.59.7.13.31.2.69.2,1.16v5.12h2.24v-5.56c0-.74-.12-1.36-.37-1.88-.25-.52-.61-.91-1.09-1.17-.48-.27-1.04-.4-1.7-.4-.73,0-1.34.16-1.84.48-.45.29-.81.72-1.07,1.28l-.1-1.53h-2.12v8.79h2.26v-4.78c0-.53.08-.98.25-1.34.16-.36.4-.63.71-.82.31-.18.66-.27,1.07-.27s.73.08.99.24Zm4.75,4.99c.32.7.76,1.23,1.33,1.6.56.37,1.2.55,1.93.55.82,0,1.5-.2,2.06-.59.4-.28.72-.64.97-1.07l.08,1.5h2.11v-12.07h-2.26v4.39c-.19-.29-.43-.55-.71-.77-.51-.37-1.17-.56-1.99-.56-.74,0-1.41.18-2.01.55-.61.37-1.09.9-1.45,1.59s-.54,1.5-.54,2.43.16,1.76.48,2.46Zm5.65-.44c-.39.49-.92.74-1.6.74-.45,0-.84-.11-1.17-.33-.33-.22-.58-.54-.76-.95-.18-.41-.26-.9-.26-1.47-.01-.85.18-1.52.57-2,.39-.48.93-.73,1.62-.74.45,0,.84.11,1.17.33.33.22.58.53.76.94s.26.89.26,1.45c-.01.86-.21,1.54-.59,2.03Zm4.51,1.4c.24.38.58.68,1.02.88.44.2.94.31,1.5.31.74,0,1.34-.16,1.82-.48.48-.32.83-.76,1.07-1.32v-.02l.12,1.65h2.12v-5.53c0-1.1-.31-1.96-.94-2.57-.63-.61-1.57-.92-2.83-.92-1.18,0-2.11.26-2.79.77-.68.52-1.08,1.24-1.21,2.17l2.09.27c.03-.46.21-.82.52-1.07.31-.25.74-.37,1.28-.37.34,0,.63.05.88.16.24.11.42.27.54.48s.18.47.2.77v.15l-2.65.44c-1.04.18-1.82.52-2.34,1-.52.49-.77,1.11-.77,1.85,0,.52.12.97.37,1.36Zm5.4-2.35c-.02.37-.13.69-.31.96-.19.27-.44.47-.75.62s-.67.22-1.06.22c-.43,0-.76-.09-.99-.28-.23-.19-.35-.44-.37-.77,0-.34.12-.61.37-.81.24-.2.64-.35,1.2-.47l1.92-.39v.92Zm13.11,3.54c1,0,1.86-.25,2.59-.75.73-.5,1.29-1.2,1.68-2.1.39-.9.59-1.95.59-3.15s-.2-2.24-.59-3.14c-.39-.9-.95-1.6-1.68-2.1-.73-.5-1.6-.75-2.59-.75s-1.85.25-2.58.75c-.74.5-1.3,1.2-1.69,2.1-.39.9-.59,1.95-.59,3.14s.2,2.25.59,3.15c.39.9.96,1.6,1.69,2.1.74.5,1.6.75,2.58.75Zm0-1.85c-.54,0-1.01-.17-1.39-.5-.38-.33-.66-.81-.85-1.44-.19-.62-.28-1.35-.28-2.19s.09-1.59.28-2.21c.19-.62.47-1.1.85-1.44.38-.33.84-.5,1.39-.5s1.01.17,1.39.52.66.83.85,1.45c.19.62.28,1.35.28,2.18s-.09,1.55-.28,2.17c-.19.62-.47,1.1-.85,1.45s-.84.52-1.39.52Zm5.87,1.68h8.69v-1.85h-5.52l1.29-1.07c.15-.11.29-.23.42-.34.82-.66,1.46-1.22,1.93-1.67.47-.46.85-.96,1.14-1.5s.43-1.12.43-1.76c0-.75-.16-1.39-.47-1.94s-.77-.96-1.38-1.25c-.61-.29-1.34-.43-2.18-.43-1.33,0-2.38.36-3.15,1.07s-1.17,1.77-1.18,3.16l2.28.32c-.05-.87.1-1.54.45-2.01s.86-.7,1.54-.7c.37,0,.69.07.95.2.26.14.46.33.59.59s.2.59.2.99-.08.79-.25,1.14c-.16.35-.4.7-.71,1.05s-.71.73-1.21,1.15l-.2.17-3.67,3.03v1.65Zm14.59-3.71h8.4v-1.73h-8.4v1.73Zm15.06,3.71h2.29v-4.42l3.55-.02c.79-.01,1.49-.16,2.08-.45s1.05-.71,1.38-1.27c.32-.56.48-1.24.48-2.05s-.16-1.46-.48-2.01c-.32-.55-.77-.97-1.36-1.25-.59-.28-1.29-.43-2.11-.43h-5.85v11.9Zm5.42-9.95c.65,0,1.14.15,1.49.45.35.3.52.73.52,1.28,0,.59-.17,1.04-.52,1.35s-.84.47-1.49.47h-3.13v-3.55h3.13Zm5.82,7.96c.36.69.87,1.22,1.55,1.6.67.37,1.48.56,2.41.56.71,0,1.35-.12,1.91-.37.56-.24,1.03-.58,1.39-1.02.37-.44.63-.96.79-1.57l-2.09-.31c-.1.5-.3.87-.6,1.1-.3.24-.73.36-1.3.36-.48-.01-.89-.12-1.23-.31s-.61-.51-.79-.93c-.11-.27-.19-.58-.24-.93h6.34v-.9c0-.86-.18-1.62-.54-2.27-.36-.65-.85-1.15-1.48-1.5-.63-.35-1.35-.53-2.17-.53-.88,0-1.66.19-2.34.56-.67.37-1.2.91-1.58,1.6s-.57,1.5-.57,2.41.18,1.76.54,2.45Zm1.98-3.98c.16-.42.4-.74.72-.96.32-.22.73-.33,1.22-.33s.87.1,1.17.31c.31.2.53.5.68.88.06.18.1.38.14.6h-4.06c.03-.18.08-.35.14-.49Zm11.05,6.14c.72,0,1.37-.11,1.94-.34s1.01-.55,1.33-.96c.32-.41.48-.89.48-1.44,0-.78-.22-1.38-.65-1.81-.43-.42-1.08-.73-1.96-.93l-1.6-.36c-.23-.06-.41-.12-.55-.19-.14-.07-.25-.16-.32-.27-.07-.11-.11-.25-.11-.41,0-.19.05-.35.16-.47.11-.12.26-.21.47-.27s.45-.09.75-.09c.46,0,.84.1,1.12.3s.45.53.51.99l2.09-.32c-.08-.54-.27-1.01-.59-1.4-.31-.39-.73-.69-1.27-.9-.53-.21-1.16-.31-1.87-.31-1.11,0-1.98.23-2.6.69-.62.46-.94,1.09-.94,1.9,0,.73.21,1.31.63,1.75.42.44,1.03.74,1.82.9l1.39.27c.33.07.59.14.77.21.19.07.33.17.42.3.1.12.14.28.14.48,0,.35-.14.61-.41.76-.27.16-.65.24-1.12.24-.54,0-.99-.12-1.34-.36-.35-.24-.56-.63-.63-1.17l-2.09.34c.07.59.27,1.1.61,1.54.34.44.8.77,1.39.99.58.23,1.25.34,2.01.34Zm8.53,0c.72,0,1.37-.11,1.94-.34s1.01-.55,1.33-.96c.32-.41.48-.89.48-1.44,0-.78-.22-1.38-.65-1.81-.43-.42-1.08-.73-1.96-.93l-1.6-.36c-.23-.06-.41-.12-.55-.19-.14-.07-.25-.16-.32-.27-.07-.11-.11-.25-.11-.41,0-.19.05-.35.16-.47.11-.12.26-.21.47-.27s.45-.09.75-.09c.46,0,.84.1,1.12.3s.45.53.51.99l2.09-.32c-.08-.54-.27-1.01-.59-1.4-.31-.39-.73-.69-1.27-.9-.53-.21-1.16-.31-1.87-.31-1.11,0-1.98.23-2.6.69-.62.46-.94,1.09-.94,1.9,0,.73.21,1.31.63,1.75.42.44,1.03.74,1.82.9l1.39.27c.33.07.59.14.77.21.19.07.33.17.42.3.1.12.14.28.14.48,0,.35-.14.61-.41.76-.27.16-.65.24-1.12.24-.54,0-.99-.12-1.34-.36-.35-.24-.56-.63-.63-1.17l-2.09.34c.07.59.27,1.1.61,1.54.34.44.8.77,1.39.99.58.23,1.25.34,2.01.34Zm9.11-.07c.88,0,1.67-.19,2.36-.56s1.23-.9,1.61-1.59c.38-.69.57-1.49.57-2.41s-.19-1.74-.57-2.42c-.38-.69-.92-1.21-1.61-1.59s-1.48-.56-2.36-.56-1.66.18-2.35.55-1.23.9-1.61,1.59c-.39.69-.58,1.5-.58,2.43s.19,1.72.58,2.41c.38.69.92,1.22,1.61,1.59s1.47.55,2.35.55Zm0-1.82c-.45,0-.84-.1-1.17-.31-.32-.2-.58-.51-.76-.93-.18-.41-.27-.92-.27-1.5s.09-1.1.26-1.51.43-.72.76-.93c.33-.21.72-.31,1.17-.3.46.01.86.12,1.2.31.33.2.59.5.76.91.17.41.25.91.25,1.51s-.09,1.09-.26,1.5-.43.71-.76.92-.73.31-1.19.32Zm5.84.7c.24.38.58.68,1.02.88.44.2.94.31,1.5.31.74,0,1.34-.16,1.82-.48.48-.32.83-.76,1.07-1.32v-.02l.12,1.65h2.12v-5.53c0-1.1-.31-1.96-.94-2.57-.63-.61-1.57-.92-2.83-.92-1.18,0-2.11.26-2.79.77-.68.52-1.08,1.24-1.21,2.17l2.09.27c.03-.46.21-.82.52-1.07.31-.25.74-.37,1.28-.37.34,0,.63.05.88.16.24.11.42.27.54.48s.18.47.2.77v.15l-2.65.44c-1.04.18-1.82.52-2.34,1-.52.49-.77,1.11-.77,1.85,0,.52.12.97.37,1.36Zm5.4-2.35c-.02.37-.13.69-.31.96-.19.27-.44.47-.75.62s-.67.22-1.06.22c-.43,0-.76-.09-.99-.28-.23-.19-.35-.44-.37-.77,0-.34.12-.61.37-.81.24-.2.64-.35,1.2-.47l1.92-.39v.92Zm7.55,3.54c.72,0,1.37-.11,1.94-.34s1.01-.55,1.33-.96c.32-.41.48-.89.48-1.44,0-.78-.22-1.38-.65-1.81-.43-.42-1.08-.73-1.96-.93l-1.6-.36c-.23-.06-.41-.12-.55-.19-.14-.07-.25-.16-.32-.27-.07-.11-.11-.25-.11-.41,0-.19.05-.35.16-.47.11-.12.26-.21.47-.27s.45-.09.75-.09c.46,0,.84.1,1.12.3s.45.53.51.99l2.09-.32c-.08-.54-.27-1.01-.59-1.4-.31-.39-.73-.69-1.27-.9-.53-.21-1.16-.31-1.87-.31-1.11,0-1.98.23-2.6.69-.62.46-.94,1.09-.94,1.9,0,.73.21,1.31.63,1.75.42.44,1.03.74,1.82.9l1.39.27c.33.07.59.14.77.21.19.07.33.17.42.3.1.12.14.28.14.48,0,.35-.14.61-.41.76-.27.16-.65.24-1.12.24-.54,0-.99-.12-1.34-.36-.35-.24-.56-.63-.63-1.17l-2.09.34c.07.59.27,1.1.61,1.54.34.44.8.77,1.39.99.58.23,1.25.34,2.01.34Zm99.12.12c1.13,0,2.14-.25,3.03-.75.88-.5,1.57-1.21,2.07-2.13.49-.92.74-2,.74-3.24s-.25-2.31-.74-3.23c-.49-.92-1.18-1.63-2.07-2.12-.88-.5-1.89-.75-3.03-.75s-2.16.25-3.04.75c-.88.5-1.57,1.21-2.07,2.12s-.74,1.99-.74,3.23.25,2.32.74,3.24c.49.92,1.18,1.64,2.07,2.13.88.5,1.9.75,3.04.75Zm0-1.96c-.73,0-1.34-.16-1.85-.49-.51-.33-.9-.8-1.16-1.43-.27-.62-.4-1.37-.4-2.23s.13-1.61.4-2.24c.27-.63.65-1.11,1.16-1.44.51-.33,1.13-.5,1.85-.5s1.34.17,1.85.5c.51.33.9.82,1.16,1.44.26.63.39,1.38.39,2.24s-.13,1.62-.39,2.24c-.26.62-.65,1.09-1.16,1.42-.51.33-1.13.49-1.85.49Zm12.38-5.18c.26.16.46.39.59.7.13.31.2.69.2,1.16v5.12h2.24v-5.56c0-.74-.12-1.36-.37-1.88-.25-.52-.61-.91-1.09-1.17-.48-.27-1.04-.4-1.7-.4-.73,0-1.34.16-1.84.48-.45.29-.81.72-1.07,1.28l-.1-1.53h-2.12v8.79h2.26v-4.78c0-.53.08-.98.25-1.34.16-.36.4-.63.71-.82.31-.18.66-.27,1.07-.27s.73.08.99.24Zm4.75,4.99c.32.7.76,1.23,1.33,1.6.56.37,1.2.55,1.93.55.82,0,1.5-.2,2.06-.59.4-.28.72-.64.97-1.07l.08,1.5h2.11v-12.07h-2.26v4.39c-.19-.29-.43-.55-.71-.77-.51-.37-1.17-.56-1.99-.56-.74,0-1.41.18-2.01.55-.61.37-1.09.9-1.45,1.59s-.54,1.5-.54,2.43.16,1.76.48,2.46Zm5.65-.44c-.39.49-.92.74-1.6.74-.45,0-.84-.11-1.17-.33-.33-.22-.58-.54-.76-.95-.18-.41-.26-.9-.26-1.47-.01-.85.18-1.52.57-2,.39-.48.93-.73,1.62-.74.45,0,.84.11,1.17.33.33.22.58.53.76.94s.26.89.26,1.45c-.01.86-.21,1.54-.59,2.03Zm4.51,1.4c.24.38.58.68,1.02.88.44.2.94.31,1.5.31.74,0,1.34-.16,1.82-.48.48-.32.83-.76,1.07-1.32v-.02l.12,1.65h2.12v-5.53c0-1.1-.31-1.96-.94-2.57-.63-.61-1.57-.92-2.83-.92-1.18,0-2.11.26-2.79.77-.68.52-1.08,1.24-1.21,2.17l2.09.27c.03-.46.21-.82.52-1.07.31-.25.74-.37,1.28-.37.34,0,.63.05.88.16.24.11.42.27.54.48s.18.47.2.77v.15l-2.65.44c-1.04.18-1.82.52-2.34,1-.52.49-.77,1.11-.77,1.85,0,.52.12.97.37,1.36Zm5.4-2.35c-.02.37-.13.69-.31.96-.19.27-.44.47-.75.62s-.67.22-1.06.22c-.43,0-.76-.09-.99-.28-.23-.19-.35-.44-.37-.77,0-.34.12-.61.37-.81.24-.2.64-.35,1.2-.47l1.92-.39v.92Zm13.11,3.54c1,0,1.86-.25,2.59-.75.73-.5,1.29-1.2,1.68-2.1.39-.9.59-1.95.59-3.15s-.2-2.24-.59-3.14c-.39-.9-.95-1.6-1.68-2.1-.73-.5-1.6-.75-2.59-.75s-1.85.25-2.58.75c-.74.5-1.3,1.2-1.69,2.1-.39.9-.59,1.95-.59,3.14s.2,2.25.59,3.15c.39.9.96,1.6,1.69,2.1.74.5,1.6.75,2.58.75Zm0-1.85c-.54,0-1.01-.17-1.39-.5-.38-.33-.66-.81-.85-1.44-.19-.62-.28-1.35-.28-2.19s.09-1.59.28-2.21c.19-.62.47-1.1.85-1.44.38-.33.84-.5,1.39-.5s1.01.17,1.39.52.66.83.85,1.45c.19.62.28,1.35.28,2.18s-.09,1.55-.28,2.17c-.19.62-.47,1.1-.85,1.45s-.84.52-1.39.52Zm6.33.14c.36.55.85.97,1.48,1.27.63.3,1.39.45,2.27.45s1.69-.14,2.36-.41c.67-.27,1.19-.66,1.56-1.16s.56-1.08.56-1.73c0-.59-.12-1.1-.36-1.52-.24-.42-.59-.77-1.05-1.03-.28-.16-.61-.29-.97-.41.29-.1.56-.23.8-.37.41-.26.72-.58.93-.97.22-.38.32-.82.32-1.31,0-.67-.17-1.24-.51-1.7s-.82-.81-1.44-1.05c-.62-.23-1.32-.35-2.1-.35-1.25.01-2.27.32-3.06.93-.79.61-1.22,1.48-1.29,2.63l2.24.31c.05-.66.24-1.16.6-1.5.35-.34.84-.51,1.46-.51.54,0,.97.13,1.29.39.32.26.48.65.48,1.16s-.18.86-.53,1.12c-.35.26-.83.39-1.44.39h-.75v1.75h.97c.4,0,.75.07,1.06.2.31.14.56.34.73.6.17.27.26.58.26.94,0,.54-.19.97-.56,1.28s-.88.46-1.51.46c-.67,0-1.19-.2-1.57-.59s-.6-.92-.65-1.58l-2.24.31c.08.78.3,1.45.66,2Zm14.3-2.17h8.4v-1.73h-8.4v1.73Zm15.06,3.71h2.29v-4.42l3.55-.02c.79-.01,1.49-.16,2.08-.45s1.05-.71,1.38-1.27c.32-.56.48-1.24.48-2.05s-.16-1.46-.48-2.01c-.32-.55-.77-.97-1.36-1.25-.59-.28-1.29-.43-2.11-.43h-5.85v11.9Zm5.42-9.95c.65,0,1.14.15,1.49.45.35.3.52.73.52,1.28,0,.59-.17,1.04-.52,1.35s-.84.47-1.49.47h-3.13v-3.55h3.13Zm5.69,9.95h2.26v-4.71c0-.54.07-.99.22-1.33s.36-.59.65-.74c.28-.15.65-.23,1.09-.23.38,0,.78,0,1.17.02v-1.99c-.16-.01-.27-.02-.32-.02-.69-.01-1.26.13-1.71.43-.45.3-.79.75-1.01,1.35-.05.14-.09.28-.14.42l-.09-2.01h-2.12v8.79Zm10.44.1c.88,0,1.67-.19,2.36-.56s1.23-.9,1.61-1.59c.38-.69.57-1.49.57-2.41s-.19-1.74-.57-2.42c-.38-.69-.92-1.21-1.61-1.59s-1.48-.56-2.36-.56-1.66.18-2.35.55-1.23.9-1.61,1.59c-.39.69-.58,1.5-.58,2.43s.19,1.72.58,2.41c.38.69.92,1.22,1.61,1.59s1.47.55,2.35.55Zm0-1.82c-.45,0-.84-.1-1.17-.31-.32-.2-.58-.51-.76-.93-.18-.41-.27-.92-.27-1.5s.09-1.1.26-1.51.43-.72.76-.93c.33-.21.72-.31,1.17-.3.46.01.86.12,1.2.31.33.2.59.5.76.91.17.41.25.91.25,1.51s-.09,1.09-.26,1.5-.43.71-.76.92-.73.31-1.19.32Zm5.88,5.12h2.26v-4.76c.2.37.46.69.78.94.5.4,1.13.59,1.9.59.74-.01,1.41-.2,2.02-.57.61-.37,1.09-.9,1.44-1.6.35-.7.53-1.51.53-2.44s-.16-1.76-.48-2.45c-.32-.69-.76-1.22-1.33-1.58-.57-.36-1.21-.54-1.94-.54-.82,0-1.49.19-2.02.56-.4.28-.71.64-.95,1.07l-.1-1.41h-2.12v12.19Zm6.03-5.81c-.39.49-.93.73-1.61.73-.45,0-.84-.11-1.17-.33s-.57-.54-.74-.95c-.17-.41-.25-.9-.25-1.47,0-.86.19-1.53.57-2.01s.91-.72,1.59-.72,1.21.24,1.61.73c.39.49.59,1.16.59,2.01s-.2,1.54-.59,2.02Zm8.39,2.52c.88,0,1.67-.19,2.36-.56s1.23-.9,1.61-1.59c.38-.69.57-1.49.57-2.41s-.19-1.74-.57-2.42c-.38-.69-.92-1.21-1.61-1.59s-1.48-.56-2.36-.56-1.66.18-2.35.55-1.23.9-1.61,1.59c-.39.69-.58,1.5-.58,2.43s.19,1.72.58,2.41c.38.69.92,1.22,1.61,1.59s1.47.55,2.35.55Zm0-1.82c-.45,0-.84-.1-1.17-.31-.32-.2-.58-.51-.76-.93-.18-.41-.27-.92-.27-1.5s.09-1.1.26-1.51.43-.72.76-.93c.33-.21.72-.31,1.17-.3.46.01.86.12,1.2.31.33.2.59.5.76.91.17.41.25.91.25,1.51s-.09,1.09-.26,1.5-.43.71-.76.92-.73.31-1.19.32Zm-.65-8.35h1.34l2.11-2.75h-2.63l-.82,2.75Zm10.03,10.23c.72,0,1.37-.11,1.94-.34s1.01-.55,1.33-.96c.32-.41.48-.89.48-1.44,0-.78-.22-1.38-.65-1.81-.43-.42-1.08-.73-1.96-.93l-1.6-.36c-.23-.06-.41-.12-.55-.19-.14-.07-.25-.16-.32-.27-.07-.11-.11-.25-.11-.41,0-.19.05-.35.16-.47.11-.12.26-.21.47-.27s.45-.09.75-.09c.46,0,.84.1,1.12.3s.45.53.51.99l2.09-.32c-.08-.54-.27-1.01-.59-1.4-.31-.39-.73-.69-1.27-.9-.53-.21-1.16-.31-1.87-.31-1.11,0-1.98.23-2.6.69-.62.46-.94,1.09-.94,1.9,0,.73.21,1.31.63,1.75.42.44,1.03.74,1.82.9l1.39.27c.33.07.59.14.77.21.19.07.33.17.42.3.1.12.14.28.14.48,0,.35-.14.61-.41.76-.27.16-.65.24-1.12.24-.54,0-.99-.12-1.34-.36-.35-.24-.56-.63-.63-1.17l-2.09.34c.07.59.27,1.1.61,1.54.34.44.8.77,1.39.99.58.23,1.25.34,2.01.34Zm5.03-10.37h2.35v-2.19h-2.35v2.19Zm.05,10.2h2.26v-8.79h-2.26v8.79Zm5.43-1.05c.2.37.48.65.84.83.36.18.8.27,1.33.27.68,0,1.34-.02,1.97-.05l-.02-1.82c-.42.03-.82.05-1.19.05-.24,0-.43-.03-.57-.08s-.25-.15-.31-.29c-.07-.14-.1-.33-.1-.57v-4.3h2.21v-1.79h-2.21v-2.24h-2.24v2.24h-1.73v1.79h1.73v4.54c0,.57.1,1.04.3,1.41Zm9.53,1.16c.88,0,1.67-.19,2.36-.56s1.23-.9,1.61-1.59c.38-.69.57-1.49.57-2.41s-.19-1.74-.57-2.42c-.38-.69-.92-1.21-1.61-1.59s-1.48-.56-2.36-.56-1.66.18-2.35.55-1.23.9-1.61,1.59c-.39.69-.58,1.5-.58,2.43s.19,1.72.58,2.41c.38.69.92,1.22,1.61,1.59s1.47.55,2.35.55Zm0-1.82c-.45,0-.84-.1-1.17-.31-.32-.2-.58-.51-.76-.93-.18-.41-.27-.92-.27-1.5s.09-1.1.26-1.51.43-.72.76-.93c.33-.21.72-.31,1.17-.3.46.01.86.12,1.2.31.33.2.59.5.76.91.17.41.25.91.25,1.51s-.09,1.09-.26,1.5-.43.71-.76.92-.73.31-1.19.32Z"/>
</svg>
